<?xml version="1.0" encoding="UTF-8" standalone="no"?>
<svg
   xmlns:dc="http://purl.org/dc/elements/1.1/"
   xmlns:cc="http://creativecommons.org/ns#"
   xmlns:rdf="http://www.w3.org/1999/02/22-rdf-syntax-ns#"
   xmlns:svg="http://www.w3.org/2000/svg"
   xmlns="http://www.w3.org/2000/svg"
   xmlns:sodipodi="http://sodipodi.sourceforge.net/DTD/sodipodi-0.dtd"
   xmlns:inkscape="http://www.inkscape.org/namespaces/inkscape"
   version="1.0"
   width="154mm"
   height="154mm"
   id="svg13"
   sodipodi:docname="demands.svg"
   inkscape:version="0.92.3 (2405546, 2018-03-11)">
  <metadata
     id="metadata17">
    <rdf:RDF>
      <cc:Work
         rdf:about="">
        <dc:format>image/svg+xml</dc:format>
        <dc:type
           rdf:resource="http://purl.org/dc/dcmitype/StillImage" />
        <dc:title />
      </cc:Work>
    </rdf:RDF>
  </metadata>
  <sodipodi:namedview
     pagecolor="#ffffff"
     bordercolor="#666666"
     borderopacity="1"
     objecttolerance="10"
     gridtolerance="10"
     guidetolerance="10"
     inkscape:pageopacity="0"
     inkscape:pageshadow="2"
     inkscape:window-width="1920"
     inkscape:window-height="1017"
     id="namedview15"
     showgrid="false"
     inkscape:zoom="0.40546537"
     inkscape:cx="-164.00908"
     inkscape:cy="291.02362"
     inkscape:window-x="1272"
     inkscape:window-y="-8"
     inkscape:window-maximized="1"
     inkscape:current-layer="svg13" />
  <defs
     id="defs3">
    <pattern
       id="EMFhbasepattern"
       patternUnits="userSpaceOnUse"
       width="6"
       height="6"
       x="0"
       y="0" />
  </defs>
  <path
     inkscape:connector-curvature="0"
     stroke-opacity="param(outline-opacity)"
     stroke="param(outline) #FFF"
     fill-opacity="param(fill-opacity)"
     fill="param(fill) #000"
     d="m 142.38716,276.78913 c 0,39.77861 32.3601,72.13872 72.18136,72.13872 39.99179,0 72.26662,-32.36011 72.26662,-72.13872 0,-40.03444 -32.27483,-72.39454 -72.26662,-72.39454 -39.82126,0 -72.18136,32.3601 -72.18136,72.39454 z"
     id="path5"
     style="stroke-width:0.53294367" />
  <path
     inkscape:connector-curvature="0"
     style="fill:none;stroke:#000000;stroke-width:8.69757652px;stroke-linecap:round;stroke-linejoin:round;stroke-miterlimit:4;stroke-dasharray:none;stroke-opacity:1"
     d="m 145.24372,277.08757 c 0,38.11585 30.99577,69.11162 69.19689,69.11162 38.15849,0 69.11163,-30.99577 69.11163,-69.11162 0,-38.24375 -30.95314,-69.23952 -69.11163,-69.23952 -38.20112,0 -69.19689,30.99577 -69.19689,69.23952 z"
     id="path7" />
  <path
     inkscape:connector-curvature="0"
     stroke-opacity="param(outline-opacity)"
     stroke="param(outline) #FFF"
     fill-opacity="param(fill-opacity)"
     fill="param(fill) #000"
     d="m 229.02184,276.78913 c 0,39.77861 32.3601,72.13872 72.13872,72.13872 40.03444,0 72.26663,-32.36011 72.26663,-72.13872 0,-40.03444 -32.23219,-72.39454 -72.26663,-72.39454 -39.77862,0 -72.13872,32.3601 -72.13872,72.39454 z"
     id="path9"
     style="stroke-width:0.53294367" />
  <path
     inkscape:connector-curvature="0"
     style="fill:none;stroke:#000000;stroke-width:8.69757652px;stroke-linecap:round;stroke-linejoin:round;stroke-miterlimit:4;stroke-dasharray:none;stroke-opacity:1"
     d="m 231.83576,277.08757 c 0,38.11585 30.99578,69.11162 69.23953,69.11162 38.11585,0 69.11162,-30.99577 69.11162,-69.11162 0,-38.24375 -30.99577,-69.23952 -69.11162,-69.23952 -38.24375,0 -69.23953,30.99577 -69.23953,69.23952 z"
     id="path11" />
</svg>
