<?xml version="1.0" encoding="UTF-8" standalone="no"?>
<svg
   xmlns:dc="http://purl.org/dc/elements/1.1/"
   xmlns:cc="http://creativecommons.org/ns#"
   xmlns:rdf="http://www.w3.org/1999/02/22-rdf-syntax-ns#"
   xmlns:svg="http://www.w3.org/2000/svg"
   xmlns="http://www.w3.org/2000/svg"
   xmlns:sodipodi="http://sodipodi.sourceforge.net/DTD/sodipodi-0.dtd"
   xmlns:inkscape="http://www.inkscape.org/namespaces/inkscape"
   id="svg9"
   height="154mm"
   width="154mm"
   version="1.0"
   sodipodi:docname="valves.svg"
   inkscape:version="0.92.3 (2405546, 2018-03-11)">
  <sodipodi:namedview
     pagecolor="#ffffff"
     bordercolor="#666666"
     borderopacity="1"
     objecttolerance="10"
     gridtolerance="10"
     guidetolerance="10"
     inkscape:pageopacity="0"
     inkscape:pageshadow="2"
     inkscape:window-width="1280"
     inkscape:window-height="961"
     id="namedview8"
     showgrid="false"
     inkscape:zoom="0.40546537"
     inkscape:cx="291.02362"
     inkscape:cy="291.02362"
     inkscape:window-x="-8"
     inkscape:window-y="-8"
     inkscape:window-maximized="1"
     inkscape:current-layer="svg9" />
  <metadata
     id="metadata13">
    <rdf:RDF>
      <cc:Work
         rdf:about="">
        <dc:format>image/svg+xml</dc:format>
        <dc:type
           rdf:resource="http://purl.org/dc/dcmitype/StillImage" />
        <dc:title />
      </cc:Work>
    </rdf:RDF>
  </metadata>
  <defs
     id="defs3">
    <pattern
       y="0"
       x="0"
       height="6"
       width="6"
       patternUnits="userSpaceOnUse"
       id="EMFhbasepattern" />
  </defs>
  <path
     id="path5"
     d="m 115.63246,176.40031 c -6.02613,0.0744 -11.45709,4.91018 -11.53149,11.60588 l -0.59517,101.32836 -0.59518,101.40275 c 0,8.92761 9.67158,14.58176 17.40883,10.11796 l 88.08574,-50.1434 82.2084,-46.86995 81.31563,48.35789 87.11857,51.78012 c 7.66286,4.6126 17.40884,-0.89276 17.55763,-9.82037 l 1.26474,-101.32835 1.26475,-101.40275 c 0.14879,-8.92761 -9.44838,-14.65616 -17.26004,-10.26675 l -88.45772,49.54822 -82.58038,46.34917 -81.76201,-47.83711 -87.49056,-51.18495 c -1.93431,-1.11595 -3.94303,-1.63672 -5.95174,-1.63672 z m 340.06748,34.89207 -1.04155,81.24123 -1.04156,81.16683 -69.85854,-41.43898 -69.78413,-41.51338 70.8257,-39.72785 z"
     fill="param(fill) #000"
     fill-opacity="param(fill-opacity)"
     stroke="param(outline) #FFF"
     stroke-opacity="param(outline-opacity)"
     stroke-width="param(outline-width) 0"
     inkscape:connector-curvature="0" />
  <path
     id="path7"
     d="m 311.51907,291.71525 72.01604,42.77812 72.01604,42.85251 1.11595,-83.84512 -0.96716,-82.20838 c -24.38116,13.65736 -46.74657,25.76495 -71.12328,39.43026 z"
     style="fill:#ffffff;fill-opacity:1;fill-rule:nonzero;stroke:none;stroke-width:0.92996609"
     inkscape:connector-curvature="0" />
</svg>
