<?xml version="1.0" encoding="UTF-8" standalone="no"?>
<!-- Created with Inkscape (http://www.inkscape.org/) -->

<svg
   xmlns:dc="http://purl.org/dc/elements/1.1/"
   xmlns:cc="http://creativecommons.org/ns#"
   xmlns:rdf="http://www.w3.org/1999/02/22-rdf-syntax-ns#"
   xmlns:svg="http://www.w3.org/2000/svg"
   xmlns="http://www.w3.org/2000/svg"
   xmlns:sodipodi="http://sodipodi.sourceforge.net/DTD/sodipodi-0.dtd"
   xmlns:inkscape="http://www.inkscape.org/namespaces/inkscape"
   width="39.632011mm"
   height="10.467383mm"
   viewBox="0 0 39.632011 10.467383"
   version="1.1"
   id="svg894"
   inkscape:version="0.92.3 (2405546, 2018-03-11)"
   sodipodi:docname="IIAMA.svg">
  <defs
     id="defs888" />
  <sodipodi:namedview
     id="base"
     pagecolor="#ffffff"
     bordercolor="#666666"
     borderopacity="1.0"
     inkscape:pageopacity="0.0"
     inkscape:pageshadow="2"
     inkscape:zoom="3.959798"
     inkscape:cx="77.738859"
     inkscape:cy="20.382907"
     inkscape:document-units="mm"
     inkscape:current-layer="layer1"
     showgrid="false"
     fit-margin-top="0"
     fit-margin-left="0"
     fit-margin-right="0"
     fit-margin-bottom="0"
     inkscape:window-width="1920"
     inkscape:window-height="1017"
     inkscape:window-x="1272"
     inkscape:window-y="-8"
     inkscape:window-maximized="1" />
  <metadata
     id="metadata891">
    <rdf:RDF>
      <cc:Work
         rdf:about="">
        <dc:format>image/svg+xml</dc:format>
        <dc:type
           rdf:resource="http://purl.org/dc/dcmitype/StillImage" />
        <dc:title></dc:title>
      </cc:Work>
    </rdf:RDF>
  </metadata>
  <g
     inkscape:label="Capa 1"
     inkscape:groupmode="layer"
     id="layer1"
     transform="translate(381.91719,-157.96274)">
    <g
       transform="matrix(0.35277777,0,0,-0.35277777,-471.70241,262.97868)"
       id="g872">
      <path
         inkscape:connector-curvature="0"
         id="path847"
         style="fill:#006599;fill-opacity:1;fill-rule:nonzero;stroke:none"
         d="m 285.055,284.91 c -41.754,-2.973 -39.883,-14.094 0.601,-16.641 35.071,-1.539 53.774,4.125 53.383,9.016 -3.117,-9.7 -64.777,-10.555 -73.777,-0.954 -1.098,1.176 -0.957,6.672 19.793,8.579 z" />
      <path
         inkscape:connector-curvature="0"
         id="path849"
         style="fill:#006599;fill-opacity:1;fill-rule:nonzero;stroke:none"
         d="m 288.34,281.531 c -13.305,-1.731 -10.016,-5.946 3.976,-6.922 14.829,-1.035 22.672,0.597 26.383,2.148 -8.312,-3.398 -30.601,-2.523 -34.144,1.348 -0.465,0.512 -1.614,1.863 3.785,3.426 z" />
      <path
         inkscape:connector-curvature="0"
         id="path851"
         style="fill:#006599;fill-opacity:1;fill-rule:nonzero;stroke:none"
         d="m 300.391,289.456 c 0.289,-5.144 6.461,-10.773 6.574,-11.304 0.105,-0.524 1.324,0.672 0.004,-0.082 -1.305,-0.746 -11.957,-0.696 -13.262,0 -1.305,0.699 0,-0.407 0,0.082 0,0.5 6.324,6.164 6.684,11.304 z m -0.028,-7.656 c 0.078,-1.453 1.825,-3.039 1.856,-3.191 0.027,-0.149 0.371,0.191 0,-0.024 -0.367,-0.211 -3.375,-0.195 -3.742,0 -0.368,0.2 0,-0.113 0,0.024 0,0.14 1.785,1.742 1.886,3.191 z" />
      <path
         inkscape:connector-curvature="0"
         id="path853"
         style="fill:#006599;fill-opacity:1;fill-rule:nonzero;stroke:none"
         d="m 300.434,290.964 c 1.632,1.266 2.156,2.27 2.273,3.977 0.117,1.695 -0.965,2.57 -2.32,2.57 -1.301,0 -2.309,-0.875 -2.309,-2.566 0,-1.563 0.598,-2.75 2.356,-3.981 z m -0.02,0.621 c 0.805,0.621 1.059,1.114 1.117,1.953 0.059,0.836 -0.476,1.266 -1.136,1.266 -0.645,0 -1.137,-0.434 -1.137,-1.266 0,-0.765 0.293,-1.347 1.156,-1.953 z" />
      <path
         inkscape:connector-curvature="0"
         id="path855"
         style="fill:#006599;fill-opacity:1;fill-rule:nonzero;stroke:none"
         d="m 326.016,296.343 c -0.012,0.395 -0.141,0.711 -0.391,0.957 -0.258,0.254 -0.582,0.383 -0.969,0.383 -0.375,0 -0.687,-0.129 -0.937,-0.383 -0.27,-0.254 -0.406,-0.574 -0.406,-0.957 0,-0.375 0.136,-0.687 0.406,-0.945 0.25,-0.278 0.562,-0.418 0.937,-0.418 0.387,0 0.711,0.14 0.969,0.418 0.25,0.258 0.379,0.57 0.391,0.945 z m -0.278,-2.465 c -1.304,0.035 -2.511,-0.019 -3.629,-0.164 v -1.394 c 0.532,-0.039 1.02,-0.098 1.473,-0.18 v -6.988 h 2.156 z m 5.492,2.465 c -0.011,0.395 -0.14,0.711 -0.386,0.957 -0.258,0.254 -0.586,0.383 -0.969,0.383 -0.379,0 -0.691,-0.129 -0.937,-0.383 -0.274,-0.254 -0.407,-0.574 -0.407,-0.957 0,-0.375 0.133,-0.687 0.407,-0.945 0.246,-0.278 0.558,-0.418 0.937,-0.418 0.383,0 0.711,0.14 0.969,0.418 0.246,0.258 0.375,0.57 0.386,0.945 z m -0.277,-2.465 h -2.156 l 0.004,-1.738 v -6.988 h 2.152 z m 10.504,-8.59 v 1.403 c -0.531,0.047 -1.023,0.105 -1.48,0.179 v 4.149 c 0.011,0.969 -0.223,1.715 -0.711,2.242 -0.508,0.512 -1.434,0.774 -2.77,0.785 -1.121,-0.011 -2.133,-0.187 -3.027,-0.539 l 0.191,-1.871 c 0.801,0.442 1.633,0.668 2.496,0.684 0.61,0 1.039,-0.114 1.293,-0.336 0.239,-0.242 0.356,-0.594 0.356,-1.055 v -0.476 c -1.453,0 -2.617,-0.262 -3.496,-0.786 -0.907,-0.547 -1.368,-1.347 -1.379,-2.394 0.023,-1.496 0.828,-2.258 2.414,-2.293 0.633,0.012 1.187,0.172 1.676,0.473 0.46,0.3 0.804,0.695 1.019,1.187 l 0.016,-0.02 c -0.051,-0.464 -0.082,-0.96 -0.082,-1.484 1.175,-0.035 2.34,0.016 3.484,0.152 z m -3.652,3.504 c 0,-0.543 -0.16,-1.023 -0.481,-1.433 -0.328,-0.434 -0.765,-0.656 -1.328,-0.668 -0.305,0 -0.551,0.09 -0.73,0.265 -0.176,0.164 -0.266,0.387 -0.266,0.668 -0.012,0.36 0.176,0.676 0.555,0.957 0.39,0.27 1.14,0.411 2.25,0.43 z m 18.218,-3.64 v 5.988 c -0.011,1.949 -0.851,2.918 -2.527,2.906 -0.715,-0.011 -1.293,-0.187 -1.746,-0.539 -0.465,-0.355 -0.801,-0.754 -1.004,-1.207 -0.094,0.442 -0.316,0.836 -0.664,1.192 -0.363,0.359 -0.918,0.543 -1.664,0.554 -1.297,-0.023 -2.227,-0.605 -2.785,-1.742 h -0.016 c 0.071,0.57 0.11,1.094 0.11,1.574 -1.2,0.032 -2.372,-0.019 -3.516,-0.164 v -1.386 c 0.527,-0.043 1.019,-0.102 1.473,-0.184 v -6.992 h 2.156 v 4.172 c 0.012,0.843 0.215,1.527 0.613,2.054 0.371,0.524 0.813,0.789 1.324,0.801 0.418,-0.012 0.7,-0.148 0.836,-0.418 0.114,-0.266 0.168,-0.633 0.168,-1.086 v -5.523 h 2.137 v 4.172 c 0.012,0.879 0.223,1.574 0.629,2.086 0.375,0.503 0.808,0.757 1.308,0.769 0.391,0 0.657,-0.129 0.805,-0.383 0.129,-0.269 0.192,-0.644 0.192,-1.121 v -5.523 z m 10.829,0.136 v 1.403 c -0.532,0.047 -1.02,0.105 -1.477,0.179 v 4.149 c 0.012,0.969 -0.223,1.715 -0.711,2.242 -0.508,0.512 -1.434,0.774 -2.769,0.785 -1.125,-0.011 -2.133,-0.187 -3.032,-0.539 l 0.196,-1.871 c 0.8,0.442 1.632,0.668 2.496,0.684 0.605,0 1.039,-0.114 1.293,-0.336 0.238,-0.242 0.355,-0.594 0.355,-1.055 v -0.476 c -1.453,0 -2.617,-0.262 -3.496,-0.786 -0.91,-0.547 -1.367,-1.347 -1.379,-2.394 0.024,-1.496 0.824,-2.258 2.414,-2.293 0.629,0.012 1.188,0.172 1.672,0.473 0.465,0.3 0.809,0.695 1.024,1.187 l 0.015,-0.02 c -0.055,-0.464 -0.082,-0.96 -0.082,-1.484 1.176,-0.035 2.34,0.016 3.481,0.152 z m -3.649,3.504 c 0,-0.543 -0.16,-1.023 -0.48,-1.433 -0.328,-0.434 -0.77,-0.656 -1.328,-0.668 -0.305,0 -0.551,0.09 -0.731,0.265 -0.18,0.164 -0.266,0.387 -0.266,0.668 -0.011,0.36 0.176,0.676 0.555,0.957 0.387,0.27 1.137,0.411 2.25,0.43 z" />
    </g>
  </g>
</svg>
