<?xml version="1.0" encoding="UTF-8" standalone="no"?>
<!-- Created with Inkscape (http://www.inkscape.org/) -->

<svg
   xmlns:dc="http://purl.org/dc/elements/1.1/"
   xmlns:cc="http://creativecommons.org/ns#"
   xmlns:rdf="http://www.w3.org/1999/02/22-rdf-syntax-ns#"
   xmlns:svg="http://www.w3.org/2000/svg"
   xmlns="http://www.w3.org/2000/svg"
   xmlns:sodipodi="http://sodipodi.sourceforge.net/DTD/sodipodi-0.dtd"
   xmlns:inkscape="http://www.inkscape.org/namespaces/inkscape"
   width="132.62404mm"
   height="46.024258mm"
   viewBox="0 0 132.62404 46.024258"
   version="1.1"
   id="svg4658"
   inkscape:version="0.92.3 (2405546, 2018-03-11)"
   sodipodi:docname="REDHISP_2.svg"
   inkscape:export-filename="C:\Users\aguil\Desktop\REDHISP_2.png"
   inkscape:export-xdpi="38.079918"
   inkscape:export-ydpi="38.079918">
  <defs
     id="defs4652" />
  <sodipodi:namedview
     id="base"
     pagecolor="#ffffff"
     bordercolor="#666666"
     borderopacity="1.0"
     inkscape:pageopacity="0.0"
     inkscape:pageshadow="2"
     inkscape:zoom="1.979899"
     inkscape:cx="265.15021"
     inkscape:cy="86.469983"
     inkscape:document-units="mm"
     inkscape:current-layer="g4617"
     showgrid="false"
     fit-margin-top="0"
     fit-margin-left="0"
     fit-margin-right="0"
     fit-margin-bottom="0"
     inkscape:window-width="1920"
     inkscape:window-height="1017"
     inkscape:window-x="1272"
     inkscape:window-y="-8"
     inkscape:window-maximized="1" />
  <metadata
     id="metadata4655">
    <rdf:RDF>
      <cc:Work
         rdf:about="">
        <dc:format>image/svg+xml</dc:format>
        <dc:type
           rdf:resource="http://purl.org/dc/dcmitype/StillImage" />
        <dc:title />
      </cc:Work>
    </rdf:RDF>
  </metadata>
  <g
     inkscape:label="Layer 1"
     inkscape:groupmode="layer"
     id="layer1"
     transform="translate(-19.110597,-38.88668)">
    <g
       transform="translate(-21.510489,-44.780313)"
       id="g4617">
      <g
         id="g5380">
        <g
           transform="matrix(1.7227738,0,0,1.7227738,-124.3145,70.500221)"
           style="fill:#000000"
           id="g4593">
          <text
             transform="scale(0.9798972,1.0205152)"
             id="text4587"
             y="24.830732"
             x="126.57898"
             style="font-style:normal;font-variant:normal;font-weight:normal;font-stretch:normal;font-size:3.70718861px;line-height:1.25;font-family:'Gill Sans MT';-inkscape-font-specification:'Gill Sans MT';letter-spacing:0px;word-spacing:0px;fill:#000000;fill-opacity:1;stroke:none;stroke-width:0.23169929"
             xml:space="preserve"><tspan
               style="font-style:normal;font-variant:normal;font-weight:bold;font-stretch:normal;font-family:Arial;-inkscape-font-specification:'Arial Bold';fill:#000000;fill-opacity:1;stroke-width:0.23169929"
               y="24.830732"
               x="126.57898"
               id="tspan4585"
               sodipodi:role="line">Grupo de Redes Hidráulicas </tspan></text>
          <text
             xml:space="preserve"
             style="font-style:normal;font-variant:normal;font-weight:normal;font-stretch:normal;font-size:3.70718861px;line-height:1.25;font-family:'Gill Sans MT';-inkscape-font-specification:'Gill Sans MT';letter-spacing:0px;word-spacing:0px;fill:#000000;fill-opacity:1;stroke:none;stroke-width:0.23169929"
             x="126.57897"
             y="28.890135"
             id="text4591"
             transform="scale(0.97989721,1.0205152)"><tspan
               sodipodi:role="line"
               id="tspan4589"
               x="126.57897"
               y="28.890135"
               style="font-style:normal;font-variant:normal;font-weight:bold;font-stretch:normal;font-family:Arial;-inkscape-font-specification:'Arial Bold';fill:#000000;fill-opacity:1;stroke-width:0.23169929">y Sistemas a Presión</tspan></text>
        </g>
        <text
           transform="scale(0.92859573,1.0768949)"
           id="text4577"
           y="98.230156"
           x="96.063995"
           style="font-style:normal;font-variant:normal;font-weight:normal;font-stretch:normal;font-size:20.55786705px;line-height:1.25;font-family:'Gill Sans MT';-inkscape-font-specification:'Gill Sans MT';letter-spacing:0px;word-spacing:0px;fill:#000000;fill-opacity:1;stroke:none;stroke-width:1.28486669"
           xml:space="preserve"><tspan
             style="font-style:normal;font-variant:normal;font-weight:bold;font-stretch:normal;font-family:Arial;-inkscape-font-specification:'Arial Bold';fill:#000000;fill-opacity:1;stroke-width:1.28486669"
             y="98.230156"
             x="96.063995"
             id="tspan4575"
             sodipodi:role="line">REDHISP</tspan></text>
        <text
           xml:space="preserve"
           style="font-style:normal;font-variant:normal;font-weight:normal;font-stretch:normal;font-size:20.55786705px;line-height:1.25;font-family:'Gill Sans MT';-inkscape-font-specification:'Gill Sans MT';letter-spacing:0px;word-spacing:0px;fill:#2ba2d2;fill-opacity:1;stroke:none;stroke-width:1.28486669"
           x="95.713379"
           y="97.867363"
           id="text4548"
           transform="scale(0.92859573,1.0768949)"><tspan
             sodipodi:role="line"
             id="tspan4546"
             x="95.713379"
             y="97.867363"
             style="font-style:normal;font-variant:normal;font-weight:bold;font-stretch:normal;font-family:Arial;-inkscape-font-specification:'Arial Bold';fill:#2ba2d2;fill-opacity:1;stroke-width:1.28486669">REDHISP</tspan></text>
        <g
           transform="matrix(1.7227738,0,0,1.7227738,-124.65058,70.16414)"
           id="g4583">
          <text
             xml:space="preserve"
             style="font-style:normal;font-variant:normal;font-weight:normal;font-stretch:normal;font-size:3.70718861px;line-height:1.25;font-family:'Gill Sans MT';-inkscape-font-specification:'Gill Sans MT';letter-spacing:0px;word-spacing:0px;fill:#2ba2d2;fill-opacity:1;stroke:none;stroke-width:0.23169929"
             x="126.57898"
             y="24.830732"
             id="text4552"
             transform="scale(0.9798972,1.0205152)"><tspan
               sodipodi:role="line"
               id="tspan4550"
               x="126.57898"
               y="24.830732"
               style="font-style:normal;font-variant:normal;font-weight:bold;font-stretch:normal;font-family:Arial;-inkscape-font-specification:'Arial Bold';fill:#2ba2d2;fill-opacity:1;stroke-width:0.23169929">Grupo de Redes Hidráulicas </tspan></text>
          <text
             transform="scale(0.97989721,1.0205152)"
             id="text4556"
             y="28.890135"
             x="126.57897"
             style="font-style:normal;font-variant:normal;font-weight:normal;font-stretch:normal;font-size:3.70718861px;line-height:1.25;font-family:'Gill Sans MT';-inkscape-font-specification:'Gill Sans MT';letter-spacing:0px;word-spacing:0px;fill:#2ba2d2;fill-opacity:1;stroke:none;stroke-width:0.23169929"
             xml:space="preserve"><tspan
               style="font-style:normal;font-variant:normal;font-weight:bold;font-stretch:normal;font-family:Arial;-inkscape-font-specification:'Arial Bold';fill:#2ba2d2;fill-opacity:1;stroke-width:0.23169929"
               y="28.890135"
               x="126.57897"
               id="tspan4554"
               sodipodi:role="line">y Sistemas a Presión</tspan></text>
        </g>
        <path
           inkscape:connector-curvature="0"
           id="path4589"
           d="m 82.794187,105.61393 c 2.30028,-2.54686 1.96913,-6.94963 -0.64704,-9.14684 -1.36762,-1.03336 -3.17433,-1.6913 -3.86268,-3.40344 -1.6111,-2.88003 -0.26672,-6.99161 2.76026,-8.33327 -0.0106,-0.053 -0.788337,-0.32691 -1.06876,-0.44478 -2.61143,-0.78047 -5.644411,0.38767 -6.983711,2.77816 -0.87138,1.37155 -0.99392,3.01871 -1.04171,4.59703 -0.0978,2.63162 -2.28686,4.85874 -4.83541,5.28749 -1.47307,0.28598 -3.04347,-0.0172 -4.32979,-0.77506 -0.344247,0.68246 0.23579,1.85353 0.54741,2.58147 1.27344,2.22538 4.067021,3.52606 6.45499,3.11216 1.637971,-0.2839 3.0185,-1.64065 4.5931,-1.94303 1.534601,-0.2707 3.140711,0.0696 4.432011,0.98485 1.7757,1.12927 2.8897,3.17127 2.90033,5.27097 0.39697,-0.0376 0.843426,-0.31505 1.08104,-0.56567 z"
           style="fill:#000000;fill-opacity:1;stroke-width:0.13039953"
           sodipodi:nodetypes="ccccccccccsccccc" />
        <path
           sodipodi:nodetypes="ccccccccccsccccc"
           style="fill:#2ba2d2;fill-opacity:1;stroke-width:0.13039953"
           d="m 82.250846,105.23596 c 2.30028,-2.54686 1.96913,-6.949631 -0.64704,-9.146841 -1.36762,-1.03336 -3.17433,-1.6913 -3.86268,-3.40344 -1.6111,-2.88003 -0.26672,-6.99161 2.76026,-8.33327 -0.0106,-0.053 -0.788337,-0.32691 -1.06876,-0.44478 -2.61143,-0.78047 -5.644411,0.38767 -6.983711,2.77816 -0.87138,1.37155 -0.99392,3.01871 -1.04171,4.59703 -0.0978,2.63162 -2.28686,4.85874 -4.83541,5.28749 -1.47307,0.28598 -3.04347,-0.0172 -4.32979,-0.77506 -0.344247,0.68246 0.23579,1.85353 0.54741,2.58147 1.27344,2.225381 4.067021,3.526061 6.45499,3.112161 1.637971,-0.2839 3.0185,-1.640651 4.5931,-1.943031 1.534601,-0.2707 3.140711,0.0696 4.432011,0.984851 1.7757,1.12927 2.8897,3.17127 2.90033,5.27097 0.39697,-0.0376 0.843426,-0.31505 1.08104,-0.56567 z"
           id="path4562"
           inkscape:connector-curvature="0" />
        <path
           sodipodi:nodetypes="ccccccccccsccccc"
           style="fill:#000000;fill-opacity:1;stroke-width:0.13039953"
           d="m 61.27899,116.83925 c 2.30028,-2.54686 1.96913,-6.94963 -0.64704,-9.14684 -1.36762,-1.03336 -3.17433,-1.6913 -3.86268,-3.40344 -1.6111,-2.88003 -0.26672,-6.99161 2.76026,-8.33327 -0.0106,-0.053 -0.788337,-0.32691 -1.06876,-0.44478 -2.61143,-0.78047 -5.644411,0.38767 -6.983711,2.77816 -0.87138,1.37155 -0.99392,3.01871 -1.04171,4.59703 -0.0978,2.63162 -2.28686,4.85874 -4.83541,5.28749 -1.47307,0.28598 -3.04347,-0.0172 -4.32979,-0.77506 -0.344247,0.68246 0.23579,1.85353 0.54741,2.58147 1.27344,2.22538 4.067021,3.52606 6.45499,3.11216 1.637971,-0.2839 3.0185,-1.64065 4.5931,-1.94303 1.534601,-0.2707 3.140711,0.0696 4.432011,0.98485 1.7757,1.12927 2.8897,3.17127 2.90033,5.27097 0.39697,-0.0376 0.843426,-0.31505 1.08104,-0.56567 z"
           id="path4596"
           inkscape:connector-curvature="0" />
        <path
           inkscape:connector-curvature="0"
           id="path4598"
           d="m 60.735649,116.46128 c 2.30028,-2.54686 1.96913,-6.94963 -0.64704,-9.14684 -1.36762,-1.03336 -3.17433,-1.6913 -3.86268,-3.40344 -1.6111,-2.88003 -0.26672,-6.991611 2.76026,-8.333271 -0.0106,-0.053 -0.788337,-0.32691 -1.06876,-0.44478 -2.61143,-0.78047 -5.644411,0.38767 -6.983711,2.77816 -0.87138,1.37155 -0.99392,3.018711 -1.04171,4.597031 -0.0978,2.63162 -2.28686,4.85874 -4.83541,5.28749 -1.47307,0.28598 -3.04347,-0.0172 -4.32979,-0.77506 -0.344247,0.68246 0.23579,1.85353 0.54741,2.58147 1.27344,2.22538 4.067021,3.52606 6.45499,3.11216 1.637971,-0.2839 3.0185,-1.64065 4.5931,-1.94303 1.534601,-0.2707 3.140711,0.0696 4.432011,0.98485 1.7757,1.12927 2.8897,3.17127 2.90033,5.27097 0.39697,-0.0376 0.843426,-0.31505 1.08104,-0.56567 z"
           style="fill:#2ba2d2;fill-opacity:1;stroke-width:0.13039953"
           sodipodi:nodetypes="ccccccccccsccccc" />
        <path
           sodipodi:nodetypes="ccccccccccsccccc"
           style="fill:#000000;fill-opacity:1;stroke-width:0.13039953"
           d="m 82.794187,129.23744 c 2.30028,-2.54686 1.96913,-6.94963 -0.64704,-9.14684 -1.36762,-1.03336 -3.17433,-1.6913 -3.86268,-3.40344 -1.6111,-2.88003 -0.26672,-6.99161 2.76026,-8.33327 -0.0106,-0.053 -0.788337,-0.32691 -1.06876,-0.44478 -2.61143,-0.78047 -5.644411,0.38767 -6.983711,2.77816 -0.87138,1.37155 -0.99392,3.01871 -1.04171,4.59703 -0.0978,2.63162 -2.28686,4.85874 -4.83541,5.28749 -1.47307,0.28598 -3.04347,-0.0172 -4.32979,-0.77506 -0.344247,0.68246 0.23579,1.85353 0.54741,2.58147 1.27344,2.22538 4.067021,3.52606 6.45499,3.11216 1.637971,-0.2839 3.0185,-1.64065 4.5931,-1.94303 1.534601,-0.2707 3.140711,0.0696 4.432011,0.98485 1.7757,1.12927 2.8897,3.17127 2.90033,5.27097 0.39697,-0.0376 0.843426,-0.31505 1.08104,-0.56567 z"
           id="path5356"
           inkscape:connector-curvature="0" />
        <path
           inkscape:connector-curvature="0"
           id="path5358"
           d="m 82.250846,128.85947 c 2.30028,-2.54686 1.96913,-6.94963 -0.64704,-9.14684 -1.36762,-1.03336 -3.17433,-1.6913 -3.86268,-3.40344 -1.6111,-2.88003 -0.26672,-6.99161 2.76026,-8.33327 -0.0106,-0.053 -0.788337,-0.32691 -1.06876,-0.44478 -2.61143,-0.78047 -5.644411,0.38767 -6.983711,2.77816 -0.87138,1.37155 -0.99392,3.01871 -1.04171,4.59703 -0.0978,2.63162 -2.28686,4.85874 -4.83541,5.28749 -1.47307,0.28598 -3.04347,-0.0172 -4.32979,-0.77506 -0.344247,0.68246 0.23579,1.85353 0.54741,2.58147 1.27344,2.22538 4.067021,3.52606 6.45499,3.11216 1.637971,-0.2839 3.0185,-1.64065 4.5931,-1.94303 1.534601,-0.2707 3.140711,0.0696 4.432011,0.98485 1.7757,1.12927 2.8897,3.17127 2.90033,5.27097 0.39697,-0.0376 0.843426,-0.31505 1.08104,-0.56567 z"
           style="fill:#2ba2d2;fill-opacity:1;stroke-width:0.13039953"
           sodipodi:nodetypes="ccccccccccsccccc" />
      </g>
    </g>
  </g>
</svg>
