<svg xmlns="http://www.w3.org/2000/svg" viewBox="0 0 32 32">
<path fill="#5FBCD7" fill-opacity="0.004" d="M 18.000 20.000 L 19.000 20.000 L 19.000 21.000 L 18.000 21.000 Z" fill-rule="evenodd"/>
<path fill="#60BCD3" fill-opacity="0.004" d="M 16.000 9.000 L 17.000 9.000 L 17.000 10.000 L 16.000 10.000 Z M 6.000 10.000 L 7.000 10.000 L 7.000 11.000 L 6.000 11.000 Z" fill-rule="evenodd"/>
<path fill="#7FA828" fill-opacity="0.004" d="M 26.000 15.000 L 27.000 15.000 L 27.000 16.000 L 26.000 16.000 Z" fill-rule="evenodd"/>
<path fill="#85A406" fill-opacity="0.004" d="M 20.000 21.000 L 21.000 21.000 L 21.000 22.000 L 20.000 22.000 Z" fill-rule="evenodd"/>
<path fill="#60BCD3" fill-opacity="0.008" d="M 15.000 5.000 L 16.000 5.000 L 16.000 6.000 L 15.000 6.000 Z" fill-rule="evenodd"/>
<path fill="#82A617" fill-opacity="0.012" d="M 20.000 17.000 L 21.000 17.000 L 21.000 18.000 L 20.000 18.000 Z" fill-rule="evenodd"/>
<path fill="#5BBFED" fill-opacity="0.016" d="M 20.000 16.000 L 21.000 16.000 L 21.000 17.000 L 20.000 17.000 Z" fill-rule="evenodd"/>
<path fill="#60BCD3" fill-opacity="0.016" d="M 7.000 17.000 L 8.000 17.000 L 8.000 18.000 L 7.000 18.000 Z" fill-rule="evenodd"/>
<path fill="#7FA828" fill-opacity="0.016" d="M 30.000 20.000 L 31.000 20.000 L 31.000 21.000 L 30.000 21.000 Z" fill-rule="evenodd"/>
<path fill="#83A511" fill-opacity="0.016" d="M 24.000 23.000 L 25.000 23.000 L 25.000 24.000 L 24.000 24.000 Z" fill-rule="evenodd"/>
<path fill="#5DBEE5" fill-opacity="0.020" d="M 20.000 22.000 L 21.000 22.000 L 21.000 23.000 L 20.000 23.000 Z" fill-rule="evenodd"/>
<path fill="#60BCD3" fill-opacity="0.020" d="M 5.000 11.000 L 6.000 11.000 L 6.000 12.000 L 5.000 12.000 Z M 5.000 12.000 L 6.000 12.000 L 6.000 13.000 L 5.000 13.000 Z M 7.000 13.000 L 8.000 13.000 L 8.000 14.000 L 7.000 14.000 Z M 9.000 13.000 L 10.000 13.000 L 10.000 14.000 L 9.000 14.000 Z M 5.000 15.000 L 6.000 15.000 L 6.000 16.000 L 5.000 16.000 Z M 9.000 17.000 L 10.000 17.000 L 10.000 18.000 L 9.000 18.000 Z M 5.000 18.000 L 6.000 18.000 L 6.000 19.000 L 5.000 19.000 Z M 5.000 19.000 L 6.000 19.000 L 6.000 20.000 L 5.000 20.000 Z M 9.000 20.000 L 10.000 20.000 L 10.000 21.000 L 9.000 21.000 Z M 5.000 22.000 L 6.000 22.000 L 6.000 23.000 L 5.000 23.000 Z" fill-rule="evenodd"/>
<path fill="#60BCD3" fill-opacity="0.024" d="M 6.000 5.000 L 15.000 5.000 L 15.000 6.000 L 6.000 6.000 Z M 23.000 6.000 L 24.000 6.000 L 24.000 7.000 L 23.000 7.000 Z" fill-rule="evenodd"/>
<path fill="#7FA828" fill-opacity="0.024" d="M 30.000 18.000 L 31.000 18.000 L 31.000 19.000 L 30.000 19.000 Z" fill-rule="evenodd"/>
<path fill="#57C2FF" fill-opacity="0.027" d="M 23.000 23.000 L 24.000 23.000 L 24.000 24.000 L 23.000 24.000 Z" fill-rule="evenodd"/>
<path fill="#5BC0F1" fill-opacity="0.027" d="M 23.000 15.000 L 24.000 15.000 L 24.000 16.000 L 23.000 16.000 Z" fill-rule="evenodd"/>
<path fill="#60BCD3" fill-opacity="0.027" d="M 19.000 2.000 L 20.000 2.000 L 20.000 3.000 L 19.000 3.000 Z M 5.000 14.000 L 6.000 14.000 L 6.000 15.000 L 5.000 15.000 Z M 5.000 16.000 L 6.000 16.000 L 6.000 17.000 L 5.000 17.000 Z M 7.000 20.000 L 8.000 20.000 L 8.000 21.000 L 7.000 21.000 Z M 5.000 21.000 L 6.000 21.000 L 6.000 22.000 L 5.000 22.000 Z M 5.000 23.000 L 6.000 23.000 L 6.000 24.000 L 5.000 24.000 Z M 5.000 26.000 L 6.000 26.000 L 6.000 27.000 L 5.000 27.000 Z" fill-rule="evenodd"/>
<path fill="#7FA828" fill-opacity="0.027" d="M 25.000 23.000 L 26.000 23.000 L 26.000 24.000 L 25.000 24.000 Z" fill-rule="evenodd"/>
<path fill="#82A61A" fill-opacity="0.027" d="M 24.000 15.000 L 25.000 15.000 L 25.000 16.000 L 24.000 16.000 Z" fill-rule="evenodd"/>
<path fill="#60BCD3" fill-opacity="0.031" d="M 5.000 6.000 L 6.000 6.000 L 6.000 7.000 L 5.000 7.000 Z M 5.000 7.000 L 6.000 7.000 L 6.000 8.000 L 5.000 8.000 Z M 5.000 8.000 L 6.000 8.000 L 6.000 9.000 L 5.000 9.000 Z M 5.000 9.000 L 6.000 9.000 L 6.000 10.000 L 5.000 10.000 Z M 5.000 10.000 L 6.000 10.000 L 6.000 11.000 L 5.000 11.000 Z M 7.000 10.000 L 8.000 10.000 L 8.000 11.000 L 7.000 11.000 Z M 5.000 13.000 L 6.000 13.000 L 6.000 14.000 L 5.000 14.000 Z M 5.000 17.000 L 6.000 17.000 L 6.000 18.000 L 5.000 18.000 Z M 5.000 20.000 L 6.000 20.000 L 6.000 21.000 L 5.000 21.000 Z M 5.000 24.000 L 6.000 24.000 L 6.000 25.000 L 5.000 25.000 Z M 5.000 25.000 L 6.000 25.000 L 6.000 26.000 L 5.000 26.000 Z M 23.000 28.000 L 24.000 28.000 L 24.000 29.000 L 23.000 29.000 Z" fill-rule="evenodd"/>
<path fill="#60BCD3" fill-opacity="0.035" d="M 2.000 3.000 L 3.000 3.000 L 3.000 4.000 L 2.000 4.000 Z M 9.000 10.000 L 10.000 10.000 L 10.000 11.000 L 9.000 11.000 Z M 17.000 13.000 L 18.000 13.000 L 18.000 14.000 L 17.000 14.000 Z M 17.000 17.000 L 18.000 17.000 L 18.000 18.000 L 17.000 18.000 Z" fill-rule="evenodd"/>
<path fill="#7FA828" fill-opacity="0.035" d="M 25.000 15.000 L 26.000 15.000 L 26.000 16.000 L 25.000 16.000 Z" fill-rule="evenodd"/>
<path fill="#60BCD3" fill-opacity="0.039" d="M 3.000 2.000 L 4.000 2.000 L 4.000 3.000 L 3.000 3.000 Z M 17.000 20.000 L 18.000 20.000 L 18.000 21.000 L 17.000 21.000 Z" fill-rule="evenodd"/>
<path fill="#7FA828" fill-opacity="0.039" d="M 28.000 22.000 L 29.000 22.000 L 29.000 23.000 L 28.000 23.000 Z" fill-rule="evenodd"/>
<path fill="#60BCD3" fill-opacity="0.043" d="M 20.000 10.000 L 21.000 10.000 L 21.000 11.000 L 20.000 11.000 Z M 10.000 13.000 L 17.000 13.000 L 17.000 14.000 L 10.000 14.000 Z M 10.000 17.000 L 17.000 17.000 L 17.000 18.000 L 10.000 18.000 Z M 11.000 20.000 L 17.000 20.000 L 17.000 21.000 L 11.000 21.000 Z" fill-rule="evenodd"/>
<path fill="#7FA828" fill-opacity="0.043" d="M 28.000 16.000 L 29.000 16.000 L 29.000 17.000 L 28.000 17.000 Z" fill-rule="evenodd"/>
<path fill="#60BCD3" fill-opacity="0.047" d="M 10.000 20.000 L 11.000 20.000 L 11.000 21.000 L 10.000 21.000 Z M 2.000 28.000 L 3.000 28.000 L 3.000 29.000 L 2.000 29.000 Z" fill-rule="evenodd"/>
<path fill="#7FA828" fill-opacity="0.047" d="M 25.000 18.000 L 26.000 18.000 L 26.000 19.000 L 25.000 19.000 Z" fill-rule="evenodd"/>
<path fill="#60BCD3" fill-opacity="0.051" d="M 17.000 10.000 L 18.000 10.000 L 18.000 11.000 L 17.000 11.000 Z M 20.000 11.000 L 21.000 11.000 L 21.000 12.000 L 20.000 12.000 Z M 20.000 12.000 L 21.000 12.000 L 21.000 13.000 L 20.000 13.000 Z M 20.000 13.000 L 21.000 13.000 L 21.000 14.000 L 20.000 14.000 Z M 20.000 14.000 L 21.000 14.000 L 21.000 15.000 L 20.000 15.000 Z M 20.000 26.000 L 21.000 26.000 L 21.000 27.000 L 20.000 27.000 Z" fill-rule="evenodd"/>
<path fill="#60BCD3" fill-opacity="0.055" d="M 5.000 5.000 L 6.000 5.000 L 6.000 6.000 L 5.000 6.000 Z M 20.000 15.000 L 21.000 15.000 L 21.000 16.000 L 20.000 16.000 Z M 20.000 24.000 L 21.000 24.000 L 21.000 25.000 L 20.000 25.000 Z M 20.000 25.000 L 21.000 25.000 L 21.000 26.000 L 20.000 26.000 Z" fill-rule="evenodd"/>
<path fill="#60BCD3" fill-opacity="0.059" d="M 20.000 23.000 L 21.000 23.000 L 21.000 24.000 L 20.000 24.000 Z" fill-rule="evenodd"/>
<path fill="#60BCD3" fill-opacity="0.063" d="M 10.000 10.000 L 17.000 10.000 L 17.000 11.000 L 10.000 11.000 Z" fill-rule="evenodd"/>
<path fill="#60BCD3" fill-opacity="0.067" d="M 20.000 3.000 L 21.000 3.000 L 21.000 4.000 L 20.000 4.000 Z M 23.000 7.000 L 24.000 7.000 L 24.000 8.000 L 23.000 8.000 Z M 23.000 8.000 L 24.000 8.000 L 24.000 9.000 L 23.000 9.000 Z M 23.000 9.000 L 24.000 9.000 L 24.000 10.000 L 23.000 10.000 Z M 23.000 10.000 L 24.000 10.000 L 24.000 11.000 L 23.000 11.000 Z M 23.000 11.000 L 24.000 11.000 L 24.000 12.000 L 23.000 12.000 Z M 23.000 12.000 L 24.000 12.000 L 24.000 13.000 L 23.000 13.000 Z M 23.000 13.000 L 24.000 13.000 L 24.000 14.000 L 23.000 14.000 Z M 8.000 21.000 L 9.000 21.000 L 9.000 22.000 L 8.000 22.000 Z M 23.000 24.000 L 24.000 24.000 L 24.000 25.000 L 23.000 25.000 Z M 23.000 25.000 L 24.000 25.000 L 24.000 26.000 L 23.000 26.000 Z" fill-rule="evenodd"/>
<path fill="#60BCD4" fill-opacity="0.067" d="M 23.000 14.000 L 24.000 14.000 L 24.000 15.000 L 23.000 15.000 Z" fill-rule="evenodd"/>
<path fill="#60BCD3" fill-opacity="0.071" d="M 23.000 26.000 L 24.000 26.000 L 24.000 27.000 L 23.000 27.000 Z M 23.000 27.000 L 24.000 27.000 L 24.000 28.000 L 23.000 28.000 Z" fill-rule="evenodd"/>
<path fill="#60BCD3" fill-opacity="0.075" d="M 21.000 4.000 L 22.000 4.000 L 22.000 5.000 L 21.000 5.000 Z M 8.000 16.000 L 9.000 16.000 L 9.000 17.000 L 8.000 17.000 Z" fill-rule="evenodd"/>
<path fill="#60BCD3" fill-opacity="0.078" d="M 22.000 29.000 L 23.000 29.000 L 23.000 30.000 L 22.000 30.000 Z" fill-rule="evenodd"/>
<path fill="#7FA828" fill-opacity="0.078" d="M 29.000 21.000 L 30.000 21.000 L 30.000 22.000 L 29.000 22.000 Z" fill-rule="evenodd"/>
<path fill="#60BCD3" fill-opacity="0.086" d="M 17.000 9.000 L 18.000 9.000 L 18.000 10.000 L 17.000 10.000 Z M 6.000 21.000 L 7.000 21.000 L 7.000 22.000 L 6.000 22.000 Z" fill-rule="evenodd"/>
<path fill="#7FA828" fill-opacity="0.086" d="M 25.000 20.000 L 26.000 20.000 L 26.000 21.000 L 25.000 21.000 Z" fill-rule="evenodd"/>
<path fill="#60BCD3" fill-opacity="0.090" d="M 22.000 5.000 L 23.000 5.000 L 23.000 6.000 L 22.000 6.000 Z M 3.000 29.000 L 4.000 29.000 L 4.000 30.000 L 3.000 30.000 Z" fill-rule="evenodd"/>
<path fill="#7FA828" fill-opacity="0.090" d="M 29.000 17.000 L 30.000 17.000 L 30.000 18.000 L 29.000 18.000 Z" fill-rule="evenodd"/>
<path fill="#60BCD3" fill-opacity="0.094" d="M 19.000 6.000 L 20.000 6.000 L 20.000 7.000 L 19.000 7.000 Z" fill-rule="evenodd"/>
<path fill="#60BCD3" fill-opacity="0.098" d="M 2.000 4.000 L 3.000 4.000 L 3.000 5.000 L 2.000 5.000 Z M 8.000 14.000 L 9.000 14.000 L 9.000 15.000 L 8.000 15.000 Z M 6.000 16.000 L 7.000 16.000 L 7.000 17.000 L 6.000 17.000 Z" fill-rule="evenodd"/>
<path fill="#60BCD3" fill-opacity="0.102" d="M 4.000 2.000 L 5.000 2.000 L 5.000 3.000 L 4.000 3.000 Z M 18.000 2.000 L 19.000 2.000 L 19.000 3.000 L 18.000 3.000 Z M 2.000 5.000 L 3.000 5.000 L 3.000 6.000 L 2.000 6.000 Z M 2.000 6.000 L 3.000 6.000 L 3.000 7.000 L 2.000 7.000 Z M 2.000 7.000 L 3.000 7.000 L 3.000 8.000 L 2.000 8.000 Z M 2.000 8.000 L 3.000 8.000 L 3.000 9.000 L 2.000 9.000 Z M 2.000 9.000 L 3.000 9.000 L 3.000 10.000 L 2.000 10.000 Z M 2.000 10.000 L 3.000 10.000 L 3.000 11.000 L 2.000 11.000 Z M 2.000 11.000 L 3.000 11.000 L 3.000 12.000 L 2.000 12.000 Z M 2.000 12.000 L 3.000 12.000 L 3.000 13.000 L 2.000 13.000 Z M 2.000 13.000 L 3.000 13.000 L 3.000 14.000 L 2.000 14.000 Z M 2.000 14.000 L 3.000 14.000 L 3.000 15.000 L 2.000 15.000 Z M 2.000 15.000 L 3.000 15.000 L 3.000 16.000 L 2.000 16.000 Z M 2.000 16.000 L 3.000 16.000 L 3.000 17.000 L 2.000 17.000 Z M 2.000 17.000 L 3.000 17.000 L 3.000 18.000 L 2.000 18.000 Z M 2.000 18.000 L 3.000 18.000 L 3.000 19.000 L 2.000 19.000 Z M 2.000 19.000 L 3.000 19.000 L 3.000 20.000 L 2.000 20.000 Z M 2.000 20.000 L 3.000 20.000 L 3.000 21.000 L 2.000 21.000 Z M 2.000 21.000 L 3.000 21.000 L 3.000 22.000 L 2.000 22.000 Z M 2.000 22.000 L 3.000 22.000 L 3.000 23.000 L 2.000 23.000 Z M 2.000 23.000 L 3.000 23.000 L 3.000 24.000 L 2.000 24.000 Z M 2.000 24.000 L 3.000 24.000 L 3.000 25.000 L 2.000 25.000 Z M 2.000 25.000 L 3.000 25.000 L 3.000 26.000 L 2.000 26.000 Z M 2.000 26.000 L 3.000 26.000 L 3.000 27.000 L 2.000 27.000 Z M 2.000 27.000 L 3.000 27.000 L 3.000 28.000 L 2.000 28.000 Z" fill-rule="evenodd"/>
<path fill="#60BCD3" fill-opacity="0.106" d="M 5.000 2.000 L 18.000 2.000 L 18.000 3.000 L 5.000 3.000 Z M 18.000 21.000 L 19.000 21.000 L 19.000 22.000 L 18.000 22.000 Z" fill-rule="evenodd"/>
<path fill="#60BCD3" fill-opacity="0.110" d="M 18.000 16.000 L 19.000 16.000 L 19.000 17.000 L 18.000 17.000 Z M 8.000 23.000 L 9.000 23.000 L 9.000 24.000 L 8.000 24.000 Z" fill-rule="evenodd"/>
<path fill="#60BCD3" fill-opacity="0.114" d="M 19.000 9.000 L 20.000 9.000 L 20.000 10.000 L 19.000 10.000 Z" fill-rule="evenodd"/>
<path fill="#60BCD3" fill-opacity="0.118" d="M 18.000 9.000 L 19.000 9.000 L 19.000 10.000 L 18.000 10.000 Z" fill-rule="evenodd"/>
<path fill="#60BCD3" fill-opacity="0.122" d="M 6.000 14.000 L 7.000 14.000 L 7.000 15.000 L 6.000 15.000 Z" fill-rule="evenodd"/>
<path fill="#7FA828" fill-opacity="0.122" d="M 30.000 19.000 L 31.000 19.000 L 31.000 20.000 L 30.000 20.000 Z" fill-rule="evenodd"/>
<path fill="#7FA828" fill-opacity="0.129" d="M 24.000 18.000 L 25.000 18.000 L 25.000 19.000 L 24.000 19.000 Z" fill-rule="evenodd"/>
<path fill="#61BBCE" fill-opacity="0.133" d="M 21.000 16.000 L 22.000 16.000 L 22.000 17.000 L 21.000 17.000 Z" fill-rule="evenodd"/>
<path fill="#60BCD3" fill-opacity="0.137" d="M 6.000 23.000 L 7.000 23.000 L 7.000 24.000 L 6.000 24.000 Z" fill-rule="evenodd"/>
<path fill="#60BCD3" fill-opacity="0.145" d="M 18.000 14.000 L 19.000 14.000 L 19.000 15.000 L 18.000 15.000 Z" fill-rule="evenodd"/>
<path fill="#60BCD2" fill-opacity="0.149" d="M 21.000 22.000 L 22.000 22.000 L 22.000 23.000 L 21.000 23.000 Z" fill-rule="evenodd"/>
<path fill="#60BCD3" fill-opacity="0.153" d="M 18.000 23.000 L 19.000 23.000 L 19.000 24.000 L 18.000 24.000 Z" fill-rule="evenodd"/>
<path fill="#60BCD3" fill-opacity="0.161" d="M 20.000 9.000 L 21.000 9.000 L 21.000 10.000 L 20.000 10.000 Z" fill-rule="evenodd"/>
<path fill="#7FA828" fill-opacity="0.180" d="M 24.000 20.000 L 25.000 20.000 L 25.000 21.000 L 24.000 21.000 Z" fill-rule="evenodd"/>
<path fill="#60BCD3" fill-opacity="0.200" d="M 16.000 8.000 L 17.000 8.000 L 17.000 9.000 L 16.000 9.000 Z" fill-rule="evenodd"/>
<path fill="#60BCD3" fill-opacity="0.204" d="M 21.000 29.000 L 22.000 29.000 L 22.000 30.000 L 21.000 30.000 Z" fill-rule="evenodd"/>
<path fill="#60BCD3" fill-opacity="0.208" d="M 4.000 29.000 L 5.000 29.000 L 5.000 30.000 L 4.000 30.000 Z M 17.000 29.000 L 21.000 29.000 L 21.000 30.000 L 17.000 30.000 Z" fill-rule="evenodd"/>
<path fill="#7FA828" fill-opacity="0.208" d="M 26.000 19.000 L 27.000 19.000 L 27.000 20.000 L 26.000 20.000 Z" fill-rule="evenodd"/>
<path fill="#60BCD3" fill-opacity="0.212" d="M 5.000 29.000 L 17.000 29.000 L 17.000 30.000 L 5.000 30.000 Z" fill-rule="evenodd"/>
<path fill="#7CAA3A" fill-opacity="0.227" d="M 22.000 22.000 L 23.000 22.000 L 23.000 23.000 L 22.000 23.000 Z" fill-rule="evenodd"/>
<path fill="#60BCD3" fill-opacity="0.239" d="M 9.000 21.000 L 10.000 21.000 L 10.000 22.000 L 9.000 22.000 Z" fill-rule="evenodd"/>
<path fill="#60BCD3" fill-opacity="0.243" d="M 9.000 16.000 L 10.000 16.000 L 10.000 17.000 L 9.000 17.000 Z" fill-rule="evenodd"/>
<path fill="#7DA934" fill-opacity="0.243" d="M 22.000 16.000 L 23.000 16.000 L 23.000 17.000 L 22.000 17.000 Z" fill-rule="evenodd"/>
<path fill="#60BCD3" fill-opacity="0.251" d="M 7.000 21.000 L 8.000 21.000 L 8.000 22.000 L 7.000 22.000 Z" fill-rule="evenodd"/>
<path fill="#60BCD3" fill-opacity="0.275" d="M 8.000 18.000 L 9.000 18.000 L 9.000 19.000 L 8.000 19.000 Z" fill-rule="evenodd"/>
<path fill="#60BCD3" fill-opacity="0.278" d="M 8.000 11.000 L 9.000 11.000 L 9.000 12.000 L 8.000 12.000 Z M 7.000 16.000 L 8.000 16.000 L 8.000 17.000 L 7.000 17.000 Z" fill-rule="evenodd"/>
<path fill="#60BCD3" fill-opacity="0.282" d="M 8.000 12.000 L 9.000 12.000 L 9.000 13.000 L 8.000 13.000 Z" fill-rule="evenodd"/>
<path fill="#60BCD3" fill-opacity="0.286" d="M 8.000 19.000 L 9.000 19.000 L 9.000 20.000 L 8.000 20.000 Z" fill-rule="evenodd"/>
<path fill="#7FA828" fill-opacity="0.294" d="M 20.000 20.000 L 21.000 20.000 L 21.000 21.000 L 20.000 21.000 Z" fill-rule="evenodd"/>
<path fill="#60BCD3" fill-opacity="0.306" d="M 6.000 18.000 L 7.000 18.000 L 7.000 19.000 L 6.000 19.000 Z" fill-rule="evenodd"/>
<path fill="#60BCD3" fill-opacity="0.310" d="M 16.000 6.000 L 17.000 6.000 L 17.000 7.000 L 16.000 7.000 Z M 6.000 11.000 L 7.000 11.000 L 7.000 12.000 L 6.000 12.000 Z" fill-rule="evenodd"/>
<path fill="#60BCD3" fill-opacity="0.314" d="M 6.000 12.000 L 7.000 12.000 L 7.000 13.000 L 6.000 13.000 Z" fill-rule="evenodd"/>
<path fill="#60BCD3" fill-opacity="0.318" d="M 16.000 7.000 L 17.000 7.000 L 17.000 8.000 L 16.000 8.000 Z M 9.000 14.000 L 10.000 14.000 L 10.000 15.000 L 9.000 15.000 Z M 6.000 19.000 L 7.000 19.000 L 7.000 20.000 L 6.000 20.000 Z M 17.000 21.000 L 18.000 21.000 L 18.000 22.000 L 17.000 22.000 Z" fill-rule="evenodd"/>
<path fill="#60BCD3" fill-opacity="0.325" d="M 17.000 16.000 L 18.000 16.000 L 18.000 17.000 L 17.000 17.000 Z M 9.000 23.000 L 10.000 23.000 L 10.000 24.000 L 9.000 24.000 Z" fill-rule="evenodd"/>
<path fill="#7FA828" fill-opacity="0.325" d="M 27.000 22.000 L 28.000 22.000 L 28.000 23.000 L 27.000 23.000 Z" fill-rule="evenodd"/>
<path fill="#60BCD3" fill-opacity="0.329" d="M 16.000 5.000 L 17.000 5.000 L 17.000 6.000 L 16.000 6.000 Z" fill-rule="evenodd"/>
<path fill="#7FA828" fill-opacity="0.329" d="M 20.000 18.000 L 21.000 18.000 L 21.000 19.000 L 20.000 19.000 Z" fill-rule="evenodd"/>
<path fill="#60BCD3" fill-opacity="0.333" d="M 11.000 21.000 L 17.000 21.000 L 17.000 22.000 L 11.000 22.000 Z" fill-rule="evenodd"/>
<path fill="#60BCD3" fill-opacity="0.337" d="M 7.000 14.000 L 8.000 14.000 L 8.000 15.000 L 7.000 15.000 Z M 10.000 21.000 L 11.000 21.000 L 11.000 22.000 L 10.000 22.000 Z" fill-rule="evenodd"/>
<path fill="#7FA828" fill-opacity="0.337" d="M 27.000 16.000 L 28.000 16.000 L 28.000 17.000 L 27.000 17.000 Z" fill-rule="evenodd"/>
<path fill="#60BCD3" fill-opacity="0.341" d="M 11.000 16.000 L 17.000 16.000 L 17.000 17.000 L 11.000 17.000 Z" fill-rule="evenodd"/>
<path fill="#60BCD3" fill-opacity="0.345" d="M 18.000 12.000 L 19.000 12.000 L 19.000 13.000 L 18.000 13.000 Z M 10.000 16.000 L 11.000 16.000 L 11.000 17.000 L 10.000 17.000 Z" fill-rule="evenodd"/>
<path fill="#60BCD3" fill-opacity="0.349" d="M 18.000 18.000 L 19.000 18.000 L 19.000 19.000 L 18.000 19.000 Z M 18.000 19.000 L 19.000 19.000 L 19.000 20.000 L 18.000 20.000 Z" fill-rule="evenodd"/>
<path fill="#60BCD3" fill-opacity="0.353" d="M 18.000 11.000 L 19.000 11.000 L 19.000 12.000 L 18.000 12.000 Z" fill-rule="evenodd"/>
<path fill="#60BCD3" fill-opacity="0.369" d="M 7.000 23.000 L 8.000 23.000 L 8.000 24.000 L 7.000 24.000 Z" fill-rule="evenodd"/>
<path fill="#60BCD3" fill-opacity="0.392" d="M 8.000 15.000 L 9.000 15.000 L 9.000 16.000 L 8.000 16.000 Z M 8.000 22.000 L 9.000 22.000 L 9.000 23.000 L 8.000 23.000 Z" fill-rule="evenodd"/>
<path fill="#80A824" fill-opacity="0.392" d="M 21.000 21.000 L 22.000 21.000 L 22.000 22.000 L 21.000 22.000 Z" fill-rule="evenodd"/>
<path fill="#60BCD3" fill-opacity="0.412" d="M 17.000 14.000 L 18.000 14.000 L 18.000 15.000 L 17.000 15.000 Z" fill-rule="evenodd"/>
<path fill="#80A825" fill-opacity="0.420" d="M 21.000 17.000 L 22.000 17.000 L 22.000 18.000 L 21.000 18.000 Z" fill-rule="evenodd"/>
<path fill="#60BCD3" fill-opacity="0.424" d="M 11.000 14.000 L 17.000 14.000 L 17.000 15.000 L 11.000 15.000 Z M 6.000 15.000 L 7.000 15.000 L 7.000 16.000 L 6.000 16.000 Z M 6.000 22.000 L 7.000 22.000 L 7.000 23.000 L 6.000 23.000 Z M 17.000 23.000 L 18.000 23.000 L 18.000 24.000 L 17.000 24.000 Z" fill-rule="evenodd"/>
<path fill="#60BCD3" fill-opacity="0.427" d="M 10.000 14.000 L 11.000 14.000 L 11.000 15.000 L 10.000 15.000 Z" fill-rule="evenodd"/>
<path fill="#60BCD3" fill-opacity="0.439" d="M 11.000 23.000 L 17.000 23.000 L 17.000 24.000 L 11.000 24.000 Z" fill-rule="evenodd"/>
<path fill="#60BCD3" fill-opacity="0.443" d="M 10.000 23.000 L 11.000 23.000 L 11.000 24.000 L 10.000 24.000 Z" fill-rule="evenodd"/>
<path fill="#60BCD3" fill-opacity="0.467" d="M 18.000 6.000 L 19.000 6.000 L 19.000 7.000 L 18.000 7.000 Z" fill-rule="evenodd"/>
<path fill="#60BCD3" fill-opacity="0.471" d="M 18.000 15.000 L 19.000 15.000 L 19.000 16.000 L 18.000 16.000 Z M 18.000 22.000 L 19.000 22.000 L 19.000 23.000 L 18.000 23.000 Z" fill-rule="evenodd"/>
<path fill="#7FA828" fill-opacity="0.490" d="M 26.000 18.000 L 27.000 18.000 L 27.000 19.000 L 26.000 19.000 Z" fill-rule="evenodd"/>
<path fill="#7FA828" fill-opacity="0.522" d="M 23.000 19.000 L 24.000 19.000 L 24.000 20.000 L 23.000 20.000 Z" fill-rule="evenodd"/>
<path fill="#7FA827" fill-opacity="0.529" d="M 23.000 22.000 L 24.000 22.000 L 24.000 23.000 L 23.000 23.000 Z" fill-rule="evenodd"/>
<path fill="#5FBCD7" fill-opacity="0.537" d="M 22.000 15.000 L 23.000 15.000 L 23.000 16.000 L 22.000 16.000 Z" fill-rule="evenodd"/>
<path fill="#7FA828" fill-opacity="0.545" d="M 26.000 20.000 L 27.000 20.000 L 27.000 21.000 L 26.000 21.000 Z" fill-rule="evenodd"/>
<path fill="#7FA827" fill-opacity="0.557" d="M 23.000 16.000 L 24.000 16.000 L 24.000 17.000 L 23.000 17.000 Z" fill-rule="evenodd"/>
<path fill="#7FA828" fill-opacity="0.557" d="M 29.000 20.000 L 30.000 20.000 L 30.000 21.000 L 29.000 21.000 Z" fill-rule="evenodd"/>
<path fill="#5FBCD6" fill-opacity="0.561" d="M 22.000 23.000 L 23.000 23.000 L 23.000 24.000 L 22.000 24.000 Z" fill-rule="evenodd"/>
<path fill="#60BCD3" fill-opacity="0.569" d="M 18.000 5.000 L 19.000 5.000 L 19.000 6.000 L 18.000 6.000 Z" fill-rule="evenodd"/>
<path fill="#60BCD3" fill-opacity="0.584" d="M 19.000 3.000 L 20.000 3.000 L 20.000 4.000 L 19.000 4.000 Z" fill-rule="evenodd"/>
<path fill="#7FA828" fill-opacity="0.592" d="M 29.000 18.000 L 30.000 18.000 L 30.000 19.000 L 29.000 19.000 Z" fill-rule="evenodd"/>
<path fill="#60BCD3" fill-opacity="0.596" d="M 17.000 27.000 L 19.000 27.000 L 19.000 28.000 L 17.000 28.000 Z" fill-rule="evenodd"/>
<path fill="#60BCD3" fill-opacity="0.600" d="M 3.000 3.000 L 4.000 3.000 L 4.000 4.000 L 3.000 4.000 Z M 6.000 27.000 L 17.000 27.000 L 17.000 28.000 L 6.000 28.000 Z M 19.000 27.000 L 20.000 27.000 L 20.000 28.000 L 19.000 28.000 Z" fill-rule="evenodd"/>
<path fill="#60BCD3" fill-opacity="0.612" d="M 5.000 27.000 L 6.000 27.000 L 6.000 28.000 L 5.000 28.000 Z" fill-rule="evenodd"/>
<path fill="#7FA828" fill-opacity="0.612" d="M 26.000 22.000 L 27.000 22.000 L 27.000 23.000 L 26.000 23.000 Z" fill-rule="evenodd"/>
<path fill="#60BCD3" fill-opacity="0.616" d="M 22.000 6.000 L 23.000 6.000 L 23.000 7.000 L 22.000 7.000 Z" fill-rule="evenodd"/>
<path fill="#7FA828" fill-opacity="0.620" d="M 28.000 21.000 L 29.000 21.000 L 29.000 22.000 L 28.000 22.000 Z" fill-rule="evenodd"/>
<path fill="#60BCD3" fill-opacity="0.624" d="M 20.000 27.000 L 21.000 27.000 L 21.000 28.000 L 20.000 28.000 Z" fill-rule="evenodd"/>
<path fill="#7FA828" fill-opacity="0.627" d="M 26.000 16.000 L 27.000 16.000 L 27.000 17.000 L 26.000 17.000 Z" fill-rule="evenodd"/>
<path fill="#60BCD3" fill-opacity="0.631" d="M 20.000 4.000 L 21.000 4.000 L 21.000 5.000 L 20.000 5.000 Z" fill-rule="evenodd"/>
<path fill="#7FA828" fill-opacity="0.631" d="M 20.000 19.000 L 21.000 19.000 L 21.000 20.000 L 20.000 20.000 Z" fill-rule="evenodd"/>
<path fill="#60BCD3" fill-opacity="0.639" d="M 22.000 28.000 L 23.000 28.000 L 23.000 29.000 L 22.000 29.000 Z" fill-rule="evenodd"/>
<path fill="#7FA828" fill-opacity="0.639" d="M 28.000 17.000 L 29.000 17.000 L 29.000 18.000 L 28.000 18.000 Z" fill-rule="evenodd"/>
<path fill="#60BCD3" fill-opacity="0.655" d="M 21.000 5.000 L 22.000 5.000 L 22.000 6.000 L 21.000 6.000 Z M 9.000 12.000 L 10.000 12.000 L 10.000 13.000 L 9.000 13.000 Z" fill-rule="evenodd"/>
<path fill="#60BCD3" fill-opacity="0.659" d="M 9.000 18.000 L 10.000 18.000 L 10.000 19.000 L 9.000 19.000 Z" fill-rule="evenodd"/>
<path fill="#60BCD3" fill-opacity="0.663" d="M 19.000 5.000 L 20.000 5.000 L 20.000 6.000 L 19.000 6.000 Z M 9.000 19.000 L 10.000 19.000 L 10.000 20.000 L 9.000 20.000 Z" fill-rule="evenodd"/>
<path fill="#60BCD3" fill-opacity="0.667" d="M 9.000 11.000 L 10.000 11.000 L 10.000 12.000 L 9.000 12.000 Z" fill-rule="evenodd"/>
<path fill="#60BCD3" fill-opacity="0.675" d="M 20.000 6.000 L 21.000 6.000 L 21.000 7.000 L 20.000 7.000 Z" fill-rule="evenodd"/>
<path fill="#60BCD3" fill-opacity="0.686" d="M 3.000 28.000 L 4.000 28.000 L 4.000 29.000 L 3.000 29.000 Z" fill-rule="evenodd"/>
<path fill="#60BCD3" fill-opacity="0.706" d="M 19.000 7.000 L 20.000 7.000 L 20.000 8.000 L 19.000 8.000 Z M 21.000 15.000 L 22.000 15.000 L 22.000 16.000 L 21.000 16.000 Z" fill-rule="evenodd"/>
<path fill="#7FA828" fill-opacity="0.710" d="M 24.000 22.000 L 25.000 22.000 L 25.000 23.000 L 24.000 23.000 Z" fill-rule="evenodd"/>
<path fill="#60BCD3" fill-opacity="0.718" d="M 7.000 18.000 L 8.000 18.000 L 8.000 19.000 L 7.000 19.000 Z" fill-rule="evenodd"/>
<path fill="#60BCD3" fill-opacity="0.722" d="M 21.000 23.000 L 22.000 23.000 L 22.000 24.000 L 21.000 24.000 Z" fill-rule="evenodd"/>
<path fill="#60BCD3" fill-opacity="0.725" d="M 15.000 4.000 L 16.000 4.000 L 16.000 5.000 L 15.000 5.000 Z" fill-rule="evenodd"/>
<path fill="#60BCD3" fill-opacity="0.729" d="M 6.000 4.000 L 15.000 4.000 L 15.000 5.000 L 6.000 5.000 Z M 7.000 11.000 L 8.000 11.000 L 8.000 12.000 L 7.000 12.000 Z" fill-rule="evenodd"/>
<path fill="#7FA828" fill-opacity="0.733" d="M 25.000 22.000 L 26.000 22.000 L 26.000 23.000 L 25.000 23.000 Z" fill-rule="evenodd"/>
<path fill="#60BCD3" fill-opacity="0.737" d="M 5.000 4.000 L 6.000 4.000 L 6.000 5.000 L 5.000 5.000 Z M 7.000 12.000 L 8.000 12.000 L 8.000 13.000 L 7.000 13.000 Z" fill-rule="evenodd"/>
<path fill="#7FA828" fill-opacity="0.737" d="M 24.000 16.000 L 25.000 16.000 L 25.000 17.000 L 24.000 17.000 Z" fill-rule="evenodd"/>
<path fill="#60BCD3" fill-opacity="0.745" d="M 7.000 19.000 L 8.000 19.000 L 8.000 20.000 L 7.000 20.000 Z" fill-rule="evenodd"/>
<path fill="#60BCD3" fill-opacity="0.749" d="M 4.000 6.000 L 5.000 6.000 L 5.000 7.000 L 4.000 7.000 Z M 4.000 7.000 L 5.000 7.000 L 5.000 8.000 L 4.000 8.000 Z M 4.000 8.000 L 5.000 8.000 L 5.000 9.000 L 4.000 9.000 Z M 4.000 9.000 L 5.000 9.000 L 5.000 10.000 L 4.000 10.000 Z M 4.000 10.000 L 5.000 10.000 L 5.000 11.000 L 4.000 11.000 Z M 4.000 11.000 L 5.000 11.000 L 5.000 12.000 L 4.000 12.000 Z M 4.000 12.000 L 5.000 12.000 L 5.000 13.000 L 4.000 13.000 Z M 4.000 13.000 L 5.000 13.000 L 5.000 14.000 L 4.000 14.000 Z M 4.000 14.000 L 5.000 14.000 L 5.000 15.000 L 4.000 15.000 Z M 4.000 15.000 L 5.000 15.000 L 5.000 16.000 L 4.000 16.000 Z M 4.000 16.000 L 5.000 16.000 L 5.000 17.000 L 4.000 17.000 Z M 4.000 17.000 L 5.000 17.000 L 5.000 18.000 L 4.000 18.000 Z M 4.000 18.000 L 5.000 18.000 L 5.000 19.000 L 4.000 19.000 Z M 4.000 19.000 L 5.000 19.000 L 5.000 20.000 L 4.000 20.000 Z M 4.000 20.000 L 5.000 20.000 L 5.000 21.000 L 4.000 21.000 Z M 4.000 21.000 L 5.000 21.000 L 5.000 22.000 L 4.000 22.000 Z M 4.000 22.000 L 5.000 22.000 L 5.000 23.000 L 4.000 23.000 Z M 4.000 23.000 L 5.000 23.000 L 5.000 24.000 L 4.000 24.000 Z M 4.000 24.000 L 5.000 24.000 L 5.000 25.000 L 4.000 25.000 Z M 4.000 25.000 L 5.000 25.000 L 5.000 26.000 L 4.000 26.000 Z M 4.000 26.000 L 5.000 26.000 L 5.000 27.000 L 4.000 27.000 Z" fill-rule="evenodd"/>
<path fill="#7FA828" fill-opacity="0.753" d="M 23.000 18.000 L 24.000 18.000 L 24.000 19.000 L 23.000 19.000 Z" fill-rule="evenodd"/>
<path fill="#60BCD3" fill-opacity="0.757" d="M 4.000 5.000 L 5.000 5.000 L 5.000 6.000 L 4.000 6.000 Z" fill-rule="evenodd"/>
<path fill="#7FA828" fill-opacity="0.757" d="M 25.000 16.000 L 26.000 16.000 L 26.000 17.000 L 25.000 17.000 Z" fill-rule="evenodd"/>
<path fill="#60BCD3" fill-opacity="0.788" d="M 20.000 7.000 L 21.000 7.000 L 21.000 8.000 L 20.000 8.000 Z" fill-rule="evenodd"/>
<path fill="#7FA828" fill-opacity="0.788" d="M 23.000 20.000 L 24.000 20.000 L 24.000 21.000 L 23.000 21.000 Z" fill-rule="evenodd"/>
<path fill="#60BCD3" fill-opacity="0.796" d="M 21.000 10.000 L 22.000 10.000 L 22.000 11.000 L 21.000 11.000 Z M 21.000 11.000 L 22.000 11.000 L 22.000 12.000 L 21.000 12.000 Z M 21.000 12.000 L 22.000 12.000 L 22.000 13.000 L 21.000 13.000 Z M 21.000 13.000 L 22.000 13.000 L 22.000 14.000 L 21.000 14.000 Z" fill-rule="evenodd"/>
<path fill="#60BCD3" fill-opacity="0.800" d="M 17.000 12.000 L 18.000 12.000 L 18.000 13.000 L 17.000 13.000 Z M 21.000 25.000 L 22.000 25.000 L 22.000 26.000 L 21.000 26.000 Z M 21.000 26.000 L 22.000 26.000 L 22.000 27.000 L 21.000 27.000 Z" fill-rule="evenodd"/>
<path fill="#7FA828" fill-opacity="0.800" d="M 25.000 17.000 L 26.000 17.000 L 26.000 18.000 L 25.000 18.000 Z" fill-rule="evenodd"/>
<path fill="#60BCD3" fill-opacity="0.804" d="M 21.000 14.000 L 22.000 14.000 L 22.000 15.000 L 21.000 15.000 Z M 17.000 18.000 L 18.000 18.000 L 18.000 19.000 L 17.000 19.000 Z" fill-rule="evenodd"/>
<path fill="#60BCD3" fill-opacity="0.808" d="M 17.000 11.000 L 18.000 11.000 L 18.000 12.000 L 17.000 12.000 Z M 11.000 12.000 L 17.000 12.000 L 17.000 13.000 L 11.000 13.000 Z M 11.000 18.000 L 16.000 18.000 L 16.000 19.000 L 11.000 19.000 Z M 17.000 19.000 L 18.000 19.000 L 18.000 20.000 L 17.000 20.000 Z M 21.000 24.000 L 22.000 24.000 L 22.000 25.000 L 21.000 25.000 Z" fill-rule="evenodd"/>
<path fill="#60BCD3" fill-opacity="0.812" d="M 17.000 8.000 L 18.000 8.000 L 18.000 9.000 L 17.000 9.000 Z M 22.000 8.000 L 23.000 8.000 L 23.000 9.000 L 22.000 9.000 Z M 10.000 12.000 L 11.000 12.000 L 11.000 13.000 L 10.000 13.000 Z M 16.000 18.000 L 17.000 18.000 L 17.000 19.000 L 16.000 19.000 Z M 11.000 19.000 L 16.000 19.000 L 16.000 20.000 L 11.000 20.000 Z" fill-rule="evenodd"/>
<path fill="#60BCD3" fill-opacity="0.816" d="M 16.000 4.000 L 17.000 4.000 L 17.000 5.000 L 16.000 5.000 Z M 22.000 7.000 L 23.000 7.000 L 23.000 8.000 L 22.000 8.000 Z M 11.000 11.000 L 17.000 11.000 L 17.000 12.000 L 11.000 12.000 Z M 10.000 18.000 L 11.000 18.000 L 11.000 19.000 L 10.000 19.000 Z M 16.000 19.000 L 17.000 19.000 L 17.000 20.000 L 16.000 20.000 Z" fill-rule="evenodd"/>
<path fill="#60BCD3" fill-opacity="0.820" d="M 21.000 9.000 L 23.000 9.000 L 23.000 10.000 L 21.000 10.000 Z M 10.000 19.000 L 11.000 19.000 L 11.000 20.000 L 10.000 20.000 Z" fill-rule="evenodd"/>
<path fill="#60BCD3" fill-opacity="0.824" d="M 22.000 10.000 L 23.000 10.000 L 23.000 11.000 L 22.000 11.000 Z M 10.000 11.000 L 11.000 11.000 L 11.000 12.000 L 10.000 12.000 Z M 22.000 11.000 L 23.000 11.000 L 23.000 12.000 L 22.000 12.000 Z M 22.000 12.000 L 23.000 12.000 L 23.000 13.000 L 22.000 13.000 Z M 22.000 13.000 L 23.000 13.000 L 23.000 14.000 L 22.000 14.000 Z" fill-rule="evenodd"/>
<path fill="#60BCD3" fill-opacity="0.827" d="M 22.000 25.000 L 23.000 25.000 L 23.000 26.000 L 22.000 26.000 Z M 22.000 27.000 L 23.000 27.000 L 23.000 28.000 L 22.000 28.000 Z" fill-rule="evenodd"/>
<path fill="#60BCD3" fill-opacity="0.831" d="M 22.000 26.000 L 23.000 26.000 L 23.000 27.000 L 22.000 27.000 Z" fill-rule="evenodd"/>
<path fill="#60BCD3" fill-opacity="0.835" d="M 22.000 14.000 L 23.000 14.000 L 23.000 15.000 L 22.000 15.000 Z" fill-rule="evenodd"/>
<path fill="#60BCD3" fill-opacity="0.839" d="M 22.000 24.000 L 23.000 24.000 L 23.000 25.000 L 22.000 25.000 Z" fill-rule="evenodd"/>
<path fill="#60BCD3" fill-opacity="0.847" d="M 9.000 15.000 L 10.000 15.000 L 10.000 16.000 L 9.000 16.000 Z M 9.000 22.000 L 10.000 22.000 L 10.000 23.000 L 9.000 23.000 Z" fill-rule="evenodd"/>
<path fill="#60BCD3" fill-opacity="0.855" d="M 18.000 7.000 L 19.000 7.000 L 19.000 8.000 L 18.000 8.000 Z" fill-rule="evenodd"/>
<path fill="#7FA828" fill-opacity="0.859" d="M 25.000 21.000 L 26.000 21.000 L 26.000 22.000 L 25.000 22.000 Z" fill-rule="evenodd"/>
<path fill="#60BCD3" fill-opacity="0.863" d="M 17.000 3.000 L 18.000 3.000 L 18.000 4.000 L 17.000 4.000 Z" fill-rule="evenodd"/>
<path fill="#7FA828" fill-opacity="0.863" d="M 24.000 17.000 L 25.000 17.000 L 25.000 18.000 L 24.000 18.000 Z" fill-rule="evenodd"/>
<path fill="#60BCD3" fill-opacity="0.871" d="M 18.000 3.000 L 19.000 3.000 L 19.000 4.000 L 18.000 4.000 Z M 3.000 4.000 L 4.000 4.000 L 4.000 5.000 L 3.000 5.000 Z M 3.000 27.000 L 4.000 27.000 L 4.000 28.000 L 3.000 28.000 Z" fill-rule="evenodd"/>
<path fill="#60BCD3" fill-opacity="0.875" d="M 4.000 3.000 L 5.000 3.000 L 5.000 4.000 L 4.000 4.000 Z M 16.000 3.000 L 17.000 3.000 L 17.000 4.000 L 16.000 4.000 Z M 3.000 5.000 L 4.000 5.000 L 4.000 6.000 L 3.000 6.000 Z M 3.000 6.000 L 4.000 6.000 L 4.000 7.000 L 3.000 7.000 Z M 3.000 7.000 L 4.000 7.000 L 4.000 8.000 L 3.000 8.000 Z M 3.000 8.000 L 4.000 8.000 L 4.000 9.000 L 3.000 9.000 Z M 3.000 9.000 L 4.000 9.000 L 4.000 10.000 L 3.000 10.000 Z M 3.000 10.000 L 4.000 10.000 L 4.000 11.000 L 3.000 11.000 Z M 3.000 11.000 L 4.000 11.000 L 4.000 12.000 L 3.000 12.000 Z M 3.000 12.000 L 4.000 12.000 L 4.000 13.000 L 3.000 13.000 Z M 3.000 13.000 L 4.000 13.000 L 4.000 14.000 L 3.000 14.000 Z M 3.000 14.000 L 4.000 14.000 L 4.000 15.000 L 3.000 15.000 Z M 3.000 15.000 L 4.000 15.000 L 4.000 16.000 L 3.000 16.000 Z M 3.000 16.000 L 4.000 16.000 L 4.000 17.000 L 3.000 17.000 Z M 3.000 17.000 L 4.000 17.000 L 4.000 18.000 L 3.000 18.000 Z M 3.000 18.000 L 4.000 18.000 L 4.000 19.000 L 3.000 19.000 Z M 3.000 19.000 L 4.000 19.000 L 4.000 20.000 L 3.000 20.000 Z M 3.000 20.000 L 4.000 20.000 L 4.000 21.000 L 3.000 21.000 Z M 3.000 21.000 L 4.000 21.000 L 4.000 22.000 L 3.000 22.000 Z M 3.000 22.000 L 4.000 22.000 L 4.000 23.000 L 3.000 23.000 Z M 3.000 23.000 L 4.000 23.000 L 4.000 24.000 L 3.000 24.000 Z M 3.000 24.000 L 4.000 24.000 L 4.000 25.000 L 3.000 25.000 Z M 3.000 25.000 L 4.000 25.000 L 4.000 26.000 L 3.000 26.000 Z M 3.000 26.000 L 4.000 26.000 L 4.000 27.000 L 3.000 27.000 Z" fill-rule="evenodd"/>
<path fill="#60BCD3" fill-opacity="0.878" d="M 5.000 3.000 L 16.000 3.000 L 16.000 4.000 L 5.000 4.000 Z" fill-rule="evenodd"/>
<path fill="#7FA828" fill-opacity="0.878" d="M 29.000 19.000 L 30.000 19.000 L 30.000 20.000 L 29.000 20.000 Z" fill-rule="evenodd"/>
<path fill="#60BCD3" fill-opacity="0.886" d="M 18.000 8.000 L 19.000 8.000 L 19.000 9.000 L 18.000 9.000 Z" fill-rule="evenodd"/>
<path fill="#60BCD3" fill-opacity="0.890" d="M 19.000 8.000 L 21.000 8.000 L 21.000 9.000 L 19.000 9.000 Z" fill-rule="evenodd"/>
<path fill="#7FA828" fill-opacity="0.906" d="M 22.000 21.000 L 23.000 21.000 L 23.000 22.000 L 22.000 22.000 Z" fill-rule="evenodd"/>
<path fill="#60BCD3" fill-opacity="0.910" d="M 4.000 27.000 L 5.000 27.000 L 5.000 28.000 L 4.000 28.000 Z" fill-rule="evenodd"/>
<path fill="#7FA828" fill-opacity="0.910" d="M 24.000 21.000 L 25.000 21.000 L 25.000 22.000 L 24.000 22.000 Z" fill-rule="evenodd"/>
<path fill="#7FA828" fill-opacity="0.918" d="M 22.000 17.000 L 23.000 17.000 L 23.000 18.000 L 22.000 18.000 Z" fill-rule="evenodd"/>
<path fill="#60BCD3" fill-opacity="0.929" d="M 21.000 27.000 L 22.000 27.000 L 22.000 28.000 L 21.000 28.000 Z" fill-rule="evenodd"/>
<path fill="#60BCD3" fill-opacity="0.937" d="M 7.000 22.000 L 8.000 22.000 L 8.000 23.000 L 7.000 23.000 Z" fill-rule="evenodd"/>
<path fill="#7FA828" fill-opacity="0.937" d="M 21.000 20.000 L 22.000 20.000 L 22.000 21.000 L 21.000 21.000 Z" fill-rule="evenodd"/>
<path fill="#60BCD3" fill-opacity="0.941" d="M 7.000 15.000 L 8.000 15.000 L 8.000 16.000 L 7.000 16.000 Z" fill-rule="evenodd"/>
<path fill="#60BCD3" fill-opacity="0.945" d="M 4.000 4.000 L 5.000 4.000 L 5.000 5.000 L 4.000 5.000 Z" fill-rule="evenodd"/>
<path fill="#7FA828" fill-opacity="0.949" d="M 27.000 19.000 L 28.000 19.000 L 28.000 20.000 L 27.000 20.000 Z" fill-rule="evenodd"/>
<path fill="#60BCD3" fill-opacity="0.953" d="M 21.000 28.000 L 22.000 28.000 L 22.000 29.000 L 21.000 29.000 Z" fill-rule="evenodd"/>
<path fill="#7FA828" fill-opacity="0.953" d="M 21.000 18.000 L 22.000 18.000 L 22.000 19.000 L 21.000 19.000 Z" fill-rule="evenodd"/>
<path fill="#60BCD3" fill-opacity="0.957" d="M 18.000 4.000 L 19.000 4.000 L 19.000 5.000 L 18.000 5.000 Z M 4.000 28.000 L 5.000 28.000 L 5.000 29.000 L 4.000 29.000 Z M 20.000 28.000 L 21.000 28.000 L 21.000 29.000 L 20.000 29.000 Z" fill-rule="evenodd"/>
<path fill="#60BCD3" fill-opacity="0.961" d="M 5.000 28.000 L 20.000 28.000 L 20.000 29.000 L 5.000 29.000 Z" fill-rule="evenodd"/>
<path fill="#7FA828" fill-opacity="0.976" d="M 27.000 21.000 L 28.000 21.000 L 28.000 22.000 L 27.000 22.000 Z" fill-rule="evenodd"/>
<path fill="#7FA828" fill-opacity="0.980" d="M 26.000 17.000 L 27.000 17.000 L 27.000 18.000 L 26.000 18.000 Z" fill-rule="evenodd"/>
<path fill="#60BCD3" fill-opacity="0.984" d="M 21.000 8.000 L 22.000 8.000 L 22.000 9.000 L 21.000 9.000 Z" fill-rule="evenodd"/>
<path fill="#7FA828" fill-opacity="0.984" d="M 27.000 17.000 L 28.000 17.000 L 28.000 18.000 L 27.000 18.000 Z" fill-rule="evenodd"/>
<path fill="#60BCD3" fill-opacity="0.992" d="M 17.000 5.000 L 18.000 5.000 L 18.000 6.000 L 17.000 6.000 Z" fill-rule="evenodd"/>
<path fill="#60BCD3" fill-opacity="0.996" d="M 17.000 6.000 L 18.000 6.000 L 18.000 7.000 L 17.000 7.000 Z M 17.000 7.000 L 18.000 7.000 L 18.000 8.000 L 17.000 8.000 Z" fill-rule="evenodd"/>
<path fill="#7FA828" fill-opacity="0.996" d="M 27.000 18.000 L 28.000 18.000 L 28.000 19.000 L 27.000 19.000 Z" fill-rule="evenodd"/>
<path fill="#60BCD3" d="M 17.000 4.000 L 18.000 4.000 L 18.000 5.000 L 17.000 5.000 Z M 19.000 4.000 L 20.000 4.000 L 20.000 5.000 L 19.000 5.000 Z M 20.000 5.000 L 21.000 5.000 L 21.000 6.000 L 20.000 6.000 Z M 21.000 6.000 L 22.000 6.000 L 22.000 7.000 L 21.000 7.000 Z M 21.000 7.000 L 22.000 7.000 L 22.000 8.000 L 21.000 8.000 Z M 10.000 15.000 L 18.000 15.000 L 18.000 16.000 L 10.000 16.000 Z M 10.000 22.000 L 18.000 22.000 L 18.000 23.000 L 10.000 23.000 Z" fill-rule="evenodd"/>
<path fill="#7FA828" d="M 23.000 17.000 L 24.000 17.000 L 24.000 18.000 L 23.000 18.000 Z M 22.000 18.000 L 23.000 18.000 L 23.000 19.000 L 22.000 19.000 Z M 28.000 18.000 L 29.000 18.000 L 29.000 19.000 L 28.000 19.000 Z M 21.000 19.000 L 23.000 19.000 L 23.000 20.000 L 21.000 20.000 Z M 28.000 19.000 L 29.000 19.000 L 29.000 20.000 L 28.000 20.000 Z M 22.000 20.000 L 23.000 20.000 L 23.000 21.000 L 22.000 21.000 Z M 27.000 20.000 L 29.000 20.000 L 29.000 21.000 L 27.000 21.000 Z M 23.000 21.000 L 24.000 21.000 L 24.000 22.000 L 23.000 22.000 Z M 26.000 21.000 L 27.000 21.000 L 27.000 22.000 L 26.000 22.000 Z" fill-rule="evenodd"/>
</svg>