<?xml version="1.0" encoding="UTF-8"?>
<svg xmlns="http://www.w3.org/2000/svg" xmlns:xlink="http://www.w3.org/1999/xlink" version="1.1" viewBox="0 0 68 68">
  <defs>
    <style>
      .cls-1 {
        fill: none;
      }

      .cls-2 {
        fill: #60bcd3;
      }

      .cls-3 {
        fill: #7fa828;
      }

      .cls-4 {
        clip-path: url(#clippath);
      }
    </style>
    <clipPath id="clippath">
      <rect class="cls-1" x="8.3" y="9.2" width="49.5" height="49.5"/>
    </clipPath>
  </defs>
  <!-- Generator: Adobe Illustrator 28.6.0, SVG Export Plug-In . SVG Version: 1.2.0 Build 709)  -->
  <g>
    <g id="Ebene_1">
      <g class="cls-4">
        <path class="cls-3" d="M27.1,34.3c0,3.3,2.7,6,6,6s6-2.7,6-6-2.7-6-6-6-6,2.7-6,6M21.3,33.2l-2.8-2.6,1.7-4.3,3.7.4,1.5-1.4-.2-3.9,4.2-1.7,2.6,2.9h2.1l2.6-2.9,4.2,1.7-.2,3.9,1.5,1.4,3.7-.4,1.7,4.3-2.8,2.6v2.3l2.8,2.5-1.7,4.1h-3.7c0,0-1.5,1.4-1.5,1.4l.2,3.9-4.3,1.6-2.5-2.8h-2.1l-2.5,2.8-4.3-1.6.2-3.9-1.5-1.5h-3.7c0,0-1.7-4-1.7-4l2.8-2.5v-2.3Z"/>
        <path class="cls-2" d="M52.8,34.2c0,10.8-8.8,19.6-19.7,19.6s-19.7-8.8-19.7-19.6,8.8-19.6,19.7-19.6,19.7,8.8,19.7,19.6M57.8,34c0-13.7-11.1-24.8-24.8-24.8s-24.8,11.1-24.8,24.8,11.1,24.8,24.8,24.8,24.8-11.1,24.8-24.8"/>
      </g>
    </g>
  </g>
</svg>