<svg xmlns="http://www.w3.org/2000/svg" viewBox="0 0 16 16">
<path fill="#000000" fill-opacity="0.012" d="M 2.000 5.000 L 3.000 5.000 L 3.000 6.000 L 2.000 6.000 Z M 13.000 5.000 L 14.000 5.000 L 14.000 6.000 L 13.000 6.000 Z M 2.000 10.000 L 3.000 10.000 L 3.000 11.000 L 2.000 11.000 Z M 13.000 10.000 L 14.000 10.000 L 14.000 11.000 L 13.000 11.000 Z" fill-rule="evenodd"/>
<path fill="#000000" fill-opacity="0.016" d="M 6.000 5.000 L 7.000 5.000 L 7.000 6.000 L 6.000 6.000 Z M 6.000 10.000 L 7.000 10.000 L 7.000 11.000 L 6.000 11.000 Z" fill-rule="evenodd"/>
<path fill="#000000" fill-opacity="0.055" d="M 1.000 6.000 L 2.000 6.000 L 2.000 7.000 L 1.000 7.000 Z M 13.000 12.000 L 14.000 12.000 L 14.000 13.000 L 13.000 13.000 Z" fill-rule="evenodd"/>
<path fill="#000000" fill-opacity="0.059" d="M 2.000 3.000 L 3.000 3.000 L 3.000 4.000 L 2.000 4.000 Z M 13.000 3.000 L 14.000 3.000 L 14.000 4.000 L 13.000 4.000 Z M 14.000 6.000 L 15.000 6.000 L 15.000 7.000 L 14.000 7.000 Z M 1.000 9.000 L 2.000 9.000 L 2.000 10.000 L 1.000 10.000 Z M 14.000 9.000 L 15.000 9.000 L 15.000 10.000 L 14.000 10.000 Z M 2.000 12.000 L 3.000 12.000 L 3.000 13.000 L 2.000 13.000 Z" fill-rule="evenodd"/>
<path fill="#000000" fill-opacity="0.075" d="M 7.000 6.000 L 8.000 6.000 L 8.000 7.000 L 7.000 7.000 Z" fill-rule="evenodd"/>
<path fill="#000000" fill-opacity="0.078" d="M 7.000 9.000 L 8.000 9.000 L 8.000 10.000 L 7.000 10.000 Z" fill-rule="evenodd"/>
<path fill="#000000" fill-opacity="0.133" d="M 8.000 4.000 L 11.000 4.000 L 11.000 5.000 L 8.000 5.000 Z M 8.000 11.000 L 11.000 11.000 L 11.000 12.000 L 8.000 12.000 Z" fill-rule="evenodd"/>
<path fill="#000000" fill-opacity="0.161" d="M 11.000 4.000 L 12.000 4.000 L 12.000 5.000 L 11.000 5.000 Z M 11.000 11.000 L 12.000 11.000 L 12.000 12.000 L 11.000 12.000 Z" fill-rule="evenodd"/>
<path fill="#000000" fill-opacity="0.173" d="M 8.000 10.000 L 9.000 10.000 L 9.000 11.000 L 8.000 11.000 Z" fill-rule="evenodd"/>
<path fill="#000000" fill-opacity="0.176" d="M 8.000 5.000 L 9.000 5.000 L 9.000 6.000 L 8.000 6.000 Z" fill-rule="evenodd"/>
<path fill="#000000" fill-opacity="0.192" d="M 4.000 4.000 L 5.000 4.000 L 5.000 5.000 L 4.000 5.000 Z M 4.000 11.000 L 5.000 11.000 L 5.000 12.000 L 4.000 12.000 Z" fill-rule="evenodd"/>
<path fill="#000000" fill-opacity="0.212" d="M 15.000 10.000 L 16.000 10.000 L 16.000 11.000 L 15.000 11.000 Z" fill-rule="evenodd"/>
<path fill="#000000" fill-opacity="0.220" d="M 15.000 5.000 L 16.000 5.000 L 16.000 6.000 L 15.000 6.000 Z M 0.000 10.000 L 1.000 10.000 L 1.000 11.000 L 0.000 11.000 Z" fill-rule="evenodd"/>
<path fill="#000000" fill-opacity="0.224" d="M 0.000 5.000 L 1.000 5.000 L 1.000 6.000 L 0.000 6.000 Z" fill-rule="evenodd"/>
<path fill="#000000" fill-opacity="0.302" d="M 3.000 4.000 L 4.000 4.000 L 4.000 5.000 L 3.000 5.000 Z" fill-rule="evenodd"/>
<path fill="#000000" fill-opacity="0.306" d="M 12.000 4.000 L 13.000 4.000 L 13.000 5.000 L 12.000 5.000 Z" fill-rule="evenodd"/>
<path fill="#000000" fill-opacity="0.314" d="M 5.000 4.000 L 6.000 4.000 L 6.000 5.000 L 5.000 5.000 Z M 3.000 11.000 L 4.000 11.000 L 4.000 12.000 L 3.000 12.000 Z M 12.000 11.000 L 13.000 11.000 L 13.000 12.000 L 12.000 12.000 Z M 14.000 11.000 L 15.000 11.000 L 15.000 12.000 L 14.000 12.000 Z" fill-rule="evenodd"/>
<path fill="#000000" fill-opacity="0.318" d="M 14.000 4.000 L 15.000 4.000 L 15.000 5.000 L 14.000 5.000 Z" fill-rule="evenodd"/>
<path fill="#000000" fill-opacity="0.322" d="M 1.000 11.000 L 2.000 11.000 L 2.000 12.000 L 1.000 12.000 Z" fill-rule="evenodd"/>
<path fill="#000000" fill-opacity="0.325" d="M 1.000 4.000 L 2.000 4.000 L 2.000 5.000 L 1.000 5.000 Z M 5.000 11.000 L 6.000 11.000 L 6.000 12.000 L 5.000 12.000 Z" fill-rule="evenodd"/>
<path fill="#000000" fill-opacity="0.337" d="M 3.000 12.000 L 4.000 12.000 L 4.000 13.000 L 3.000 13.000 Z M 12.000 12.000 L 13.000 12.000 L 13.000 13.000 L 12.000 13.000 Z" fill-rule="evenodd"/>
<path fill="#000000" fill-opacity="0.341" d="M 12.000 3.000 L 13.000 3.000 L 13.000 4.000 L 12.000 4.000 Z" fill-rule="evenodd"/>
<path fill="#000000" fill-opacity="0.345" d="M 3.000 3.000 L 4.000 3.000 L 4.000 4.000 L 3.000 4.000 Z" fill-rule="evenodd"/>
<path fill="#000000" fill-opacity="0.400" d="M 7.000 11.000 L 8.000 11.000 L 8.000 12.000 L 7.000 12.000 Z" fill-rule="evenodd"/>
<path fill="#000000" fill-opacity="0.408" d="M 7.000 4.000 L 8.000 4.000 L 8.000 5.000 L 7.000 5.000 Z" fill-rule="evenodd"/>
<path fill="#000000" fill-opacity="0.463" d="M 4.000 12.000 L 5.000 12.000 L 5.000 13.000 L 4.000 13.000 Z M 11.000 12.000 L 12.000 12.000 L 12.000 13.000 L 11.000 13.000 Z" fill-rule="evenodd"/>
<path fill="#000000" fill-opacity="0.467" d="M 4.000 3.000 L 12.000 3.000 L 12.000 4.000 L 4.000 4.000 Z M 5.000 12.000 L 11.000 12.000 L 11.000 13.000 L 5.000 13.000 Z" fill-rule="evenodd"/>
<path fill="#000000" fill-opacity="0.612" d="M 8.000 6.000 L 9.000 6.000 L 9.000 7.000 L 8.000 7.000 Z M 8.000 9.000 L 9.000 9.000 L 9.000 10.000 L 8.000 10.000 Z" fill-rule="evenodd"/>
<path fill="#000000" fill-opacity="0.616" d="M 1.000 5.000 L 2.000 5.000 L 2.000 6.000 L 1.000 6.000 Z" fill-rule="evenodd"/>
<path fill="#000000" fill-opacity="0.620" d="M 14.000 5.000 L 15.000 5.000 L 15.000 6.000 L 14.000 6.000 Z M 1.000 10.000 L 2.000 10.000 L 2.000 11.000 L 1.000 11.000 Z" fill-rule="evenodd"/>
<path fill="#000000" fill-opacity="0.624" d="M 14.000 10.000 L 15.000 10.000 L 15.000 11.000 L 14.000 11.000 Z" fill-rule="evenodd"/>
<path fill="#000000" fill-opacity="0.631" d="M 8.000 7.000 L 9.000 7.000 L 9.000 8.000 L 8.000 8.000 Z M 8.000 8.000 L 9.000 8.000 L 9.000 9.000 L 8.000 9.000 Z" fill-rule="evenodd"/>
<path fill="#000000" fill-opacity="0.639" d="M 7.000 5.000 L 8.000 5.000 L 8.000 6.000 L 7.000 6.000 Z M 7.000 10.000 L 8.000 10.000 L 8.000 11.000 L 7.000 11.000 Z" fill-rule="evenodd"/>
<path fill="#000000" fill-opacity="0.643" d="M 15.000 6.000 L 16.000 6.000 L 16.000 7.000 L 15.000 7.000 Z M 0.000 7.000 L 1.000 7.000 L 1.000 8.000 L 0.000 8.000 Z M 15.000 7.000 L 16.000 7.000 L 16.000 8.000 L 15.000 8.000 Z M 0.000 8.000 L 1.000 8.000 L 1.000 9.000 L 0.000 9.000 Z M 15.000 8.000 L 16.000 8.000 L 16.000 9.000 L 15.000 9.000 Z M 0.000 9.000 L 1.000 9.000 L 1.000 10.000 L 0.000 10.000 Z M 15.000 9.000 L 16.000 9.000 L 16.000 10.000 L 15.000 10.000 Z" fill-rule="evenodd"/>
<path fill="#000000" fill-opacity="0.647" d="M 0.000 6.000 L 1.000 6.000 L 1.000 7.000 L 0.000 7.000 Z" fill-rule="evenodd"/>
<path fill="#000000" fill-opacity="0.706" d="M 2.000 4.000 L 3.000 4.000 L 3.000 5.000 L 2.000 5.000 Z M 13.000 4.000 L 14.000 4.000 L 14.000 5.000 L 13.000 5.000 Z M 2.000 11.000 L 3.000 11.000 L 3.000 12.000 L 2.000 12.000 Z" fill-rule="evenodd"/>
<path fill="#000000" fill-opacity="0.710" d="M 13.000 11.000 L 14.000 11.000 L 14.000 12.000 L 13.000 12.000 Z" fill-rule="evenodd"/>
<path fill="#000000" fill-opacity="0.769" d="M 6.000 4.000 L 7.000 4.000 L 7.000 5.000 L 6.000 5.000 Z" fill-rule="evenodd"/>
<path fill="#000000" fill-opacity="0.773" d="M 6.000 11.000 L 7.000 11.000 L 7.000 12.000 L 6.000 12.000 Z" fill-rule="evenodd"/>
</svg>