<?xml version="1.0" encoding="UTF-8"?>
<svg xmlns="http://www.w3.org/2000/svg" xmlns:xlink="http://www.w3.org/1999/xlink" version="1.1" viewBox="0 0 68 68">
  <defs>
    <style>
      .cls-1, .cls-2 {
        fill: none;
      }

      .cls-2 {
        stroke: #7fa828;
        stroke-width: 2px;
      }

      .cls-3 {
        fill: #60bcd3;
      }

      .cls-4 {
        fill: #7fa828;
      }

      .cls-5 {
        clip-path: url(#clippath);
      }
    </style>
    <clipPath id="clippath">
      <rect class="cls-1" x="18.1" y="5.7" width="34.2" height="56.7"/>
    </clipPath>
  </defs>
  <!-- Generator: Adobe Illustrator 28.6.0, SVG Export Plug-In . SVG Version: 1.2.0 Build 709)  -->
  <g>
    <g id="Ebene_1">
      <g class="cls-5">
        <path class="cls-4" d="M40.8,23h-.4c-.2.7-.4,1.2-.7,1.6-.3.4-.6.6-1,.7-.6.2-1.2.3-1.7.3h-8.9l6.8-9.5-6.1-8.5h8c.8,0,1.4.2,1.9.6.4.4.7,1.1.8,2.1h.4l-.3-3.6h-13.8v.4l7.2,9.9-7.2,10.1v.4h14.2l.7-4.5Z"/>
        <path class="cls-2" d="M40.8,23h-.4c-.2.7-.4,1.2-.7,1.6-.3.4-.6.6-1,.7-.6.2-1.2.3-1.7.3h-8.9l6.8-9.5-6.1-8.5h8c.8,0,1.4.2,1.9.6.4.4.7,1.1.8,2.1h.4l-.3-3.6h-13.8v.4l7.2,9.9-7.2,10.1v.4h14.2l.7-4.5Z"/>
        <path class="cls-3" d="M18.1,52.5v9.9h34.1s0-.4,0-.4v-20.9c0-1.5-1.5-1.5-1.5-1.5h-3.8c-1.5,0-1.5,1.5-1.5,1.5v19.1s-2.4,0-2.4,0v-12.1c0-1.5-1.5-1.5-1.5-1.5h-3.8c-1.5,0-1.5,1.5-1.5,1.5v12.1h-2.5s0-3.6,0-3.6c0-1.5-1.5-1.5-1.5-1.5h-3.8c-1.5,0-1.5,1.5-1.5,1.5v3.6s-2.5,0-2.5,0v-7.7c0-1.5-1.5-1.5-1.5-1.5h-3.8c-1.5,0-1.5,1.5-1.5,1.5M52.3,31.6c0-1.9-1.6-3.5-3.5-3.5s-3.5,1.6-3.5,3.5c0,.5.1,1,.3,1.4l-3.9,2.8c-.6-.5-1.3-.7-2.1-.7-1.9,0-3.5,1.6-3.5,3.5,0,.6.2,1.2.5,1.7l-4.2,4.3c-.5-.3-1.2-.5-1.8-.5-1.1,0-2.2.6-2.8,1.4l-2.7-1.7c0-.2,0-.5,0-.7,0-1.9-1.6-3.5-3.5-3.5s-3.5,1.6-3.5,3.5,1.6,3.5,3.5,3.5,2-.5,2.7-1.3l2.7,1.7c0,.2,0,.4,0,.6,0,1.9,1.6,3.5,3.5,3.5,1.9,0,3.5-1.6,3.5-3.5s-.2-1.3-.5-1.8l4.2-4.2c.6.4,1.2.6,1.9.6,1.9,0,3.5-1.6,3.5-3.5s-.1-1-.4-1.5l3.9-2.8c.6.5,1.4.8,2.2.8,1.9,0,3.5-1.6,3.5-3.5"/>
      </g>
    </g>
  </g>
</svg>