<?xml version="1.0" encoding="UTF-8"?>
<svg xmlns="http://www.w3.org/2000/svg" xmlns:xlink="http://www.w3.org/1999/xlink" version="1.1" viewBox="0 0 68 68">
  <defs>
    <style>
      .cls-1 {
        fill: none;
      }

      .cls-2 {
        fill: #60bcd3;
      }

      .cls-3 {
        fill: #7fa828;
      }

      .cls-4 {
        clip-path: url(#clippath);
      }
    </style>
    <clipPath id="clippath">
      <rect class="cls-1" x="9.3" y="8.9" width="49.5" height="52.5"/>
    </clipPath>
  </defs>
  <!-- Generator: Adobe Illustrator 28.6.0, SVG Export Plug-In . SVG Version: 1.2.0 Build 709)  -->
  <g>
    <g id="Ebene_1">
      <g class="cls-4">
        <path class="cls-2" d="M58.8,33.7c0-13.7-11.1-24.8-24.8-24.8s-24.8,11.1-24.8,24.8,4.9,16.9,12.1,21.3l1.9-4.7c-5.3-3.5-8.8-9.5-8.8-16.3,0-10.8,8.8-19.6,19.7-19.6s19.7,8.8,19.7,19.6-8.8,19.6-19.7,19.6-1.7,0-2.6-.2l-3.3,4.5c1.9.4,3.8.7,5.8.7,13.7,0,24.8-11.1,24.8-24.8"/>
      </g>
      <polygon class="cls-3" points="32.6 20.7 24.2 40.6 29.8 40.6 21.6 61.4 42.6 35.1 34.9 35.1 46 20.7 32.6 20.7"/>
    </g>
  </g>
</svg>