<svg xmlns="http://www.w3.org/2000/svg" viewBox="0 0 16 16">
<path fill="#000000" fill-opacity="0.004" d="M 2.000 2.000 L 3.000 2.000 L 3.000 3.000 L 2.000 3.000 Z M 13.000 2.000 L 14.000 2.000 L 14.000 3.000 L 13.000 3.000 Z" fill-rule="evenodd"/>
<path fill="#000000" fill-opacity="0.012" d="M 2.000 13.000 L 3.000 13.000 L 3.000 14.000 L 2.000 14.000 Z M 13.000 13.000 L 14.000 13.000 L 14.000 14.000 L 13.000 14.000 Z" fill-rule="evenodd"/>
<path fill="#000000" fill-opacity="0.157" d="M 2.000 4.000 L 3.000 4.000 L 3.000 5.000 L 2.000 5.000 Z M 13.000 4.000 L 14.000 4.000 L 14.000 5.000 L 13.000 5.000 Z" fill-rule="evenodd"/>
<path fill="#000000" fill-opacity="0.165" d="M 2.000 11.000 L 3.000 11.000 L 3.000 12.000 L 2.000 12.000 Z M 13.000 11.000 L 14.000 11.000 L 14.000 12.000 L 13.000 12.000 Z M 4.000 13.000 L 5.000 13.000 L 5.000 14.000 L 4.000 14.000 Z M 11.000 13.000 L 12.000 13.000 L 12.000 14.000 L 11.000 14.000 Z" fill-rule="evenodd"/>
<path fill="#000000" fill-opacity="0.173" d="M 4.000 2.000 L 5.000 2.000 L 5.000 3.000 L 4.000 3.000 Z M 11.000 2.000 L 12.000 2.000 L 12.000 3.000 L 11.000 3.000 Z" fill-rule="evenodd"/>
<path fill="#000000" fill-opacity="0.235" d="M 3.000 5.000 L 4.000 5.000 L 4.000 6.000 L 3.000 6.000 Z M 8.000 5.000 L 9.000 5.000 L 9.000 6.000 L 8.000 6.000 Z M 5.000 7.000 L 6.000 7.000 L 6.000 8.000 L 5.000 8.000 Z M 5.000 8.000 L 6.000 8.000 L 6.000 9.000 L 5.000 9.000 Z M 3.000 10.000 L 4.000 10.000 L 4.000 11.000 L 3.000 11.000 Z M 8.000 10.000 L 9.000 10.000 L 9.000 11.000 L 8.000 11.000 Z" fill-rule="evenodd"/>
<path fill="#000000" fill-opacity="0.247" d="M 5.000 3.000 L 6.000 3.000 L 6.000 4.000 L 5.000 4.000 Z M 10.000 3.000 L 11.000 3.000 L 11.000 4.000 L 10.000 4.000 Z M 6.000 4.000 L 7.000 4.000 L 7.000 5.000 L 6.000 5.000 Z M 9.000 4.000 L 10.000 4.000 L 10.000 5.000 L 9.000 5.000 Z M 4.000 6.000 L 5.000 6.000 L 5.000 7.000 L 4.000 7.000 Z M 11.000 6.000 L 12.000 6.000 L 12.000 7.000 L 11.000 7.000 Z M 4.000 9.000 L 5.000 9.000 L 5.000 10.000 L 4.000 10.000 Z M 11.000 9.000 L 12.000 9.000 L 12.000 10.000 L 11.000 10.000 Z M 6.000 11.000 L 7.000 11.000 L 7.000 12.000 L 6.000 12.000 Z M 9.000 11.000 L 10.000 11.000 L 10.000 12.000 L 9.000 12.000 Z M 5.000 12.000 L 6.000 12.000 L 6.000 13.000 L 5.000 13.000 Z M 10.000 12.000 L 11.000 12.000 L 11.000 13.000 L 10.000 13.000 Z" fill-rule="evenodd"/>
<path fill="#000000" fill-opacity="0.255" d="M 12.000 5.000 L 13.000 5.000 L 13.000 6.000 L 12.000 6.000 Z M 10.000 7.000 L 11.000 7.000 L 11.000 8.000 L 10.000 8.000 Z M 7.000 10.000 L 8.000 10.000 L 8.000 11.000 L 7.000 11.000 Z" fill-rule="evenodd"/>
<path fill="#000000" fill-opacity="0.259" d="M 7.000 5.000 L 8.000 5.000 L 8.000 6.000 L 7.000 6.000 Z M 10.000 8.000 L 11.000 8.000 L 11.000 9.000 L 10.000 9.000 Z M 12.000 10.000 L 13.000 10.000 L 13.000 11.000 L 12.000 11.000 Z" fill-rule="evenodd"/>
<path fill="#000000" fill-opacity="0.325" d="M 13.000 3.000 L 14.000 3.000 L 14.000 4.000 L 13.000 4.000 Z" fill-rule="evenodd"/>
<path fill="#000000" fill-opacity="0.329" d="M 2.000 3.000 L 3.000 3.000 L 3.000 4.000 L 2.000 4.000 Z" fill-rule="evenodd"/>
<path fill="#000000" fill-opacity="0.333" d="M 3.000 2.000 L 4.000 2.000 L 4.000 3.000 L 3.000 3.000 Z M 12.000 2.000 L 13.000 2.000 L 13.000 3.000 L 12.000 3.000 Z" fill-rule="evenodd"/>
<path fill="#000000" fill-opacity="0.337" d="M 13.000 12.000 L 14.000 12.000 L 14.000 13.000 L 13.000 13.000 Z" fill-rule="evenodd"/>
<path fill="#000000" fill-opacity="0.341" d="M 2.000 12.000 L 3.000 12.000 L 3.000 13.000 L 2.000 13.000 Z M 3.000 13.000 L 4.000 13.000 L 4.000 14.000 L 3.000 14.000 Z M 12.000 13.000 L 13.000 13.000 L 13.000 14.000 L 12.000 14.000 Z" fill-rule="evenodd"/>
<path fill="#000000" fill-opacity="0.949" d="M 4.000 5.000 L 5.000 5.000 L 5.000 6.000 L 4.000 6.000 Z M 6.000 7.000 L 7.000 7.000 L 7.000 8.000 L 6.000 8.000 Z M 9.000 10.000 L 10.000 10.000 L 10.000 11.000 L 9.000 11.000 Z" fill-rule="evenodd"/>
<path fill="#000000" fill-opacity="0.953" d="M 9.000 5.000 L 10.000 5.000 L 10.000 6.000 L 9.000 6.000 Z M 6.000 8.000 L 7.000 8.000 L 7.000 9.000 L 6.000 9.000 Z M 4.000 10.000 L 5.000 10.000 L 5.000 11.000 L 4.000 11.000 Z" fill-rule="evenodd"/>
<path fill="#000000" fill-opacity="0.957" d="M 4.000 3.000 L 5.000 3.000 L 5.000 4.000 L 4.000 4.000 Z M 11.000 3.000 L 12.000 3.000 L 12.000 4.000 L 11.000 4.000 Z M 3.000 4.000 L 4.000 4.000 L 4.000 5.000 L 3.000 5.000 Z M 5.000 4.000 L 6.000 4.000 L 6.000 5.000 L 5.000 5.000 Z M 10.000 4.000 L 11.000 4.000 L 11.000 5.000 L 10.000 5.000 Z M 12.000 4.000 L 13.000 4.000 L 13.000 5.000 L 12.000 5.000 Z M 5.000 6.000 L 6.000 6.000 L 6.000 7.000 L 5.000 7.000 Z M 7.000 6.000 L 9.000 6.000 L 9.000 7.000 L 7.000 7.000 Z M 10.000 6.000 L 11.000 6.000 L 11.000 7.000 L 10.000 7.000 Z M 5.000 9.000 L 6.000 9.000 L 6.000 10.000 L 5.000 10.000 Z M 7.000 9.000 L 9.000 9.000 L 9.000 10.000 L 7.000 10.000 Z M 10.000 9.000 L 11.000 9.000 L 11.000 10.000 L 10.000 10.000 Z M 3.000 11.000 L 4.000 11.000 L 4.000 12.000 L 3.000 12.000 Z M 5.000 11.000 L 6.000 11.000 L 6.000 12.000 L 5.000 12.000 Z M 10.000 11.000 L 11.000 11.000 L 11.000 12.000 L 10.000 12.000 Z M 12.000 11.000 L 13.000 11.000 L 13.000 12.000 L 12.000 12.000 Z M 4.000 12.000 L 5.000 12.000 L 5.000 13.000 L 4.000 13.000 Z M 11.000 12.000 L 12.000 12.000 L 12.000 13.000 L 11.000 13.000 Z" fill-rule="evenodd"/>
<path fill="#000000" fill-opacity="0.961" d="M 6.000 5.000 L 7.000 5.000 L 7.000 6.000 L 6.000 6.000 Z M 11.000 5.000 L 12.000 5.000 L 12.000 6.000 L 11.000 6.000 Z M 9.000 7.000 L 10.000 7.000 L 10.000 8.000 L 9.000 8.000 Z M 9.000 8.000 L 10.000 8.000 L 10.000 9.000 L 9.000 9.000 Z M 6.000 10.000 L 7.000 10.000 L 7.000 11.000 L 6.000 11.000 Z M 11.000 10.000 L 12.000 10.000 L 12.000 11.000 L 11.000 11.000 Z" fill-rule="evenodd"/>
<path fill="#000000" d="M 3.000 3.000 L 4.000 3.000 L 4.000 4.000 L 3.000 4.000 Z M 12.000 3.000 L 13.000 3.000 L 13.000 4.000 L 12.000 4.000 Z M 4.000 4.000 L 5.000 4.000 L 5.000 5.000 L 4.000 5.000 Z M 11.000 4.000 L 12.000 4.000 L 12.000 5.000 L 11.000 5.000 Z M 5.000 5.000 L 6.000 5.000 L 6.000 6.000 L 5.000 6.000 Z M 10.000 5.000 L 11.000 5.000 L 11.000 6.000 L 10.000 6.000 Z M 6.000 6.000 L 7.000 6.000 L 7.000 7.000 L 6.000 7.000 Z M 9.000 6.000 L 10.000 6.000 L 10.000 7.000 L 9.000 7.000 Z M 7.000 7.000 L 9.000 7.000 L 9.000 8.000 L 7.000 8.000 Z M 7.000 8.000 L 9.000 8.000 L 9.000 9.000 L 7.000 9.000 Z M 6.000 9.000 L 7.000 9.000 L 7.000 10.000 L 6.000 10.000 Z M 9.000 9.000 L 10.000 9.000 L 10.000 10.000 L 9.000 10.000 Z M 5.000 10.000 L 6.000 10.000 L 6.000 11.000 L 5.000 11.000 Z M 10.000 10.000 L 11.000 10.000 L 11.000 11.000 L 10.000 11.000 Z M 4.000 11.000 L 5.000 11.000 L 5.000 12.000 L 4.000 12.000 Z M 11.000 11.000 L 12.000 11.000 L 12.000 12.000 L 11.000 12.000 Z M 3.000 12.000 L 4.000 12.000 L 4.000 13.000 L 3.000 13.000 Z M 12.000 12.000 L 13.000 12.000 L 13.000 13.000 L 12.000 13.000 Z" fill-rule="evenodd"/>
</svg>