<?xml version="1.0" encoding="UTF-8"?>
<svg xmlns="http://www.w3.org/2000/svg" xmlns:xlink="http://www.w3.org/1999/xlink" version="1.1" viewBox="0 0 68 68">
  <defs>
    <style>
      .cls-1 {
        fill: none;
      }

      .cls-2 {
        fill: #60bcd3;
      }

      .cls-3 {
        fill: #7fa828;
      }

      .cls-4 {
        clip-path: url(#clippath);
      }
    </style>
    <clipPath id="clippath">
      <rect class="cls-1" x="3.6" y="8.8" width="60.7" height="49.7"/>
    </clipPath>
  </defs>
  <!-- Generator: Adobe Illustrator 28.6.0, SVG Export Plug-In . SVG Version: 1.2.0 Build 709)  -->
  <g>
    <g id="Ebene_1">
      <g class="cls-4">
        <path class="cls-2" d="M59.8,49.1v4.8h-3.8s-47.7,0-47.7,0V20.1h47.7s3.8,0,3.8,0v29ZM64.4,54.1V19.9c0-2.4-2-4.4-4.5-4.4h-3.3s-29.7,0-29.7,0v-2.5c0-2.4-2-4.4-4.5-4.4h-14.4c-2.5,0-4.5,1.9-4.5,4.4v39.1h0v1.9s0,0,0,0v.5c0,.4.1.7.3,1,.6,1.7,2.3,2.8,4.2,2.8h51.8c2.5,0,4.5-1.9,4.5-4.4"/>
        <path class="cls-3" d="M28.6,39.5c1.2,2.9,4.6,4.4,7.6,3.2,3-1.2,4.5-4.5,3.2-7.5-1.2-2.9-4.6-4.4-7.6-3.2-3,1.2-4.5,4.5-3.2,7.5M22.9,40.5l-3.4-1.3v-4.4s3.5-1,3.5-1l.9-1.8-1.6-3.4,3.2-3,3.4,1.6.9-.4,1-.4,1.3-3.5h4.4s1.3,3.6,1.3,3.6l1.9.7,3.2-1.7,3.1,3.2-1.6,3.3.8,2,3.4,1.2v4.2c0,0-3.5,1.2-3.5,1.2l-.8,1.9,1.6,3.4-3.3,3-3.3-1.6-1,.4-1,.4-1.2,3.3h-4.5c0,.1-1.3-3.4-1.3-3.4l-1.9-.8-3.3,1.4-3.1-3,1.6-3.2-.8-2Z"/>
      </g>
    </g>
  </g>
</svg>