<?xml version="1.0" encoding="UTF-8"?>
<svg xmlns="http://www.w3.org/2000/svg" xmlns:xlink="http://www.w3.org/1999/xlink" version="1.1" viewBox="0 0 68 68">
  <defs>
    <style>
      .cls-1 {
        fill: none;
      }

      .cls-2 {
        fill: #60bcd3;
      }

      .cls-3 {
        fill: #7fa828;
      }
    </style>
  </defs>
  <g>
    <g id="Ebene_1">
      <rect class="cls-2" x="8" y="16" width="7" height="7" rx="1.4" ry="1.4"/>
      <rect class="cls-2" x="19" y="17.5" width="28" height="4" rx="1" ry="1"/>
      <rect class="cls-2" x="8" y="30.5" width="7" height="7" rx="1.4" ry="1.4"/>
      <rect class="cls-2" x="19" y="32" width="34" height="4" rx="1" ry="1"/>
      <rect class="cls-2" x="8" y="45" width="7" height="7" rx="1.4" ry="1.4"/>
      <rect class="cls-2" x="19" y="46.5" width="22" height="4" rx="1" ry="1"/>
      <path class="cls-3" d="M61.6,18.2l-4.8-4.8c-.9-.9-2.4-.9-3.3,0l-3.5,3.5,8.1,8.1,3.5-3.5c.9-.9.9-2.4,0-3.3Z"/>
      <path class="cls-3" d="M48.5,19l-19.6,19.6c-.2.2-.4.5-.5.8l-2.4,8.5c-.2.8.6,1.6,1.4,1.4l8.5-2.4c.3,0,.6-.3.8-.5l19.6-19.6-7.8-7.8Z"/>
    </g>
  </g>
</svg>
