<?xml version="1.0" encoding="UTF-8"?>
<svg xmlns="http://www.w3.org/2000/svg" xmlns:xlink="http://www.w3.org/1999/xlink" version="1.1" viewBox="0 0 68 68">
  <defs>
    <style>
      .cls-1 {
        fill: none;
      }

      .cls-2 {
        fill: #60bcd3;
      }

      .cls-3 {
        fill: #7fa828;
      }

      .cls-4 {
        clip-path: url(#clippath);
      }
    </style>
    <clipPath id="clippath">
      <rect class="cls-1" x="5.9" y="4.9" width="56.2" height="56.1"/>
    </clipPath>
  </defs>
  <!-- Generator: Adobe Illustrator 28.6.0, SVG Export Plug-In . SVG Version: 1.2.0 Build 709)  -->
  <g>
    <g id="Ebene_1">
      <polygon class="cls-3" points="38.8 4.9 29.2 17.3 34.9 17.3 34.9 31.2 38.8 31.2 42.7 31.2 42.7 17.3 48.4 17.3 38.8 4.9"/>
      <g class="cls-4">
        <path class="cls-2" d="M9.5,28.3h21.7v-3.6h-7.2v-2c0-1.9-1.6-3.5-3.5-3.5h-11.2c-1.9,0-3.5,1.6-3.5,3.5v29.8h0c0,1,.8,1.8,1.8,1.8s1.8-.8,1.8-1.8h0v-24.2ZM49.5,33.9h3.5v-5.5h0v-.2c0-1.9-1.6-3.5-3.5-3.5h-3.7v3.6h0s3.7,0,3.7,0h0s0,0,0,0v5.5ZM59.6,35.6H25.3c-4.4,0-5,1.8-6.2,4.1l-7,13.4c0,.2-.2.3-.2.4l-1.7,2.8s0,0,0,0c-.4.7-1.1,1.1-1.9,1.2-1,0-2.1-.7-2.2-1.8-.1.4-.1.7-.1,1.2,0,2.3,1.9,4.1,4.1,4.1h36.5c4.6,0,5-1.8,6.2-4.1l8.8-17.2c1.2-2.3.3-4.1-2-4.1"/>
      </g>
    </g>
  </g>
</svg>