<svg xmlns="http://www.w3.org/2000/svg" viewBox="0 0 16 16">
<path fill="#BF3F7F" fill-opacity="0.016" d="M 13.000 1.000 L 14.000 1.000 L 14.000 2.000 L 13.000 2.000 Z M 14.000 2.000 L 15.000 2.000 L 15.000 3.000 L 14.000 3.000 Z" fill-rule="evenodd"/>
<path fill="#B2B2B2" fill-opacity="0.157" d="M 1.000 14.000 L 2.000 14.000 L 2.000 15.000 L 1.000 15.000 Z" fill-rule="evenodd"/>
<path fill="#C8505F" fill-opacity="0.200" d="M 14.000 3.000 L 15.000 3.000 L 15.000 4.000 L 14.000 4.000 Z" fill-rule="evenodd"/>
<path fill="#C94E62" fill-opacity="0.204" d="M 12.000 1.000 L 13.000 1.000 L 13.000 2.000 L 12.000 2.000 Z" fill-rule="evenodd"/>
<path fill="#AFAFAF" fill-opacity="0.227" d="M 1.000 13.000 L 2.000 13.000 L 2.000 14.000 L 1.000 14.000 Z M 2.000 14.000 L 3.000 14.000 L 3.000 15.000 L 2.000 15.000 Z" fill-rule="evenodd"/>
<path fill="#D6C8CB" fill-opacity="0.369" d="M 13.000 4.000 L 14.000 4.000 L 14.000 5.000 L 13.000 5.000 Z" fill-rule="evenodd"/>
<path fill="#D9CBCE" fill-opacity="0.369" d="M 11.000 2.000 L 12.000 2.000 L 12.000 3.000 L 11.000 3.000 Z" fill-rule="evenodd"/>
<path fill="#DADADA" fill-opacity="0.388" d="M 10.000 3.000 L 11.000 3.000 L 11.000 4.000 L 10.000 4.000 Z" fill-rule="evenodd"/>
<path fill="#ECBE00" fill-opacity="0.388" d="M 9.000 4.000 L 10.000 4.000 L 10.000 5.000 L 9.000 5.000 Z M 7.000 6.000 L 8.000 6.000 L 8.000 7.000 L 7.000 7.000 Z M 6.000 7.000 L 7.000 7.000 L 7.000 8.000 L 6.000 8.000 Z M 5.000 8.000 L 6.000 8.000 L 6.000 9.000 L 5.000 9.000 Z M 4.000 9.000 L 5.000 9.000 L 5.000 10.000 L 4.000 10.000 Z M 3.000 10.000 L 4.000 10.000 L 4.000 11.000 L 3.000 11.000 Z" fill-rule="evenodd"/>
<path fill="#D6D6D6" fill-opacity="0.396" d="M 12.000 5.000 L 13.000 5.000 L 13.000 6.000 L 12.000 6.000 Z" fill-rule="evenodd"/>
<path fill="#EDBD00" fill-opacity="0.396" d="M 8.000 5.000 L 9.000 5.000 L 9.000 6.000 L 8.000 6.000 Z M 6.000 11.000 L 7.000 11.000 L 7.000 12.000 L 6.000 12.000 Z" fill-rule="evenodd"/>
<path fill="#EEBE00" fill-opacity="0.416" d="M 11.000 6.000 L 12.000 6.000 L 12.000 7.000 L 11.000 7.000 Z M 10.000 7.000 L 11.000 7.000 L 11.000 8.000 L 10.000 8.000 Z M 9.000 8.000 L 10.000 8.000 L 10.000 9.000 L 9.000 9.000 Z M 8.000 9.000 L 9.000 9.000 L 9.000 10.000 L 8.000 10.000 Z M 7.000 10.000 L 8.000 10.000 L 8.000 11.000 L 7.000 11.000 Z M 5.000 12.000 L 6.000 12.000 L 6.000 13.000 L 5.000 13.000 Z" fill-rule="evenodd"/>
<path fill="#F0CB37" fill-opacity="0.467" d="M 4.000 13.000 L 5.000 13.000 L 5.000 14.000 L 4.000 14.000 Z" fill-rule="evenodd"/>
<path fill="#EEC937" fill-opacity="0.471" d="M 2.000 11.000 L 3.000 11.000 L 3.000 12.000 L 2.000 12.000 Z" fill-rule="evenodd"/>
<path fill="#C84E5F" fill-opacity="0.659" d="M 13.000 2.000 L 14.000 2.000 L 14.000 3.000 L 13.000 3.000 Z" fill-rule="evenodd"/>
<path fill="#E2CA69" fill-opacity="0.765" d="M 11.000 5.000 L 12.000 5.000 L 12.000 6.000 L 11.000 6.000 Z" fill-rule="evenodd"/>
<path fill="#E2CB69" fill-opacity="0.780" d="M 10.000 4.000 L 11.000 4.000 L 11.000 5.000 L 10.000 5.000 Z" fill-rule="evenodd"/>
<path fill="#DBD5D6" fill-opacity="0.843" d="M 12.000 3.000 L 13.000 3.000 L 13.000 4.000 L 12.000 4.000 Z" fill-rule="evenodd"/>
<path fill="#EFE8CF" fill-opacity="0.890" d="M 2.000 12.000 L 3.000 12.000 L 3.000 13.000 L 2.000 13.000 Z" fill-rule="evenodd"/>
<path fill="#F0E9CD" fill-opacity="0.890" d="M 3.000 13.000 L 4.000 13.000 L 4.000 14.000 L 3.000 14.000 Z" fill-rule="evenodd"/>
<path fill="#CA5868" fill-opacity="0.937" d="M 12.000 2.000 L 13.000 2.000 L 13.000 3.000 L 12.000 3.000 Z" fill-rule="evenodd"/>
<path fill="#CB5A6A" fill-opacity="0.937" d="M 13.000 3.000 L 14.000 3.000 L 14.000 4.000 L 13.000 4.000 Z" fill-rule="evenodd"/>
<path fill="#D8D8D8" fill-opacity="0.992" d="M 11.000 4.000 L 13.000 4.000 L 13.000 5.000 L 11.000 5.000 Z" fill-rule="evenodd"/>
<path fill="#DBDBDB" fill-opacity="0.992" d="M 11.000 3.000 L 12.000 3.000 L 12.000 4.000 L 11.000 4.000 Z" fill-rule="evenodd"/>
<path fill="#ECBE00" fill-opacity="0.992" d="M 8.000 6.000 L 9.000 6.000 L 9.000 7.000 L 8.000 7.000 Z M 7.000 7.000 L 8.000 7.000 L 8.000 8.000 L 7.000 8.000 Z M 6.000 8.000 L 7.000 8.000 L 7.000 9.000 L 6.000 9.000 Z M 5.000 9.000 L 6.000 9.000 L 6.000 10.000 L 5.000 10.000 Z M 4.000 10.000 L 5.000 10.000 L 5.000 11.000 L 4.000 11.000 Z" fill-rule="evenodd"/>
<path fill="#ECBD00" fill-opacity="0.996" d="M 9.000 5.000 L 10.000 5.000 L 10.000 6.000 L 9.000 6.000 Z M 10.000 6.000 L 11.000 6.000 L 11.000 7.000 L 10.000 7.000 Z M 9.000 7.000 L 10.000 7.000 L 10.000 8.000 L 9.000 8.000 Z M 8.000 8.000 L 9.000 8.000 L 9.000 9.000 L 8.000 9.000 Z M 7.000 9.000 L 8.000 9.000 L 8.000 10.000 L 7.000 10.000 Z M 6.000 10.000 L 7.000 10.000 L 7.000 11.000 L 6.000 11.000 Z M 3.000 11.000 L 4.000 11.000 L 4.000 12.000 L 3.000 12.000 Z M 5.000 11.000 L 6.000 11.000 L 6.000 12.000 L 5.000 12.000 Z M 4.000 12.000 L 5.000 12.000 L 5.000 13.000 L 4.000 13.000 Z" fill-rule="evenodd"/>
<path fill="#BCBCBC" d="M 2.000 13.000 L 3.000 13.000 L 3.000 14.000 L 2.000 14.000 Z" fill-rule="evenodd"/>
<path fill="#EDBE00" d="M 10.000 5.000 L 11.000 5.000 L 11.000 6.000 L 10.000 6.000 Z M 9.000 6.000 L 10.000 6.000 L 10.000 7.000 L 9.000 7.000 Z M 8.000 7.000 L 9.000 7.000 L 9.000 8.000 L 8.000 8.000 Z M 7.000 8.000 L 8.000 8.000 L 8.000 9.000 L 7.000 9.000 Z M 6.000 9.000 L 7.000 9.000 L 7.000 10.000 L 6.000 10.000 Z M 5.000 10.000 L 6.000 10.000 L 6.000 11.000 L 5.000 11.000 Z M 4.000 11.000 L 5.000 11.000 L 5.000 12.000 L 4.000 12.000 Z" fill-rule="evenodd"/>
<path fill="#EDC41F" d="M 3.000 12.000 L 4.000 12.000 L 4.000 13.000 L 3.000 13.000 Z" fill-rule="evenodd"/>
</svg>