<svg xmlns="http://www.w3.org/2000/svg" viewBox="0 0 16 16">
<path fill="#000000" fill-opacity="0.004" d="M 15.000 10.000 L 16.000 10.000 L 16.000 11.000 L 15.000 11.000 Z M 4.000 12.000 L 5.000 12.000 L 5.000 13.000 L 4.000 13.000 Z" fill-rule="evenodd"/>
<path fill="#000000" fill-opacity="0.008" d="M 7.000 9.000 L 9.000 9.000 L 9.000 10.000 L 7.000 10.000 Z M 0.000 10.000 L 1.000 10.000 L 1.000 11.000 L 0.000 11.000 Z M 6.000 10.000 L 7.000 10.000 L 7.000 11.000 L 6.000 11.000 Z M 5.000 11.000 L 6.000 11.000 L 6.000 12.000 L 5.000 12.000 Z" fill-rule="evenodd"/>
<path fill="#000000" fill-opacity="0.012" d="M 9.000 10.000 L 10.000 10.000 L 10.000 11.000 L 9.000 11.000 Z M 10.000 11.000 L 11.000 11.000 L 11.000 12.000 L 10.000 12.000 Z M 11.000 12.000 L 12.000 12.000 L 12.000 13.000 L 11.000 13.000 Z" fill-rule="evenodd"/>
<path fill="#000000" fill-opacity="0.165" d="M 7.000 3.000 L 8.000 3.000 L 8.000 4.000 L 7.000 4.000 Z" fill-rule="evenodd"/>
<path fill="#000000" fill-opacity="0.173" d="M 14.000 9.000 L 15.000 9.000 L 15.000 10.000 L 14.000 10.000 Z" fill-rule="evenodd"/>
<path fill="#000000" fill-opacity="0.176" d="M 13.000 8.000 L 14.000 8.000 L 14.000 9.000 L 13.000 9.000 Z" fill-rule="evenodd"/>
<path fill="#000000" fill-opacity="0.180" d="M 8.000 3.000 L 9.000 3.000 L 9.000 4.000 L 8.000 4.000 Z" fill-rule="evenodd"/>
<path fill="#000000" fill-opacity="0.184" d="M 6.000 4.000 L 7.000 4.000 L 7.000 5.000 L 6.000 5.000 Z M 5.000 5.000 L 6.000 5.000 L 6.000 6.000 L 5.000 6.000 Z" fill-rule="evenodd"/>
<path fill="#000000" fill-opacity="0.188" d="M 4.000 6.000 L 5.000 6.000 L 5.000 7.000 L 4.000 7.000 Z M 3.000 7.000 L 4.000 7.000 L 4.000 8.000 L 3.000 8.000 Z" fill-rule="evenodd"/>
<path fill="#000000" fill-opacity="0.196" d="M 12.000 7.000 L 13.000 7.000 L 13.000 8.000 L 12.000 8.000 Z M 1.000 9.000 L 2.000 9.000 L 2.000 10.000 L 1.000 10.000 Z" fill-rule="evenodd"/>
<path fill="#000000" fill-opacity="0.200" d="M 11.000 6.000 L 12.000 6.000 L 12.000 7.000 L 11.000 7.000 Z M 2.000 8.000 L 3.000 8.000 L 3.000 9.000 L 2.000 9.000 Z" fill-rule="evenodd"/>
<path fill="#000000" fill-opacity="0.204" d="M 10.000 5.000 L 11.000 5.000 L 11.000 6.000 L 10.000 6.000 Z" fill-rule="evenodd"/>
<path fill="#000000" fill-opacity="0.208" d="M 9.000 4.000 L 10.000 4.000 L 10.000 5.000 L 9.000 5.000 Z" fill-rule="evenodd"/>
<path fill="#000000" fill-opacity="0.239" d="M 1.000 11.000 L 2.000 11.000 L 2.000 12.000 L 1.000 12.000 Z" fill-rule="evenodd"/>
<path fill="#000000" fill-opacity="0.263" d="M 2.000 12.000 L 3.000 12.000 L 3.000 13.000 L 2.000 13.000 Z" fill-rule="evenodd"/>
<path fill="#000000" fill-opacity="0.271" d="M 13.000 12.000 L 14.000 12.000 L 14.000 13.000 L 13.000 13.000 Z" fill-rule="evenodd"/>
<path fill="#000000" fill-opacity="0.298" d="M 14.000 11.000 L 15.000 11.000 L 15.000 12.000 L 14.000 12.000 Z" fill-rule="evenodd"/>
<path fill="#000000" fill-opacity="0.533" d="M 3.000 12.000 L 4.000 12.000 L 4.000 13.000 L 3.000 13.000 Z" fill-rule="evenodd"/>
<path fill="#000000" fill-opacity="0.592" d="M 12.000 12.000 L 13.000 12.000 L 13.000 13.000 L 12.000 13.000 Z" fill-rule="evenodd"/>
<path fill="#000000" fill-opacity="0.608" d="M 5.000 10.000 L 6.000 10.000 L 6.000 11.000 L 5.000 11.000 Z M 4.000 11.000 L 5.000 11.000 L 5.000 12.000 L 4.000 12.000 Z" fill-rule="evenodd"/>
<path fill="#000000" fill-opacity="0.616" d="M 6.000 9.000 L 7.000 9.000 L 7.000 10.000 L 6.000 10.000 Z" fill-rule="evenodd"/>
<path fill="#000000" fill-opacity="0.620" d="M 7.000 8.000 L 8.000 8.000 L 8.000 9.000 L 7.000 9.000 Z" fill-rule="evenodd"/>
<path fill="#000000" fill-opacity="0.627" d="M 8.000 8.000 L 9.000 8.000 L 9.000 9.000 L 8.000 9.000 Z" fill-rule="evenodd"/>
<path fill="#000000" fill-opacity="0.631" d="M 9.000 9.000 L 10.000 9.000 L 10.000 10.000 L 9.000 10.000 Z" fill-rule="evenodd"/>
<path fill="#000000" fill-opacity="0.639" d="M 11.000 11.000 L 12.000 11.000 L 12.000 12.000 L 11.000 12.000 Z" fill-rule="evenodd"/>
<path fill="#000000" fill-opacity="0.643" d="M 10.000 10.000 L 11.000 10.000 L 11.000 11.000 L 10.000 11.000 Z" fill-rule="evenodd"/>
<path fill="#000000" fill-opacity="0.875" d="M 14.000 10.000 L 15.000 10.000 L 15.000 11.000 L 14.000 11.000 Z" fill-rule="evenodd"/>
<path fill="#000000" fill-opacity="0.894" d="M 1.000 10.000 L 2.000 10.000 L 2.000 11.000 L 1.000 11.000 Z" fill-rule="evenodd"/>
<path fill="#000000" fill-opacity="0.918" d="M 12.000 8.000 L 13.000 8.000 L 13.000 9.000 L 12.000 9.000 Z M 13.000 9.000 L 14.000 9.000 L 14.000 10.000 L 13.000 10.000 Z" fill-rule="evenodd"/>
<path fill="#000000" fill-opacity="0.922" d="M 7.000 4.000 L 8.000 4.000 L 8.000 5.000 L 7.000 5.000 Z M 6.000 5.000 L 7.000 5.000 L 7.000 6.000 L 6.000 6.000 Z M 5.000 6.000 L 6.000 6.000 L 6.000 7.000 L 5.000 7.000 Z" fill-rule="evenodd"/>
<path fill="#000000" fill-opacity="0.925" d="M 4.000 7.000 L 5.000 7.000 L 5.000 8.000 L 4.000 8.000 Z" fill-rule="evenodd"/>
<path fill="#000000" fill-opacity="0.929" d="M 2.000 9.000 L 3.000 9.000 L 3.000 10.000 L 2.000 10.000 Z" fill-rule="evenodd"/>
<path fill="#000000" fill-opacity="0.933" d="M 11.000 7.000 L 12.000 7.000 L 12.000 8.000 L 11.000 8.000 Z M 3.000 8.000 L 4.000 8.000 L 4.000 9.000 L 3.000 9.000 Z" fill-rule="evenodd"/>
<path fill="#000000" fill-opacity="0.937" d="M 8.000 4.000 L 9.000 4.000 L 9.000 5.000 L 8.000 5.000 Z M 9.000 5.000 L 10.000 5.000 L 10.000 6.000 L 9.000 6.000 Z M 10.000 6.000 L 11.000 6.000 L 11.000 7.000 L 10.000 7.000 Z" fill-rule="evenodd"/>
<path fill="#000000" fill-opacity="0.953" d="M 2.000 11.000 L 3.000 11.000 L 3.000 12.000 L 2.000 12.000 Z" fill-rule="evenodd"/>
<path fill="#000000" fill-opacity="0.973" d="M 13.000 11.000 L 14.000 11.000 L 14.000 12.000 L 13.000 12.000 Z" fill-rule="evenodd"/>
<path fill="#000000" d="M 7.000 5.000 L 9.000 5.000 L 9.000 6.000 L 7.000 6.000 Z M 6.000 6.000 L 10.000 6.000 L 10.000 7.000 L 6.000 7.000 Z M 5.000 7.000 L 11.000 7.000 L 11.000 8.000 L 5.000 8.000 Z M 4.000 8.000 L 7.000 8.000 L 7.000 9.000 L 4.000 9.000 Z M 9.000 8.000 L 12.000 8.000 L 12.000 9.000 L 9.000 9.000 Z M 3.000 9.000 L 6.000 9.000 L 6.000 10.000 L 3.000 10.000 Z M 10.000 9.000 L 13.000 9.000 L 13.000 10.000 L 10.000 10.000 Z M 2.000 10.000 L 5.000 10.000 L 5.000 11.000 L 2.000 11.000 Z M 11.000 10.000 L 14.000 10.000 L 14.000 11.000 L 11.000 11.000 Z M 3.000 11.000 L 4.000 11.000 L 4.000 12.000 L 3.000 12.000 Z M 12.000 11.000 L 13.000 11.000 L 13.000 12.000 L 12.000 12.000 Z" fill-rule="evenodd"/>
</svg>