<?xml version="1.0" encoding="UTF-8"?>
<svg xmlns="http://www.w3.org/2000/svg" xmlns:xlink="http://www.w3.org/1999/xlink" version="1.1" viewBox="0 0 68 68">
  <defs>
    <style>
      .cls-1, .cls-2 {
        fill: none;
      }

      .cls-3 {
        fill: #fff;
      }

      .cls-4 {
        fill: #60bcd3;
      }

      .cls-2 {
        stroke: #fff;
        stroke-width: .3px;
      }

      .cls-5 {
        fill: #7fa828;
      }

      .cls-6 {
        clip-path: url(#clippath);
      }
    </style>
    <clipPath id="clippath">
      <rect class="cls-1" x="6.6" y="4.7" width="58" height="56.3"/>
    </clipPath>
  </defs>
  <!-- Generator: Adobe Illustrator 28.6.0, SVG Export Plug-In . SVG Version: 1.2.0 Build 709)  -->
  <g>
    <g id="Ebene_1">
      <g class="cls-6">
        <path class="cls-4" d="M40.1,24.1c0-1-.8-1.9-1.9-1.9s0,0,0,0h0s-9.1,0-9.1,0h-13.5s0,0,0,0c-1,0-1.9.8-1.9,1.9s.8,1.9,1.9,1.9,0,0,0,0h0s9.1,0,9.1,0h13.5s0,0,0,0c1,0,1.9-.8,1.9-1.9"/>
        <path class="cls-4" d="M45.3,13.9h-5.6v-5.4h0l.9.9,3.2,3.1,1.5,1.4ZM10.3,8.5h25.7v7.2h0s0,0,0,0c0,1,.8,1.9,1.9,1.9s0,0,.1,0c0,0,0,0,.1,0s0,0,0,0h0s7.4,0,7.4,0v1.7s0,0,0,0v37.9s-8.9,0-8.9,0h0s-26.2,0-26.2,0V8.5ZM49.2,13.4c0-.5-.2-1.1-.6-1.5,0,0,0,0,0,0h0s-2.2-2.1-2.2-2.1l-3.2-3.1-1.5-1.4h0s0,0,0,0c-.3-.3-.8-.5-1.2-.5h0s-31.4,0-31.4,0c-1.4,0-2.5,1.1-2.5,2.5v51.4c0,1.4,1.1,2.5,2.5,2.5h28.9,0s8.8,0,8.8,0c1.4,0,2.5-1.1,2.5-2.5V13.4Z"/>
        <path class="cls-4" d="M40.1,30.6c0-1-.8-1.9-1.9-1.9s0,0,0,0h0s-9.1,0-9.1,0h-13.5s0,0,0,0c-1,0-1.9.8-1.9,1.9s.8,1.9,1.9,1.9,0,0,0,0h0s9.1,0,9.1,0h13.5s0,0,0,0c1,0,1.9-.8,1.9-1.9"/>
        <path class="cls-4" d="M40.1,37.2c0-1-.8-1.9-1.9-1.9s0,0,0,0h0s-9.1,0-9.1,0h-13.5s0,0,0,0c-1,0-1.9.8-1.9,1.9s.8,1.9,1.9,1.9,0,0,0,0h0s9.1,0,9.1,0h13.5s0,0,0,0c1,0,1.9-.8,1.9-1.9"/>
        <path class="cls-4" d="M40.1,43.7c0-1-.8-1.9-1.9-1.9s0,0,0,0h0s-9.1,0-9.1,0h-13.5s0,0,0,0c-1,0-1.9.8-1.9,1.9s.8,1.9,1.9,1.9,0,0,0,0h0s9.1,0,9.1,0h13.5s0,0,0,0c1,0,1.9-.8,1.9-1.9"/>
        <path class="cls-4" d="M38.2,50.5c0-1-.8-1.9-1.9-1.9s0,0,0,0h0s-2.7,0-2.7,0H15.6s0,0,0,0c-1,0-1.9.8-1.9,1.9s.8,1.9,1.9,1.9,0,0,0,0h0s9.1,0,9.1,0h11.6s0,0,0,0c1,0,1.9-.8,1.9-1.9"/>
        <path class="cls-3" d="M49.2,54.3c8.5,0,15.3-6.9,15.3-15.3s-6.9-15.3-15.3-15.3-15.3,6.9-15.3,15.3,6.9,15.3,15.3,15.3"/>
        <path class="cls-5" d="M49.6,52.1c7.1,0,12.9-5.8,12.9-12.9s-5.8-12.9-12.9-12.9-12.9,5.8-12.9,12.9,5.8,12.9,12.9,12.9"/>
        <path class="cls-3" d="M57.4,34.2c-.5-.5-1.4-.5-1.9,0,0,0,0,0,0,0h0s-7.4,7.7-7.4,7.7l-4.1-4h0s0,0,0,0c-.5-.6-1.4-.6-1.9,0-.5.5-.5,1.4,0,1.9,0,0,0,0,0,0h0s6,6.1,6,6.1h0s0,0,0,0l9.4-9.7h0s0,0,0,0c.5-.6.5-1.4,0-1.9"/>
        <path class="cls-2" d="M57.4,34.2c-.5-.5-1.4-.5-1.9,0,0,0,0,0,0,0h0s-7.4,7.7-7.4,7.7l-4.1-4h0s0,0,0,0c-.5-.6-1.4-.6-1.9,0-.5.5-.5,1.4,0,1.9,0,0,0,0,0,0h0s6,6.1,6,6.1h0s0,0,0,0l9.4-9.7h0s0,0,0,0c.5-.6.5-1.4,0-1.9Z"/>
      </g>
    </g>
  </g>
</svg>