<svg xmlns="http://www.w3.org/2000/svg" viewBox="0 0 24 24">
<path fill="#7F7FFF" fill-opacity="0.008" d="M 22.000 4.000 L 23.000 4.000 L 23.000 5.000 L 22.000 5.000 Z M 22.000 19.000 L 23.000 19.000 L 23.000 20.000 L 22.000 20.000 Z" fill-rule="evenodd"/>
<path fill="#3FBFBF" fill-opacity="0.016" d="M 22.000 5.000 L 23.000 5.000 L 23.000 6.000 L 22.000 6.000 Z M 22.000 6.000 L 23.000 6.000 L 23.000 7.000 L 22.000 7.000 Z M 22.000 7.000 L 23.000 7.000 L 23.000 8.000 L 22.000 8.000 Z M 22.000 8.000 L 23.000 8.000 L 23.000 9.000 L 22.000 9.000 Z M 22.000 9.000 L 23.000 9.000 L 23.000 10.000 L 22.000 10.000 Z M 22.000 10.000 L 23.000 10.000 L 23.000 11.000 L 22.000 11.000 Z M 22.000 11.000 L 23.000 11.000 L 23.000 12.000 L 22.000 12.000 Z M 22.000 12.000 L 23.000 12.000 L 23.000 13.000 L 22.000 13.000 Z M 22.000 13.000 L 23.000 13.000 L 23.000 14.000 L 22.000 14.000 Z M 22.000 14.000 L 23.000 14.000 L 23.000 15.000 L 22.000 15.000 Z M 22.000 15.000 L 23.000 15.000 L 23.000 16.000 L 22.000 16.000 Z M 22.000 16.000 L 23.000 16.000 L 23.000 17.000 L 22.000 17.000 Z M 22.000 17.000 L 23.000 17.000 L 23.000 18.000 L 22.000 18.000 Z M 22.000 18.000 L 23.000 18.000 L 23.000 19.000 L 22.000 19.000 Z" fill-rule="evenodd"/>
<path fill="#5F9FDF" fill-opacity="0.063" d="M 19.000 4.000 L 20.000 4.000 L 20.000 5.000 L 19.000 5.000 Z" fill-rule="evenodd"/>
<path fill="#5AA5E1" fill-opacity="0.067" d="M 11.000 10.000 L 12.000 10.000 L 12.000 11.000 L 11.000 11.000 Z M 19.000 19.000 L 20.000 19.000 L 20.000 20.000 L 19.000 20.000 Z" fill-rule="evenodd"/>
<path fill="#619DDA" fill-opacity="0.082" d="M 11.000 13.000 L 12.000 13.000 L 12.000 14.000 L 11.000 14.000 Z" fill-rule="evenodd"/>
<path fill="#5CA2DC" fill-opacity="0.086" d="M 8.000 4.000 L 9.000 4.000 L 9.000 5.000 L 8.000 5.000 Z M 8.000 19.000 L 9.000 19.000 L 9.000 20.000 L 8.000 20.000 Z" fill-rule="evenodd"/>
<path fill="#58A6DD" fill-opacity="0.090" d="M 13.000 8.000 L 14.000 8.000 L 14.000 9.000 L 13.000 9.000 Z M 14.000 9.000 L 15.000 9.000 L 15.000 10.000 L 14.000 10.000 Z M 14.000 14.000 L 15.000 14.000 L 15.000 15.000 L 14.000 15.000 Z M 13.000 15.000 L 14.000 15.000 L 14.000 16.000 L 13.000 16.000 Z" fill-rule="evenodd"/>
<path fill="#5BA3D6" fill-opacity="0.098" d="M 15.000 13.000 L 16.000 13.000 L 16.000 14.000 L 15.000 14.000 Z" fill-rule="evenodd"/>
<path fill="#62A6D7" fill-opacity="0.102" d="M 15.000 10.000 L 16.000 10.000 L 16.000 11.000 L 15.000 11.000 Z" fill-rule="evenodd"/>
<path fill="#5BA3DA" fill-opacity="0.110" d="M 6.000 2.000 L 7.000 2.000 L 7.000 3.000 L 6.000 3.000 Z M 6.000 21.000 L 7.000 21.000 L 7.000 22.000 L 6.000 22.000 Z" fill-rule="evenodd"/>
<path fill="#5AA4DE" fill-opacity="0.122" d="M 21.000 21.000 L 22.000 21.000 L 22.000 22.000 L 21.000 22.000 Z" fill-rule="evenodd"/>
<path fill="#5F9FD7" fill-opacity="0.125" d="M 21.000 2.000 L 22.000 2.000 L 22.000 3.000 L 21.000 3.000 Z" fill-rule="evenodd"/>
<path fill="#5DA2DA" fill-opacity="0.714" d="M 6.000 20.000 L 7.000 20.000 L 7.000 21.000 L 6.000 21.000 Z" fill-rule="evenodd"/>
<path fill="#5DA1DA" fill-opacity="0.718" d="M 6.000 3.000 L 7.000 3.000 L 7.000 4.000 L 6.000 4.000 Z M 7.000 21.000 L 8.000 21.000 L 8.000 22.000 L 7.000 22.000 Z" fill-rule="evenodd"/>
<path fill="#5DA2DB" fill-opacity="0.725" d="M 7.000 2.000 L 8.000 2.000 L 8.000 3.000 L 7.000 3.000 Z" fill-rule="evenodd"/>
<path fill="#5EA1DB" fill-opacity="0.729" d="M 20.000 21.000 L 21.000 21.000 L 21.000 22.000 L 20.000 22.000 Z" fill-rule="evenodd"/>
<path fill="#5EA2DB" fill-opacity="0.733" d="M 20.000 2.000 L 21.000 2.000 L 21.000 3.000 L 20.000 3.000 Z" fill-rule="evenodd"/>
<path fill="#5DA1DA" fill-opacity="0.737" d="M 21.000 20.000 L 22.000 20.000 L 22.000 21.000 L 21.000 21.000 Z" fill-rule="evenodd"/>
<path fill="#5EA1DA" fill-opacity="0.741" d="M 21.000 3.000 L 22.000 3.000 L 22.000 4.000 L 21.000 4.000 Z" fill-rule="evenodd"/>
<path fill="#5DA2DA" fill-opacity="0.745" d="M 11.000 15.000 L 12.000 15.000 L 12.000 16.000 L 11.000 16.000 Z" fill-rule="evenodd"/>
<path fill="#5DA1DA" fill-opacity="0.749" d="M 6.000 5.000 L 7.000 5.000 L 7.000 6.000 L 6.000 6.000 Z M 4.000 12.000 L 5.000 12.000 L 5.000 13.000 L 4.000 13.000 Z" fill-rule="evenodd"/>
<path fill="#5EA2DB" fill-opacity="0.753" d="M 4.000 11.000 L 5.000 11.000 L 5.000 12.000 L 4.000 12.000 Z M 6.000 18.000 L 7.000 18.000 L 7.000 19.000 L 6.000 19.000 Z" fill-rule="evenodd"/>
<path fill="#5DA2DA" fill-opacity="0.769" d="M 11.000 8.000 L 12.000 8.000 L 12.000 9.000 L 11.000 9.000 Z" fill-rule="evenodd"/>
<path fill="#5EA2DA" fill-opacity="0.776" d="M 7.000 5.000 L 8.000 5.000 L 8.000 6.000 L 7.000 6.000 Z M 11.000 14.000 L 12.000 14.000 L 12.000 15.000 L 11.000 15.000 Z M 7.000 18.000 L 8.000 18.000 L 8.000 19.000 L 7.000 19.000 Z" fill-rule="evenodd"/>
<path fill="#5DA1DB" fill-opacity="0.780" d="M 11.000 9.000 L 12.000 9.000 L 12.000 10.000 L 11.000 10.000 Z" fill-rule="evenodd"/>
<path fill="#5EA1DB" fill-opacity="0.784" d="M 12.000 15.000 L 13.000 15.000 L 13.000 16.000 L 12.000 16.000 Z" fill-rule="evenodd"/>
<path fill="#5DA2DA" fill-opacity="0.800" d="M 12.000 10.000 L 13.000 10.000 L 13.000 11.000 L 12.000 11.000 Z" fill-rule="evenodd"/>
<path fill="#5DA2DB" fill-opacity="0.812" d="M 12.000 8.000 L 13.000 8.000 L 13.000 9.000 L 12.000 9.000 Z M 15.000 11.000 L 16.000 11.000 L 16.000 12.000 L 15.000 12.000 Z M 15.000 12.000 L 16.000 12.000 L 16.000 13.000 L 15.000 13.000 Z" fill-rule="evenodd"/>
<path fill="#5DA2DA" fill-opacity="0.820" d="M 12.000 13.000 L 13.000 13.000 L 13.000 14.000 L 12.000 14.000 Z" fill-rule="evenodd"/>
<path fill="#5EA2DB" fill-opacity="0.839" d="M 13.000 9.000 L 14.000 9.000 L 14.000 10.000 L 13.000 10.000 Z M 13.000 14.000 L 14.000 14.000 L 14.000 15.000 L 13.000 15.000 Z" fill-rule="evenodd"/>
<path fill="#5EA1DB" fill-opacity="0.847" d="M 14.000 10.000 L 15.000 10.000 L 15.000 11.000 L 14.000 11.000 Z M 14.000 13.000 L 15.000 13.000 L 15.000 14.000 L 14.000 14.000 Z" fill-rule="evenodd"/>
<path fill="#5DA2DA" fill-opacity="0.961" d="M 6.000 4.000 L 7.000 4.000 L 7.000 5.000 L 6.000 5.000 Z M 6.000 19.000 L 7.000 19.000 L 7.000 20.000 L 6.000 20.000 Z" fill-rule="evenodd"/>
<path fill="#5DA2DB" fill-opacity="0.973" d="M 8.000 21.000 L 9.000 21.000 L 9.000 22.000 L 8.000 22.000 Z" fill-rule="evenodd"/>
<path fill="#5EA1DB" fill-opacity="0.976" d="M 8.000 2.000 L 9.000 2.000 L 9.000 3.000 L 8.000 3.000 Z M 19.000 21.000 L 20.000 21.000 L 20.000 22.000 L 19.000 22.000 Z" fill-rule="evenodd"/>
<path fill="#5DA2DB" fill-opacity="0.980" d="M 19.000 2.000 L 20.000 2.000 L 20.000 3.000 L 19.000 3.000 Z M 21.000 4.000 L 22.000 4.000 L 22.000 5.000 L 21.000 5.000 Z M 21.000 19.000 L 22.000 19.000 L 22.000 20.000 L 21.000 20.000 Z" fill-rule="evenodd"/>
<path fill="#5EA1DB" fill-opacity="0.984" d="M 20.000 5.000 L 21.000 5.000 L 21.000 6.000 L 20.000 6.000 Z M 20.000 6.000 L 21.000 6.000 L 21.000 7.000 L 20.000 7.000 Z M 20.000 7.000 L 21.000 7.000 L 21.000 8.000 L 20.000 8.000 Z M 20.000 8.000 L 21.000 8.000 L 21.000 9.000 L 20.000 9.000 Z M 20.000 9.000 L 21.000 9.000 L 21.000 10.000 L 20.000 10.000 Z M 20.000 10.000 L 21.000 10.000 L 21.000 11.000 L 20.000 11.000 Z M 20.000 11.000 L 21.000 11.000 L 21.000 12.000 L 20.000 12.000 Z M 20.000 12.000 L 21.000 12.000 L 21.000 13.000 L 20.000 13.000 Z M 20.000 13.000 L 21.000 13.000 L 21.000 14.000 L 20.000 14.000 Z M 20.000 14.000 L 21.000 14.000 L 21.000 15.000 L 20.000 15.000 Z M 20.000 15.000 L 21.000 15.000 L 21.000 16.000 L 20.000 16.000 Z M 20.000 16.000 L 21.000 16.000 L 21.000 17.000 L 20.000 17.000 Z M 20.000 17.000 L 21.000 17.000 L 21.000 18.000 L 20.000 18.000 Z M 20.000 18.000 L 21.000 18.000 L 21.000 19.000 L 20.000 19.000 Z" fill-rule="evenodd"/>
<path fill="#5DA2DA" fill-opacity="0.992" d="M 20.000 4.000 L 21.000 4.000 L 21.000 5.000 L 20.000 5.000 Z M 20.000 19.000 L 21.000 19.000 L 21.000 20.000 L 20.000 20.000 Z" fill-rule="evenodd"/>
<path fill="#5EA2DB" d="M 9.000 2.000 L 19.000 2.000 L 19.000 3.000 L 9.000 3.000 Z M 7.000 3.000 L 21.000 3.000 L 21.000 4.000 L 7.000 4.000 Z M 7.000 4.000 L 8.000 4.000 L 8.000 5.000 L 7.000 5.000 Z M 21.000 5.000 L 22.000 5.000 L 22.000 6.000 L 21.000 6.000 Z M 21.000 6.000 L 22.000 6.000 L 22.000 7.000 L 21.000 7.000 Z M 21.000 7.000 L 22.000 7.000 L 22.000 8.000 L 21.000 8.000 Z M 21.000 8.000 L 22.000 8.000 L 22.000 9.000 L 21.000 9.000 Z M 12.000 9.000 L 13.000 9.000 L 13.000 10.000 L 12.000 10.000 Z M 21.000 9.000 L 22.000 9.000 L 22.000 10.000 L 21.000 10.000 Z M 13.000 10.000 L 14.000 10.000 L 14.000 11.000 L 13.000 11.000 Z M 21.000 10.000 L 22.000 10.000 L 22.000 11.000 L 21.000 11.000 Z M 5.000 11.000 L 15.000 11.000 L 15.000 12.000 L 5.000 12.000 Z M 21.000 11.000 L 22.000 11.000 L 22.000 12.000 L 21.000 12.000 Z M 5.000 12.000 L 15.000 12.000 L 15.000 13.000 L 5.000 13.000 Z M 21.000 12.000 L 22.000 12.000 L 22.000 13.000 L 21.000 13.000 Z M 13.000 13.000 L 14.000 13.000 L 14.000 14.000 L 13.000 14.000 Z M 21.000 13.000 L 22.000 13.000 L 22.000 14.000 L 21.000 14.000 Z M 12.000 14.000 L 13.000 14.000 L 13.000 15.000 L 12.000 15.000 Z M 21.000 14.000 L 22.000 14.000 L 22.000 15.000 L 21.000 15.000 Z M 21.000 15.000 L 22.000 15.000 L 22.000 16.000 L 21.000 16.000 Z M 21.000 16.000 L 22.000 16.000 L 22.000 17.000 L 21.000 17.000 Z M 21.000 17.000 L 22.000 17.000 L 22.000 18.000 L 21.000 18.000 Z M 21.000 18.000 L 22.000 18.000 L 22.000 19.000 L 21.000 19.000 Z M 7.000 19.000 L 8.000 19.000 L 8.000 20.000 L 7.000 20.000 Z M 7.000 20.000 L 21.000 20.000 L 21.000 21.000 L 7.000 21.000 Z M 9.000 21.000 L 19.000 21.000 L 19.000 22.000 L 9.000 22.000 Z" fill-rule="evenodd"/>
</svg>