<?xml version="1.0" encoding="UTF-8"?>
<svg xmlns="http://www.w3.org/2000/svg" xmlns:xlink="http://www.w3.org/1999/xlink" version="1.1" viewBox="0 0 68 68">
  <defs>
    <style>
      .cls-3 { fill: #7fa828; }
      .cls-4 { fill: #5a9120; }
    </style>
  </defs>
  <!-- Folder shape with transparent interior -->
  <path fill="#60bcd3" d="M54.1,46.4v3.8h-3s-37.2,0-37.2,0v-27h37.2s3,0,3,0v23.1ZM57.6,50.4v-27.3c0-1.9-1.6-3.5-3.5-3.5h-2.5s-23.1,0-23.1,0v-2c0-1.9-1.6-3.5-3.5-3.5h-11.2c-1.9,0-3.5,1.6-3.5,3.5v31.2h0v1.5s0,0,0,0v.4c0,.3,0,.5.2.8.5,1.3,1.8,2.3,3.2,2.3h40.3c1.9,0,3.5-1.6,3.5-3.5"/>
  <!-- Pencil body: parallelogram at 45°, eraser at top-right, body end at lower-left -->
  <polygon class="cls-3" points="41,26 45,30 29,46 25,42"/>
  <!-- Eraser cap: dark band at the top end of the pencil -->
  <polygon class="cls-4" points="41,26 45,30 42,33 38,29"/>
  <!-- Sharpened tip: triangle at the lower-left end -->
  <polygon class="cls-4" points="25,42 29,46 24,47"/>
</svg>
