<?xml version="1.0" encoding="UTF-8"?>
<svg xmlns="http://www.w3.org/2000/svg" xmlns:xlink="http://www.w3.org/1999/xlink" version="1.1" viewBox="0 0 68 68">
  <defs>
    <style>
      .cls-1 {
        fill: none;
      }

      .cls-2 {
        fill: #fff;
      }

      .cls-3 {
        fill: #60bcd3;
      }

      .cls-4 {
        fill: #7fa828;
      }

      .cls-5 {
        clip-path: url(#clippath);
      }
    </style>
    <clipPath id="clippath">
      <rect class="cls-1" x="10.4" y="14.2" width="47.3" height="39.7"/>
    </clipPath>
  </defs>
  <!-- Generator: Adobe Illustrator 28.6.0, SVG Export Plug-In . SVG Version: 1.2.0 Build 709)  -->
  <g>
    <g id="Ebene_1">
      <g class="cls-5">
        <path class="cls-4" d="M38.5,32.9v.2h-8.6v-.6s0,0,0,0c0,0,0,0,0,0,0-2.4,1.9-4.3,4.3-4.3s4.3,1.9,4.3,4.3,0,.2,0,.4M43.1,45.3v-10.4c0-1-.8-1.7-1.7-1.8h0c0-.2,0-.4,0-.6,0-4-3.2-7.3-7.2-7.3s-7.2,3.3-7.2,7.3,0,0,0,0h0v.6h0c-1,0-1.8.8-1.8,1.8v10.4c0,1,.8,1.8,1.8,1.8h14.3c1,0,1.8-.8,1.8-1.8"/>
        <path class="cls-2" d="M36.1,38.7c0-1.1-.9-2-1.9-2s-1.9.9-1.9,2,.2,1,.5,1.3c0,0,0,0,0,0v3.2c0,.4.3.7.7.7h1.4c.4,0,.7-.3.7-.7v-3.2s0,0,0-.1c.3-.3.5-.8.5-1.3"/>
        <path class="cls-3" d="M54.1,46.4v3.8h-3s-37.2,0-37.2,0v-27h37.2s3,0,3,0v23.1ZM57.6,50.4v-27.3c0-1.9-1.6-3.5-3.5-3.5h-2.5s-23.1,0-23.1,0v-2c0-1.9-1.6-3.5-3.5-3.5h-11.2c-1.9,0-3.5,1.6-3.5,3.5v31.2h0v1.5s0,0,0,0v.4c0,.3,0,.5.2.8.5,1.3,1.8,2.3,3.2,2.3h40.3c1.9,0,3.5-1.6,3.5-3.5"/>
      </g>
    </g>
  </g>
</svg>