<?xml version="1.0" encoding="UTF-8"?>
<svg xmlns="http://www.w3.org/2000/svg" xmlns:xlink="http://www.w3.org/1999/xlink" version="1.1" viewBox="0 0 68 68">
  <defs>
    <style>
      .cls-1 {
        fill: none;
      }

      .cls-2 {
        fill: #60bcd3;
      }

      .cls-3 {
        fill: #7fa828;
      }

      .cls-4 {
        clip-path: url(#clippath);
      }
    </style>
    <clipPath id="clippath">
      <rect class="cls-1" x="9.3" y="9.3" width="49.5" height="49.5"/>
    </clipPath>
  </defs>
  <!-- Generator: Adobe Illustrator 28.6.0, SVG Export Plug-In . SVG Version: 1.2.0 Build 709)  -->
  <g>
    <g id="Ebene_1">
      <g class="cls-4">
        <path class="cls-3" d="M29.6,53.9v-5.6s-1.8.7-4,0c-2.6-.7-2.6-3.3-3.9-4.6-1.2-1.2-1.8-1.1-1.8-1.6,0-.6,1.3-.5,2.2-.2,1.3.5,1.9,2.2,2.6,2.8.7.6,1.6,1.2,3,1.1,1.4,0,2.1-.4,2.1-.4,0,0-.1-.6.4-1.6.4-.8,1-1.1,1-1.1,0,0-8.3-.3-9.1-7.9-.5-5,2-7.4,2-7.4,0,0-.6-1.8-.4-3.2.2-1.4.7-2.1.7-2.1,0,0,1.9,0,3.2.8,1.4.7,2.2,1.4,2.2,1.4,0,0,1.8-.9,5.2-.9s4.9.9,4.9.9c0,0,.9-.8,2.6-1.5,1.7-.7,3-.6,3-.6,0,0,.6,1.4.6,2.9,0,1.4-.4,2.6-.4,2.6,0,0,2.9,2.3,1.9,7.9-1,5.3-5.9,6.6-7.1,6.9-1.2.3-2.2.4-2.2.4,0,0,1.1.6,1.4,1.8.3,1.3.2,3.1.2,3.1v5.9c0,0-2.3.7-5,.8-2.9,0-5-.4-5-.4"/>
        <path class="cls-2" d="M53.8,34.2c0,10.8-8.8,19.6-19.7,19.6s-19.7-8.8-19.7-19.6,8.8-19.6,19.7-19.6,19.7,8.8,19.7,19.6M58.8,34c0-13.7-11.1-24.8-24.8-24.8s-24.8,11.1-24.8,24.8,11.1,24.8,24.8,24.8,24.8-11.1,24.8-24.8"/>
      </g>
    </g>
  </g>
</svg>