<?xml version="1.0" encoding="UTF-8"?>
<svg xmlns="http://www.w3.org/2000/svg" xmlns:xlink="http://www.w3.org/1999/xlink" version="1.1" viewBox="0 0 68 68">
  <defs>
    <style>
      .cls-1 {
        fill: none;
      }

      .cls-2 {
        fill: #60bcd3;
      }

      .cls-3 {
        fill: #7fa828;
      }

      .cls-4 {
        clip-path: url(#clippath);
      }
    </style>
    <clipPath id="clippath">
      <rect class="cls-1" x="7.8" y="11.6" width="53.9" height="49"/>
    </clipPath>
  </defs>
  <!-- Generator: Adobe Illustrator 28.6.0, SVG Export Plug-In . SVG Version: 1.2.0 Build 709)  -->
  <g>
    <g id="Ebene_1">
      <g class="cls-4">
        <path class="cls-3" d="M44.9,42.1h0v-6.7c-2.9,2.2-8.9,3.6-17.7,4,.8,3.3,1.7,5.4,4.2,7.9,5.8-.7,13.4-3.5,13.4-5.2M44.9,30.6h0M45,19s0,0,0,0"/>
        <path class="cls-2" d="M52.4,38.5c-.4,7.6-6.9,13.4-14.5,13-7.6-.4-13.4-6.9-13-14.5.4-7.6,6.9-13.4,14.5-13,7.6.4,13.4,6.9,13,14.5M60.7,55.5l-7.1-6.3c2.3-2.9,3.8-6.6,4-10.6.5-10.3-7.6-19.1-18.1-19.7-10.6-.6-19.6,7.4-20.1,17.7s7.6,19.1,18.1,19.7c4.3.2,8.4-1,11.8-3.2l7.6,6.7c1.2,1,3,.9,4.1-.3,1-1.2.9-3-.3-4.1"/>
        <path class="cls-3" d="M22.3,27.9c1.5-2.4,3.6-4.4,6-5.9-1.4,0-2.9.1-4.4.1-7.5,0-14.1-1.4-16.1-3.1v5.1c0,1.3,6.6,3.5,14.5,3.7M19.4,38.1c-5.6-.4-10-1.4-11.6-2.8v4.7h0c0,1.5,5.6,3.5,12.7,3.9-.7-1.8-1-3.8-1.1-5.8M21,30.2c-6.3-.3-11.4-1.4-13.2-2.9v4.7h0c0,1.3,5.1,3.4,11.7,3.8.2-2,.7-3.9,1.5-5.7M39.3,15.7c0-2.3-7.1-4.1-15.8-4.1s-15.8,1.8-15.8,4.1,7.1,4.1,15.8,4.1,15.8-1.8,15.8-4.1"/>
        <path class="cls-3" d="M45,27.4s-.6-.4-1.7-.9c-1.1-.5-1.8-.6-1.8-.6-4.2,1.2-4.9,1.4-9.5,1.9-2.3,2.4-4.8,5.9-5.1,8.3,10-.4,17.9-3.6,17.9-5.4"/>
      </g>
    </g>
  </g>
</svg>