<?xml version="1.0" encoding="UTF-8"?>
<svg xmlns="http://www.w3.org/2000/svg" xmlns:xlink="http://www.w3.org/1999/xlink" version="1.1" viewBox="0 0 68 68">
  <defs>
    <style>
      .cls-1 {
        fill: none;
      }

      .cls-2 {
        fill: #60bcd3;
      }

      .cls-3 {
        fill: #7fa828;
      }

      .cls-4 {
        clip-path: url(#clippath);
      }
    </style>
    <clipPath id="clippath">
      <rect class="cls-1" x="8.3" y="7.2" width="55.3" height="53.5"/>
    </clipPath>
  </defs>
  <!-- Generator: Adobe Illustrator 28.6.0, SVG Export Plug-In . SVG Version: 1.2.0 Build 709)  -->
  <g>
    <g id="Ebene_1">
      <g class="cls-4">
        <path class="cls-2" d="M40,25.6c0-1-.8-1.8-1.8-1.8s0,0,0,0h0s-8.6,0-8.6,0h-7.5s0,0,0,0c-1,0-1.8.8-1.8,1.8s.8,1.8,1.8,1.8,0,0,0,0h0s3.2,0,3.2,0h12.8s0,0,0,0c1,0,1.8-.8,1.8-1.8"/>
        <path class="cls-2" d="M45,16h-5.3v-5.1h0l.9.8,3,2.9,1.4,1.4ZM48.8,32.8V15.5c0-.5-.2-1-.5-1.4,0,0,0,0,0,0h0s-2.1-2-2.1-2l-3-2.9-1.4-1.3h0s0,0,0,0c-.3-.3-.7-.5-1.2-.5h0s-29.9,0-29.9,0c-1.3,0-2.4,1.1-2.4,2.4v48.8c0,1.3,1.1,2.4,2.4,2.4h27.4,0s8.4,0,8.4,0c1.3,0,2.4-1.1,2.4-2.4v-9.3c-1.4-.4-2.5-1.1-3.5-1.8v9.8s-8.5,0-8.5,0h0s-24.9,0-24.9,0V10.8h24.4v6.8h0s0,0,0,0c0,1,.8,1.8,1.8,1.8s0,0,.1,0c0,0,0,0,.1,0s0,0,0,0h0s7,0,7,0v1.6s0,0,0,0v13.4c1-.7,2.2-1.3,3.5-1.7"/>
        <path class="cls-2" d="M17.2,27.4c1,0,1.9-.8,1.9-1.8s-.8-1.8-1.9-1.8-1.9.8-1.9,1.8.8,1.8,1.9,1.8"/>
        <path class="cls-2" d="M40,32.7c0-1-.8-1.8-1.8-1.8s0,0,0,0h0s-8.6,0-8.6,0h-7.5s0,0,0,0c-1,0-1.8.8-1.8,1.8s.8,1.8,1.8,1.8,0,0,0,0h0s3.2,0,3.2,0h12.8s0,0,0,0c1,0,1.8-.8,1.8-1.8"/>
        <path class="cls-2" d="M17.2,34.5c1,0,1.9-.8,1.9-1.8s-.8-1.8-1.9-1.8-1.9.8-1.9,1.8.8,1.8,1.9,1.8"/>
        <path class="cls-2" d="M40,40c0-1-.8-1.8-1.8-1.8s0,0,0,0h0s-8.6,0-8.6,0h-7.5s0,0,0,0c-1,0-1.8.8-1.8,1.8s.8,1.8,1.8,1.8,0,0,0,0h0s3.2,0,3.2,0h12.8s0,0,0,0c1,0,1.8-.8,1.8-1.8"/>
        <path class="cls-2" d="M17.2,41.8c1,0,1.9-.8,1.9-1.8s-.8-1.8-1.9-1.8-1.9.8-1.9,1.8.8,1.8,1.9,1.8"/>
        <path class="cls-2" d="M40,47.3c0-1-.8-1.8-1.8-1.8s0,0,0,0h0s-8.6,0-8.6,0h-7.5s0,0,0,0c-1,0-1.8.8-1.8,1.8s.8,1.8,1.8,1.8,0,0,0,0h0s3.2,0,3.2,0h12.8s0,0,0,0c1,0,1.8-.8,1.8-1.8"/>
        <path class="cls-2" d="M17.2,49.1c1,0,1.9-.8,1.9-1.8s-.8-1.8-1.9-1.8-1.9.8-1.9,1.8.8,1.8,1.9,1.8"/>
        <path class="cls-3" d="M57,40.9c0,1.9-1.6,3.4-3.5,3.4s-3.5-1.5-3.5-3.4,1.6-3.4,3.5-3.4,3.5,1.5,3.5,3.4M63.6,40.8s-2.4-6.6-10.2-6.6-10,6.6-10,6.6c0,0,2.2,6.9,10.1,6.9s10.1-6.9,10.1-6.9"/>
      </g>
    </g>
  </g>
</svg>