<?xml version="1.0" encoding="UTF-8"?>
<svg xmlns="http://www.w3.org/2000/svg" xmlns:xlink="http://www.w3.org/1999/xlink" version="1.1" viewBox="0 0 68 68">
  <defs>
    <style>
      .cls-1 {
        fill: none;
      }

      .cls-2 {
        fill: #60bcd3;
      }

      .cls-3 {
        fill: #7fa828;
      }

      .cls-4 {
        clip-path: url(#clippath);
      }
    </style>
    <clipPath id="clippath">
      <rect class="cls-1" x="7.7" y="11.7" width="52.5" height="44.6"/>
    </clipPath>
  </defs>
  <!-- Generator: Adobe Illustrator 28.6.0, SVG Export Plug-In . SVG Version: 1.2.0 Build 709)  -->
  <g>
    <g id="Ebene_1">
      <g class="cls-4">
        <path class="cls-2" d="M56.3,48v4.2h-3.3s-41.3,0-41.3,0v-30.5h41.3s3.3,0,3.3,0v26.3ZM60.3,52.4v-30.8c0-2.1-1.7-3.9-3.9-3.9h-2.8s-25.7,0-25.7,0v-2.2c0-2.1-1.7-3.9-3.9-3.9h-12.4c-2.1,0-3.9,1.7-3.9,3.9v35.2h0v1.7s0,0,0,0v.4c0,.3.1.6.2.9.5,1.5,1.9,2.5,3.6,2.5h44.8c2.1,0,3.9-1.7,3.9-3.9"/>
        <path class="cls-2" d="M49.2,21.1c-3.6-3.7-8.5-1.7-8.5-1.7l-13.5,7.7c.5-.1.9-.2,1.4-.2,6.2-.7,11.8,3.9,12.5,10.1.2,2.2-.2,4.3-1.1,6.2l17.9-20.1s0-3.1-8.7-1.9"/>
        <path class="cls-2" d="M36.8,38.3c.5,4.5-2.8,8.6-7.4,9.1-4.5.5-8.6-2.8-9.1-7.4-.5-4.5,2.8-8.6,7.4-9.1,4.5-.5,8.6,2.8,9.1,7.4M39.6,38c-.6-6.1-6.1-10.6-12.2-9.9-6.1.6-10.6,6.1-9.9,12.2.6,6.1,6.1,10.6,12.2,9.9,6.1-.6,10.6-6.1,9.9-12.2"/>
        <path class="cls-3" d="M33.4,38.6c.3,2.6-1.7,4.9-4.4,5.2-2.7.3-5.1-1.6-5.4-4.2-.3-2.6,1.7-4.9,4.4-5.2,2.7-.3,5.1,1.6,5.4,4.2M36.8,38.3c-.5-4.5-4.5-7.8-9.1-7.4-4.5.5-7.8,4.5-7.4,9.1.5,4.5,4.5,7.8,9.1,7.4,4.5-.5,7.8-4.5,7.4-9.1"/>
      </g>
    </g>
  </g>
</svg>