<?xml version="1.0" encoding="UTF-8"?>
<svg xmlns="http://www.w3.org/2000/svg" xmlns:xlink="http://www.w3.org/1999/xlink" version="1.1" viewBox="0 0 68 68">
  <defs>
    <style>
      .cls-1 {
        fill: none;
      }

      .cls-2 {
        fill: #60bcd3;
      }

      .cls-3 {
        fill: #7fa828;
      }

      .cls-4 {
        clip-path: url(#clippath);
      }
    </style>
    <clipPath id="clippath">
      <rect class="cls-1" x="8.5" y="10.2" width="49.5" height="49.5"/>
    </clipPath>
  </defs>
  <!-- Generator: Adobe Illustrator 28.6.0, SVG Export Plug-In . SVG Version: 1.2.0 Build 709)  -->
  <g>
    <g id="Ebene_1">
      <g class="cls-4">
        <path class="cls-2" d="M53,35.2c0,10.8-8.8,19.6-19.7,19.6s-19.7-8.8-19.7-19.6,8.8-19.6,19.7-19.6,19.7,8.8,19.7,19.6M58,35c0-13.7-11.1-24.8-24.8-24.8s-24.8,11.1-24.8,24.8,11.1,24.8,24.8,24.8,24.8-11.1,24.8-24.8"/>
        <path class="cls-3" d="M35.6,30.3c.7.7,1.1,1.6,1.1,2.6v14.6c0,.9-.4,1.9-1.1,2.6-1.4,1.4-3.6,1.4-4.9,0-.5-.5-.8-1.2-.9-1.8h0v-.2c0-.2,0-.4,0-.5v-2.6h0v-7.9h0v-4c0-.2,0-.4,0-.5v-.2s0,0,0,0c0-.7.4-1.3.9-1.8,1.3-1.4,3.5-1.3,4.9,0M29.1,22.9c0-2.2,1.9-4,4.2-4s4.2,1.8,4.2,4-1.9,4-4.2,4-4.2-1.8-4.2-4"/>
      </g>
    </g>
  </g>
</svg>