<?xml version="1.0" encoding="UTF-8"?>
<svg xmlns="http://www.w3.org/2000/svg" xmlns:xlink="http://www.w3.org/1999/xlink" version="1.1" viewBox="0 0 68 68">
  <defs>
    <style>
      .cls-1 {
        fill: none;
      }

      .cls-2 {
        fill: #60bcd3;
      }

      .cls-3 {
        fill: #7fa828;
      }

      .cls-4 {
        clip-path: url(#clippath);
      }
    </style>
    <clipPath id="clippath">
      <rect class="cls-1" x="8.6" y="7.5" width="50.7" height="52.9"/>
    </clipPath>
  </defs>
  <!-- Generator: Adobe Illustrator 28.6.0, SVG Export Plug-In . SVG Version: 1.2.0 Build 709)  -->
  <g>
    <g id="Ebene_1">
      <g class="cls-4">
        <path class="cls-2" d="M32.5,51.8c-11.2,0-20.3-9.1-20.3-20.4s9.1-20.4,20.3-20.4c11.2,0,20.2,9.1,20.2,20.4s-9.1,20.4-20.2,20.4M58.4,54.5l-7.3-8.1c3.3-4.1,5.3-9.3,5.3-15,0-13.2-10.7-23.8-23.9-23.8S8.6,18.2,8.6,31.4s10.7,23.8,23.9,23.8,9.6-1.5,13.4-4.1l7.4,8.2c1.3,1.4,3.6,1.4,5,0,1.4-1.3,1.4-3.6,0-5"/>
        <path class="cls-3" d="M33.1,32c.3-.9.8-1.5,1.5-2,.6-.5,1.4-.7,2.2-.7s1.5.2,2.1.7c.7.4,1.2,1.1,1.5,1.9.4.8.6,1.9.6,3s-.2,2.3-.6,3.1c-.4.8-.9,1.5-1.5,1.9-.6.4-1.3.6-2.1.6s-1.5-.2-2.1-.6c-.6-.4-1.2-1.1-1.5-1.9-.4-.8-.6-1.9-.6-3s.2-2.1.5-3M41.8,43.3c.4.4.9.7,1.5.7s1.1-.2,1.5-.6c.4-.4.6-1,.6-1.9v-19.4c0-.8-.2-1.5-.5-1.9-.4-.4-.9-.6-1.5-.6s-1.2.2-1.5.7c-.4.5-.5,1.1-.5,2v6.5c-.8-.9-1.7-1.6-2.5-2-.9-.4-1.9-.7-3.2-.7-2.2,0-4,.8-5.3,2.3-1.3,1.5-2,3.7-2,6.4s.2,2.5.5,3.6c.3,1.1.8,2.1,1.5,2.9.7.8,1.4,1.5,2.3,1.9.9.4,1.9.7,2.9.7s1.5-.1,2.2-.3c.7-.2,1.3-.5,1.9-1,.6-.4,1.2-1,1.8-1.7v.4c0,.8.2,1.4.6,1.9M20,43.3c.4.5,1,.7,1.7.7s1.3-.2,1.8-.7c.4-.5.7-1.2.7-2.2v-18.6c0-1-.2-1.7-.7-2.2-.4-.5-1-.7-1.8-.7s-1.3.2-1.7.7-.7,1.2-.7,2.2v18.6c0,1,.2,1.7.7,2.2"/>
      </g>
    </g>
  </g>
</svg>