<?xml version="1.0" encoding="UTF-8"?>
<svg xmlns="http://www.w3.org/2000/svg" xmlns:xlink="http://www.w3.org/1999/xlink" version="1.1" viewBox="0 0 68 68">
  <defs>
    <style>
      .cls-1 {
        fill: none;
      }

      .cls-2 {
        fill: #60bcd3;
      }

      .cls-3 {
        fill: #7fa828;
      }

      .cls-4 {
        clip-path: url(#clippath);
      }
    </style>
    <clipPath id="clippath">
      <rect class="cls-1" x="10" y="10.7" width="49.4" height="49.6"/>
    </clipPath>
  </defs>
  <!-- Generator: Adobe Illustrator 28.6.0, SVG Export Plug-In . SVG Version: 1.2.0 Build 709)  -->
  <g>
    <g id="Ebene_1">
      <g class="cls-4">
        <path class="cls-2" d="M52.5,29.2l-1.4-3.1,2.7-5.7-5.2-5.2-5.6,2.7-1.6-.7-1.6-.7-2.1-5.9h-7.4s-2.1,6-2.1,6l-3.2,1.2-5.3-2.9-5.2,5.4,2.5,5.6-1.4,3.4-5.7,2v7.2s5.7,2.2,5.7,2.2l1.3,3.2-2.7,5.7,5.4,5.1,5.4-2.6,1.6.6,1.6.7,2,5.7,7.4.2,2.1-6h.1c0,0-3.8-3.7-3.8-3.7-2.5.3-5.2,0-7.7-1-7.6-3.1-11.2-11.8-8-19.4,3.1-7.6,11.8-11.2,19.4-8,6.6,2.7,10.1,9.6,8.9,16.3l3.7,3h0s5.7-2.1,5.7-2.1v-7.5c0,0-5.7-1.7-5.7-1.7Z"/>
        <path class="cls-3" d="M57.9,52.3s0,0-.1,0h0s-13.2-13.4-13.2-13.4c.4-1.1.7-2.4.7-3.7,0-5.9-4.8-10.7-10.6-10.7s-1.9,0-2.5.4c0,0-.2.1-.2.4s.2.4.2.4l6,6s-.3,2.4-2.4,4.4c-2.2,2.1-4.5,2.5-4.5,2.5l-3.1-3.1h0s-3.1-3.1-3.1-3.1c0,0-.2-.2-.4-.2s-.4.2-.4.2c-.3.7-.4,1.4-.4,2.5,0,3,1.2,5.6,3.2,7.6,1.9,2.1,4.7,3.4,7.8,3.4s2.2-.2,3.2-.5l13.7,13.4h0s0,0,0,.1c1.9,1.8,4.8,1.8,6.6,0,1.8-1.8,1.7-4.8-.2-6.6"/>
      </g>
    </g>
  </g>
</svg>