<svg xmlns="http://www.w3.org/2000/svg" viewBox="0 0 32 32">
<path fill="#000000" fill-opacity="0.004" d="M 28.000 13.000 L 29.000 13.000 L 29.000 14.000 L 28.000 14.000 Z M 11.000 20.000 L 12.000 20.000 L 12.000 21.000 L 11.000 21.000 Z M 20.000 20.000 L 21.000 20.000 L 21.000 21.000 L 20.000 21.000 Z" fill-rule="evenodd"/>
<path fill="#000000" fill-opacity="0.008" d="M 5.000 9.000 L 6.000 9.000 L 6.000 10.000 L 5.000 10.000 Z M 26.000 9.000 L 27.000 9.000 L 27.000 10.000 L 26.000 10.000 Z M 4.000 11.000 L 5.000 11.000 L 5.000 12.000 L 4.000 12.000 Z M 27.000 11.000 L 28.000 11.000 L 28.000 12.000 L 27.000 12.000 Z M 3.000 13.000 L 4.000 13.000 L 4.000 14.000 L 3.000 14.000 Z" fill-rule="evenodd"/>
<path fill="#333333" fill-opacity="0.020" d="M 7.000 3.000 L 8.000 3.000 L 8.000 4.000 L 7.000 4.000 Z M 24.000 3.000 L 25.000 3.000 L 25.000 4.000 L 24.000 4.000 Z M 11.000 15.000 L 12.000 15.000 L 12.000 16.000 L 11.000 16.000 Z M 20.000 15.000 L 21.000 15.000 L 21.000 16.000 L 20.000 16.000 Z" fill-rule="evenodd"/>
<path fill="#1C1C1C" fill-opacity="0.035" d="M 4.000 12.000 L 5.000 12.000 L 5.000 13.000 L 4.000 13.000 Z M 27.000 12.000 L 28.000 12.000 L 28.000 13.000 L 27.000 13.000 Z M 4.000 13.000 L 5.000 13.000 L 5.000 14.000 L 4.000 14.000 Z M 27.000 13.000 L 28.000 13.000 L 28.000 14.000 L 27.000 14.000 Z" fill-rule="evenodd"/>
<path fill="#1A1A1A" fill-opacity="0.039" d="M 9.000 5.000 L 10.000 5.000 L 10.000 6.000 L 9.000 6.000 Z M 22.000 5.000 L 23.000 5.000 L 23.000 6.000 L 22.000 6.000 Z M 9.000 6.000 L 10.000 6.000 L 10.000 7.000 L 9.000 7.000 Z M 22.000 6.000 L 23.000 6.000 L 23.000 7.000 L 22.000 7.000 Z" fill-rule="evenodd"/>
<path fill="#1E1E1E" fill-opacity="0.067" d="M 13.000 22.000 L 19.000 22.000 L 19.000 23.000 L 13.000 23.000 Z" fill-rule="evenodd"/>
<path fill="#171717" fill-opacity="0.086" d="M 10.000 18.000 L 11.000 18.000 L 11.000 19.000 L 10.000 19.000 Z M 21.000 18.000 L 22.000 18.000 L 22.000 19.000 L 21.000 19.000 Z" fill-rule="evenodd"/>
<path fill="#191919" fill-opacity="0.161" d="M 9.000 16.000 L 10.000 16.000 L 10.000 17.000 L 9.000 17.000 Z M 22.000 16.000 L 23.000 16.000 L 23.000 17.000 L 22.000 17.000 Z" fill-rule="evenodd"/>
<path fill="#181818" fill-opacity="0.169" d="M 10.000 14.000 L 11.000 14.000 L 11.000 15.000 L 10.000 15.000 Z" fill-rule="evenodd"/>
<path fill="#171717" fill-opacity="0.173" d="M 21.000 14.000 L 22.000 14.000 L 22.000 15.000 L 21.000 15.000 Z" fill-rule="evenodd"/>
<path fill="#1C1C1C" fill-opacity="0.176" d="M 19.000 20.000 L 20.000 20.000 L 20.000 21.000 L 19.000 21.000 Z" fill-rule="evenodd"/>
<path fill="#1C1C1C" fill-opacity="0.180" d="M 12.000 20.000 L 13.000 20.000 L 13.000 21.000 L 12.000 21.000 Z" fill-rule="evenodd"/>
<path fill="#1B1B1B" fill-opacity="0.184" d="M 4.000 6.000 L 5.000 6.000 L 5.000 7.000 L 4.000 7.000 Z M 27.000 6.000 L 28.000 6.000 L 28.000 7.000 L 27.000 7.000 Z" fill-rule="evenodd"/>
<path fill="#1A1A1A" fill-opacity="0.196" d="M 7.000 4.000 L 8.000 4.000 L 8.000 5.000 L 7.000 5.000 Z M 24.000 4.000 L 25.000 4.000 L 25.000 5.000 L 24.000 5.000 Z M 3.000 8.000 L 4.000 8.000 L 4.000 9.000 L 3.000 9.000 Z M 28.000 8.000 L 29.000 8.000 L 29.000 9.000 L 28.000 9.000 Z" fill-rule="evenodd"/>
<path fill="#191919" fill-opacity="0.200" d="M 2.000 10.000 L 3.000 10.000 L 3.000 11.000 L 2.000 11.000 Z M 13.000 20.000 L 19.000 20.000 L 19.000 21.000 L 13.000 21.000 Z" fill-rule="evenodd"/>
<path fill="#181818" fill-opacity="0.208" d="M 6.000 13.000 L 7.000 13.000 L 7.000 14.000 L 6.000 14.000 Z M 25.000 13.000 L 26.000 13.000 L 26.000 14.000 L 25.000 14.000 Z" fill-rule="evenodd"/>
<path fill="#1C1C1C" fill-opacity="0.212" d="M 29.000 10.000 L 30.000 10.000 L 30.000 11.000 L 29.000 11.000 Z" fill-rule="evenodd"/>
<path fill="#1C1C1C" fill-opacity="0.216" d="M 1.000 12.000 L 2.000 12.000 L 2.000 13.000 L 1.000 13.000 Z M 30.000 12.000 L 31.000 12.000 L 31.000 13.000 L 30.000 13.000 Z" fill-rule="evenodd"/>
<path fill="#1B1B1B" fill-opacity="0.224" d="M 6.000 7.000 L 7.000 7.000 L 7.000 8.000 L 6.000 8.000 Z M 25.000 7.000 L 26.000 7.000 L 26.000 8.000 L 25.000 8.000 Z" fill-rule="evenodd"/>
<path fill="#1A1A1A" fill-opacity="0.227" d="M 0.000 14.000 L 1.000 14.000 L 1.000 15.000 L 0.000 15.000 Z M 31.000 14.000 L 32.000 14.000 L 32.000 15.000 L 31.000 15.000 Z" fill-rule="evenodd"/>
<path fill="#191919" fill-opacity="0.243" d="M 20.000 24.000 L 21.000 24.000 L 21.000 25.000 L 20.000 25.000 Z" fill-rule="evenodd"/>
<path fill="#181818" fill-opacity="0.247" d="M 11.000 24.000 L 12.000 24.000 L 12.000 25.000 L 11.000 25.000 Z" fill-rule="evenodd"/>
<path fill="#191919" fill-opacity="0.278" d="M 30.000 28.000 L 31.000 28.000 L 31.000 29.000 L 30.000 29.000 Z" fill-rule="evenodd"/>
<path fill="#191919" fill-opacity="0.282" d="M 1.000 28.000 L 2.000 28.000 L 2.000 29.000 L 1.000 29.000 Z" fill-rule="evenodd"/>
<path fill="#1B1B1B" fill-opacity="0.329" d="M 3.000 12.000 L 4.000 12.000 L 4.000 13.000 L 3.000 13.000 Z M 28.000 12.000 L 29.000 12.000 L 29.000 13.000 L 28.000 13.000 Z" fill-rule="evenodd"/>
<path fill="#1B1B1B" fill-opacity="0.333" d="M 13.000 23.000 L 19.000 23.000 L 19.000 24.000 L 13.000 24.000 Z" fill-rule="evenodd"/>
<path fill="#1A1A1A" fill-opacity="0.341" d="M 4.000 10.000 L 5.000 10.000 L 5.000 11.000 L 4.000 11.000 Z" fill-rule="evenodd"/>
<path fill="#1A1A1A" fill-opacity="0.345" d="M 27.000 10.000 L 28.000 10.000 L 28.000 11.000 L 27.000 11.000 Z" fill-rule="evenodd"/>
<path fill="#1A1A1A" fill-opacity="0.353" d="M 5.000 8.000 L 6.000 8.000 L 6.000 9.000 L 5.000 9.000 Z M 26.000 8.000 L 27.000 8.000 L 27.000 9.000 L 26.000 9.000 Z" fill-rule="evenodd"/>
<path fill="#191919" fill-opacity="0.357" d="M 11.000 16.000 L 12.000 16.000 L 12.000 17.000 L 11.000 17.000 Z M 20.000 16.000 L 21.000 16.000 L 21.000 17.000 L 20.000 17.000 Z" fill-rule="evenodd"/>
<path fill="#1B1B1B" fill-opacity="0.373" d="M 11.000 21.000 L 12.000 21.000 L 12.000 22.000 L 11.000 22.000 Z" fill-rule="evenodd"/>
<path fill="#1A1A1A" fill-opacity="0.380" d="M 1.000 17.000 L 2.000 17.000 L 2.000 18.000 L 1.000 18.000 Z M 30.000 17.000 L 31.000 17.000 L 31.000 18.000 L 30.000 18.000 Z M 1.000 18.000 L 2.000 18.000 L 2.000 19.000 L 1.000 19.000 Z M 30.000 18.000 L 31.000 18.000 L 31.000 19.000 L 30.000 19.000 Z M 1.000 19.000 L 2.000 19.000 L 2.000 20.000 L 1.000 20.000 Z M 30.000 19.000 L 31.000 19.000 L 31.000 20.000 L 30.000 20.000 Z M 1.000 20.000 L 2.000 20.000 L 2.000 21.000 L 1.000 21.000 Z M 30.000 20.000 L 31.000 20.000 L 31.000 21.000 L 30.000 21.000 Z M 1.000 21.000 L 2.000 21.000 L 2.000 22.000 L 1.000 22.000 Z M 30.000 21.000 L 31.000 21.000 L 31.000 22.000 L 30.000 22.000 Z M 1.000 22.000 L 2.000 22.000 L 2.000 23.000 L 1.000 23.000 Z M 30.000 22.000 L 31.000 22.000 L 31.000 23.000 L 30.000 23.000 Z M 1.000 23.000 L 2.000 23.000 L 2.000 24.000 L 1.000 24.000 Z M 30.000 23.000 L 31.000 23.000 L 31.000 24.000 L 30.000 24.000 Z M 1.000 24.000 L 2.000 24.000 L 2.000 25.000 L 1.000 25.000 Z M 30.000 24.000 L 31.000 24.000 L 31.000 25.000 L 30.000 25.000 Z M 1.000 25.000 L 2.000 25.000 L 2.000 26.000 L 1.000 26.000 Z M 30.000 25.000 L 31.000 25.000 L 31.000 26.000 L 30.000 26.000 Z" fill-rule="evenodd"/>
<path fill="#191919" fill-opacity="0.396" d="M 20.000 21.000 L 21.000 21.000 L 21.000 22.000 L 20.000 22.000 Z" fill-rule="evenodd"/>
<path fill="#191919" fill-opacity="0.400" d="M 26.000 5.000 L 27.000 5.000 L 27.000 6.000 L 26.000 6.000 Z" fill-rule="evenodd"/>
<path fill="#191919" fill-opacity="0.404" d="M 5.000 5.000 L 6.000 5.000 L 6.000 6.000 L 5.000 6.000 Z" fill-rule="evenodd"/>
<path fill="#1A1A1A" fill-opacity="0.420" d="M 23.000 3.000 L 24.000 3.000 L 24.000 4.000 L 23.000 4.000 Z" fill-rule="evenodd"/>
<path fill="#1A1A1A" fill-opacity="0.424" d="M 8.000 3.000 L 9.000 3.000 L 9.000 4.000 L 8.000 4.000 Z" fill-rule="evenodd"/>
<path fill="#1B1B1B" fill-opacity="0.443" d="M 1.000 16.000 L 2.000 16.000 L 2.000 17.000 L 1.000 17.000 Z M 30.000 16.000 L 31.000 16.000 L 31.000 17.000 L 30.000 17.000 Z" fill-rule="evenodd"/>
<path fill="#1B1B1B" fill-opacity="0.451" d="M 5.000 11.000 L 6.000 11.000 L 6.000 12.000 L 5.000 12.000 Z M 26.000 11.000 L 27.000 11.000 L 27.000 12.000 L 26.000 12.000 Z" fill-rule="evenodd"/>
<path fill="#1A1A1A" fill-opacity="0.459" d="M 2.000 28.000 L 3.000 28.000 L 3.000 29.000 L 2.000 29.000 Z M 29.000 28.000 L 30.000 28.000 L 30.000 29.000 L 29.000 29.000 Z" fill-rule="evenodd"/>
<path fill="#1A1A1A" fill-opacity="0.467" d="M 9.000 3.000 L 23.000 3.000 L 23.000 4.000 L 9.000 4.000 Z M 10.000 7.000 L 22.000 7.000 L 22.000 8.000 L 10.000 8.000 Z M 3.000 28.000 L 29.000 28.000 L 29.000 29.000 L 3.000 29.000 Z" fill-rule="evenodd"/>
<path fill="#1B1B1B" fill-opacity="0.486" d="M 9.000 7.000 L 10.000 7.000 L 10.000 8.000 L 9.000 8.000 Z M 22.000 7.000 L 23.000 7.000 L 23.000 8.000 L 22.000 8.000 Z" fill-rule="evenodd"/>
<path fill="#1B1B1B" fill-opacity="0.490" d="M 11.000 23.000 L 12.000 23.000 L 12.000 24.000 L 11.000 24.000 Z M 20.000 23.000 L 21.000 23.000 L 21.000 24.000 L 20.000 24.000 Z" fill-rule="evenodd"/>
<path fill="#1A1A1A" fill-opacity="0.494" d="M 11.000 22.000 L 12.000 22.000 L 12.000 23.000 L 11.000 23.000 Z M 20.000 22.000 L 21.000 22.000 L 21.000 23.000 L 20.000 23.000 Z" fill-rule="evenodd"/>
<path fill="#191919" fill-opacity="0.514" d="M 1.000 26.000 L 2.000 26.000 L 2.000 27.000 L 1.000 27.000 Z" fill-rule="evenodd"/>
<path fill="#191919" fill-opacity="0.518" d="M 30.000 26.000 L 31.000 26.000 L 31.000 27.000 L 30.000 27.000 Z" fill-rule="evenodd"/>
<path fill="#1B1B1B" fill-opacity="0.522" d="M 7.000 6.000 L 8.000 6.000 L 8.000 7.000 L 7.000 7.000 Z M 24.000 6.000 L 25.000 6.000 L 25.000 7.000 L 24.000 7.000 Z" fill-rule="evenodd"/>
<path fill="#1A1A1A" fill-opacity="0.533" d="M 8.000 11.000 L 24.000 11.000 L 24.000 12.000 L 8.000 12.000 Z" fill-rule="evenodd"/>
<path fill="#1A1A1A" fill-opacity="0.537" d="M 11.000 18.000 L 12.000 18.000 L 12.000 19.000 L 11.000 19.000 Z M 20.000 18.000 L 21.000 18.000 L 21.000 19.000 L 20.000 19.000 Z" fill-rule="evenodd"/>
<path fill="#1A1A1A" fill-opacity="0.545" d="M 31.000 27.000 L 32.000 27.000 L 32.000 28.000 L 31.000 28.000 Z" fill-rule="evenodd"/>
<path fill="#191919" fill-opacity="0.553" d="M 0.000 27.000 L 1.000 27.000 L 1.000 28.000 L 0.000 28.000 Z" fill-rule="evenodd"/>
<path fill="#1A1A1A" fill-opacity="0.569" d="M 9.000 14.000 L 10.000 14.000 L 10.000 15.000 L 9.000 15.000 Z M 22.000 14.000 L 23.000 14.000 L 23.000 15.000 L 22.000 15.000 Z" fill-rule="evenodd"/>
<path fill="#1A1A1A" fill-opacity="0.576" d="M 7.000 7.000 L 8.000 7.000 L 8.000 8.000 L 7.000 8.000 Z M 24.000 7.000 L 25.000 7.000 L 25.000 8.000 L 24.000 8.000 Z" fill-rule="evenodd"/>
<path fill="#191919" fill-opacity="0.592" d="M 7.000 9.000 L 8.000 9.000 L 8.000 10.000 L 7.000 10.000 Z M 24.000 9.000 L 25.000 9.000 L 25.000 10.000 L 24.000 10.000 Z M 7.000 10.000 L 8.000 10.000 L 8.000 11.000 L 7.000 11.000 Z M 24.000 10.000 L 25.000 10.000 L 25.000 11.000 L 24.000 11.000 Z" fill-rule="evenodd"/>
<path fill="#1B1B1B" fill-opacity="0.600" d="M 3.000 14.000 L 4.000 14.000 L 4.000 15.000 L 3.000 15.000 Z M 7.000 14.000 L 9.000 14.000 L 9.000 15.000 L 7.000 15.000 Z M 23.000 14.000 L 25.000 14.000 L 25.000 15.000 L 23.000 15.000 Z M 28.000 14.000 L 29.000 14.000 L 29.000 15.000 L 28.000 15.000 Z M 12.000 18.000 L 20.000 18.000 L 20.000 19.000 L 12.000 19.000 Z" fill-rule="evenodd"/>
<path fill="#1A1A1A" fill-opacity="0.616" d="M 4.000 14.000 L 5.000 14.000 L 5.000 15.000 L 4.000 15.000 Z M 27.000 14.000 L 28.000 14.000 L 28.000 15.000 L 27.000 15.000 Z" fill-rule="evenodd"/>
<path fill="#1A1A1A" fill-opacity="0.624" d="M 6.000 6.000 L 7.000 6.000 L 7.000 7.000 L 6.000 7.000 Z M 25.000 6.000 L 26.000 6.000 L 26.000 7.000 L 25.000 7.000 Z" fill-rule="evenodd"/>
<path fill="#1A1A1A" fill-opacity="0.643" d="M 6.000 8.000 L 7.000 8.000 L 7.000 9.000 L 6.000 9.000 Z M 25.000 8.000 L 26.000 8.000 L 26.000 9.000 L 25.000 9.000 Z" fill-rule="evenodd"/>
<path fill="#1A1A1A" fill-opacity="0.647" d="M 6.000 9.000 L 7.000 9.000 L 7.000 10.000 L 6.000 10.000 Z M 25.000 9.000 L 26.000 9.000 L 26.000 10.000 L 25.000 10.000 Z M 6.000 10.000 L 7.000 10.000 L 7.000 11.000 L 6.000 11.000 Z M 25.000 10.000 L 26.000 10.000 L 26.000 11.000 L 25.000 11.000 Z" fill-rule="evenodd"/>
<path fill="#1A1A1A" fill-opacity="0.667" d="M 7.000 12.000 L 25.000 12.000 L 25.000 13.000 L 7.000 13.000 Z" fill-rule="evenodd"/>
<path fill="#1A1A1A" fill-opacity="0.682" d="M 6.000 14.000 L 7.000 14.000 L 7.000 15.000 L 6.000 15.000 Z M 25.000 14.000 L 26.000 14.000 L 26.000 15.000 L 25.000 15.000 Z" fill-rule="evenodd"/>
<path fill="#1A1A1A" fill-opacity="0.686" d="M 4.000 7.000 L 5.000 7.000 L 5.000 8.000 L 4.000 8.000 Z M 27.000 7.000 L 28.000 7.000 L 28.000 8.000 L 27.000 8.000 Z" fill-rule="evenodd"/>
<path fill="#1A1A1A" fill-opacity="0.694" d="M 28.000 9.000 L 29.000 9.000 L 29.000 10.000 L 28.000 10.000 Z" fill-rule="evenodd"/>
<path fill="#1A1A1A" fill-opacity="0.698" d="M 3.000 9.000 L 4.000 9.000 L 4.000 10.000 L 3.000 10.000 Z M 10.000 17.000 L 11.000 17.000 L 11.000 18.000 L 10.000 18.000 Z M 21.000 17.000 L 22.000 17.000 L 22.000 18.000 L 21.000 18.000 Z" fill-rule="evenodd"/>
<path fill="#191919" fill-opacity="0.710" d="M 2.000 11.000 L 3.000 11.000 L 3.000 12.000 L 2.000 12.000 Z M 29.000 11.000 L 30.000 11.000 L 30.000 12.000 L 29.000 12.000 Z" fill-rule="evenodd"/>
<path fill="#1B1B1B" fill-opacity="0.714" d="M 0.000 15.000 L 1.000 15.000 L 1.000 16.000 L 0.000 16.000 Z M 31.000 15.000 L 32.000 15.000 L 32.000 16.000 L 31.000 16.000 Z" fill-rule="evenodd"/>
<path fill="#1A1A1A" fill-opacity="0.718" d="M 30.000 13.000 L 31.000 13.000 L 31.000 14.000 L 30.000 14.000 Z" fill-rule="evenodd"/>
<path fill="#1A1A1A" fill-opacity="0.722" d="M 1.000 13.000 L 2.000 13.000 L 2.000 14.000 L 1.000 14.000 Z" fill-rule="evenodd"/>
<path fill="#1A1A1A" fill-opacity="0.733" d="M 8.000 8.000 L 24.000 8.000 L 24.000 9.000 L 8.000 9.000 Z M 3.000 15.000 L 9.000 15.000 L 9.000 16.000 L 3.000 16.000 Z M 23.000 15.000 L 29.000 15.000 L 29.000 16.000 L 23.000 16.000 Z M 12.000 17.000 L 20.000 17.000 L 20.000 18.000 L 12.000 18.000 Z" fill-rule="evenodd"/>
<path fill="#1A1A1A" fill-opacity="0.737" d="M 6.000 12.000 L 7.000 12.000 L 7.000 13.000 L 6.000 13.000 Z M 25.000 12.000 L 26.000 12.000 L 26.000 13.000 L 25.000 13.000 Z" fill-rule="evenodd"/>
<path fill="#1A1A1A" fill-opacity="0.745" d="M 2.000 15.000 L 3.000 15.000 L 3.000 16.000 L 2.000 16.000 Z M 29.000 15.000 L 30.000 15.000 L 30.000 16.000 L 29.000 16.000 Z" fill-rule="evenodd"/>
<path fill="#1A1A1A" fill-opacity="0.765" d="M 12.000 22.000 L 13.000 22.000 L 13.000 23.000 L 12.000 23.000 Z M 19.000 22.000 L 20.000 22.000 L 20.000 23.000 L 19.000 23.000 Z" fill-rule="evenodd"/>
<path fill="#191919" fill-opacity="0.788" d="M 2.000 14.000 L 3.000 14.000 L 3.000 15.000 L 2.000 15.000 Z M 29.000 14.000 L 30.000 14.000 L 30.000 15.000 L 29.000 15.000 Z" fill-rule="evenodd"/>
<path fill="#1A1A1A" fill-opacity="0.800" d="M 10.000 4.000 L 22.000 4.000 L 22.000 5.000 L 10.000 5.000 Z" fill-rule="evenodd"/>
<path fill="#1A1A1A" fill-opacity="0.808" d="M 9.000 4.000 L 10.000 4.000 L 10.000 5.000 L 9.000 5.000 Z M 22.000 4.000 L 23.000 4.000 L 23.000 5.000 L 22.000 5.000 Z" fill-rule="evenodd"/>
<path fill="#1A1A1A" fill-opacity="0.812" d="M 7.000 11.000 L 8.000 11.000 L 8.000 12.000 L 7.000 12.000 Z M 24.000 11.000 L 25.000 11.000 L 25.000 12.000 L 24.000 12.000 Z" fill-rule="evenodd"/>
<path fill="#1A1A1A" fill-opacity="0.816" d="M 29.000 13.000 L 30.000 13.000 L 30.000 14.000 L 29.000 14.000 Z" fill-rule="evenodd"/>
<path fill="#1B1B1B" fill-opacity="0.827" d="M 27.000 9.000 L 28.000 9.000 L 28.000 10.000 L 27.000 10.000 Z M 3.000 11.000 L 4.000 11.000 L 4.000 12.000 L 3.000 12.000 Z M 28.000 11.000 L 29.000 11.000 L 29.000 12.000 L 28.000 12.000 Z M 2.000 13.000 L 3.000 13.000 L 3.000 14.000 L 2.000 14.000 Z" fill-rule="evenodd"/>
<path fill="#1A1A1A" fill-opacity="0.831" d="M 12.000 23.000 L 13.000 23.000 L 13.000 24.000 L 12.000 24.000 Z M 19.000 23.000 L 20.000 23.000 L 20.000 24.000 L 19.000 24.000 Z" fill-rule="evenodd"/>
<path fill="#1A1A1A" fill-opacity="0.835" d="M 6.000 11.000 L 7.000 11.000 L 7.000 12.000 L 6.000 12.000 Z M 25.000 11.000 L 26.000 11.000 L 26.000 12.000 L 25.000 12.000 Z" fill-rule="evenodd"/>
<path fill="#1A1A1A" fill-opacity="0.839" d="M 4.000 9.000 L 5.000 9.000 L 5.000 10.000 L 4.000 10.000 Z" fill-rule="evenodd"/>
<path fill="#1A1A1A" fill-opacity="0.847" d="M 5.000 7.000 L 6.000 7.000 L 6.000 8.000 L 5.000 8.000 Z M 26.000 7.000 L 27.000 7.000 L 27.000 8.000 L 26.000 8.000 Z" fill-rule="evenodd"/>
<path fill="#1A1A1A" fill-opacity="0.851" d="M 12.000 24.000 L 13.000 24.000 L 13.000 25.000 L 12.000 25.000 Z M 19.000 24.000 L 20.000 24.000 L 20.000 25.000 L 19.000 25.000 Z" fill-rule="evenodd"/>
<path fill="#1A1A1A" fill-opacity="0.855" d="M 9.000 15.000 L 10.000 15.000 L 10.000 16.000 L 9.000 16.000 Z M 22.000 15.000 L 23.000 15.000 L 23.000 16.000 L 22.000 16.000 Z" fill-rule="evenodd"/>
<path fill="#1B1B1B" fill-opacity="0.867" d="M 13.000 24.000 L 19.000 24.000 L 19.000 25.000 L 13.000 25.000 Z" fill-rule="evenodd"/>
<path fill="#1A1A1A" fill-opacity="0.875" d="M 10.000 15.000 L 11.000 15.000 L 11.000 16.000 L 10.000 16.000 Z M 21.000 15.000 L 22.000 15.000 L 22.000 16.000 L 21.000 16.000 Z" fill-rule="evenodd"/>
<path fill="#1A1A1A" fill-opacity="0.890" d="M 7.000 8.000 L 8.000 8.000 L 8.000 9.000 L 7.000 9.000 Z M 24.000 8.000 L 25.000 8.000 L 25.000 9.000 L 24.000 9.000 Z" fill-rule="evenodd"/>
<path fill="#1A1A1A" fill-opacity="0.898" d="M 25.000 5.000 L 26.000 5.000 L 26.000 6.000 L 25.000 6.000 Z" fill-rule="evenodd"/>
<path fill="#1A1A1A" fill-opacity="0.902" d="M 6.000 5.000 L 7.000 5.000 L 7.000 6.000 L 6.000 6.000 Z" fill-rule="evenodd"/>
<path fill="#1A1A1A" fill-opacity="0.906" d="M 11.000 17.000 L 12.000 17.000 L 12.000 18.000 L 11.000 18.000 Z M 20.000 17.000 L 21.000 17.000 L 21.000 18.000 L 20.000 18.000 Z" fill-rule="evenodd"/>
<path fill="#1A1A1A" fill-opacity="0.933" d="M 3.000 27.000 L 29.000 27.000 L 29.000 28.000 L 3.000 28.000 Z" fill-rule="evenodd"/>
<path fill="#1A1A1A" fill-opacity="0.941" d="M 2.000 27.000 L 3.000 27.000 L 3.000 28.000 L 2.000 28.000 Z M 29.000 27.000 L 30.000 27.000 L 30.000 28.000 L 29.000 28.000 Z" fill-rule="evenodd"/>
<path fill="#1A1A1A" fill-opacity="0.945" d="M 31.000 26.000 L 32.000 26.000 L 32.000 27.000 L 31.000 27.000 Z" fill-rule="evenodd"/>
<path fill="#1A1A1A" fill-opacity="0.949" d="M 0.000 26.000 L 1.000 26.000 L 1.000 27.000 L 0.000 27.000 Z" fill-rule="evenodd"/>
<path fill="#1A1A1A" fill-opacity="0.969" d="M 1.000 15.000 L 2.000 15.000 L 2.000 16.000 L 1.000 16.000 Z M 30.000 15.000 L 31.000 15.000 L 31.000 16.000 L 30.000 16.000 Z" fill-rule="evenodd"/>
<path fill="#1A1A1A" fill-opacity="0.976" d="M 31.000 16.000 L 32.000 16.000 L 32.000 17.000 L 31.000 17.000 Z" fill-rule="evenodd"/>
<path fill="#1A1A1A" fill-opacity="0.980" d="M 0.000 16.000 L 1.000 16.000 L 1.000 17.000 L 0.000 17.000 Z" fill-rule="evenodd"/>
<path fill="#1A1A1A" fill-opacity="0.992" d="M 5.000 6.000 L 6.000 6.000 L 6.000 7.000 L 5.000 7.000 Z M 26.000 6.000 L 27.000 6.000 L 27.000 7.000 L 26.000 7.000 Z" fill-rule="evenodd"/>
<path fill="#1A1A1A" fill-opacity="0.996" d="M 4.000 8.000 L 5.000 8.000 L 5.000 9.000 L 4.000 9.000 Z M 27.000 8.000 L 28.000 8.000 L 28.000 9.000 L 27.000 9.000 Z M 3.000 10.000 L 4.000 10.000 L 4.000 11.000 L 3.000 11.000 Z M 10.000 16.000 L 11.000 16.000 L 11.000 17.000 L 10.000 17.000 Z M 21.000 16.000 L 22.000 16.000 L 22.000 17.000 L 21.000 17.000 Z" fill-rule="evenodd"/>
<path fill="#1A1A1A" d="M 8.000 4.000 L 9.000 4.000 L 9.000 5.000 L 8.000 5.000 Z M 23.000 4.000 L 24.000 4.000 L 24.000 5.000 L 23.000 5.000 Z M 7.000 5.000 L 9.000 5.000 L 9.000 6.000 L 7.000 6.000 Z M 23.000 5.000 L 25.000 5.000 L 25.000 6.000 L 23.000 6.000 Z M 8.000 6.000 L 9.000 6.000 L 9.000 7.000 L 8.000 7.000 Z M 23.000 6.000 L 24.000 6.000 L 24.000 7.000 L 23.000 7.000 Z M 8.000 7.000 L 9.000 7.000 L 9.000 8.000 L 8.000 8.000 Z M 23.000 7.000 L 24.000 7.000 L 24.000 8.000 L 23.000 8.000 Z M 28.000 10.000 L 29.000 10.000 L 29.000 11.000 L 28.000 11.000 Z M 2.000 12.000 L 3.000 12.000 L 3.000 13.000 L 2.000 13.000 Z M 5.000 12.000 L 6.000 12.000 L 6.000 13.000 L 5.000 13.000 Z M 26.000 12.000 L 27.000 12.000 L 27.000 13.000 L 26.000 13.000 Z M 29.000 12.000 L 30.000 12.000 L 30.000 13.000 L 29.000 13.000 Z M 5.000 13.000 L 6.000 13.000 L 6.000 14.000 L 5.000 14.000 Z M 26.000 13.000 L 27.000 13.000 L 27.000 14.000 L 26.000 14.000 Z M 1.000 14.000 L 2.000 14.000 L 2.000 15.000 L 1.000 15.000 Z M 5.000 14.000 L 6.000 14.000 L 6.000 15.000 L 5.000 15.000 Z M 26.000 14.000 L 27.000 14.000 L 27.000 15.000 L 26.000 15.000 Z M 30.000 14.000 L 31.000 14.000 L 31.000 15.000 L 30.000 15.000 Z M 0.000 17.000 L 1.000 17.000 L 1.000 18.000 L 0.000 18.000 Z M 31.000 17.000 L 32.000 17.000 L 32.000 18.000 L 31.000 18.000 Z M 0.000 18.000 L 1.000 18.000 L 1.000 19.000 L 0.000 19.000 Z M 31.000 18.000 L 32.000 18.000 L 32.000 19.000 L 31.000 19.000 Z M 0.000 19.000 L 1.000 19.000 L 1.000 20.000 L 0.000 20.000 Z M 31.000 19.000 L 32.000 19.000 L 32.000 20.000 L 31.000 20.000 Z M 0.000 20.000 L 1.000 20.000 L 1.000 21.000 L 0.000 21.000 Z M 31.000 20.000 L 32.000 20.000 L 32.000 21.000 L 31.000 21.000 Z M 0.000 21.000 L 1.000 21.000 L 1.000 22.000 L 0.000 22.000 Z M 12.000 21.000 L 20.000 21.000 L 20.000 22.000 L 12.000 22.000 Z M 31.000 21.000 L 32.000 21.000 L 32.000 22.000 L 31.000 22.000 Z M 0.000 22.000 L 1.000 22.000 L 1.000 23.000 L 0.000 23.000 Z M 31.000 22.000 L 32.000 22.000 L 32.000 23.000 L 31.000 23.000 Z M 0.000 23.000 L 1.000 23.000 L 1.000 24.000 L 0.000 24.000 Z M 31.000 23.000 L 32.000 23.000 L 32.000 24.000 L 31.000 24.000 Z M 0.000 24.000 L 1.000 24.000 L 1.000 25.000 L 0.000 25.000 Z M 31.000 24.000 L 32.000 24.000 L 32.000 25.000 L 31.000 25.000 Z M 0.000 25.000 L 1.000 25.000 L 1.000 26.000 L 0.000 26.000 Z M 31.000 25.000 L 32.000 25.000 L 32.000 26.000 L 31.000 26.000 Z M 1.000 27.000 L 2.000 27.000 L 2.000 28.000 L 1.000 28.000 Z M 30.000 27.000 L 31.000 27.000 L 31.000 28.000 L 30.000 28.000 Z" fill-rule="evenodd"/>
</svg>