<?xml version="1.0" encoding="UTF-8"?>
<svg xmlns="http://www.w3.org/2000/svg" xmlns:xlink="http://www.w3.org/1999/xlink" version="1.1" viewBox="0 0 68 68">
  <defs>
    <style>
      .cls-1 { fill: none; }
      .cls-3 { fill: none; stroke: #7fa828; stroke-linecap: round; stroke-linejoin: round; stroke-width: 5.5; }
    </style>
  </defs>
  <!-- Folder shape with transparent interior -->
  <path fill="#60bcd3" d="M54.1,46.4v3.8h-3s-37.2,0-37.2,0v-27h37.2s3,0,3,0v23.1ZM57.6,50.4v-27.3c0-1.9-1.6-3.5-3.5-3.5h-2.5s-23.1,0-23.1,0v-2c0-1.9-1.6-3.5-3.5-3.5h-11.2c-1.9,0-3.5,1.6-3.5,3.5v31.2h0v1.5s0,0,0,0v.4c0,.3,0,.5.2.8.5,1.3,1.8,2.3,3.2,2.3h40.3c1.9,0,3.5-1.6,3.5-3.5"/>
  <!-- External link arrow: diagonal line from folder top-right toward upper-right -->
  <line class="cls-3" x1="43" y1="21" x2="58" y2="8"/>
  <!-- External link arrow: L-bracket at destination (classic "open externally" symbol) -->
  <polyline class="cls-3" points="46,8 58,8 58,19"/>
</svg>
