<?xml version="1.0" encoding="UTF-8"?>
<svg xmlns="http://www.w3.org/2000/svg" xmlns:xlink="http://www.w3.org/1999/xlink" version="1.1" viewBox="0 0 68 68">
  <defs>
    <style>
      .cls-1, .cls-2 {
        fill: none;
      }

      .cls-3 {
        fill: #f28c00;
      }

      .cls-4 {
        fill: #fff;
      }

      .cls-5 {
        fill: #60bcd3;
      }

      .cls-6 {
        fill: #3fa535;
      }

      .cls-7 {
        clip-path: url(#clippath);
      }

      .cls-2 {
        stroke: #fff;
      }
    </style>
    <clipPath id="clippath">
      <rect class="cls-1" x="10.2" y="10.1" width="47.7" height="45.7"/>
    </clipPath>
  </defs>
  <!-- Generator: Adobe Illustrator 28.6.0, SVG Export Plug-In . SVG Version: 1.2.0 Build 709)  -->
  <g>
    <g id="Ebene_1">
      <polygon class="cls-6" points="46.7 32.4 50.6 34.5 34 42.6 17.4 34.5 21.1 32.4 17.6 30.7 10.2 34.5 34 46.3 57.8 34.5 50.2 30.7 46.7 32.4"/>
      <polygon class="cls-5" points="46.8 41.9 50.6 44 34 52.1 17.4 44 21.2 41.9 17.7 40.2 10.2 44 34 55.8 57.8 44 50.3 40.2 46.8 41.9"/>
      <polygon class="cls-3" points="10.2 25 34 36.8 57.8 25 34 13.3 10.2 25"/>
      <g class="cls-7">
        <line class="cls-2" x1="13.2" y1="22.1" x2="57.8" y2="22.2"/>
        <line class="cls-2" x1="36.9" y1="10.1" x2="38" y2="38.5"/>
        <path class="cls-4" d="M37.2,25c2.7,0,4.9-1.1,4.9-2.5s-2.2-2.5-4.9-2.5-4.9,1.1-4.9,2.5,2.2,2.5,4.9,2.5"/>
      </g>
    </g>
  </g>
</svg>