<?xml version="1.0" encoding="UTF-8"?>
<svg xmlns="http://www.w3.org/2000/svg" xmlns:xlink="http://www.w3.org/1999/xlink" version="1.1" viewBox="0 0 68 68">
  <defs>
    <style>
      .cls-1, .cls-2 {
        fill: none;
      }

      .cls-2 {
        stroke: #60bcd3;
        stroke-width: .6px;
      }

      .cls-3 {
        fill: #60bcd3;
      }

      .cls-4 {
        fill: #7fa828;
      }

      .cls-5 {
        clip-path: url(#clippath);
      }
    </style>
    <clipPath id="clippath">
      <rect class="cls-1" x="8.4" y="1.5" width="51.1" height="63.3"/>
    </clipPath>
  </defs>
  <!-- Generator: Adobe Illustrator 28.6.0, SVG Export Plug-In . SVG Version: 1.2.0 Build 709)  -->
  <g>
    <g id="Ebene_1">
      <g class="cls-5">
        <path class="cls-3" d="M13.7,59.4V17.7h.9s0,0,0,0c1.5,0,2.7-1.2,2.7-2.7s-1.2-2.7-2.7-2.7,0,0,0,0h0s-2.5,0-2.5,0c-2,0-3.6,1.6-3.6,3.6v45.3c0,2,1.6,3.6,3.6,3.6h44c2,0,3.6-1.6,3.6-3.6V16c0-2-1.6-3.6-3.6-3.6h-1.9s0,0,0,0c-1.5,0-2.7,1.2-2.7,2.7s1.2,2.7,2.7,2.7,0,0,0,0h0s.3,0,.3,0v41.7"/>
        <path class="cls-3" d="M18.2,47v6.1s0,.5.5.5h6.1s.5,0,.5-.5v-6.1s0-.5-.5-.5h-2.5v-7.6h11.2v7.5h-2.6s-.5,0-.5.5v6.1s0,.5.5.5h6.1s.5,0,.5-.5v-6.1s0-.5-.5-.5h-2.4v-7.5h11.2v7.5h-2.5s-.5,0-.5.5v6.1s0,.5.5.5h6.1s.5,0,.5-.5v-6.1s0-.5-.5-.5h-2.5v-8.7h-1.1s-11.2,0-11.2,0v-12.8h-1.1v12.8h-12.1s-.2,0-.2,0v8.8h-2.5s-.5,0-.5.5"/>
        <path class="cls-2" d="M18.2,47v6.1s0,.5.5.5h6.1s.5,0,.5-.5v-6.1s0-.5-.5-.5h-2.5v-7.6h11.2v7.5h-2.6s-.5,0-.5.5v6.1s0,.5.5.5h6.1s.5,0,.5-.5v-6.1s0-.5-.5-.5h-2.4v-7.5h11.2v7.5h-2.5s-.5,0-.5.5v6.1s0,.5.5.5h6.1s.5,0,.5-.5v-6.1s0-.5-.5-.5h-2.5v-8.7h-1.1s-11.2,0-11.2,0v-12.8h-1.1v12.8h-12.1s-.2,0-.2,0v8.8h-2.5s-.5,0-.5.5Z"/>
        <path class="cls-4" d="M28.1,16.9c0,3.5,2.8,6.3,6.3,6.3s6.3-2.8,6.3-6.3-2.8-6.3-6.3-6.3-6.3,2.8-6.3,6.3M22,15.8l-2.9-2.7,1.8-4.5,3.9.4,1.6-1.5-.2-4.1,4.4-1.8,2.7,3h2.2l2.7-3,4.4,1.8-.2,4.1,1.6,1.5,3.9-.4,1.8,4.5-2.9,2.7v2.4l2.9,2.6-1.8,4.3h-3.9c0-.1-1.6,1.5-1.6,1.5l.2,4.1-4.5,1.7-2.6-2.9h-2.2l-2.6,2.9-4.5-1.7.2-4.1-1.6-1.6h-3.9c0,.1-1.8-4.2-1.8-4.2l2.9-2.6v-2.4Z"/>
      </g>
    </g>
  </g>
</svg>