<?xml version="1.0" encoding="UTF-8"?>
<svg xmlns="http://www.w3.org/2000/svg" xmlns:xlink="http://www.w3.org/1999/xlink" version="1.1" viewBox="0 0 68 68">
  <defs>
    <style>
      .cls-1 {
        fill: none;
      }

      .cls-2 {
        fill: #00abc4;
      }

      .cls-3 {
        fill: #7fa828;
      }

      .cls-4 {
        clip-path: url(#clippath);
      }
    </style>
    <clipPath id="clippath">
      <rect class="cls-1" x="10.4" y="11.6" width="45.5" height="44.8"/>
    </clipPath>
  </defs>
  <!-- Generator: Adobe Illustrator 28.6.0, SVG Export Plug-In . SVG Version: 1.2.0 Build 709)  -->
  <g>
    <g id="Ebene_1">
      <g class="cls-4">
        <path class="cls-3" d="M38.7,34.1c0,2.9-2.4,5.3-5.3,5.3s-5.3-2.4-5.3-5.3,2.4-5.3,5.3-5.3,5.3,2.4,5.3,5.3M43.8,33.1l2.4-2.3-1.5-3.8-3.3.3-1.3-1.3.2-3.4-3.7-1.5-2.3,2.5h-1.8l-2.3-2.5-3.7,1.5.2,3.4-1.3,1.3-3.3-.3-1.5,3.8,2.4,2.3v2l-2.4,2.2,1.5,3.6h3.3c0,0,1.3,1.3,1.3,1.3l-.2,3.4,3.8,1.4,2.2-2.4h1.8l2.2,2.4,3.8-1.4-.2-3.4,1.3-1.3h3.3c0,0,1.5-3.5,1.5-3.5l-2.4-2.2v-2Z"/>
        <path class="cls-2" d="M52.6,22.5c-4.7-7.7-13.8-12.2-23.2-10.5-9.8,1.7-16.9,9.5-18.3,18.8l3.3-.6c1.6-7.5,7.6-13.6,15.6-15,7.7-1.4,15.1,2,19.3,8.1,1.2-.2,2.3-.5,3.4-.7"/>
        <path class="cls-2" d="M55.5,21.2l-9.7,2.4s-.2,0-.2.2c0,.1.1.3.1.3l6.3,4.8s.2.2.3,0c.1,0,.2-.2.3-.4.7-1.4,3.3-7.1,3.3-7.1,0,0,.1-.2,0-.3-.1,0-.3,0-.3,0"/>
        <path class="cls-2" d="M13.8,45.5c4.7,7.7,13.8,12.2,23.2,10.5,9.8-1.7,16.9-9.5,18.3-18.8l-3.3.6c-1.6,7.5-7.6,13.6-15.6,15-7.7,1.4-15.1-2-19.3-8.1-1.2.2-2.3.5-3.4.7"/>
        <path class="cls-2" d="M10.8,46.8l9.7-2.4s.2,0,.2-.2-.1-.3-.1-.3l-6.3-4.8s-.2-.2-.3,0c-.1,0-.2.2-.3.4-.7,1.4-3.3,7.1-3.3,7.1,0,0-.1.2,0,.3.1,0,.3,0,.3,0"/>
      </g>
    </g>
  </g>
</svg>