<?xml version="1.0" encoding="UTF-8"?>
<svg xmlns="http://www.w3.org/2000/svg" xmlns:xlink="http://www.w3.org/1999/xlink" version="1.1" viewBox="0 0 68 68">
  <defs>
    <style>
      .cls-1, .cls-2 {
        fill: none;
      }

      .cls-3 {
        fill: #60bcd3;
      }

      .cls-4 {
        fill: #7fa828;
      }

      .cls-5 {
        clip-path: url(#clippath);
      }

      .cls-2 {
        stroke: #7fa828;
        stroke-width: .6px;
      }
    </style>
    <clipPath id="clippath">
      <rect class="cls-1" x="9.3" y="9.9" width="49.5" height="49.5"/>
    </clipPath>
  </defs>
  <!-- Generator: Adobe Illustrator 28.6.0, SVG Export Plug-In . SVG Version: 1.2.0 Build 709)  -->
  <g>
    <g id="Ebene_1">
      <g class="cls-5">
        <path class="cls-3" d="M53.8,34.8c0,10.8-8.8,19.6-19.7,19.6s-19.7-8.8-19.7-19.6,8.8-19.6,19.7-19.6,19.7,8.8,19.7,19.6M58.8,34.6c0-13.7-11.1-24.8-24.8-24.8s-24.8,11.1-24.8,24.8,11.1,24.8,24.8,24.8,24.8-11.1,24.8-24.8"/>
        <path class="cls-4" d="M48.6,26.1c-1-1-2.6-.9-3.6.1,0,0,0,0,0,0h0s-13.8,14.3-13.8,14.3l-7.6-7.5h0s0,0,0,0c-1-1-2.6-1.1-3.6-.1-1,1-1,2.6,0,3.6,0,0,0,0,0,0h0s11.2,11.3,11.2,11.3h0c0,0,0,0,0,0l17.4-18h0s0,0,0,0c1-1,1-2.6,0-3.6"/>
        <path class="cls-2" d="M48.6,26.1c-1-1-2.6-.9-3.6.1,0,0,0,0,0,0h0s-13.8,14.3-13.8,14.3l-7.6-7.5h0s0,0,0,0c-1-1-2.6-1.1-3.6-.1-1,1-1,2.6,0,3.6,0,0,0,0,0,0h0s11.2,11.3,11.2,11.3h0c0,0,0,0,0,0l17.4-18h0s0,0,0,0c1-1,1-2.6,0-3.6Z"/>
      </g>
    </g>
  </g>
</svg>