<svg xmlns="http://www.w3.org/2000/svg" viewBox="0 0 16 16">
<path fill="#1A6680" fill-opacity="0.039" d="M 1.000 6.000 L 2.000 6.000 L 2.000 7.000 L 1.000 7.000 Z M 1.000 9.000 L 2.000 9.000 L 2.000 10.000 L 1.000 10.000 Z" fill-rule="evenodd"/>
<path fill="#246D80" fill-opacity="0.055" d="M 2.000 11.000 L 3.000 11.000 L 3.000 12.000 L 2.000 12.000 Z" fill-rule="evenodd"/>
<path fill="#226677" fill-opacity="0.059" d="M 2.000 4.000 L 3.000 4.000 L 3.000 5.000 L 2.000 5.000 Z M 8.000 6.000 L 9.000 6.000 L 9.000 7.000 L 8.000 7.000 Z M 3.000 12.000 L 4.000 12.000 L 4.000 13.000 L 3.000 13.000 Z" fill-rule="evenodd"/>
<path fill="#207080" fill-opacity="0.063" d="M 3.000 3.000 L 4.000 3.000 L 4.000 4.000 L 3.000 4.000 Z M 14.000 7.000 L 15.000 7.000 L 15.000 8.000 L 14.000 8.000 Z M 5.000 13.000 L 6.000 13.000 L 6.000 14.000 L 5.000 14.000 Z" fill-rule="evenodd"/>
<path fill="#1E6978" fill-opacity="0.067" d="M 5.000 2.000 L 6.000 2.000 L 6.000 3.000 L 5.000 3.000 Z" fill-rule="evenodd"/>
<path fill="#267380" fill-opacity="0.078" d="M 14.000 6.000 L 15.000 6.000 L 15.000 7.000 L 14.000 7.000 Z" fill-rule="evenodd"/>
<path fill="#206A80" fill-opacity="0.094" d="M 8.000 2.000 L 9.000 2.000 L 9.000 3.000 L 8.000 3.000 Z M 11.000 4.000 L 12.000 4.000 L 12.000 5.000 L 11.000 5.000 Z M 7.000 11.000 L 8.000 11.000 L 8.000 12.000 L 7.000 12.000 Z" fill-rule="evenodd"/>
<path fill="#236A7B" fill-opacity="0.114" d="M 10.000 3.000 L 11.000 3.000 L 11.000 4.000 L 10.000 4.000 Z" fill-rule="evenodd"/>
<path fill="#276C7C" fill-opacity="0.129" d="M 7.000 13.000 L 8.000 13.000 L 8.000 14.000 L 7.000 14.000 Z" fill-rule="evenodd"/>
<path fill="#246D7D" fill-opacity="0.192" d="M 1.000 7.000 L 2.000 7.000 L 2.000 8.000 L 1.000 8.000 Z M 1.000 8.000 L 2.000 8.000 L 2.000 9.000 L 1.000 9.000 Z" fill-rule="evenodd"/>
<path fill="#246D80" fill-opacity="0.220" d="M 13.000 8.000 L 14.000 8.000 L 14.000 9.000 L 13.000 9.000 Z" fill-rule="evenodd"/>
<path fill="#256B80" fill-opacity="0.243" d="M 9.000 5.000 L 10.000 5.000 L 10.000 6.000 L 9.000 6.000 Z" fill-rule="evenodd"/>
<path fill="#246D7D" fill-opacity="0.247" d="M 6.000 13.000 L 7.000 13.000 L 7.000 14.000 L 6.000 14.000 Z" fill-rule="evenodd"/>
<path fill="#246C80" fill-opacity="0.251" d="M 6.000 2.000 L 7.000 2.000 L 7.000 3.000 L 6.000 3.000 Z" fill-rule="evenodd"/>
<path fill="#266D80" fill-opacity="0.267" d="M 7.000 2.000 L 8.000 2.000 L 8.000 3.000 L 7.000 3.000 Z" fill-rule="evenodd"/>
<path fill="#226E80" fill-opacity="0.290" d="M 8.000 7.000 L 9.000 7.000 L 9.000 8.000 L 8.000 8.000 Z" fill-rule="evenodd"/>
<path fill="#256D7E" fill-opacity="0.294" d="M 10.000 9.000 L 11.000 9.000 L 11.000 10.000 L 10.000 10.000 Z" fill-rule="evenodd"/>
<path fill="#246C80" fill-opacity="0.306" d="M 12.000 6.000 L 13.000 6.000 L 13.000 7.000 L 12.000 7.000 Z" fill-rule="evenodd"/>
<path fill="#236C80" fill-opacity="0.314" d="M 6.000 4.000 L 7.000 4.000 L 7.000 5.000 L 6.000 5.000 Z" fill-rule="evenodd"/>
<path fill="#236E7E" fill-opacity="0.318" d="M 6.000 11.000 L 7.000 11.000 L 7.000 12.000 L 6.000 12.000 Z" fill-rule="evenodd"/>
<path fill="#246D80" fill-opacity="0.329" d="M 7.000 4.000 L 8.000 4.000 L 8.000 5.000 L 7.000 5.000 Z" fill-rule="evenodd"/>
<path fill="#236E80" fill-opacity="0.345" d="M 12.000 9.000 L 13.000 9.000 L 13.000 10.000 L 12.000 10.000 Z" fill-rule="evenodd"/>
<path fill="#256C80" fill-opacity="0.353" d="M 9.000 6.000 L 10.000 6.000 L 10.000 7.000 L 9.000 7.000 Z" fill-rule="evenodd"/>
<path fill="#246C80" fill-opacity="0.361" d="M 4.000 5.000 L 5.000 5.000 L 5.000 6.000 L 4.000 6.000 Z" fill-rule="evenodd"/>
<path fill="#246E7E" fill-opacity="0.365" d="M 4.000 10.000 L 5.000 10.000 L 5.000 11.000 L 4.000 11.000 Z" fill-rule="evenodd"/>
<path fill="#236E7E" fill-opacity="0.373" d="M 3.000 7.000 L 4.000 7.000 L 4.000 8.000 L 3.000 8.000 Z M 3.000 8.000 L 4.000 8.000 L 4.000 9.000 L 3.000 9.000 Z" fill-rule="evenodd"/>
<path fill="#236D7E" fill-opacity="0.451" d="M 9.000 8.000 L 10.000 8.000 L 10.000 9.000 L 9.000 9.000 Z" fill-rule="evenodd"/>
<path fill="#256C80" fill-opacity="0.573" d="M 10.000 6.000 L 11.000 6.000 L 11.000 7.000 L 10.000 7.000 Z" fill-rule="evenodd"/>
<path fill="#246D80" fill-opacity="0.588" d="M 8.000 4.000 L 9.000 4.000 L 9.000 5.000 L 8.000 5.000 Z M 2.000 10.000 L 3.000 10.000 L 3.000 11.000 L 2.000 11.000 Z" fill-rule="evenodd"/>
<path fill="#236E7F" fill-opacity="0.592" d="M 2.000 5.000 L 3.000 5.000 L 3.000 6.000 L 2.000 6.000 Z" fill-rule="evenodd"/>
<path fill="#246D7F" fill-opacity="0.616" d="M 4.000 12.000 L 5.000 12.000 L 5.000 13.000 L 4.000 13.000 Z" fill-rule="evenodd"/>
<path fill="#236D7F" fill-opacity="0.624" d="M 4.000 3.000 L 5.000 3.000 L 5.000 4.000 L 4.000 4.000 Z" fill-rule="evenodd"/>
<path fill="#246E7F" fill-opacity="0.639" d="M 5.000 4.000 L 6.000 4.000 L 6.000 5.000 L 5.000 5.000 Z" fill-rule="evenodd"/>
<path fill="#246E7F" fill-opacity="0.647" d="M 5.000 11.000 L 6.000 11.000 L 6.000 12.000 L 5.000 12.000 Z" fill-rule="evenodd"/>
<path fill="#246E80" fill-opacity="0.675" d="M 3.000 6.000 L 4.000 6.000 L 4.000 7.000 L 3.000 7.000 Z" fill-rule="evenodd"/>
<path fill="#236D7F" fill-opacity="0.678" d="M 3.000 9.000 L 4.000 9.000 L 4.000 10.000 L 3.000 10.000 Z" fill-rule="evenodd"/>
<path fill="#246D7F" fill-opacity="0.694" d="M 9.000 3.000 L 10.000 3.000 L 10.000 4.000 L 9.000 4.000 Z" fill-rule="evenodd"/>
<path fill="#246D80" fill-opacity="0.698" d="M 11.000 5.000 L 12.000 5.000 L 12.000 6.000 L 11.000 6.000 Z" fill-rule="evenodd"/>
<path fill="#246D80" fill-opacity="0.722" d="M 13.000 6.000 L 14.000 6.000 L 14.000 7.000 L 13.000 7.000 Z" fill-rule="evenodd"/>
<path fill="#246D7F" fill-opacity="0.741" d="M 7.000 12.000 L 8.000 12.000 L 8.000 13.000 L 7.000 13.000 Z" fill-rule="evenodd"/>
<path fill="#246D80" fill-opacity="0.824" d="M 3.000 11.000 L 4.000 11.000 L 4.000 12.000 L 3.000 12.000 Z" fill-rule="evenodd"/>
<path fill="#246D7F" fill-opacity="0.827" d="M 3.000 4.000 L 4.000 4.000 L 4.000 5.000 L 3.000 5.000 Z" fill-rule="evenodd"/>
<path fill="#246D80" fill-opacity="0.878" d="M 11.000 9.000 L 12.000 9.000 L 12.000 10.000 L 11.000 10.000 Z" fill-rule="evenodd"/>
<path fill="#246D7F" fill-opacity="0.898" d="M 10.000 4.000 L 11.000 4.000 L 11.000 5.000 L 10.000 5.000 Z M 10.000 7.000 L 11.000 7.000 L 11.000 8.000 L 10.000 8.000 Z" fill-rule="evenodd"/>
<path fill="#246D7F" fill-opacity="0.906" d="M 13.000 7.000 L 14.000 7.000 L 14.000 8.000 L 13.000 8.000 Z" fill-rule="evenodd"/>
<path fill="#246D7F" fill-opacity="0.961" d="M 2.000 9.000 L 3.000 9.000 L 3.000 10.000 L 2.000 10.000 Z" fill-rule="evenodd"/>
<path fill="#246D80" fill-opacity="0.965" d="M 2.000 6.000 L 3.000 6.000 L 3.000 7.000 L 2.000 7.000 Z" fill-rule="evenodd"/>
<path fill="#246D7F" fill-opacity="0.969" d="M 12.000 8.000 L 13.000 8.000 L 13.000 9.000 L 12.000 9.000 Z" fill-rule="evenodd"/>
<path fill="#246D7F" fill-opacity="0.976" d="M 10.000 5.000 L 11.000 5.000 L 11.000 6.000 L 10.000 6.000 Z" fill-rule="evenodd"/>
<path fill="#246D80" fill-opacity="0.980" d="M 5.000 12.000 L 6.000 12.000 L 6.000 13.000 L 5.000 13.000 Z" fill-rule="evenodd"/>
<path fill="#246D7F" fill-opacity="0.984" d="M 5.000 3.000 L 6.000 3.000 L 6.000 4.000 L 5.000 4.000 Z M 9.000 4.000 L 10.000 4.000 L 10.000 5.000 L 9.000 5.000 Z" fill-rule="evenodd"/>
<path fill="#246D80" fill-opacity="0.988" d="M 10.000 8.000 L 11.000 8.000 L 11.000 9.000 L 10.000 9.000 Z" fill-rule="evenodd"/>
<path fill="#246D7F" fill-opacity="0.992" d="M 8.000 3.000 L 9.000 3.000 L 9.000 4.000 L 8.000 4.000 Z M 11.000 6.000 L 12.000 6.000 L 12.000 7.000 L 11.000 7.000 Z M 12.000 7.000 L 13.000 7.000 L 13.000 8.000 L 12.000 8.000 Z" fill-rule="evenodd"/>
<path fill="#246D7F" d="M 6.000 3.000 L 8.000 3.000 L 8.000 4.000 L 6.000 4.000 Z M 4.000 4.000 L 5.000 4.000 L 5.000 5.000 L 4.000 5.000 Z M 3.000 5.000 L 4.000 5.000 L 4.000 6.000 L 3.000 6.000 Z M 2.000 7.000 L 3.000 7.000 L 3.000 8.000 L 2.000 8.000 Z M 9.000 7.000 L 10.000 7.000 L 10.000 8.000 L 9.000 8.000 Z M 11.000 7.000 L 12.000 7.000 L 12.000 8.000 L 11.000 8.000 Z M 2.000 8.000 L 3.000 8.000 L 3.000 9.000 L 2.000 9.000 Z M 11.000 8.000 L 12.000 8.000 L 12.000 9.000 L 11.000 9.000 Z M 3.000 10.000 L 4.000 10.000 L 4.000 11.000 L 3.000 11.000 Z M 4.000 11.000 L 5.000 11.000 L 5.000 12.000 L 4.000 12.000 Z M 6.000 12.000 L 7.000 12.000 L 7.000 13.000 L 6.000 13.000 Z" fill-rule="evenodd"/>
</svg>