<?xml version="1.0" encoding="UTF-8"?>
<svg xmlns="http://www.w3.org/2000/svg" xmlns:xlink="http://www.w3.org/1999/xlink" version="1.1" viewBox="0 0 68 68">
  <defs>
    <style>
      .cls-1 {
        fill: none;
      }

      .cls-2 {
        fill: #fff;
      }

      .cls-3 {
        fill: #60bcd3;
      }

      .cls-4 {
        fill: #7fa828;
      }

      .cls-5 {
        clip-path: url(#clippath);
      }
    </style>
    <clipPath id="clippath">
      <rect class="cls-1" x="4.3" y="14.4" width="62.5" height="38.9"/>
    </clipPath>
  </defs>
  <!-- Generator: Adobe Illustrator 28.6.0, SVG Export Plug-In . SVG Version: 1.2.0 Build 709)  -->
  <g>
    <g id="Ebene_1">
      <g class="cls-5">
        <path class="cls-3" d="M7.5,24.9h32.7v-3.1h-20.1v-1.7c0-1.7-1.4-3-3-3H7.3c-1.7,0-3,1.4-3,3v25.9h0c0,.9.7,1.5,1.6,1.5s1.5-.7,1.6-1.5h0v-21.1ZM42.2,29.7h3.1v-4.7h0c0-1.8-1.4-3.2-3-3.2h-3.2v3.1h0s3.2,0,3.2,0h0s0,0,0,0v4.7ZM51,31.2h-29.8c-3.8,0-4.4,1.6-5.4,3.6l-6.1,11.6c0,.1-.1.2-.2.4l-1.4,2.4s0,0,0,0c-.3.6-.9,1-1.6,1-.8,0-1.8-.6-1.9-1.5-.1.4-.1.7-.1,1.1,0,2,1.6,3.6,3.6,3.6h31.7c4,0,4.4-1.6,5.4-3.6l7.6-14.9c1-2,.2-3.6-1.7-3.6"/>
        <path class="cls-2" d="M51.7,44.6c8.3,0,15.1-6.8,15.1-15.1s-6.8-15.1-15.1-15.1-15.1,6.8-15.1,15.1,6.8,15.1,15.1,15.1"/>
        <path class="cls-4" d="M52.1,42.4c7,0,12.7-5.7,12.7-12.7s-5.7-12.7-12.7-12.7-12.7,5.7-12.7,12.7,5.7,12.7,12.7,12.7"/>
      </g>
      <polygon class="cls-2" points="58.6 27.4 54.2 27.4 54.2 22.9 49.5 22.9 49.5 27.4 45.3 27.4 45.3 32 49.5 32 49.5 36.2 54.2 36.2 54.2 32 58.6 32 58.6 27.4"/>
    </g>
  </g>
</svg>