<svg xmlns="http://www.w3.org/2000/svg" viewBox="0 0 16 16">
<path fill="#000000" fill-opacity="0.004" d="M 3.000 13.000 L 4.000 13.000 L 4.000 14.000 L 3.000 14.000 Z" fill-rule="evenodd"/>
<path fill="#317F31" fill-opacity="0.102" d="M 4.000 2.000 L 5.000 2.000 L 5.000 3.000 L 4.000 3.000 Z" fill-rule="evenodd"/>
<path fill="#2A7F31" fill-opacity="0.141" d="M 4.000 13.000 L 5.000 13.000 L 5.000 14.000 L 4.000 14.000 Z" fill-rule="evenodd"/>
<path fill="#2E7D31" fill-opacity="0.302" d="M 5.000 2.000 L 6.000 2.000 L 6.000 3.000 L 5.000 3.000 Z" fill-rule="evenodd"/>
<path fill="#2D7E33" fill-opacity="0.333" d="M 5.000 13.000 L 6.000 13.000 L 6.000 14.000 L 5.000 14.000 Z" fill-rule="evenodd"/>
<path fill="#2D7D31" fill-opacity="0.502" d="M 6.000 2.000 L 7.000 2.000 L 7.000 3.000 L 6.000 3.000 Z" fill-rule="evenodd"/>
<path fill="#2D7D31" fill-opacity="0.525" d="M 6.000 13.000 L 7.000 13.000 L 7.000 14.000 L 6.000 14.000 Z" fill-rule="evenodd"/>
<path fill="#4BAE50" fill-opacity="0.635" d="M 13.000 3.000 L 14.000 3.000 L 14.000 4.000 L 13.000 4.000 Z M 13.000 12.000 L 14.000 12.000 L 14.000 13.000 L 13.000 13.000 Z" fill-rule="evenodd"/>
<path fill="#4CAF4F" fill-opacity="0.667" d="M 9.000 3.000 L 13.000 3.000 L 13.000 4.000 L 9.000 4.000 Z M 9.000 12.000 L 13.000 12.000 L 13.000 13.000 L 9.000 13.000 Z" fill-rule="evenodd"/>
<path fill="#2D7D31" fill-opacity="0.702" d="M 7.000 2.000 L 8.000 2.000 L 8.000 3.000 L 7.000 3.000 Z" fill-rule="evenodd"/>
<path fill="#2E7C32" fill-opacity="0.714" d="M 7.000 13.000 L 8.000 13.000 L 8.000 14.000 L 7.000 14.000 Z" fill-rule="evenodd"/>
<path fill="#2D7D31" fill-opacity="0.765" d="M 2.000 3.000 L 3.000 3.000 L 3.000 4.000 L 2.000 4.000 Z M 2.000 12.000 L 3.000 12.000 L 3.000 13.000 L 2.000 13.000 Z" fill-rule="evenodd"/>
<path fill="#2D7D31" fill-opacity="0.902" d="M 8.000 2.000 L 9.000 2.000 L 9.000 3.000 L 8.000 3.000 Z" fill-rule="evenodd"/>
<path fill="#2E7C31" fill-opacity="0.906" d="M 8.000 13.000 L 9.000 13.000 L 9.000 14.000 L 8.000 14.000 Z" fill-rule="evenodd"/>
<path fill="#2E7D31" fill-opacity="0.949" d="M 3.000 3.000 L 4.000 3.000 L 4.000 4.000 L 3.000 4.000 Z M 3.000 12.000 L 4.000 12.000 L 4.000 13.000 L 3.000 13.000 Z" fill-rule="evenodd"/>
<path fill="#2E7D32" d="M 4.000 3.000 L 9.000 3.000 L 9.000 4.000 L 4.000 4.000 Z M 2.000 4.000 L 9.000 4.000 L 9.000 5.000 L 2.000 5.000 Z M 2.000 5.000 L 3.000 5.000 L 3.000 6.000 L 2.000 6.000 Z M 5.000 5.000 L 6.000 5.000 L 6.000 6.000 L 5.000 6.000 Z M 8.000 5.000 L 9.000 5.000 L 9.000 6.000 L 8.000 6.000 Z M 2.000 6.000 L 3.000 6.000 L 3.000 7.000 L 2.000 7.000 Z M 8.000 6.000 L 9.000 6.000 L 9.000 7.000 L 8.000 7.000 Z M 2.000 7.000 L 4.000 7.000 L 4.000 8.000 L 2.000 8.000 Z M 7.000 7.000 L 9.000 7.000 L 9.000 8.000 L 7.000 8.000 Z M 2.000 8.000 L 4.000 8.000 L 4.000 9.000 L 2.000 9.000 Z M 7.000 8.000 L 9.000 8.000 L 9.000 9.000 L 7.000 9.000 Z M 2.000 9.000 L 3.000 9.000 L 3.000 10.000 L 2.000 10.000 Z M 8.000 9.000 L 9.000 9.000 L 9.000 10.000 L 8.000 10.000 Z M 2.000 10.000 L 3.000 10.000 L 3.000 11.000 L 2.000 11.000 Z M 5.000 10.000 L 6.000 10.000 L 6.000 11.000 L 5.000 11.000 Z M 8.000 10.000 L 9.000 10.000 L 9.000 11.000 L 8.000 11.000 Z M 2.000 11.000 L 9.000 11.000 L 9.000 12.000 L 2.000 12.000 Z M 4.000 12.000 L 9.000 12.000 L 9.000 13.000 L 4.000 13.000 Z" fill-rule="evenodd"/>
<path fill="#468C49" d="M 3.000 6.000 L 4.000 6.000 L 4.000 7.000 L 3.000 7.000 Z" fill-rule="evenodd"/>
<path fill="#498E4D" d="M 7.000 6.000 L 8.000 6.000 L 8.000 7.000 L 7.000 7.000 Z" fill-rule="evenodd"/>
<path fill="#4CAF50" d="M 9.000 4.000 L 14.000 4.000 L 14.000 5.000 L 9.000 5.000 Z M 13.000 5.000 L 14.000 5.000 L 14.000 6.000 L 13.000 6.000 Z M 13.000 6.000 L 14.000 6.000 L 14.000 7.000 L 13.000 7.000 Z M 13.000 7.000 L 14.000 7.000 L 14.000 8.000 L 13.000 8.000 Z M 13.000 8.000 L 14.000 8.000 L 14.000 9.000 L 13.000 9.000 Z M 13.000 9.000 L 14.000 9.000 L 14.000 10.000 L 13.000 10.000 Z M 13.000 10.000 L 14.000 10.000 L 14.000 11.000 L 13.000 11.000 Z M 9.000 11.000 L 14.000 11.000 L 14.000 12.000 L 9.000 12.000 Z" fill-rule="evenodd"/>
<path fill="#4E9151" d="M 7.000 9.000 L 8.000 9.000 L 8.000 10.000 L 7.000 10.000 Z" fill-rule="evenodd"/>
<path fill="#509253" d="M 3.000 5.000 L 4.000 5.000 L 4.000 6.000 L 3.000 6.000 Z M 7.000 5.000 L 8.000 5.000 L 8.000 6.000 L 7.000 6.000 Z" fill-rule="evenodd"/>
<path fill="#519355" d="M 5.000 9.000 L 6.000 9.000 L 6.000 10.000 L 5.000 10.000 Z" fill-rule="evenodd"/>
<path fill="#529355" d="M 7.000 10.000 L 8.000 10.000 L 8.000 11.000 L 7.000 11.000 Z" fill-rule="evenodd"/>
<path fill="#549457" d="M 3.000 9.000 L 4.000 9.000 L 4.000 10.000 L 3.000 10.000 Z" fill-rule="evenodd"/>
<path fill="#58975B" d="M 3.000 10.000 L 4.000 10.000 L 4.000 11.000 L 3.000 11.000 Z" fill-rule="evenodd"/>
<path fill="#59985C" d="M 5.000 6.000 L 6.000 6.000 L 6.000 7.000 L 5.000 7.000 Z" fill-rule="evenodd"/>
<path fill="#5A995D" d="M 4.000 10.000 L 5.000 10.000 L 5.000 11.000 L 4.000 11.000 Z" fill-rule="evenodd"/>
<path fill="#5D9A60" d="M 6.000 5.000 L 7.000 5.000 L 7.000 6.000 L 6.000 6.000 Z" fill-rule="evenodd"/>
<path fill="#5F9C62" d="M 6.000 10.000 L 7.000 10.000 L 7.000 11.000 L 6.000 11.000 Z" fill-rule="evenodd"/>
<path fill="#60B863" d="M 10.000 6.000 L 11.000 6.000 L 11.000 7.000 L 10.000 7.000 Z M 10.000 9.000 L 11.000 9.000 L 11.000 10.000 L 10.000 10.000 Z" fill-rule="evenodd"/>
<path fill="#649F67" d="M 4.000 5.000 L 5.000 5.000 L 5.000 6.000 L 4.000 6.000 Z" fill-rule="evenodd"/>
<path fill="#73C176" d="M 10.000 7.000 L 11.000 7.000 L 11.000 8.000 L 10.000 8.000 Z M 10.000 8.000 L 11.000 8.000 L 11.000 9.000 L 10.000 9.000 Z" fill-rule="evenodd"/>
<path fill="#88CA8A" d="M 10.000 5.000 L 11.000 5.000 L 11.000 6.000 L 10.000 6.000 Z M 9.000 6.000 L 10.000 6.000 L 10.000 7.000 L 9.000 7.000 Z M 11.000 6.000 L 13.000 6.000 L 13.000 7.000 L 11.000 7.000 Z M 9.000 9.000 L 10.000 9.000 L 10.000 10.000 L 9.000 10.000 Z M 11.000 9.000 L 13.000 9.000 L 13.000 10.000 L 11.000 10.000 Z M 10.000 10.000 L 11.000 10.000 L 11.000 11.000 L 10.000 11.000 Z" fill-rule="evenodd"/>
<path fill="#91BB93" d="M 6.000 7.000 L 7.000 7.000 L 7.000 8.000 L 6.000 8.000 Z" fill-rule="evenodd"/>
<path fill="#97BE99" d="M 6.000 8.000 L 7.000 8.000 L 7.000 9.000 L 6.000 9.000 Z" fill-rule="evenodd"/>
<path fill="#98BF9A" d="M 4.000 7.000 L 5.000 7.000 L 5.000 8.000 L 4.000 8.000 Z" fill-rule="evenodd"/>
<path fill="#9DC29F" d="M 4.000 8.000 L 5.000 8.000 L 5.000 9.000 L 4.000 9.000 Z" fill-rule="evenodd"/>
<path fill="#C4E5C5" d="M 9.000 7.000 L 10.000 7.000 L 10.000 8.000 L 9.000 8.000 Z M 11.000 7.000 L 13.000 7.000 L 13.000 8.000 L 11.000 8.000 Z M 9.000 8.000 L 10.000 8.000 L 10.000 9.000 L 9.000 9.000 Z M 11.000 8.000 L 13.000 8.000 L 13.000 9.000 L 11.000 9.000 Z" fill-rule="evenodd"/>
<path fill="#ECF3ED" d="M 6.000 6.000 L 7.000 6.000 L 7.000 7.000 L 6.000 7.000 Z M 5.000 8.000 L 6.000 8.000 L 6.000 9.000 L 5.000 9.000 Z" fill-rule="evenodd"/>
<path fill="#EEF4EE" d="M 5.000 7.000 L 6.000 7.000 L 6.000 8.000 L 5.000 8.000 Z M 4.000 9.000 L 5.000 9.000 L 5.000 10.000 L 4.000 10.000 Z" fill-rule="evenodd"/>
<path fill="#F1F6F1" d="M 6.000 9.000 L 7.000 9.000 L 7.000 10.000 L 6.000 10.000 Z" fill-rule="evenodd"/>
<path fill="#F3F7F3" d="M 4.000 6.000 L 5.000 6.000 L 5.000 7.000 L 4.000 7.000 Z" fill-rule="evenodd"/>
<path fill="#FFFFFF" d="M 9.000 5.000 L 10.000 5.000 L 10.000 6.000 L 9.000 6.000 Z M 11.000 5.000 L 13.000 5.000 L 13.000 6.000 L 11.000 6.000 Z M 9.000 10.000 L 10.000 10.000 L 10.000 11.000 L 9.000 11.000 Z M 11.000 10.000 L 13.000 10.000 L 13.000 11.000 L 11.000 11.000 Z" fill-rule="evenodd"/>
</svg>