<svg xmlns="http://www.w3.org/2000/svg" viewBox="0 0 16 16">
<path fill="#000000" fill-opacity="0.004" d="M 0.000 5.000 L 1.000 5.000 L 1.000 6.000 L 0.000 6.000 Z" fill-rule="evenodd"/>
<path fill="#000000" fill-opacity="0.067" d="M 13.000 3.000 L 14.000 3.000 L 14.000 4.000 L 13.000 4.000 Z" fill-rule="evenodd"/>
<path fill="#000000" fill-opacity="0.071" d="M 14.000 4.000 L 15.000 4.000 L 15.000 5.000 L 14.000 5.000 Z" fill-rule="evenodd"/>
<path fill="#000000" fill-opacity="0.086" d="M 2.000 3.000 L 3.000 3.000 L 3.000 4.000 L 2.000 4.000 Z M 1.000 4.000 L 2.000 4.000 L 2.000 5.000 L 1.000 5.000 Z" fill-rule="evenodd"/>
<path fill="#000000" fill-opacity="0.227" d="M 12.000 3.000 L 13.000 3.000 L 13.000 4.000 L 12.000 4.000 Z" fill-rule="evenodd"/>
<path fill="#000000" fill-opacity="0.259" d="M 3.000 3.000 L 4.000 3.000 L 4.000 4.000 L 3.000 4.000 Z" fill-rule="evenodd"/>
<path fill="#000000" fill-opacity="0.290" d="M 11.000 4.000 L 12.000 4.000 L 12.000 5.000 L 11.000 5.000 Z" fill-rule="evenodd"/>
<path fill="#000000" fill-opacity="0.310" d="M 6.000 6.000 L 7.000 6.000 L 7.000 7.000 L 6.000 7.000 Z M 7.000 7.000 L 8.000 7.000 L 8.000 8.000 L 7.000 8.000 Z" fill-rule="evenodd"/>
<path fill="#000000" fill-opacity="0.314" d="M 10.000 5.000 L 11.000 5.000 L 11.000 6.000 L 10.000 6.000 Z" fill-rule="evenodd"/>
<path fill="#000000" fill-opacity="0.318" d="M 5.000 5.000 L 6.000 5.000 L 6.000 6.000 L 5.000 6.000 Z M 9.000 6.000 L 10.000 6.000 L 10.000 7.000 L 9.000 7.000 Z" fill-rule="evenodd"/>
<path fill="#000000" fill-opacity="0.325" d="M 8.000 7.000 L 9.000 7.000 L 9.000 8.000 L 8.000 8.000 Z" fill-rule="evenodd"/>
<path fill="#000000" fill-opacity="0.345" d="M 4.000 4.000 L 5.000 4.000 L 5.000 5.000 L 4.000 5.000 Z" fill-rule="evenodd"/>
<path fill="#000000" fill-opacity="0.412" d="M 8.000 12.000 L 9.000 12.000 L 9.000 13.000 L 8.000 13.000 Z" fill-rule="evenodd"/>
<path fill="#000000" fill-opacity="0.431" d="M 9.000 11.000 L 10.000 11.000 L 10.000 12.000 L 9.000 12.000 Z" fill-rule="evenodd"/>
<path fill="#000000" fill-opacity="0.435" d="M 10.000 10.000 L 11.000 10.000 L 11.000 11.000 L 10.000 11.000 Z" fill-rule="evenodd"/>
<path fill="#000000" fill-opacity="0.439" d="M 1.000 6.000 L 2.000 6.000 L 2.000 7.000 L 1.000 7.000 Z M 2.000 7.000 L 3.000 7.000 L 3.000 8.000 L 2.000 8.000 Z" fill-rule="evenodd"/>
<path fill="#000000" fill-opacity="0.447" d="M 4.000 9.000 L 5.000 9.000 L 5.000 10.000 L 4.000 10.000 Z" fill-rule="evenodd"/>
<path fill="#000000" fill-opacity="0.451" d="M 12.000 8.000 L 13.000 8.000 L 13.000 9.000 L 12.000 9.000 Z M 5.000 10.000 L 6.000 10.000 L 6.000 11.000 L 5.000 11.000 Z" fill-rule="evenodd"/>
<path fill="#000000" fill-opacity="0.455" d="M 3.000 8.000 L 4.000 8.000 L 4.000 9.000 L 3.000 9.000 Z M 6.000 11.000 L 7.000 11.000 L 7.000 12.000 L 6.000 12.000 Z" fill-rule="evenodd"/>
<path fill="#000000" fill-opacity="0.463" d="M 7.000 12.000 L 8.000 12.000 L 8.000 13.000 L 7.000 13.000 Z" fill-rule="evenodd"/>
<path fill="#000000" fill-opacity="0.467" d="M 14.000 6.000 L 15.000 6.000 L 15.000 7.000 L 14.000 7.000 Z" fill-rule="evenodd"/>
<path fill="#000000" fill-opacity="0.471" d="M 11.000 9.000 L 12.000 9.000 L 12.000 10.000 L 11.000 10.000 Z" fill-rule="evenodd"/>
<path fill="#000000" fill-opacity="0.478" d="M 13.000 7.000 L 14.000 7.000 L 14.000 8.000 L 13.000 8.000 Z" fill-rule="evenodd"/>
<path fill="#000000" fill-opacity="0.788" d="M 14.000 5.000 L 15.000 5.000 L 15.000 6.000 L 14.000 6.000 Z" fill-rule="evenodd"/>
<path fill="#000000" fill-opacity="0.812" d="M 13.000 4.000 L 14.000 4.000 L 14.000 5.000 L 13.000 5.000 Z" fill-rule="evenodd"/>
<path fill="#000000" fill-opacity="0.827" d="M 2.000 4.000 L 3.000 4.000 L 3.000 5.000 L 2.000 5.000 Z" fill-rule="evenodd"/>
<path fill="#000000" fill-opacity="0.831" d="M 1.000 5.000 L 2.000 5.000 L 2.000 6.000 L 1.000 6.000 Z" fill-rule="evenodd"/>
<path fill="#000000" fill-opacity="0.973" d="M 12.000 4.000 L 13.000 4.000 L 13.000 5.000 L 12.000 5.000 Z" fill-rule="evenodd"/>
<path fill="#000000" fill-opacity="0.976" d="M 11.000 5.000 L 12.000 5.000 L 12.000 6.000 L 11.000 6.000 Z M 5.000 6.000 L 6.000 6.000 L 6.000 7.000 L 5.000 7.000 Z M 6.000 7.000 L 7.000 7.000 L 7.000 8.000 L 6.000 8.000 Z M 7.000 8.000 L 8.000 8.000 L 8.000 9.000 L 7.000 9.000 Z" fill-rule="evenodd"/>
<path fill="#000000" fill-opacity="0.980" d="M 4.000 5.000 L 5.000 5.000 L 5.000 6.000 L 4.000 6.000 Z M 10.000 6.000 L 11.000 6.000 L 11.000 7.000 L 10.000 7.000 Z M 9.000 7.000 L 10.000 7.000 L 10.000 8.000 L 9.000 8.000 Z M 8.000 8.000 L 9.000 8.000 L 9.000 9.000 L 8.000 9.000 Z" fill-rule="evenodd"/>
<path fill="#000000" fill-opacity="0.988" d="M 3.000 4.000 L 4.000 4.000 L 4.000 5.000 L 3.000 5.000 Z" fill-rule="evenodd"/>
<path fill="#000000" fill-opacity="0.996" d="M 9.000 10.000 L 10.000 10.000 L 10.000 11.000 L 9.000 11.000 Z M 8.000 11.000 L 9.000 11.000 L 9.000 12.000 L 8.000 12.000 Z" fill-rule="evenodd"/>
<path fill="#000000" d="M 2.000 5.000 L 4.000 5.000 L 4.000 6.000 L 2.000 6.000 Z M 12.000 5.000 L 14.000 5.000 L 14.000 6.000 L 12.000 6.000 Z M 2.000 6.000 L 5.000 6.000 L 5.000 7.000 L 2.000 7.000 Z M 11.000 6.000 L 14.000 6.000 L 14.000 7.000 L 11.000 7.000 Z M 3.000 7.000 L 6.000 7.000 L 6.000 8.000 L 3.000 8.000 Z M 10.000 7.000 L 13.000 7.000 L 13.000 8.000 L 10.000 8.000 Z M 4.000 8.000 L 7.000 8.000 L 7.000 9.000 L 4.000 9.000 Z M 9.000 8.000 L 12.000 8.000 L 12.000 9.000 L 9.000 9.000 Z M 5.000 9.000 L 11.000 9.000 L 11.000 10.000 L 5.000 10.000 Z M 6.000 10.000 L 9.000 10.000 L 9.000 11.000 L 6.000 11.000 Z M 7.000 11.000 L 8.000 11.000 L 8.000 12.000 L 7.000 12.000 Z" fill-rule="evenodd"/>
</svg>