<?xml version="1.0" encoding="UTF-8"?>
<svg xmlns="http://www.w3.org/2000/svg" xmlns:xlink="http://www.w3.org/1999/xlink" version="1.1" viewBox="0 0 68 68">
  <defs>
    <style>
      .cls-1, .cls-2 {
        fill: none;
      }

      .cls-3 {
        clip-path: url(#clippath-1);
      }

      .cls-4 {
        clip-path: url(#clippath-2);
      }

      .cls-5 {
        fill: #60bcd3;
      }

      .cls-2 {
        stroke: #e6007e;
        stroke-width: .2px;
      }

      .cls-6 {
        fill: #7fa828;
      }

      .cls-7 {
        clip-path: url(#clippath);
      }
    </style>
    <clipPath id="clippath">
      <path class="cls-1" d="M13.5,32.8c0,6.2,5,11.1,11.3,11.1s11.3-5,11.3-11.1-5-11.1-11.3-11.1-11.3,5-11.3,11.1"/>
    </clipPath>
    <clipPath id="clippath-1">
      <path class="cls-1" d="M38.1,11.5c-.7,0-9.9,6.7-9.9,6.7l8.8,5.1s1.9,6.5,1.9,7.2-1.9,10.2-1.9,10.2l-4.9,4.7-5.1,1.9s6.9,3.4,7.6,3.6c.7.2,10.9,1.6,11.8,1.6s19.4-10,19.4-10l3.2-15-5-12.3s-11.6-3.6-12.5-3.6h-13.4Z"/>
    </clipPath>
    <clipPath id="clippath-2">
      <rect class="cls-1" x="4" y="11.5" width="65" height="41.8"/>
    </clipPath>
  </defs>
  <!-- Generator: Adobe Illustrator 28.6.0, SVG Export Plug-In . SVG Version: 1.2.0 Build 709)  -->
  <g>
    <g id="Ebene_1">
      <g class="cls-7">
        <polygon class="cls-6" points="71 30.3 63 26.4 59.3 28.2 63.4 30.3 45.9 38.5 28.3 30.3 32.3 28.2 28.6 26.5 20.7 30.3 45.9 42.3 71 30.3"/>
        <polygon class="cls-6" points="71 40 63 36.1 59.3 37.8 63.4 40 45.9 48.2 28.4 40 32.3 37.8 28.6 36.1 20.8 40 45.9 51.9 71 40"/>
        <polygon class="cls-6" points="20.7 20.6 45.9 32.6 71 20.6 45.9 8.6 20.7 20.6"/>
        <ellipse class="cls-2" cx="24.7" cy="32.8" rx="12.5" ry="12.4"/>
      </g>
      <g class="cls-3">
        <polygon class="cls-6" points="61.6 32.8 55 29.7 52 31.1 55.4 32.8 41 39.5 26.7 32.8 30 31.1 26.9 29.7 20.5 32.8 41 42.6 61.6 32.8"/>
        <polygon class="cls-6" points="61.6 40.7 55.1 37.5 52 39 55.4 40.7 41.1 47.4 26.7 40.7 30 39 27 37.6 20.5 40.7 41.1 50.5 61.6 40.7"/>
        <polygon class="cls-6" points="20.5 24.9 41 34.7 61.6 24.9 41 15.1 20.5 24.9"/>
      </g>
      <g class="cls-4">
        <path class="cls-5" d="M12.4,33.4c.4,6.8,6.2,12.1,13,11.7s12.1-6.2,11.7-13c-.4-6.8-6.2-12.1-13-11.7-6.8.4-12.1,6.2-11.7,13M4.9,48.8l6.4-5.6c-2.1-2.6-3.5-5.9-3.6-9.5-.5-9.3,6.8-17.2,16.3-17.7,9.5-.5,17.6,6.6,18.1,15.9.5,9.3-6.8,17.2-16.3,17.7-3.9.2-7.6-.9-10.6-2.9l-6.9,6c-1.1.9-2.7.8-3.7-.3-.9-1.1-.8-2.7.3-3.7"/>
      </g>
    </g>
  </g>
</svg>