<svg xmlns="http://www.w3.org/2000/svg" viewBox="0 0 16 16">
<path fill="#000000" fill-opacity="0.004" d="M 14.000 4.000 L 15.000 4.000 L 15.000 5.000 L 14.000 5.000 Z M 14.000 11.000 L 15.000 11.000 L 15.000 12.000 L 14.000 12.000 Z" fill-rule="evenodd"/>
<path fill="#000000" fill-opacity="0.031" d="M 11.000 5.000 L 12.000 5.000 L 12.000 6.000 L 11.000 6.000 Z M 11.000 10.000 L 12.000 10.000 L 12.000 11.000 L 11.000 11.000 Z" fill-rule="evenodd"/>
<path fill="#000000" fill-opacity="0.063" d="M 13.000 6.000 L 14.000 6.000 L 14.000 7.000 L 13.000 7.000 Z M 13.000 9.000 L 14.000 9.000 L 14.000 10.000 L 13.000 10.000 Z" fill-rule="evenodd"/>
<path fill="#000000" fill-opacity="0.067" d="M 9.000 6.000 L 10.000 6.000 L 10.000 7.000 L 9.000 7.000 Z M 9.000 9.000 L 10.000 9.000 L 10.000 10.000 L 9.000 10.000 Z" fill-rule="evenodd"/>
<path fill="#000000" fill-opacity="0.176" d="M 15.000 6.000 L 16.000 6.000 L 16.000 7.000 L 15.000 7.000 Z M 15.000 9.000 L 16.000 9.000 L 16.000 10.000 L 15.000 10.000 Z" fill-rule="evenodd"/>
<path fill="#000000" fill-opacity="0.180" d="M 0.000 6.000 L 1.000 6.000 L 1.000 7.000 L 0.000 7.000 Z" fill-rule="evenodd"/>
<path fill="#000000" fill-opacity="0.184" d="M 0.000 9.000 L 1.000 9.000 L 1.000 10.000 L 0.000 10.000 Z" fill-rule="evenodd"/>
<path fill="#000000" fill-opacity="0.216" d="M 12.000 5.000 L 13.000 5.000 L 13.000 6.000 L 12.000 6.000 Z" fill-rule="evenodd"/>
<path fill="#000000" fill-opacity="0.224" d="M 12.000 10.000 L 13.000 10.000 L 13.000 11.000 L 12.000 11.000 Z" fill-rule="evenodd"/>
<path fill="#000000" fill-opacity="0.227" d="M 10.000 5.000 L 11.000 5.000 L 11.000 6.000 L 10.000 6.000 Z" fill-rule="evenodd"/>
<path fill="#000000" fill-opacity="0.231" d="M 10.000 10.000 L 11.000 10.000 L 11.000 11.000 L 10.000 11.000 Z" fill-rule="evenodd"/>
<path fill="#000000" fill-opacity="0.384" d="M 2.000 11.000 L 3.000 11.000 L 3.000 12.000 L 2.000 12.000 Z" fill-rule="evenodd"/>
<path fill="#000000" fill-opacity="0.388" d="M 2.000 4.000 L 3.000 4.000 L 3.000 5.000 L 2.000 5.000 Z" fill-rule="evenodd"/>
<path fill="#000000" fill-opacity="0.427" d="M 13.000 11.000 L 14.000 11.000 L 14.000 12.000 L 13.000 12.000 Z" fill-rule="evenodd"/>
<path fill="#000000" fill-opacity="0.431" d="M 13.000 4.000 L 14.000 4.000 L 14.000 5.000 L 13.000 5.000 Z" fill-rule="evenodd"/>
<path fill="#000000" fill-opacity="0.443" d="M 15.000 7.000 L 16.000 7.000 L 16.000 8.000 L 15.000 8.000 Z M 15.000 8.000 L 16.000 8.000 L 16.000 9.000 L 15.000 9.000 Z" fill-rule="evenodd"/>
<path fill="#000000" fill-opacity="0.447" d="M 0.000 7.000 L 1.000 7.000 L 1.000 8.000 L 0.000 8.000 Z M 0.000 8.000 L 1.000 8.000 L 1.000 9.000 L 0.000 9.000 Z" fill-rule="evenodd"/>
<path fill="#000000" fill-opacity="0.537" d="M 1.000 5.000 L 2.000 5.000 L 2.000 6.000 L 1.000 6.000 Z M 14.000 5.000 L 15.000 5.000 L 15.000 6.000 L 14.000 6.000 Z" fill-rule="evenodd"/>
<path fill="#000000" fill-opacity="0.576" d="M 1.000 10.000 L 2.000 10.000 L 2.000 11.000 L 1.000 11.000 Z M 14.000 10.000 L 15.000 10.000 L 15.000 11.000 L 14.000 11.000 Z" fill-rule="evenodd"/>
<path fill="#000000" fill-opacity="0.580" d="M 14.000 7.000 L 15.000 7.000 L 15.000 8.000 L 14.000 8.000 Z M 14.000 8.000 L 15.000 8.000 L 15.000 9.000 L 14.000 9.000 Z" fill-rule="evenodd"/>
<path fill="#000000" fill-opacity="0.600" d="M 8.000 7.000 L 9.000 7.000 L 9.000 8.000 L 8.000 8.000 Z M 8.000 8.000 L 9.000 8.000 L 9.000 9.000 L 8.000 9.000 Z" fill-rule="evenodd"/>
<path fill="#000000" fill-opacity="0.780" d="M 13.000 5.000 L 14.000 5.000 L 14.000 6.000 L 13.000 6.000 Z" fill-rule="evenodd"/>
<path fill="#000000" fill-opacity="0.788" d="M 9.000 5.000 L 10.000 5.000 L 10.000 6.000 L 9.000 6.000 Z M 9.000 10.000 L 10.000 10.000 L 10.000 11.000 L 9.000 11.000 Z M 13.000 10.000 L 14.000 10.000 L 14.000 11.000 L 13.000 11.000 Z" fill-rule="evenodd"/>
<path fill="#000000" fill-opacity="0.847" d="M 3.000 11.000 L 4.000 11.000 L 4.000 12.000 L 3.000 12.000 Z M 12.000 11.000 L 13.000 11.000 L 13.000 12.000 L 12.000 12.000 Z" fill-rule="evenodd"/>
<path fill="#000000" fill-opacity="0.851" d="M 3.000 4.000 L 4.000 4.000 L 4.000 5.000 L 3.000 5.000 Z M 12.000 4.000 L 13.000 4.000 L 13.000 5.000 L 12.000 5.000 Z" fill-rule="evenodd"/>
<path fill="#000000" fill-opacity="0.890" d="M 14.000 6.000 L 15.000 6.000 L 15.000 7.000 L 14.000 7.000 Z" fill-rule="evenodd"/>
<path fill="#000000" fill-opacity="0.898" d="M 14.000 9.000 L 15.000 9.000 L 15.000 10.000 L 14.000 10.000 Z" fill-rule="evenodd"/>
<path fill="#000000" fill-opacity="0.902" d="M 8.000 6.000 L 9.000 6.000 L 9.000 7.000 L 8.000 7.000 Z M 8.000 9.000 L 9.000 9.000 L 9.000 10.000 L 8.000 10.000 Z" fill-rule="evenodd"/>
<path fill="#000000" fill-opacity="0.988" d="M 4.000 4.000 L 5.000 4.000 L 5.000 5.000 L 4.000 5.000 Z M 11.000 4.000 L 12.000 4.000 L 12.000 5.000 L 11.000 5.000 Z M 4.000 11.000 L 5.000 11.000 L 5.000 12.000 L 4.000 12.000 Z M 11.000 11.000 L 12.000 11.000 L 12.000 12.000 L 11.000 12.000 Z" fill-rule="evenodd"/>
<path fill="#000000" fill-opacity="0.992" d="M 1.000 6.000 L 2.000 6.000 L 2.000 7.000 L 1.000 7.000 Z" fill-rule="evenodd"/>
<path fill="#000000" fill-opacity="0.996" d="M 1.000 9.000 L 2.000 9.000 L 2.000 10.000 L 1.000 10.000 Z" fill-rule="evenodd"/>
<path fill="#000000" d="M 5.000 4.000 L 11.000 4.000 L 11.000 5.000 L 5.000 5.000 Z M 2.000 5.000 L 9.000 5.000 L 9.000 6.000 L 2.000 6.000 Z M 2.000 6.000 L 8.000 6.000 L 8.000 7.000 L 2.000 7.000 Z M 1.000 7.000 L 8.000 7.000 L 8.000 8.000 L 1.000 8.000 Z M 1.000 8.000 L 8.000 8.000 L 8.000 9.000 L 1.000 9.000 Z M 2.000 9.000 L 8.000 9.000 L 8.000 10.000 L 2.000 10.000 Z M 2.000 10.000 L 9.000 10.000 L 9.000 11.000 L 2.000 11.000 Z M 5.000 11.000 L 11.000 11.000 L 11.000 12.000 L 5.000 12.000 Z" fill-rule="evenodd"/>
</svg>