<?xml version="1.0" encoding="UTF-8"?>
<svg xmlns="http://www.w3.org/2000/svg" xmlns:xlink="http://www.w3.org/1999/xlink" version="1.1" viewBox="0 0 68 68">
  <defs>
    <style>
      .cls-1 {
        fill: none;
      }

      .cls-2 {
        fill: #60bcd3;
      }

      .cls-3 {
        fill: #7fa828;
      }

      .cls-4 {
        clip-path: url(#clippath);
      }
    </style>
    <clipPath id="clippath">
      <rect class="cls-1" x="6.9" y="9.6" width="54.3" height="48.8"/>
    </clipPath>
  </defs>
  <!-- Generator: Adobe Illustrator 28.6.0, SVG Export Plug-In . SVG Version: 1.2.0 Build 709)  -->
  <g>
    <g id="Ebene_1">
      <g class="cls-4">
        <path class="cls-3" d="M56.2,37.9c.4,1.2.6,2.4.6,3.7,0,6.9-5.6,12.5-12.5,12.5s-12.5-5.6-12.5-12.5.1-2.4.5-3.6v-.2c0,0,.5-1.4,1.7-3.5,1.7-2.9,9.4-15.8,9.5-15.9.2-.3.5-.5.8-.5s.6.2.7.5v.2c0,0,7.7,12.8,8.9,14.8,1.2,1.9,1.8,3.4,2,4l.2.4c0,0,0,.1,0,.2,0,0,0,0,0,0h0ZM60.4,36.6h0s0,0,0,0c0,0,0-.2,0-.2h0c-.3-.8-1.4-3.5-2.9-6-1.6-2.6-11.9-19.8-11.9-19.8v-.2c-.4-.4-.6-.6-1.1-.6s-.8.3-1.1.7c-.1.2-10.5,17.5-12.8,21.4-1.6,2.8-2.2,4.7-2.2,4.7h0c-.5,1.6-.8,3.3-.8,5.1,0,9.3,7.5,16.8,16.8,16.8s16.8-7.5,16.8-16.8-.3-3.4-.8-5"/>
        <path class="cls-2" d="M39.8,36.6s0,0,0,0c0,0,0-.2,0-.2h0c-.3-.8-1.4-3.5-2.9-6-1.6-2.6-11.9-19.8-11.9-19.8v-.2c-.4-.4-.6-.6-1.1-.6s-.8.3-1.1.7c-.1.2-10.5,17.5-12.8,21.4-1.6,2.8-2.2,4.7-2.2,4.7h0c-.5,1.6-.8,3.3-.8,5.1,0,9.3,7.5,16.8,16.8,16.8s16.8-7.5,16.8-16.8-.3-3.4-.8-5h0Z"/>
      </g>
    </g>
  </g>
</svg>