<?xml version="1.0" encoding="UTF-8"?>
<svg xmlns="http://www.w3.org/2000/svg" xmlns:xlink="http://www.w3.org/1999/xlink" version="1.1" viewBox="0 0 68 68">
  <defs>
    <style>
      .cls-1 {
        fill: none;
      }

      .cls-2 {
        fill: #fff;
      }

      .cls-3 {
        fill: #60bcd3;
      }

      .cls-4 {
        fill: #7fa828;
      }

      .cls-5 {
        clip-path: url(#clippath);
      }
    </style>
    <clipPath id="clippath">
      <rect class="cls-1" x="4" y="10.3" width="62.4" height="50.7"/>
    </clipPath>
  </defs>
  <!-- Generator: Adobe Illustrator 28.6.0, SVG Export Plug-In . SVG Version: 1.2.0 Build 709)  -->
  <g>
    <g id="Ebene_1">
      <g class="cls-5">
        <path class="cls-3" d="M46.6,33.5v-12c0-1.8-1.4-3.3-3.1-3.3h-2.3s-20.8,0-20.8,0v-1.8c0-1.8-1.4-3.3-3.1-3.3H7.1c-1.7,0-3.1,1.5-3.1,3.3v28h0v1.4s0,0,0,0v.4c0,.3,0,.5.2.7.4,1.2,1.6,2.1,2.9,2.1h7.4v-3.4h-7.2v-24h33.4s2.7,0,2.7,0v11.8h3.2Z"/>
        <path class="cls-3" d="M50.9,54v3.6h-2.7s-33.5,0-33.5,0v-24h33.4s2.7,0,2.7,0v20.4ZM54.1,57.7v-24.3c0-1.8-1.4-3.3-3.1-3.3h-2.3s-20.8,0-20.8,0v-1.8c0-1.8-1.4-3.3-3.1-3.3h-10.1c-1.7,0-3.1,1.5-3.1,3.3v28h0v1.4s0,0,0,0v.4c0,.3,0,.5.2.7.4,1.2,1.6,2.1,2.9,2.1h36.3c1.7,0,3.1-1.5,3.1-3.3"/>
        <path class="cls-2" d="M51.1,42.3c8.5,0,15.3-7.2,15.3-16s-6.9-16-15.3-16-15.3,7.2-15.3,16,6.9,16,15.3,16"/>
        <path class="cls-4" d="M51.5,40c7.1,0,12.9-6,12.9-13.4s-5.8-13.4-12.9-13.4-12.9,6-12.9,13.4,5.8,13.4,12.9,13.4"/>
      </g>
      <polygon class="cls-2" points="58.1 24.1 53.6 24.1 53.6 19.3 48.9 19.3 48.9 24.1 44.6 24.1 44.6 29 48.9 29 48.9 33.4 53.6 33.4 53.6 29 58.1 29 58.1 24.1"/>
    </g>
  </g>
</svg>