<?xml version="1.0" encoding="UTF-8"?>
<svg xmlns="http://www.w3.org/2000/svg" xmlns:xlink="http://www.w3.org/1999/xlink" version="1.1" viewBox="0 0 68 68">
  <defs>
    <style>
      .cls-1 {
        fill: none;
      }

      .cls-2 {
        fill: #60bcd3;
      }

      .cls-3 {
        fill: #7fa828;
      }

      .cls-4 {
        clip-path: url(#clippath);
      }
    </style>
    <clipPath id="clippath">
      <rect class="cls-1" x="8.2" y="11.8" width="55.3" height="42.5"/>
    </clipPath>
  </defs>
  <!-- Generator: Adobe Illustrator 28.6.0, SVG Export Plug-In . SVG Version: 1.2.0 Build 709)  -->
  <g>
    <g id="Ebene_1">
      <g class="cls-4">
        <path class="cls-2" d="M18.2,49.2c0,1.3,1,2.3,2.3,2.3h22.2c-1-1.2-1.6-2.6-1.9-3.6h-19.1"/>
        <path class="cls-2" d="M55.5,39.3v-18.6c0-1.9-1.6-3.5-3.5-3.5h-2.5s-23.1,0-23.1,0v-2c0-1.9-1.6-3.5-3.5-3.5h-11.2c-1.9,0-3.5,1.6-3.5,3.5v31.2h0v1.5s0,0,0,0v.4c0,.3,0,.5.2.8.5,1.3,1.8,2.3,3.2,2.3h25.1v-3.6H11.8v-27h37.2s3,0,3,0v18.5c.6,0,1.2-.1,1.9-.1s1.1,0,1.7,0"/>
        <path class="cls-2" d="M56.9,47.5c0,1.9-1.6,3.4-3.5,3.4s-3.5-1.5-3.5-3.4,1.6-3.4,3.5-3.4,3.5,1.5,3.5,3.4M63.5,47.5s-2.4-6.6-10.2-6.6-10,6.6-10,6.6c0,0,2.2,6.9,10.1,6.9s10.1-6.9,10.1-6.9"/>
        <path class="cls-3" d="M48.4,28.3c0-.8-.6-1.4-1.4-1.4s-1.1.4-1.3,1h0s-4.7,9.9-4.7,9.9l-8.8-13.6s-.4-.9-1.5-.9-1.3,1-1.3,1l-5.8,18-6.4-5.8-.4-.4s0,0,0,0c-.3-.3-.6-.6-1.1-.6-.8,0-1.4.6-1.4,1.4s.2.7.4,1h0s0,0,0,0l7.8,7.2s.7.8,1.5.7c1,0,1.3-.8,1.3-.8l5.7-17.9,8.5,13.6s.4.9,1.3,1c1.2,0,1.6-.9,1.6-.9l5.7-11.7h0c.1-.2.2-.5.2-.7"/>
      </g>
    </g>
  </g>
</svg>