<svg xmlns="http://www.w3.org/2000/svg" viewBox="0 0 32 32">
<path fill="#000000" fill-opacity="0.196" d="M 29.000 7.000 L 30.000 7.000 L 30.000 8.000 L 29.000 8.000 Z M 29.000 8.000 L 30.000 8.000 L 30.000 9.000 L 29.000 9.000 Z M 28.000 9.000 L 29.000 9.000 L 29.000 10.000 L 28.000 10.000 Z M 25.000 15.000 L 26.000 15.000 L 26.000 16.000 L 25.000 16.000 Z M 25.000 16.000 L 26.000 16.000 L 26.000 17.000 L 25.000 17.000 Z M 24.000 17.000 L 25.000 17.000 L 25.000 18.000 L 24.000 18.000 Z M 21.000 23.000 L 22.000 23.000 L 22.000 24.000 L 21.000 24.000 Z M 21.000 24.000 L 22.000 24.000 L 22.000 25.000 L 21.000 25.000 Z M 20.000 25.000 L 21.000 25.000 L 21.000 26.000 L 20.000 26.000 Z" fill-rule="evenodd"/>
<path fill="#000000" fill-opacity="0.200" d="M 28.000 6.000 L 29.000 6.000 L 29.000 7.000 L 28.000 7.000 Z M 2.000 7.000 L 3.000 7.000 L 3.000 8.000 L 2.000 8.000 Z M 2.000 8.000 L 3.000 8.000 L 3.000 9.000 L 2.000 9.000 Z M 3.000 9.000 L 4.000 9.000 L 4.000 10.000 L 3.000 10.000 Z M 24.000 14.000 L 25.000 14.000 L 25.000 15.000 L 24.000 15.000 Z M 6.000 15.000 L 7.000 15.000 L 7.000 16.000 L 6.000 16.000 Z M 6.000 16.000 L 7.000 16.000 L 7.000 17.000 L 6.000 17.000 Z M 7.000 17.000 L 8.000 17.000 L 8.000 18.000 L 7.000 18.000 Z M 20.000 22.000 L 21.000 22.000 L 21.000 23.000 L 20.000 23.000 Z M 10.000 23.000 L 11.000 23.000 L 11.000 24.000 L 10.000 24.000 Z M 10.000 24.000 L 11.000 24.000 L 11.000 25.000 L 10.000 25.000 Z M 11.000 25.000 L 12.000 25.000 L 12.000 26.000 L 11.000 26.000 Z" fill-rule="evenodd"/>
<path fill="#000000" fill-opacity="0.204" d="M 3.000 6.000 L 4.000 6.000 L 4.000 7.000 L 3.000 7.000 Z M 7.000 14.000 L 8.000 14.000 L 8.000 15.000 L 7.000 15.000 Z M 11.000 22.000 L 12.000 22.000 L 12.000 23.000 L 11.000 23.000 Z" fill-rule="evenodd"/>
<path fill="#000000" fill-opacity="0.333" d="M 4.000 6.000 L 28.000 6.000 L 28.000 7.000 L 4.000 7.000 Z M 4.000 9.000 L 28.000 9.000 L 28.000 10.000 L 4.000 10.000 Z M 8.000 14.000 L 24.000 14.000 L 24.000 15.000 L 8.000 15.000 Z M 8.000 17.000 L 24.000 17.000 L 24.000 18.000 L 8.000 18.000 Z M 12.000 22.000 L 20.000 22.000 L 20.000 23.000 L 12.000 23.000 Z M 12.000 25.000 L 20.000 25.000 L 20.000 26.000 L 12.000 26.000 Z" fill-rule="evenodd"/>
<path fill="#000000" fill-opacity="0.996" d="M 3.000 7.000 L 4.000 7.000 L 4.000 8.000 L 3.000 8.000 Z M 28.000 7.000 L 29.000 7.000 L 29.000 8.000 L 28.000 8.000 Z M 3.000 8.000 L 4.000 8.000 L 4.000 9.000 L 3.000 9.000 Z M 28.000 8.000 L 29.000 8.000 L 29.000 9.000 L 28.000 9.000 Z M 7.000 15.000 L 8.000 15.000 L 8.000 16.000 L 7.000 16.000 Z M 24.000 15.000 L 25.000 15.000 L 25.000 16.000 L 24.000 16.000 Z M 7.000 16.000 L 8.000 16.000 L 8.000 17.000 L 7.000 17.000 Z M 24.000 16.000 L 25.000 16.000 L 25.000 17.000 L 24.000 17.000 Z M 11.000 23.000 L 12.000 23.000 L 12.000 24.000 L 11.000 24.000 Z M 20.000 23.000 L 21.000 23.000 L 21.000 24.000 L 20.000 24.000 Z M 11.000 24.000 L 12.000 24.000 L 12.000 25.000 L 11.000 25.000 Z M 20.000 24.000 L 21.000 24.000 L 21.000 25.000 L 20.000 25.000 Z" fill-rule="evenodd"/>
<path fill="#000000" d="M 4.000 7.000 L 28.000 7.000 L 28.000 8.000 L 4.000 8.000 Z M 4.000 8.000 L 28.000 8.000 L 28.000 9.000 L 4.000 9.000 Z M 8.000 15.000 L 24.000 15.000 L 24.000 16.000 L 8.000 16.000 Z M 8.000 16.000 L 24.000 16.000 L 24.000 17.000 L 8.000 17.000 Z M 12.000 23.000 L 20.000 23.000 L 20.000 24.000 L 12.000 24.000 Z M 12.000 24.000 L 20.000 24.000 L 20.000 25.000 L 12.000 25.000 Z" fill-rule="evenodd"/>
</svg>