<?xml version="1.0" encoding="UTF-8"?>
<svg xmlns="http://www.w3.org/2000/svg" xmlns:xlink="http://www.w3.org/1999/xlink" version="1.1" viewBox="0 0 68 68">
  <defs>
    <style>
      .cls-1 {
        fill: none;
      }

      .cls-2 {
        fill: #60bcd3;
      }

      .cls-3 {
        fill: #7fa828;
      }

      .cls-4 {
        clip-path: url(#clippath);
      }
    </style>
    <clipPath id="clippath">
      <rect class="cls-1" x="9.5" y="8" width="52.4" height="52"/>
    </clipPath>
  </defs>
  <!-- Generator: Adobe Illustrator 28.6.0, SVG Export Plug-In . SVG Version: 1.2.0 Build 709)  -->
  <g>
    <g id="Ebene_1">
      <g class="cls-4">
        <path class="cls-3" d="M29.2,42.6c1.3-.4,4.5-1.5,4.5-1.5l-4-3.9-1.5,4.4s-.3.5,0,.9c.3.3.7.2.9.1M55.2,22.3l-7.5-7.3-15,15.5s-.7.7-1.2,2c-.4,1-.8,2.6-.8,2.6l5,4.8s2-.5,2.7-.7c1-.3,1.9-1.3,1.9-1.3l14.9-15.6ZM61.2,12.8l-4.2-4.1c-1.7-1.6-3.2,0-3.2,0l-4.4,4.5,7.5,7.3,4.4-4.5c1.6-1.7,0-3.2,0-3.2"/>
        <path class="cls-2" d="M53.2,35.5c0-1.3-1.1-2.4-2.4-2.4s-2.4,1.1-2.4,2.4,0,0,0,0v5.6h0v1.9h0v12.3h0s-34.3,0-34.3,0V19.8h22.9s0,0,0,0c1.3,0,2.3-1,2.3-2.3s-1-2.3-2.3-2.3,0,0,0,0h0s-24.4,0-24.4,0c-1.7,0-3,1.4-3,3v38.6c0,1.7,1.4,3,3,3h37.6c1.7,0,3-1.4,3-3v-21.4s0,0,0,0"/>
        <path class="cls-2" d="M22.6,50.9c2.4,0,4.4-1.9,4.4-4.4s-1.9-4.4-4.4-4.4-4.4,1.9-4.4,4.4,1.9,4.4,4.4,4.4"/>
      </g>
      <rect class="cls-2" x="12.4" y="46.2" width="37.3" height="2.1"/>
      <rect class="cls-2" x="21.7" y="18.1" width="2.1" height="37.3"/>
    </g>
  </g>
</svg>