<svg xmlns="http://www.w3.org/2000/svg" viewBox="0 0 32 32">
<path fill="#3FA535" fill-opacity="0.004" d="M 30.000 17.000 L 31.000 17.000 L 31.000 18.000 L 30.000 18.000 Z M 18.000 23.000 L 19.000 23.000 L 19.000 24.000 L 18.000 24.000 Z" fill-rule="evenodd"/>
<path fill="#3FA536" fill-opacity="0.004" d="M 16.000 24.000 L 17.000 24.000 L 17.000 25.000 L 16.000 25.000 Z" fill-rule="evenodd"/>
<path fill="#44A73A" fill-opacity="0.004" d="M 16.000 20.000 L 17.000 20.000 L 17.000 21.000 L 16.000 21.000 Z" fill-rule="evenodd"/>
<path fill="#2DA73A" fill-opacity="0.008" d="M 8.000 16.000 L 9.000 16.000 L 9.000 17.000 L 8.000 17.000 Z" fill-rule="evenodd"/>
<path fill="#3FA535" fill-opacity="0.008" d="M 30.000 16.000 L 31.000 16.000 L 31.000 17.000 L 30.000 17.000 Z M 20.000 22.000 L 21.000 22.000 L 21.000 23.000 L 20.000 23.000 Z M 15.000 24.000 L 16.000 24.000 L 16.000 25.000 L 15.000 25.000 Z" fill-rule="evenodd"/>
<path fill="#F18500" fill-opacity="0.008" d="M 30.000 11.000 L 31.000 11.000 L 31.000 12.000 L 30.000 12.000 Z" fill-rule="evenodd"/>
<path fill="#F28C00" fill-opacity="0.008" d="M 1.000 10.000 L 2.000 10.000 L 2.000 11.000 L 1.000 11.000 Z M 2.000 12.000 L 3.000 12.000 L 3.000 13.000 L 2.000 13.000 Z" fill-rule="evenodd"/>
<path fill="#FFFFFF" fill-opacity="0.008" d="M 16.000 2.000 L 17.000 2.000 L 17.000 3.000 L 16.000 3.000 Z M 26.000 8.000 L 27.000 8.000 L 27.000 9.000 L 26.000 9.000 Z" fill-rule="evenodd"/>
<path fill="#3FA535" fill-opacity="0.012" d="M 28.000 18.000 L 29.000 18.000 L 29.000 19.000 L 28.000 19.000 Z" fill-rule="evenodd"/>
<path fill="#60BCD3" fill-opacity="0.012" d="M 30.000 22.000 L 31.000 22.000 L 31.000 23.000 L 30.000 23.000 Z" fill-rule="evenodd"/>
<path fill="#FDEBD2" fill-opacity="0.012" d="M 30.000 10.000 L 31.000 10.000 L 31.000 11.000 L 30.000 11.000 Z" fill-rule="evenodd"/>
<path fill="#FFFFFE" fill-opacity="0.012" d="M 29.000 8.000 L 30.000 8.000 L 30.000 9.000 L 29.000 9.000 Z" fill-rule="evenodd"/>
<path fill="#FFFFFF" fill-opacity="0.012" d="M 3.000 8.000 L 4.000 8.000 L 4.000 9.000 L 3.000 9.000 Z M 27.000 8.000 L 28.000 8.000 L 28.000 9.000 L 27.000 9.000 Z" fill-rule="evenodd"/>
<path fill="#299600" fill-opacity="0.016" d="M 5.000 19.000 L 6.000 19.000 L 6.000 20.000 L 5.000 20.000 Z" fill-rule="evenodd"/>
<path fill="#3FA535" fill-opacity="0.016" d="M 1.000 17.000 L 2.000 17.000 L 2.000 18.000 L 1.000 18.000 Z" fill-rule="evenodd"/>
<path fill="#FFFFFF" fill-opacity="0.016" d="M 28.000 8.000 L 29.000 8.000 L 29.000 9.000 L 28.000 9.000 Z" fill-rule="evenodd"/>
<path fill="#369F0C" fill-opacity="0.020" d="M 9.000 21.000 L 10.000 21.000 L 10.000 22.000 L 9.000 22.000 Z" fill-rule="evenodd"/>
<path fill="#3FA535" fill-opacity="0.020" d="M 11.000 22.000 L 12.000 22.000 L 12.000 23.000 L 11.000 23.000 Z M 13.000 23.000 L 14.000 23.000 L 14.000 24.000 L 13.000 24.000 Z" fill-rule="evenodd"/>
<path fill="#3FA535" fill-opacity="0.024" d="M 1.000 16.000 L 2.000 16.000 L 2.000 17.000 L 1.000 17.000 Z" fill-rule="evenodd"/>
<path fill="#FFFFFF" fill-opacity="0.024" d="M 5.000 8.000 L 6.000 8.000 L 6.000 9.000 L 5.000 9.000 Z" fill-rule="evenodd"/>
<path fill="#3EA535" fill-opacity="0.027" d="M 23.000 16.000 L 24.000 16.000 L 24.000 17.000 L 23.000 17.000 Z" fill-rule="evenodd"/>
<path fill="#FFFFFF" fill-opacity="0.027" d="M 4.000 8.000 L 5.000 8.000 L 5.000 9.000 L 4.000 9.000 Z" fill-rule="evenodd"/>
<path fill="#3FA535" fill-opacity="0.031" d="M 3.000 18.000 L 4.000 18.000 L 4.000 19.000 L 3.000 19.000 Z" fill-rule="evenodd"/>
<path fill="#60BCD3" fill-opacity="0.031" d="M 1.000 22.000 L 2.000 22.000 L 2.000 23.000 L 1.000 23.000 Z M 19.000 28.000 L 20.000 28.000 L 20.000 29.000 L 19.000 29.000 Z M 17.000 29.000 L 18.000 29.000 L 18.000 30.000 L 17.000 30.000 Z" fill-rule="evenodd"/>
<path fill="#F28C00" fill-opacity="0.031" d="M 1.000 11.000 L 2.000 11.000 L 2.000 12.000 L 1.000 12.000 Z" fill-rule="evenodd"/>
<path fill="#FFFFFF" fill-opacity="0.031" d="M 17.000 19.000 L 18.000 19.000 L 18.000 20.000 L 17.000 20.000 Z" fill-rule="evenodd"/>
<path fill="#60BCD3" fill-opacity="0.035" d="M 21.000 27.000 L 22.000 27.000 L 22.000 28.000 L 21.000 28.000 Z" fill-rule="evenodd"/>
<path fill="#60BCD3" fill-opacity="0.039" d="M 25.000 25.000 L 26.000 25.000 L 26.000 26.000 L 25.000 26.000 Z M 23.000 26.000 L 24.000 26.000 L 24.000 27.000 L 23.000 27.000 Z" fill-rule="evenodd"/>
<path fill="#60BCD3" fill-opacity="0.043" d="M 27.000 20.000 L 28.000 20.000 L 28.000 21.000 L 27.000 21.000 Z M 27.000 24.000 L 28.000 24.000 L 28.000 25.000 L 27.000 25.000 Z" fill-rule="evenodd"/>
<path fill="#60BCD3" fill-opacity="0.047" d="M 14.000 29.000 L 15.000 29.000 L 15.000 30.000 L 14.000 30.000 Z" fill-rule="evenodd"/>
<path fill="#60BCD3" fill-opacity="0.051" d="M 29.000 21.000 L 30.000 21.000 L 30.000 22.000 L 29.000 22.000 Z M 12.000 28.000 L 13.000 28.000 L 13.000 29.000 L 12.000 29.000 Z" fill-rule="evenodd"/>
<path fill="#FFFFFF" fill-opacity="0.051" d="M 30.000 9.000 L 31.000 9.000 L 31.000 10.000 L 30.000 10.000 Z" fill-rule="evenodd"/>
<path fill="#60BCD3" fill-opacity="0.055" d="M 8.000 26.000 L 9.000 26.000 L 9.000 27.000 L 8.000 27.000 Z M 10.000 27.000 L 11.000 27.000 L 11.000 28.000 L 10.000 28.000 Z" fill-rule="evenodd"/>
<path fill="#FFFFFF" fill-opacity="0.055" d="M 18.000 2.000 L 19.000 2.000 L 19.000 3.000 L 18.000 3.000 Z" fill-rule="evenodd"/>
<path fill="#60BCD3" fill-opacity="0.059" d="M 29.000 23.000 L 30.000 23.000 L 30.000 24.000 L 29.000 24.000 Z M 6.000 25.000 L 7.000 25.000 L 7.000 26.000 L 6.000 26.000 Z" fill-rule="evenodd"/>
<path fill="#60BCD3" fill-opacity="0.063" d="M 9.000 23.000 L 10.000 23.000 L 10.000 24.000 L 9.000 24.000 Z M 4.000 24.000 L 5.000 24.000 L 5.000 25.000 L 4.000 25.000 Z" fill-rule="evenodd"/>
<path fill="#67C1F6" fill-opacity="0.063" d="M 8.000 21.000 L 9.000 21.000 L 9.000 22.000 L 8.000 22.000 Z" fill-rule="evenodd"/>
<path fill="#60BCD3" fill-opacity="0.067" d="M 4.000 20.000 L 5.000 20.000 L 5.000 21.000 L 4.000 21.000 Z" fill-rule="evenodd"/>
<path fill="#60BCD3" fill-opacity="0.071" d="M 2.000 21.000 L 3.000 21.000 L 3.000 22.000 L 2.000 22.000 Z" fill-rule="evenodd"/>
<path fill="#3CA536" fill-opacity="0.075" d="M 8.000 15.000 L 9.000 15.000 L 9.000 16.000 L 8.000 16.000 Z" fill-rule="evenodd"/>
<path fill="#60BCD3" fill-opacity="0.075" d="M 11.000 24.000 L 12.000 24.000 L 12.000 25.000 L 11.000 25.000 Z" fill-rule="evenodd"/>
<path fill="#3FA535" fill-opacity="0.078" d="M 28.000 15.000 L 29.000 15.000 L 29.000 16.000 L 28.000 16.000 Z" fill-rule="evenodd"/>
<path fill="#60BCD3" fill-opacity="0.078" d="M 2.000 23.000 L 3.000 23.000 L 3.000 24.000 L 2.000 24.000 Z" fill-rule="evenodd"/>
<path fill="#2CA83B" fill-opacity="0.082" d="M 26.000 14.000 L 27.000 14.000 L 27.000 15.000 L 26.000 15.000 Z" fill-rule="evenodd"/>
<path fill="#60BCD3" fill-opacity="0.082" d="M 13.000 25.000 L 14.000 25.000 L 14.000 26.000 L 13.000 26.000 Z" fill-rule="evenodd"/>
<path fill="#60BCD3" fill-opacity="0.086" d="M 22.000 23.000 L 23.000 23.000 L 23.000 24.000 L 22.000 24.000 Z" fill-rule="evenodd"/>
<path fill="#F18100" fill-opacity="0.094" d="M 19.000 5.000 L 20.000 5.000 L 20.000 6.000 L 19.000 6.000 Z" fill-rule="evenodd"/>
<path fill="#60BCD3" fill-opacity="0.098" d="M 20.000 24.000 L 21.000 24.000 L 21.000 25.000 L 20.000 25.000 Z M 15.000 26.000 L 16.000 26.000 L 16.000 27.000 L 15.000 27.000 Z" fill-rule="evenodd"/>
<path fill="#F18100" fill-opacity="0.098" d="M 16.000 18.000 L 17.000 18.000 L 17.000 19.000 L 16.000 19.000 Z" fill-rule="evenodd"/>
<path fill="#3FA535" fill-opacity="0.106" d="M 8.000 17.000 L 9.000 17.000 L 9.000 18.000 L 8.000 18.000 Z" fill-rule="evenodd"/>
<path fill="#60BCD3" fill-opacity="0.106" d="M 7.000 22.000 L 8.000 22.000 L 8.000 23.000 L 7.000 23.000 Z" fill-rule="evenodd"/>
<path fill="#F28C00" fill-opacity="0.106" d="M 21.000 6.000 L 22.000 6.000 L 22.000 7.000 L 21.000 7.000 Z" fill-rule="evenodd"/>
<path fill="#60BCD3" fill-opacity="0.110" d="M 18.000 25.000 L 19.000 25.000 L 19.000 26.000 L 18.000 26.000 Z" fill-rule="evenodd"/>
<path fill="#FE8A00" fill-opacity="0.114" d="M 22.000 15.000 L 23.000 15.000 L 23.000 16.000 L 22.000 16.000 Z" fill-rule="evenodd"/>
<path fill="#3FA535" fill-opacity="0.118" d="M 3.000 15.000 L 4.000 15.000 L 4.000 16.000 L 3.000 16.000 Z M 10.000 18.000 L 11.000 18.000 L 11.000 19.000 L 10.000 19.000 Z" fill-rule="evenodd"/>
<path fill="#F28B00" fill-opacity="0.118" d="M 23.000 7.000 L 24.000 7.000 L 24.000 8.000 L 23.000 8.000 Z" fill-rule="evenodd"/>
<path fill="#F28C00" fill-opacity="0.118" d="M 20.000 16.000 L 21.000 16.000 L 21.000 17.000 L 20.000 17.000 Z" fill-rule="evenodd"/>
<path fill="#FFFFFF" fill-opacity="0.118" d="M 18.000 3.000 L 19.000 3.000 L 19.000 4.000 L 18.000 4.000 Z" fill-rule="evenodd"/>
<path fill="#60BCD3" fill-opacity="0.122" d="M 16.000 26.000 L 17.000 26.000 L 17.000 27.000 L 16.000 27.000 Z" fill-rule="evenodd"/>
<path fill="#FFFFFF" fill-opacity="0.122" d="M 18.000 4.000 L 19.000 4.000 L 19.000 5.000 L 18.000 5.000 Z" fill-rule="evenodd"/>
<path fill="#30A73A" fill-opacity="0.125" d="M 5.000 14.000 L 6.000 14.000 L 6.000 15.000 L 5.000 15.000 Z" fill-rule="evenodd"/>
<path fill="#F28C00" fill-opacity="0.125" d="M 14.000 4.000 L 15.000 4.000 L 15.000 5.000 L 14.000 5.000 Z" fill-rule="evenodd"/>
<path fill="#FA8B00" fill-opacity="0.125" d="M 26.000 13.000 L 27.000 13.000 L 27.000 14.000 L 26.000 14.000 Z" fill-rule="evenodd"/>
<path fill="#3FA535" fill-opacity="0.129" d="M 12.000 19.000 L 13.000 19.000 L 13.000 20.000 L 12.000 20.000 Z" fill-rule="evenodd"/>
<path fill="#F49D25" fill-opacity="0.129" d="M 25.000 8.000 L 26.000 8.000 L 26.000 9.000 L 25.000 9.000 Z" fill-rule="evenodd"/>
<path fill="#F28C00" fill-opacity="0.133" d="M 12.000 5.000 L 13.000 5.000 L 13.000 6.000 L 12.000 6.000 Z M 28.000 12.000 L 29.000 12.000 L 29.000 13.000 L 28.000 13.000 Z M 15.000 18.000 L 16.000 18.000 L 16.000 19.000 L 15.000 19.000 Z" fill-rule="evenodd"/>
<path fill="#FCFDFB" fill-opacity="0.133" d="M 18.000 19.000 L 19.000 19.000 L 19.000 20.000 L 18.000 20.000 Z" fill-rule="evenodd"/>
<path fill="#63BEE1" fill-opacity="0.137" d="M 23.000 21.000 L 24.000 21.000 L 24.000 22.000 L 23.000 22.000 Z" fill-rule="evenodd"/>
<path fill="#3FA535" fill-opacity="0.145" d="M 23.000 17.000 L 24.000 17.000 L 24.000 18.000 L 23.000 18.000 Z M 14.000 20.000 L 15.000 20.000 L 15.000 21.000 L 14.000 21.000 Z" fill-rule="evenodd"/>
<path fill="#F28C00" fill-opacity="0.145" d="M 10.000 6.000 L 11.000 6.000 L 11.000 7.000 L 10.000 7.000 Z" fill-rule="evenodd"/>
<path fill="#60BCD3" fill-opacity="0.153" d="M 24.000 22.000 L 25.000 22.000 L 25.000 23.000 L 24.000 23.000 Z" fill-rule="evenodd"/>
<path fill="#FFFFFF" fill-opacity="0.153" d="M 17.000 18.000 L 18.000 18.000 L 18.000 19.000 L 17.000 19.000 Z" fill-rule="evenodd"/>
<path fill="#35A638" fill-opacity="0.157" d="M 23.000 15.000 L 24.000 15.000 L 24.000 16.000 L 23.000 16.000 Z" fill-rule="evenodd"/>
<path fill="#F28B00" fill-opacity="0.157" d="M 8.000 7.000 L 9.000 7.000 L 9.000 8.000 L 8.000 8.000 Z" fill-rule="evenodd"/>
<path fill="#F28C00" fill-opacity="0.157" d="M 13.000 17.000 L 14.000 17.000 L 14.000 18.000 L 13.000 18.000 Z" fill-rule="evenodd"/>
<path fill="#F78B00" fill-opacity="0.157" d="M 9.000 15.000 L 10.000 15.000 L 10.000 16.000 L 9.000 16.000 Z" fill-rule="evenodd"/>
<path fill="#3FA535" fill-opacity="0.161" d="M 21.000 18.000 L 22.000 18.000 L 22.000 19.000 L 21.000 19.000 Z" fill-rule="evenodd"/>
<path fill="#F28C00" fill-opacity="0.161" d="M 11.000 16.000 L 12.000 16.000 L 12.000 17.000 L 11.000 17.000 Z" fill-rule="evenodd"/>
<path fill="#FB8B00" fill-opacity="0.165" d="M 5.000 13.000 L 6.000 13.000 L 6.000 14.000 L 5.000 14.000 Z" fill-rule="evenodd"/>
<path fill="#F5A435" fill-opacity="0.169" d="M 6.000 8.000 L 7.000 8.000 L 7.000 9.000 L 6.000 9.000 Z" fill-rule="evenodd"/>
<path fill="#3FA535" fill-opacity="0.176" d="M 19.000 19.000 L 20.000 19.000 L 20.000 20.000 L 19.000 20.000 Z" fill-rule="evenodd"/>
<path fill="#F28C00" fill-opacity="0.176" d="M 3.000 12.000 L 4.000 12.000 L 4.000 13.000 L 3.000 13.000 Z" fill-rule="evenodd"/>
<path fill="#3DA432" fill-opacity="0.188" d="M 17.000 20.000 L 18.000 20.000 L 18.000 21.000 L 17.000 21.000 Z" fill-rule="evenodd"/>
<path fill="#3FA535" fill-opacity="0.188" d="M 17.000 23.000 L 18.000 23.000 L 18.000 24.000 L 17.000 24.000 Z" fill-rule="evenodd"/>
<path fill="#3FA535" fill-opacity="0.192" d="M 19.000 22.000 L 20.000 22.000 L 20.000 23.000 L 19.000 23.000 Z" fill-rule="evenodd"/>
<path fill="#FFFCF8" fill-opacity="0.192" d="M 3.000 9.000 L 4.000 9.000 L 4.000 10.000 L 3.000 10.000 Z" fill-rule="evenodd"/>
<path fill="#3FA535" fill-opacity="0.200" d="M 21.000 21.000 L 22.000 21.000 L 22.000 22.000 L 21.000 22.000 Z" fill-rule="evenodd"/>
<path fill="#F28B00" fill-opacity="0.200" d="M 2.000 10.000 L 3.000 10.000 L 3.000 11.000 L 2.000 11.000 Z" fill-rule="evenodd"/>
<path fill="#3FA535" fill-opacity="0.208" d="M 7.000 16.000 L 8.000 16.000 L 8.000 17.000 L 7.000 17.000 Z" fill-rule="evenodd"/>
<path fill="#3FA533" fill-opacity="0.212" d="M 25.000 19.000 L 26.000 19.000 L 26.000 20.000 L 25.000 20.000 Z" fill-rule="evenodd"/>
<path fill="#3FA535" fill-opacity="0.216" d="M 29.000 17.000 L 30.000 17.000 L 30.000 18.000 L 29.000 18.000 Z" fill-rule="evenodd"/>
<path fill="#CA920C" fill-opacity="0.216" d="M 7.000 14.000 L 8.000 14.000 L 8.000 15.000 L 7.000 15.000 Z" fill-rule="evenodd"/>
<path fill="#3FA535" fill-opacity="0.220" d="M 27.000 18.000 L 28.000 18.000 L 28.000 19.000 L 27.000 19.000 Z" fill-rule="evenodd"/>
<path fill="#A69716" fill-opacity="0.220" d="M 24.000 14.000 L 25.000 14.000 L 25.000 15.000 L 24.000 15.000 Z" fill-rule="evenodd"/>
<path fill="#3FA535" fill-opacity="0.239" d="M 6.000 14.000 L 7.000 14.000 L 7.000 15.000 L 6.000 15.000 Z M 14.000 23.000 L 15.000 23.000 L 15.000 24.000 L 14.000 24.000 Z" fill-rule="evenodd"/>
<path fill="#F7B65C" fill-opacity="0.243" d="M 29.000 10.000 L 30.000 10.000 L 30.000 11.000 L 29.000 11.000 Z" fill-rule="evenodd"/>
<path fill="#3FA535" fill-opacity="0.247" d="M 12.000 22.000 L 13.000 22.000 L 13.000 23.000 L 12.000 23.000 Z" fill-rule="evenodd"/>
<path fill="#45A951" fill-opacity="0.251" d="M 23.000 20.000 L 24.000 20.000 L 24.000 21.000 L 23.000 21.000 Z" fill-rule="evenodd"/>
<path fill="#FFFFFF" fill-opacity="0.251" d="M 17.000 2.000 L 18.000 2.000 L 18.000 3.000 L 17.000 3.000 Z" fill-rule="evenodd"/>
<path fill="#3FA535" fill-opacity="0.255" d="M 10.000 21.000 L 11.000 21.000 L 11.000 22.000 L 10.000 22.000 Z" fill-rule="evenodd"/>
<path fill="#3AA637" fill-opacity="0.259" d="M 25.000 14.000 L 26.000 14.000 L 26.000 15.000 L 25.000 15.000 Z" fill-rule="evenodd"/>
<path fill="#3EA532" fill-opacity="0.263" d="M 6.000 19.000 L 7.000 19.000 L 7.000 20.000 L 6.000 20.000 Z" fill-rule="evenodd"/>
<path fill="#5DBAC4" fill-opacity="0.263" d="M 7.000 20.000 L 8.000 20.000 L 8.000 21.000 L 7.000 21.000 Z" fill-rule="evenodd"/>
<path fill="#60BCD3" fill-opacity="0.271" d="M 16.000 29.000 L 17.000 29.000 L 17.000 30.000 L 16.000 30.000 Z" fill-rule="evenodd"/>
<path fill="#3FA535" fill-opacity="0.275" d="M 4.000 18.000 L 5.000 18.000 L 5.000 19.000 L 4.000 19.000 Z" fill-rule="evenodd"/>
<path fill="#3FA535" fill-opacity="0.278" d="M 2.000 17.000 L 3.000 17.000 L 3.000 18.000 L 2.000 18.000 Z" fill-rule="evenodd"/>
<path fill="#41A741" fill-opacity="0.282" d="M 8.000 20.000 L 9.000 20.000 L 9.000 21.000 L 8.000 21.000 Z" fill-rule="evenodd"/>
<path fill="#60BCD3" fill-opacity="0.282" d="M 18.000 28.000 L 19.000 28.000 L 19.000 29.000 L 18.000 29.000 Z" fill-rule="evenodd"/>
<path fill="#60BCD3" fill-opacity="0.286" d="M 20.000 27.000 L 21.000 27.000 L 21.000 28.000 L 20.000 28.000 Z" fill-rule="evenodd"/>
<path fill="#3FA535" fill-opacity="0.290" d="M 24.000 16.000 L 25.000 16.000 L 25.000 17.000 L 24.000 17.000 Z" fill-rule="evenodd"/>
<path fill="#60BCD3" fill-opacity="0.294" d="M 22.000 26.000 L 23.000 26.000 L 23.000 27.000 L 22.000 27.000 Z" fill-rule="evenodd"/>
<path fill="#60BCD3" fill-opacity="0.302" d="M 24.000 25.000 L 25.000 25.000 L 25.000 26.000 L 24.000 26.000 Z M 15.000 29.000 L 16.000 29.000 L 16.000 30.000 L 15.000 30.000 Z" fill-rule="evenodd"/>
<path fill="#60BCD3" fill-opacity="0.306" d="M 28.000 21.000 L 29.000 21.000 L 29.000 22.000 L 28.000 22.000 Z" fill-rule="evenodd"/>
<path fill="#60BCD3" fill-opacity="0.310" d="M 26.000 24.000 L 27.000 24.000 L 27.000 25.000 L 26.000 25.000 Z" fill-rule="evenodd"/>
<path fill="#3FA535" fill-opacity="0.318" d="M 29.000 16.000 L 30.000 16.000 L 30.000 17.000 L 29.000 17.000 Z" fill-rule="evenodd"/>
<path fill="#60BCD4" fill-opacity="0.318" d="M 26.000 20.000 L 27.000 20.000 L 27.000 21.000 L 26.000 21.000 Z" fill-rule="evenodd"/>
<path fill="#5FBBCF" fill-opacity="0.322" d="M 24.000 20.000 L 25.000 20.000 L 25.000 21.000 L 24.000 21.000 Z" fill-rule="evenodd"/>
<path fill="#60BCD3" fill-opacity="0.322" d="M 28.000 23.000 L 29.000 23.000 L 29.000 24.000 L 28.000 24.000 Z" fill-rule="evenodd"/>
<path fill="#60BCD3" fill-opacity="0.325" d="M 13.000 28.000 L 14.000 28.000 L 14.000 29.000 L 13.000 29.000 Z" fill-rule="evenodd"/>
<path fill="#60BCD3" fill-opacity="0.333" d="M 11.000 27.000 L 12.000 27.000 L 12.000 28.000 L 11.000 28.000 Z" fill-rule="evenodd"/>
<path fill="#60BCD3" fill-opacity="0.341" d="M 9.000 26.000 L 10.000 26.000 L 10.000 27.000 L 9.000 27.000 Z" fill-rule="evenodd"/>
<path fill="#60BCD3" fill-opacity="0.349" d="M 7.000 25.000 L 8.000 25.000 L 8.000 26.000 L 7.000 26.000 Z" fill-rule="evenodd"/>
<path fill="#60BCD3" fill-opacity="0.357" d="M 3.000 21.000 L 4.000 21.000 L 4.000 22.000 L 3.000 22.000 Z M 8.000 23.000 L 9.000 23.000 L 9.000 24.000 L 8.000 24.000 Z M 5.000 24.000 L 6.000 24.000 L 6.000 25.000 L 5.000 25.000 Z" fill-rule="evenodd"/>
<path fill="#60BCD3" fill-opacity="0.369" d="M 3.000 23.000 L 4.000 23.000 L 4.000 24.000 L 3.000 24.000 Z" fill-rule="evenodd"/>
<path fill="#60BCD3" fill-opacity="0.373" d="M 10.000 24.000 L 11.000 24.000 L 11.000 25.000 L 10.000 25.000 Z" fill-rule="evenodd"/>
<path fill="#F28B00" fill-opacity="0.373" d="M 29.000 11.000 L 30.000 11.000 L 30.000 12.000 L 29.000 12.000 Z" fill-rule="evenodd"/>
<path fill="#60BCD4" fill-opacity="0.376" d="M 5.000 20.000 L 6.000 20.000 L 6.000 21.000 L 5.000 21.000 Z" fill-rule="evenodd"/>
<path fill="#3FA535" fill-opacity="0.396" d="M 27.000 15.000 L 28.000 15.000 L 28.000 16.000 L 27.000 16.000 Z" fill-rule="evenodd"/>
<path fill="#60BCD3" fill-opacity="0.396" d="M 12.000 25.000 L 13.000 25.000 L 13.000 26.000 L 12.000 26.000 Z" fill-rule="evenodd"/>
<path fill="#60BCD3" fill-opacity="0.404" d="M 23.000 23.000 L 24.000 23.000 L 24.000 24.000 L 23.000 24.000 Z" fill-rule="evenodd"/>
<path fill="#3FA535" fill-opacity="0.408" d="M 2.000 16.000 L 3.000 16.000 L 3.000 17.000 L 2.000 17.000 Z" fill-rule="evenodd"/>
<path fill="#F28D02" fill-opacity="0.408" d="M 16.000 4.000 L 17.000 4.000 L 17.000 5.000 L 16.000 5.000 Z" fill-rule="evenodd"/>
<path fill="#FFFFFF" fill-opacity="0.412" d="M 29.000 9.000 L 30.000 9.000 L 30.000 10.000 L 29.000 10.000 Z" fill-rule="evenodd"/>
<path fill="#60BCD3" fill-opacity="0.416" d="M 14.000 26.000 L 15.000 26.000 L 15.000 27.000 L 14.000 27.000 Z" fill-rule="evenodd"/>
<path fill="#60BCD3" fill-opacity="0.424" d="M 21.000 24.000 L 22.000 24.000 L 22.000 25.000 L 21.000 25.000 Z" fill-rule="evenodd"/>
<path fill="#3FA535" fill-opacity="0.427" d="M 7.000 17.000 L 8.000 17.000 L 8.000 18.000 L 7.000 18.000 Z" fill-rule="evenodd"/>
<path fill="#60BCD3" fill-opacity="0.427" d="M 29.000 22.000 L 30.000 22.000 L 30.000 23.000 L 29.000 23.000 Z" fill-rule="evenodd"/>
<path fill="#FFFFFF" fill-opacity="0.435" d="M 18.000 18.000 L 19.000 18.000 L 19.000 19.000 L 18.000 19.000 Z" fill-rule="evenodd"/>
<path fill="#F28C00" fill-opacity="0.439" d="M 20.000 6.000 L 21.000 6.000 L 21.000 7.000 L 20.000 7.000 Z" fill-rule="evenodd"/>
<path fill="#60BCD3" fill-opacity="0.443" d="M 19.000 25.000 L 20.000 25.000 L 20.000 26.000 L 19.000 26.000 Z" fill-rule="evenodd"/>
<path fill="#F28C00" fill-opacity="0.451" d="M 15.000 4.000 L 16.000 4.000 L 16.000 5.000 L 15.000 5.000 Z" fill-rule="evenodd"/>
<path fill="#3FA535" fill-opacity="0.459" d="M 9.000 18.000 L 10.000 18.000 L 10.000 19.000 L 9.000 19.000 Z" fill-rule="evenodd"/>
<path fill="#F28C00" fill-opacity="0.459" d="M 22.000 7.000 L 23.000 7.000 L 23.000 8.000 L 22.000 8.000 Z" fill-rule="evenodd"/>
<path fill="#60BCD3" fill-opacity="0.463" d="M 17.000 26.000 L 18.000 26.000 L 18.000 27.000 L 17.000 27.000 Z" fill-rule="evenodd"/>
<path fill="#F28900" fill-opacity="0.463" d="M 19.000 16.000 L 20.000 16.000 L 20.000 17.000 L 19.000 17.000 Z" fill-rule="evenodd"/>
<path fill="#F28C00" fill-opacity="0.463" d="M 2.000 11.000 L 3.000 11.000 L 3.000 12.000 L 2.000 12.000 Z" fill-rule="evenodd"/>
<path fill="#F88B00" fill-opacity="0.467" d="M 25.000 13.000 L 26.000 13.000 L 26.000 14.000 L 25.000 14.000 Z" fill-rule="evenodd"/>
<path fill="#F28C00" fill-opacity="0.471" d="M 21.000 15.000 L 22.000 15.000 L 22.000 16.000 L 21.000 16.000 Z" fill-rule="evenodd"/>
<path fill="#F6B356" fill-opacity="0.471" d="M 18.000 5.000 L 19.000 5.000 L 19.000 6.000 L 18.000 6.000 Z" fill-rule="evenodd"/>
<path fill="#3FA535" fill-opacity="0.475" d="M 4.000 15.000 L 5.000 15.000 L 5.000 16.000 L 4.000 16.000 Z" fill-rule="evenodd"/>
<path fill="#F3910B" fill-opacity="0.475" d="M 24.000 8.000 L 25.000 8.000 L 25.000 9.000 L 24.000 9.000 Z" fill-rule="evenodd"/>
<path fill="#FEF5E9" fill-opacity="0.475" d="M 18.000 17.000 L 19.000 17.000 L 19.000 18.000 L 18.000 18.000 Z" fill-rule="evenodd"/>
<path fill="#3FA535" fill-opacity="0.478" d="M 11.000 19.000 L 12.000 19.000 L 12.000 20.000 L 11.000 20.000 Z" fill-rule="evenodd"/>
<path fill="#F28C00" fill-opacity="0.478" d="M 23.000 14.000 L 24.000 14.000 L 24.000 15.000 L 23.000 15.000 Z" fill-rule="evenodd"/>
<path fill="#FFFFFF" fill-opacity="0.482" d="M 17.000 3.000 L 18.000 3.000 L 18.000 4.000 L 17.000 4.000 Z" fill-rule="evenodd"/>
<path fill="#F28C00" fill-opacity="0.486" d="M 13.000 5.000 L 14.000 5.000 L 14.000 6.000 L 13.000 6.000 Z" fill-rule="evenodd"/>
<path fill="#3FA535" fill-opacity="0.490" d="M 24.000 17.000 L 25.000 17.000 L 25.000 18.000 L 24.000 18.000 Z" fill-rule="evenodd"/>
<path fill="#F28C00" fill-opacity="0.490" d="M 27.000 12.000 L 28.000 12.000 L 28.000 13.000 L 27.000 13.000 Z" fill-rule="evenodd"/>
<path fill="#FFFFFF" fill-opacity="0.490" d="M 28.000 9.000 L 29.000 9.000 L 29.000 10.000 L 28.000 10.000 Z" fill-rule="evenodd"/>
<path fill="#3FA535" fill-opacity="0.498" d="M 13.000 20.000 L 14.000 20.000 L 14.000 21.000 L 13.000 21.000 Z" fill-rule="evenodd"/>
<path fill="#F28C00" fill-opacity="0.502" d="M 11.000 6.000 L 12.000 6.000 L 12.000 7.000 L 11.000 7.000 Z" fill-rule="evenodd"/>
<path fill="#60BCD3" fill-opacity="0.506" d="M 2.000 22.000 L 3.000 22.000 L 3.000 23.000 L 2.000 23.000 Z" fill-rule="evenodd"/>
<path fill="#F28C00" fill-opacity="0.518" d="M 9.000 7.000 L 10.000 7.000 L 10.000 8.000 L 9.000 8.000 Z" fill-rule="evenodd"/>
<path fill="#3FA535" fill-opacity="0.525" d="M 22.000 18.000 L 23.000 18.000 L 23.000 19.000 L 22.000 19.000 Z" fill-rule="evenodd"/>
<path fill="#F28C00" fill-opacity="0.525" d="M 14.000 17.000 L 15.000 17.000 L 15.000 18.000 L 14.000 18.000 Z" fill-rule="evenodd"/>
<path fill="#F28C00" fill-opacity="0.529" d="M 12.000 16.000 L 13.000 16.000 L 13.000 17.000 L 12.000 17.000 Z" fill-rule="evenodd"/>
<path fill="#F28C00" fill-opacity="0.533" d="M 10.000 15.000 L 11.000 15.000 L 11.000 16.000 L 10.000 16.000 Z" fill-rule="evenodd"/>
<path fill="#F78B00" fill-opacity="0.533" d="M 6.000 13.000 L 7.000 13.000 L 7.000 14.000 L 6.000 14.000 Z" fill-rule="evenodd"/>
<path fill="#3FA535" fill-opacity="0.537" d="M 15.000 21.000 L 16.000 21.000 L 16.000 22.000 L 15.000 22.000 Z" fill-rule="evenodd"/>
<path fill="#F39310" fill-opacity="0.537" d="M 7.000 8.000 L 8.000 8.000 L 8.000 9.000 L 7.000 9.000 Z" fill-rule="evenodd"/>
<path fill="#FDF0DD" fill-opacity="0.537" d="M 17.000 4.000 L 18.000 4.000 L 18.000 5.000 L 17.000 5.000 Z" fill-rule="evenodd"/>
<path fill="#61BDD7" fill-opacity="0.541" d="M 6.000 20.000 L 7.000 20.000 L 7.000 21.000 L 6.000 21.000 Z" fill-rule="evenodd"/>
<path fill="#F28C00" fill-opacity="0.541" d="M 8.000 14.000 L 9.000 14.000 L 9.000 15.000 L 8.000 15.000 Z" fill-rule="evenodd"/>
<path fill="#3FA535" fill-opacity="0.545" d="M 20.000 19.000 L 21.000 19.000 L 21.000 20.000 L 20.000 20.000 Z" fill-rule="evenodd"/>
<path fill="#F28C00" fill-opacity="0.553" d="M 4.000 12.000 L 5.000 12.000 L 5.000 13.000 L 4.000 13.000 Z" fill-rule="evenodd"/>
<path fill="#3CA432" fill-opacity="0.557" d="M 18.000 20.000 L 19.000 20.000 L 19.000 21.000 L 18.000 21.000 Z" fill-rule="evenodd"/>
<path fill="#3FA535" fill-opacity="0.565" d="M 16.000 23.000 L 17.000 23.000 L 17.000 24.000 L 16.000 24.000 Z" fill-rule="evenodd"/>
<path fill="#61BCD6" fill-opacity="0.573" d="M 25.000 20.000 L 26.000 20.000 L 26.000 21.000 L 25.000 21.000 Z" fill-rule="evenodd"/>
<path fill="#3FA535" fill-opacity="0.576" d="M 18.000 22.000 L 19.000 22.000 L 19.000 23.000 L 18.000 23.000 Z" fill-rule="evenodd"/>
<path fill="#3FA535" fill-opacity="0.584" d="M 20.000 21.000 L 21.000 21.000 L 21.000 22.000 L 20.000 22.000 Z" fill-rule="evenodd"/>
<path fill="#3EA532" fill-opacity="0.588" d="M 24.000 19.000 L 25.000 19.000 L 25.000 20.000 L 24.000 20.000 Z" fill-rule="evenodd"/>
<path fill="#3FA534" fill-opacity="0.588" d="M 22.000 20.000 L 23.000 20.000 L 23.000 21.000 L 22.000 21.000 Z" fill-rule="evenodd"/>
<path fill="#3FA535" fill-opacity="0.588" d="M 16.000 21.000 L 17.000 21.000 L 17.000 22.000 L 16.000 22.000 Z" fill-rule="evenodd"/>
<path fill="#FDEAD1" fill-opacity="0.592" d="M 27.000 9.000 L 28.000 9.000 L 28.000 10.000 L 27.000 10.000 Z" fill-rule="evenodd"/>
<path fill="#3CA536" fill-opacity="0.596" d="M 7.000 15.000 L 8.000 15.000 L 8.000 16.000 L 7.000 16.000 Z" fill-rule="evenodd"/>
<path fill="#F6AF4E" fill-opacity="0.596" d="M 17.000 17.000 L 18.000 17.000 L 18.000 18.000 L 17.000 18.000 Z" fill-rule="evenodd"/>
<path fill="#F3910B" fill-opacity="0.604" d="M 3.000 10.000 L 4.000 10.000 L 4.000 11.000 L 3.000 11.000 Z" fill-rule="evenodd"/>
<path fill="#3FA535" fill-opacity="0.608" d="M 26.000 18.000 L 27.000 18.000 L 27.000 19.000 L 26.000 19.000 Z" fill-rule="evenodd"/>
<path fill="#60BCD4" fill-opacity="0.608" d="M 7.000 21.000 L 8.000 21.000 L 8.000 22.000 L 7.000 22.000 Z" fill-rule="evenodd"/>
<path fill="#3FA535" fill-opacity="0.620" d="M 15.000 23.000 L 16.000 23.000 L 16.000 24.000 L 15.000 24.000 Z" fill-rule="evenodd"/>
<path fill="#F49F2A" fill-opacity="0.624" d="M 28.000 10.000 L 29.000 10.000 L 29.000 11.000 L 28.000 11.000 Z" fill-rule="evenodd"/>
<path fill="#3FA535" fill-opacity="0.627" d="M 28.000 17.000 L 29.000 17.000 L 29.000 18.000 L 28.000 18.000 Z" fill-rule="evenodd"/>
<path fill="#3FA535" fill-opacity="0.639" d="M 13.000 22.000 L 14.000 22.000 L 14.000 23.000 L 13.000 23.000 Z" fill-rule="evenodd"/>
<path fill="#FCE5C6" fill-opacity="0.643" d="M 4.000 9.000 L 5.000 9.000 L 5.000 10.000 L 4.000 10.000 Z" fill-rule="evenodd"/>
<path fill="#3FA535" fill-opacity="0.651" d="M 11.000 21.000 L 12.000 21.000 L 12.000 22.000 L 11.000 22.000 Z" fill-rule="evenodd"/>
<path fill="#3EA532" fill-opacity="0.655" d="M 7.000 19.000 L 8.000 19.000 L 8.000 20.000 L 7.000 20.000 Z" fill-rule="evenodd"/>
<path fill="#3FA535" fill-opacity="0.655" d="M 9.000 20.000 L 10.000 20.000 L 10.000 21.000 L 9.000 21.000 Z" fill-rule="evenodd"/>
<path fill="#60BCD3" fill-opacity="0.655" d="M 6.000 22.000 L 7.000 22.000 L 7.000 23.000 L 6.000 23.000 Z" fill-rule="evenodd"/>
<path fill="#3FA535" fill-opacity="0.671" d="M 5.000 18.000 L 6.000 18.000 L 6.000 19.000 L 5.000 19.000 Z" fill-rule="evenodd"/>
<path fill="#FCE0BA" fill-opacity="0.671" d="M 26.000 9.000 L 27.000 9.000 L 27.000 10.000 L 26.000 10.000 Z" fill-rule="evenodd"/>
<path fill="#60BCD3" fill-opacity="0.678" d="M 17.000 28.000 L 18.000 28.000 L 18.000 29.000 L 17.000 29.000 Z" fill-rule="evenodd"/>
<path fill="#60BCD3" fill-opacity="0.686" d="M 19.000 27.000 L 20.000 27.000 L 20.000 28.000 L 19.000 28.000 Z" fill-rule="evenodd"/>
<path fill="#3FA535" fill-opacity="0.690" d="M 3.000 17.000 L 4.000 17.000 L 4.000 18.000 L 3.000 18.000 Z" fill-rule="evenodd"/>
<path fill="#60BCD3" fill-opacity="0.694" d="M 21.000 26.000 L 22.000 26.000 L 22.000 27.000 L 21.000 27.000 Z" fill-rule="evenodd"/>
<path fill="#60BCD3" fill-opacity="0.702" d="M 23.000 25.000 L 24.000 25.000 L 24.000 26.000 L 23.000 26.000 Z" fill-rule="evenodd"/>
<path fill="#60BCD3" fill-opacity="0.706" d="M 27.000 21.000 L 28.000 21.000 L 28.000 22.000 L 27.000 22.000 Z" fill-rule="evenodd"/>
<path fill="#60BCD3" fill-opacity="0.710" d="M 24.000 21.000 L 25.000 21.000 L 25.000 22.000 L 24.000 22.000 Z M 25.000 24.000 L 26.000 24.000 L 26.000 25.000 L 25.000 25.000 Z" fill-rule="evenodd"/>
<path fill="#60BCD3" fill-opacity="0.718" d="M 27.000 23.000 L 28.000 23.000 L 28.000 24.000 L 27.000 24.000 Z" fill-rule="evenodd"/>
<path fill="#3FA535" fill-opacity="0.722" d="M 6.000 16.000 L 7.000 16.000 L 7.000 17.000 L 6.000 17.000 Z" fill-rule="evenodd"/>
<path fill="#60BCD3" fill-opacity="0.725" d="M 14.000 28.000 L 15.000 28.000 L 15.000 29.000 L 14.000 29.000 Z" fill-rule="evenodd"/>
<path fill="#FBDBAF" fill-opacity="0.725" d="M 5.000 9.000 L 6.000 9.000 L 6.000 10.000 L 5.000 10.000 Z" fill-rule="evenodd"/>
<path fill="#3DA536" fill-opacity="0.729" d="M 24.000 15.000 L 25.000 15.000 L 25.000 16.000 L 24.000 16.000 Z" fill-rule="evenodd"/>
<path fill="#60BCD3" fill-opacity="0.733" d="M 25.000 22.000 L 26.000 22.000 L 26.000 23.000 L 25.000 23.000 Z M 12.000 27.000 L 13.000 27.000 L 13.000 28.000 L 12.000 28.000 Z" fill-rule="evenodd"/>
<path fill="#60BCD3" fill-opacity="0.741" d="M 10.000 26.000 L 11.000 26.000 L 11.000 27.000 L 10.000 27.000 Z" fill-rule="evenodd"/>
<path fill="#60BCD3" fill-opacity="0.745" d="M 7.000 23.000 L 8.000 23.000 L 8.000 24.000 L 7.000 24.000 Z M 8.000 25.000 L 9.000 25.000 L 9.000 26.000 L 8.000 26.000 Z" fill-rule="evenodd"/>
<path fill="#60BCD3" fill-opacity="0.753" d="M 6.000 24.000 L 7.000 24.000 L 7.000 25.000 L 6.000 25.000 Z" fill-rule="evenodd"/>
<path fill="#60BCD3" fill-opacity="0.761" d="M 4.000 21.000 L 5.000 21.000 L 5.000 22.000 L 4.000 22.000 Z M 4.000 23.000 L 5.000 23.000 L 5.000 24.000 L 4.000 24.000 Z" fill-rule="evenodd"/>
<path fill="#60BCD3" fill-opacity="0.765" d="M 9.000 24.000 L 10.000 24.000 L 10.000 25.000 L 9.000 25.000 Z" fill-rule="evenodd"/>
<path fill="#60BCD3" fill-opacity="0.780" d="M 11.000 25.000 L 12.000 25.000 L 12.000 26.000 L 11.000 26.000 Z" fill-rule="evenodd"/>
<path fill="#60BCD3" fill-opacity="0.784" d="M 24.000 23.000 L 25.000 23.000 L 25.000 24.000 L 24.000 24.000 Z" fill-rule="evenodd"/>
<path fill="#3FA535" fill-opacity="0.792" d="M 26.000 15.000 L 27.000 15.000 L 27.000 16.000 L 26.000 16.000 Z" fill-rule="evenodd"/>
<path fill="#3FA535" fill-opacity="0.796" d="M 28.000 16.000 L 29.000 16.000 L 29.000 17.000 L 28.000 17.000 Z" fill-rule="evenodd"/>
<path fill="#60BCD3" fill-opacity="0.796" d="M 13.000 26.000 L 14.000 26.000 L 14.000 27.000 L 13.000 27.000 Z" fill-rule="evenodd"/>
<path fill="#3FA535" fill-opacity="0.804" d="M 25.000 16.000 L 26.000 16.000 L 26.000 17.000 L 25.000 17.000 Z" fill-rule="evenodd"/>
<path fill="#60BCD3" fill-opacity="0.804" d="M 22.000 24.000 L 23.000 24.000 L 23.000 25.000 L 22.000 25.000 Z" fill-rule="evenodd"/>
<path fill="#F28B00" fill-opacity="0.816" d="M 19.000 6.000 L 20.000 6.000 L 20.000 7.000 L 19.000 7.000 Z" fill-rule="evenodd"/>
<path fill="#60BCD3" fill-opacity="0.820" d="M 20.000 25.000 L 21.000 25.000 L 21.000 26.000 L 20.000 26.000 Z" fill-rule="evenodd"/>
<path fill="#F28A00" fill-opacity="0.824" d="M 16.000 17.000 L 17.000 17.000 L 17.000 18.000 L 16.000 18.000 Z" fill-rule="evenodd"/>
<path fill="#3FA535" fill-opacity="0.827" d="M 6.000 17.000 L 7.000 17.000 L 7.000 18.000 L 6.000 18.000 Z" fill-rule="evenodd"/>
<path fill="#60BCD3" fill-opacity="0.827" d="M 15.000 27.000 L 16.000 27.000 L 16.000 28.000 L 15.000 28.000 Z" fill-rule="evenodd"/>
<path fill="#F28C00" fill-opacity="0.827" d="M 21.000 7.000 L 22.000 7.000 L 22.000 8.000 L 21.000 8.000 Z" fill-rule="evenodd"/>
<path fill="#3FA535" fill-opacity="0.831" d="M 8.000 18.000 L 9.000 18.000 L 9.000 19.000 L 8.000 19.000 Z" fill-rule="evenodd"/>
<path fill="#60BCD3" fill-opacity="0.835" d="M 18.000 26.000 L 19.000 26.000 L 19.000 27.000 L 18.000 27.000 Z" fill-rule="evenodd"/>
<path fill="#F28C00" fill-opacity="0.839" d="M 20.000 15.000 L 21.000 15.000 L 21.000 16.000 L 20.000 16.000 Z" fill-rule="evenodd"/>
<path fill="#F28F06" fill-opacity="0.839" d="M 23.000 8.000 L 24.000 8.000 L 24.000 9.000 L 23.000 9.000 Z" fill-rule="evenodd"/>
<path fill="#F28C00" fill-opacity="0.843" d="M 22.000 14.000 L 23.000 14.000 L 23.000 15.000 L 22.000 15.000 Z" fill-rule="evenodd"/>
<path fill="#F38C00" fill-opacity="0.843" d="M 24.000 13.000 L 25.000 13.000 L 25.000 14.000 L 24.000 14.000 Z" fill-rule="evenodd"/>
<path fill="#3FA535" fill-opacity="0.847" d="M 10.000 19.000 L 11.000 19.000 L 11.000 20.000 L 10.000 20.000 Z" fill-rule="evenodd"/>
<path fill="#F28C00" fill-opacity="0.847" d="M 14.000 5.000 L 15.000 5.000 L 15.000 6.000 L 14.000 6.000 Z" fill-rule="evenodd"/>
<path fill="#3FA535" fill-opacity="0.851" d="M 5.000 15.000 L 6.000 15.000 L 6.000 16.000 L 5.000 16.000 Z M 3.000 16.000 L 4.000 16.000 L 4.000 17.000 L 3.000 17.000 Z" fill-rule="evenodd"/>
<path fill="#60BCD3" fill-opacity="0.851" d="M 16.000 27.000 L 17.000 27.000 L 17.000 28.000 L 16.000 28.000 Z" fill-rule="evenodd"/>
<path fill="#F9CE92" fill-opacity="0.851" d="M 25.000 9.000 L 26.000 9.000 L 26.000 10.000 L 25.000 10.000 Z" fill-rule="evenodd"/>
<path fill="#F28C00" fill-opacity="0.855" d="M 26.000 12.000 L 27.000 12.000 L 27.000 13.000 L 26.000 13.000 Z" fill-rule="evenodd"/>
<path fill="#3FA535" fill-opacity="0.859" d="M 12.000 20.000 L 13.000 20.000 L 13.000 21.000 L 12.000 21.000 Z" fill-rule="evenodd"/>
<path fill="#F28B00" fill-opacity="0.859" d="M 28.000 11.000 L 29.000 11.000 L 29.000 12.000 L 28.000 12.000 Z" fill-rule="evenodd"/>
<path fill="#F28C00" fill-opacity="0.859" d="M 12.000 6.000 L 13.000 6.000 L 13.000 7.000 L 12.000 7.000 Z" fill-rule="evenodd"/>
<path fill="#3FA535" fill-opacity="0.871" d="M 14.000 21.000 L 15.000 21.000 L 15.000 22.000 L 14.000 22.000 Z" fill-rule="evenodd"/>
<path fill="#F28C00" fill-opacity="0.871" d="M 10.000 7.000 L 11.000 7.000 L 11.000 8.000 L 10.000 8.000 Z M 15.000 17.000 L 16.000 17.000 L 16.000 18.000 L 15.000 18.000 Z" fill-rule="evenodd"/>
<path fill="#F8C379" fill-opacity="0.871" d="M 18.000 16.000 L 19.000 16.000 L 19.000 17.000 L 18.000 17.000 Z" fill-rule="evenodd"/>
<path fill="#3FA535" fill-opacity="0.878" d="M 23.000 18.000 L 24.000 18.000 L 24.000 19.000 L 23.000 19.000 Z" fill-rule="evenodd"/>
<path fill="#F28C00" fill-opacity="0.878" d="M 13.000 16.000 L 14.000 16.000 L 14.000 17.000 L 13.000 17.000 Z" fill-rule="evenodd"/>
<path fill="#F2900A" fill-opacity="0.878" d="M 8.000 8.000 L 9.000 8.000 L 9.000 9.000 L 8.000 9.000 Z" fill-rule="evenodd"/>
<path fill="#3FA535" fill-opacity="0.882" d="M 25.000 17.000 L 26.000 17.000 L 26.000 18.000 L 25.000 18.000 Z" fill-rule="evenodd"/>
<path fill="#F28C00" fill-opacity="0.882" d="M 11.000 15.000 L 12.000 15.000 L 12.000 16.000 L 11.000 16.000 Z" fill-rule="evenodd"/>
<path fill="#F28C00" fill-opacity="0.886" d="M 9.000 14.000 L 10.000 14.000 L 10.000 15.000 L 9.000 15.000 Z" fill-rule="evenodd"/>
<path fill="#F38C00" fill-opacity="0.886" d="M 7.000 13.000 L 8.000 13.000 L 8.000 14.000 L 7.000 14.000 Z" fill-rule="evenodd"/>
<path fill="#F9CD8F" fill-opacity="0.886" d="M 6.000 9.000 L 7.000 9.000 L 7.000 10.000 L 6.000 10.000 Z" fill-rule="evenodd"/>
<path fill="#3FA535" fill-opacity="0.890" d="M 21.000 19.000 L 22.000 19.000 L 22.000 20.000 L 21.000 20.000 Z" fill-rule="evenodd"/>
<path fill="#F28C00" fill-opacity="0.890" d="M 5.000 12.000 L 6.000 12.000 L 6.000 13.000 L 5.000 13.000 Z" fill-rule="evenodd"/>
<path fill="#3FA535" fill-opacity="0.902" d="M 19.000 20.000 L 20.000 20.000 L 20.000 21.000 L 19.000 21.000 Z" fill-rule="evenodd"/>
<path fill="#F28C00" fill-opacity="0.906" d="M 3.000 11.000 L 4.000 11.000 L 4.000 12.000 L 3.000 12.000 Z" fill-rule="evenodd"/>
<path fill="#3FA535" fill-opacity="0.910" d="M 17.000 22.000 L 18.000 22.000 L 18.000 23.000 L 17.000 23.000 Z" fill-rule="evenodd"/>
<path fill="#3FA535" fill-opacity="0.914" d="M 17.000 21.000 L 18.000 21.000 L 18.000 22.000 L 17.000 22.000 Z M 19.000 21.000 L 20.000 21.000 L 20.000 22.000 L 19.000 22.000 Z" fill-rule="evenodd"/>
<path fill="#F8C57D" fill-opacity="0.918" d="M 17.000 5.000 L 18.000 5.000 L 18.000 6.000 L 17.000 6.000 Z" fill-rule="evenodd"/>
<path fill="#3FA535" fill-opacity="0.922" d="M 23.000 19.000 L 24.000 19.000 L 24.000 20.000 L 23.000 20.000 Z M 21.000 20.000 L 22.000 20.000 L 22.000 21.000 L 21.000 21.000 Z" fill-rule="evenodd"/>
<path fill="#3FA535" fill-opacity="0.925" d="M 27.000 17.000 L 28.000 17.000 L 28.000 18.000 L 27.000 18.000 Z" fill-rule="evenodd"/>
<path fill="#3FA535" fill-opacity="0.929" d="M 25.000 18.000 L 26.000 18.000 L 26.000 19.000 L 25.000 19.000 Z" fill-rule="evenodd"/>
<path fill="#60BCD3" fill-opacity="0.929" d="M 28.000 22.000 L 29.000 22.000 L 29.000 23.000 L 28.000 23.000 Z" fill-rule="evenodd"/>
<path fill="#3FA535" fill-opacity="0.945" d="M 14.000 22.000 L 15.000 22.000 L 15.000 23.000 L 14.000 23.000 Z" fill-rule="evenodd"/>
<path fill="#F3981B" fill-opacity="0.945" d="M 27.000 10.000 L 28.000 10.000 L 28.000 11.000 L 27.000 11.000 Z" fill-rule="evenodd"/>
<path fill="#3FA535" fill-opacity="0.949" d="M 12.000 21.000 L 13.000 21.000 L 13.000 22.000 L 12.000 22.000 Z" fill-rule="evenodd"/>
<path fill="#3FA535" fill-opacity="0.953" d="M 4.000 17.000 L 5.000 17.000 L 5.000 18.000 L 4.000 18.000 Z M 10.000 20.000 L 11.000 20.000 L 11.000 21.000 L 10.000 21.000 Z" fill-rule="evenodd"/>
<path fill="#F39413" fill-opacity="0.953" d="M 4.000 10.000 L 5.000 10.000 L 5.000 11.000 L 4.000 11.000 Z" fill-rule="evenodd"/>
<path fill="#3FA535" fill-opacity="0.957" d="M 8.000 19.000 L 9.000 19.000 L 9.000 20.000 L 8.000 20.000 Z" fill-rule="evenodd"/>
<path fill="#3FA535" fill-opacity="0.961" d="M 6.000 15.000 L 7.000 15.000 L 7.000 16.000 L 6.000 16.000 Z M 6.000 18.000 L 7.000 18.000 L 7.000 19.000 L 6.000 19.000 Z" fill-rule="evenodd"/>
<path fill="#60BCD3" fill-opacity="0.961" d="M 3.000 22.000 L 4.000 22.000 L 4.000 23.000 L 3.000 23.000 Z M 16.000 28.000 L 17.000 28.000 L 17.000 29.000 L 16.000 29.000 Z" fill-rule="evenodd"/>
<path fill="#60BCD3" fill-opacity="0.965" d="M 18.000 27.000 L 19.000 27.000 L 19.000 28.000 L 18.000 28.000 Z" fill-rule="evenodd"/>
<path fill="#60BCD3" fill-opacity="0.969" d="M 26.000 21.000 L 27.000 21.000 L 27.000 22.000 L 26.000 22.000 Z M 26.000 23.000 L 27.000 23.000 L 27.000 24.000 L 26.000 24.000 Z M 20.000 26.000 L 21.000 26.000 L 21.000 27.000 L 20.000 27.000 Z" fill-rule="evenodd"/>
<path fill="#60BCD3" fill-opacity="0.973" d="M 6.000 21.000 L 7.000 21.000 L 7.000 22.000 L 6.000 22.000 Z M 6.000 23.000 L 7.000 23.000 L 7.000 24.000 L 6.000 24.000 Z M 22.000 25.000 L 23.000 25.000 L 23.000 26.000 L 22.000 26.000 Z" fill-rule="evenodd"/>
<path fill="#3FA535" fill-opacity="0.976" d="M 25.000 15.000 L 26.000 15.000 L 26.000 16.000 L 25.000 16.000 Z" fill-rule="evenodd"/>
<path fill="#60BCD3" fill-opacity="0.976" d="M 24.000 24.000 L 25.000 24.000 L 25.000 25.000 L 24.000 25.000 Z" fill-rule="evenodd"/>
<path fill="#60BCD3" fill-opacity="0.980" d="M 5.000 23.000 L 6.000 23.000 L 6.000 24.000 L 5.000 24.000 Z M 15.000 28.000 L 16.000 28.000 L 16.000 29.000 L 15.000 29.000 Z" fill-rule="evenodd"/>
<path fill="#60BCD3" fill-opacity="0.984" d="M 5.000 21.000 L 6.000 21.000 L 6.000 22.000 L 5.000 22.000 Z M 13.000 27.000 L 14.000 27.000 L 14.000 28.000 L 13.000 28.000 Z" fill-rule="evenodd"/>
<path fill="#60BCD3" fill-opacity="0.988" d="M 25.000 23.000 L 26.000 23.000 L 26.000 24.000 L 25.000 24.000 Z M 9.000 25.000 L 10.000 25.000 L 10.000 26.000 L 9.000 26.000 Z M 11.000 26.000 L 12.000 26.000 L 12.000 27.000 L 11.000 27.000 Z" fill-rule="evenodd"/>
<path fill="#60BCD3" fill-opacity="0.992" d="M 25.000 21.000 L 26.000 21.000 L 26.000 22.000 L 25.000 22.000 Z M 7.000 24.000 L 8.000 24.000 L 8.000 25.000 L 7.000 25.000 Z" fill-rule="evenodd"/>
<path fill="#F28C00" fill-opacity="0.992" d="M 16.000 5.000 L 17.000 5.000 L 17.000 6.000 L 16.000 6.000 Z" fill-rule="evenodd"/>
<path fill="#F4A12E" fill-opacity="0.992" d="M 18.000 6.000 L 19.000 6.000 L 19.000 7.000 L 18.000 7.000 Z" fill-rule="evenodd"/>
<path fill="#3FA535" fill-opacity="0.996" d="M 27.000 16.000 L 28.000 16.000 L 28.000 17.000 L 27.000 17.000 Z" fill-rule="evenodd"/>
<path fill="#60BCD3" fill-opacity="0.996" d="M 8.000 24.000 L 9.000 24.000 L 9.000 25.000 L 8.000 25.000 Z" fill-rule="evenodd"/>
<path fill="#3FA535" d="M 4.000 16.000 L 6.000 16.000 L 6.000 17.000 L 4.000 17.000 Z M 26.000 16.000 L 27.000 16.000 L 27.000 17.000 L 26.000 17.000 Z M 5.000 17.000 L 6.000 17.000 L 6.000 18.000 L 5.000 18.000 Z M 26.000 17.000 L 27.000 17.000 L 27.000 18.000 L 26.000 18.000 Z M 7.000 18.000 L 8.000 18.000 L 8.000 19.000 L 7.000 19.000 Z M 24.000 18.000 L 25.000 18.000 L 25.000 19.000 L 24.000 19.000 Z M 9.000 19.000 L 10.000 19.000 L 10.000 20.000 L 9.000 20.000 Z M 22.000 19.000 L 23.000 19.000 L 23.000 20.000 L 22.000 20.000 Z M 11.000 20.000 L 12.000 20.000 L 12.000 21.000 L 11.000 21.000 Z M 20.000 20.000 L 21.000 20.000 L 21.000 21.000 L 20.000 21.000 Z M 13.000 21.000 L 14.000 21.000 L 14.000 22.000 L 13.000 22.000 Z M 18.000 21.000 L 19.000 21.000 L 19.000 22.000 L 18.000 22.000 Z M 15.000 22.000 L 17.000 22.000 L 17.000 23.000 L 15.000 23.000 Z" fill-rule="evenodd"/>
<path fill="#60BCD3" d="M 4.000 22.000 L 6.000 22.000 L 6.000 23.000 L 4.000 23.000 Z M 26.000 22.000 L 28.000 22.000 L 28.000 23.000 L 26.000 23.000 Z M 23.000 24.000 L 24.000 24.000 L 24.000 25.000 L 23.000 25.000 Z M 10.000 25.000 L 11.000 25.000 L 11.000 26.000 L 10.000 26.000 Z M 21.000 25.000 L 22.000 25.000 L 22.000 26.000 L 21.000 26.000 Z M 12.000 26.000 L 13.000 26.000 L 13.000 27.000 L 12.000 27.000 Z M 19.000 26.000 L 20.000 26.000 L 20.000 27.000 L 19.000 27.000 Z M 14.000 27.000 L 15.000 27.000 L 15.000 28.000 L 14.000 28.000 Z M 17.000 27.000 L 18.000 27.000 L 18.000 28.000 L 17.000 28.000 Z" fill-rule="evenodd"/>
<path fill="#F28900" d="M 16.000 7.000 L 17.000 7.000 L 17.000 8.000 L 16.000 8.000 Z M 19.000 7.000 L 20.000 7.000 L 20.000 8.000 L 19.000 8.000 Z M 16.000 12.000 L 17.000 12.000 L 17.000 13.000 L 16.000 13.000 Z M 19.000 12.000 L 20.000 12.000 L 20.000 13.000 L 19.000 13.000 Z" fill-rule="evenodd"/>
<path fill="#F28A00" d="M 16.000 13.000 L 17.000 13.000 L 17.000 14.000 L 16.000 14.000 Z M 19.000 13.000 L 20.000 13.000 L 20.000 14.000 L 19.000 14.000 Z M 16.000 14.000 L 17.000 14.000 L 17.000 15.000 L 16.000 15.000 Z M 19.000 14.000 L 20.000 14.000 L 20.000 15.000 L 19.000 15.000 Z M 16.000 15.000 L 17.000 15.000 L 17.000 16.000 L 16.000 16.000 Z M 19.000 15.000 L 20.000 15.000 L 20.000 16.000 L 19.000 16.000 Z" fill-rule="evenodd"/>
<path fill="#F28B00" d="M 16.000 6.000 L 17.000 6.000 L 17.000 7.000 L 16.000 7.000 Z M 15.000 7.000 L 16.000 7.000 L 16.000 8.000 L 15.000 8.000 Z M 20.000 7.000 L 21.000 7.000 L 21.000 8.000 L 20.000 8.000 Z M 14.000 11.000 L 15.000 11.000 L 15.000 12.000 L 14.000 12.000 Z M 21.000 11.000 L 28.000 11.000 L 28.000 12.000 L 21.000 12.000 Z M 16.000 16.000 L 17.000 16.000 L 17.000 17.000 L 16.000 17.000 Z" fill-rule="evenodd"/>
<path fill="#F28C00" d="M 15.000 5.000 L 16.000 5.000 L 16.000 6.000 L 15.000 6.000 Z M 13.000 6.000 L 16.000 6.000 L 16.000 7.000 L 13.000 7.000 Z M 11.000 7.000 L 15.000 7.000 L 15.000 8.000 L 11.000 8.000 Z M 4.000 11.000 L 14.000 11.000 L 14.000 12.000 L 4.000 12.000 Z M 20.000 11.000 L 21.000 11.000 L 21.000 12.000 L 20.000 12.000 Z M 6.000 12.000 L 16.000 12.000 L 16.000 13.000 L 6.000 13.000 Z M 20.000 12.000 L 26.000 12.000 L 26.000 13.000 L 20.000 13.000 Z M 8.000 13.000 L 16.000 13.000 L 16.000 14.000 L 8.000 14.000 Z M 20.000 13.000 L 24.000 13.000 L 24.000 14.000 L 20.000 14.000 Z M 10.000 14.000 L 16.000 14.000 L 16.000 15.000 L 10.000 15.000 Z M 20.000 14.000 L 22.000 14.000 L 22.000 15.000 L 20.000 15.000 Z M 12.000 15.000 L 16.000 15.000 L 16.000 16.000 L 12.000 16.000 Z M 14.000 16.000 L 16.000 16.000 L 16.000 17.000 L 14.000 17.000 Z" fill-rule="evenodd"/>
<path fill="#F28E05" d="M 21.000 8.000 L 23.000 8.000 L 23.000 9.000 L 21.000 9.000 Z" fill-rule="evenodd"/>
<path fill="#F28F07" d="M 13.000 8.000 L 15.000 8.000 L 15.000 9.000 L 13.000 9.000 Z" fill-rule="evenodd"/>
<path fill="#F28F08" d="M 12.000 8.000 L 13.000 8.000 L 13.000 9.000 L 12.000 9.000 Z" fill-rule="evenodd"/>
<path fill="#F29008" d="M 9.000 8.000 L 12.000 8.000 L 12.000 9.000 L 9.000 9.000 Z M 15.000 11.000 L 16.000 11.000 L 16.000 12.000 L 15.000 12.000 Z" fill-rule="evenodd"/>
<path fill="#F39412" d="M 5.000 10.000 L 8.000 10.000 L 8.000 11.000 L 5.000 11.000 Z" fill-rule="evenodd"/>
<path fill="#F39413" d="M 8.000 10.000 L 9.000 10.000 L 9.000 11.000 L 8.000 11.000 Z" fill-rule="evenodd"/>
<path fill="#F39513" d="M 9.000 10.000 L 11.000 10.000 L 11.000 11.000 L 9.000 11.000 Z" fill-rule="evenodd"/>
<path fill="#F39514" d="M 20.000 8.000 L 21.000 8.000 L 21.000 9.000 L 20.000 9.000 Z M 11.000 10.000 L 14.000 10.000 L 14.000 11.000 L 11.000 11.000 Z" fill-rule="evenodd"/>
<path fill="#F39616" d="M 21.000 10.000 L 22.000 10.000 L 22.000 11.000 L 21.000 11.000 Z" fill-rule="evenodd"/>
<path fill="#F39718" d="M 22.000 10.000 L 26.000 10.000 L 26.000 11.000 L 22.000 11.000 Z" fill-rule="evenodd"/>
<path fill="#F39719" d="M 26.000 10.000 L 27.000 10.000 L 27.000 11.000 L 26.000 11.000 Z" fill-rule="evenodd"/>
<path fill="#F3991C" d="M 19.000 11.000 L 20.000 11.000 L 20.000 12.000 L 19.000 12.000 Z" fill-rule="evenodd"/>
<path fill="#F49B20" d="M 14.000 10.000 L 15.000 10.000 L 15.000 11.000 L 14.000 11.000 Z" fill-rule="evenodd"/>
<path fill="#F4A12E" d="M 15.000 8.000 L 16.000 8.000 L 16.000 9.000 L 15.000 9.000 Z" fill-rule="evenodd"/>
<path fill="#F4A12F" d="M 16.000 11.000 L 17.000 11.000 L 17.000 12.000 L 16.000 12.000 Z" fill-rule="evenodd"/>
<path fill="#F5A333" d="M 18.000 7.000 L 19.000 7.000 L 19.000 8.000 L 18.000 8.000 Z" fill-rule="evenodd"/>
<path fill="#F5A334" d="M 17.000 16.000 L 18.000 16.000 L 18.000 17.000 L 17.000 17.000 Z" fill-rule="evenodd"/>
<path fill="#F5A73B" d="M 17.000 15.000 L 18.000 15.000 L 18.000 16.000 L 17.000 16.000 Z" fill-rule="evenodd"/>
<path fill="#F5A941" d="M 17.000 14.000 L 18.000 14.000 L 18.000 15.000 L 17.000 15.000 Z" fill-rule="evenodd"/>
<path fill="#F6AC47" d="M 17.000 13.000 L 18.000 13.000 L 18.000 14.000 L 17.000 14.000 Z" fill-rule="evenodd"/>
<path fill="#F6AE4B" d="M 17.000 12.000 L 18.000 12.000 L 18.000 13.000 L 17.000 13.000 Z" fill-rule="evenodd"/>
<path fill="#F6B050" d="M 18.000 12.000 L 19.000 12.000 L 19.000 13.000 L 18.000 13.000 Z" fill-rule="evenodd"/>
<path fill="#F7B459" d="M 18.000 13.000 L 19.000 13.000 L 19.000 14.000 L 18.000 14.000 Z" fill-rule="evenodd"/>
<path fill="#F7B65E" d="M 19.000 8.000 L 20.000 8.000 L 20.000 9.000 L 19.000 9.000 Z" fill-rule="evenodd"/>
<path fill="#F7B75F" d="M 18.000 14.000 L 19.000 14.000 L 19.000 15.000 L 18.000 15.000 Z" fill-rule="evenodd"/>
<path fill="#F7B862" d="M 20.000 10.000 L 21.000 10.000 L 21.000 11.000 L 20.000 11.000 Z" fill-rule="evenodd"/>
<path fill="#F7B964" d="M 18.000 15.000 L 19.000 15.000 L 19.000 16.000 L 18.000 16.000 Z" fill-rule="evenodd"/>
<path fill="#F7BC6A" d="M 17.000 7.000 L 18.000 7.000 L 18.000 8.000 L 17.000 8.000 Z" fill-rule="evenodd"/>
<path fill="#F8BE6E" d="M 17.000 6.000 L 18.000 6.000 L 18.000 7.000 L 17.000 7.000 Z" fill-rule="evenodd"/>
<path fill="#F8C37B" d="M 16.000 8.000 L 17.000 8.000 L 17.000 9.000 L 16.000 9.000 Z" fill-rule="evenodd"/>
<path fill="#F8C47B" d="M 18.000 11.000 L 19.000 11.000 L 19.000 12.000 L 18.000 12.000 Z" fill-rule="evenodd"/>
<path fill="#F8C47C" d="M 21.000 9.000 L 22.000 9.000 L 22.000 10.000 L 21.000 10.000 Z M 23.000 9.000 L 24.000 9.000 L 24.000 10.000 L 23.000 10.000 Z" fill-rule="evenodd"/>
<path fill="#F8C47D" d="M 22.000 9.000 L 23.000 9.000 L 23.000 10.000 L 22.000 10.000 Z M 24.000 9.000 L 25.000 9.000 L 25.000 10.000 L 24.000 10.000 Z" fill-rule="evenodd"/>
<path fill="#F8C57E" d="M 7.000 9.000 L 9.000 9.000 L 9.000 10.000 L 7.000 10.000 Z M 12.000 9.000 L 14.000 9.000 L 14.000 10.000 L 12.000 10.000 Z" fill-rule="evenodd"/>
<path fill="#F8C57F" d="M 9.000 9.000 L 12.000 9.000 L 12.000 10.000 L 9.000 10.000 Z" fill-rule="evenodd"/>
<path fill="#F9C885" d="M 17.000 11.000 L 18.000 11.000 L 18.000 12.000 L 17.000 12.000 Z" fill-rule="evenodd"/>
<path fill="#F9C987" d="M 14.000 9.000 L 15.000 9.000 L 15.000 10.000 L 14.000 10.000 Z" fill-rule="evenodd"/>
<path fill="#FAD49F" d="M 15.000 10.000 L 16.000 10.000 L 16.000 11.000 L 15.000 11.000 Z" fill-rule="evenodd"/>
<path fill="#FBD9AA" d="M 18.000 8.000 L 19.000 8.000 L 19.000 9.000 L 18.000 9.000 Z" fill-rule="evenodd"/>
<path fill="#FBDDB5" d="M 20.000 9.000 L 21.000 9.000 L 21.000 10.000 L 20.000 10.000 Z" fill-rule="evenodd"/>
<path fill="#FCE4C4" d="M 17.000 8.000 L 18.000 8.000 L 18.000 9.000 L 17.000 9.000 Z" fill-rule="evenodd"/>
<path fill="#FDEFDB" d="M 19.000 10.000 L 20.000 10.000 L 20.000 11.000 L 19.000 11.000 Z" fill-rule="evenodd"/>
<path fill="#FDF0DE" d="M 15.000 9.000 L 16.000 9.000 L 16.000 10.000 L 15.000 10.000 Z" fill-rule="evenodd"/>
<path fill="#FEF7EE" d="M 16.000 10.000 L 17.000 10.000 L 17.000 11.000 L 16.000 11.000 Z" fill-rule="evenodd"/>
<path fill="#FFFCF9" d="M 18.000 10.000 L 19.000 10.000 L 19.000 11.000 L 18.000 11.000 Z" fill-rule="evenodd"/>
<path fill="#FFFEFC" d="M 17.000 10.000 L 18.000 10.000 L 18.000 11.000 L 17.000 11.000 Z" fill-rule="evenodd"/>
<path fill="#FFFFFF" d="M 16.000 9.000 L 20.000 9.000 L 20.000 10.000 L 16.000 10.000 Z" fill-rule="evenodd"/>
</svg>