<?xml version="1.0" encoding="UTF-8"?>
<svg xmlns="http://www.w3.org/2000/svg" viewBox="0 0 48 48" width="48" height="48">
  <polyline points="5,11 17,28 29,19 43,34" fill="none" stroke="#60bcd3" stroke-width="5" stroke-linecap="round" stroke-linejoin="round"/>
  <circle cx="5" cy="11" r="4" fill="#60bcd3"/>
  <circle cx="17" cy="28" r="5.5" fill="#e15554"/>
  <circle cx="29" cy="19" r="5.5" fill="#7fa828"/>
  <circle cx="39" cy="40" r="8" fill="#7fa828"/>
  <line x1="39" y1="34" x2="39" y2="37" stroke="white" stroke-width="1.5" stroke-linecap="round"/>
  <polyline points="37,36 39,34 41,36" fill="none" stroke="white" stroke-width="1.5" stroke-linecap="round" stroke-linejoin="round"/>
  <line x1="39" y1="43" x2="39" y2="46" stroke="white" stroke-width="1.5" stroke-linecap="round"/>
  <polyline points="37,44 39,46 41,44" fill="none" stroke="white" stroke-width="1.5" stroke-linecap="round" stroke-linejoin="round"/>
  <line x1="33" y1="40" x2="36" y2="40" stroke="white" stroke-width="1.5" stroke-linecap="round"/>
  <polyline points="35,38 33,40 35,42" fill="none" stroke="white" stroke-width="1.5" stroke-linecap="round" stroke-linejoin="round"/>
  <line x1="42" y1="40" x2="45" y2="40" stroke="white" stroke-width="1.5" stroke-linecap="round"/>
  <polyline points="43,38 45,40 43,42" fill="none" stroke="white" stroke-width="1.5" stroke-linecap="round" stroke-linejoin="round"/>
</svg>
