<svg xmlns="http://www.w3.org/2000/svg" xmlns:xlink="http://www.w3.org/1999/xlink" viewBox="0,0,256,256" width="24px" height="24px" fill-rule="nonzero"><g fill="#000000" fill-rule="nonzero" stroke="none" stroke-width="1" stroke-linecap="butt" stroke-linejoin="miter" stroke-miterlimit="10" stroke-dasharray="" stroke-dashoffset="0" font-family="none" font-weight="none" font-size="none" text-anchor="none" style="mix-blend-mode: normal"><g transform="translate(256.07188,0.69374) rotate(90) scale(4,4)"><path d="M48.09766,3.45313c-1.03516,0 -2.07031,0.375 -2.82812,1.13281l-4.23828,4.24219c-0.78125,-0.78125 -2.05078,-0.78125 -2.82812,0l-5.65625,5.65625c-0.37891,0.37891 -0.58984,0.88281 -0.58984,1.41797c0,0.53125 0.21094,1.03516 0.58984,1.41016l0.04688,0.05078l-27.07812,27.03516c-0.50391,0.50391 -0.80859,1.17188 -0.86719,1.88281l-0.67578,8.39453l-0.70312,4.92188c-0.04687,0.3125 0.05859,0.625 0.28516,0.85156c0.1875,0.1875 0.44141,0.28906 0.70312,0.28906c0.05078,0 0.09766,0 0.14453,-0.00781l4.91797,-0.69922l8.44531,-0.625c0.71875,-0.05078 1.39063,-0.35937 1.89844,-0.86719l27.07813,-27.03906c0.37109,0.34766 0.84766,0.54297 1.35938,0.54297c0.53516,0 1.03516,-0.20703 1.41406,-0.58594l5.65625,-5.65625c0.78125,-0.78125 0.78125,-2.04687 0,-2.82812l4.24609,-4.24219c0.75391,-0.75781 1.16797,-1.76172 1.16797,-2.83203c0,-1.06641 -0.41406,-2.07422 -1.17187,-2.82812l-8.48437,-8.48437c-0.75391,-0.75781 -1.79297,-1.13281 -2.83203,-1.13281zM48.09766,5.43359c0.51953,0 1.03906,0.1875 1.41797,0.56641l8.48438,8.48438c0.37891,0.37891 0.58594,0.87891 0.58594,1.41406c0,0.53516 -0.20703,1.03906 -0.58594,1.41406l-4.24219,4.24609l-11.31641,-11.31641l4.24609,-4.24219c0.375,-0.37891 0.89453,-0.56641 1.41016,-0.56641zM39.61328,10.24219l0.71094,0.70703l12.72656,12.72656l0.70703,0.71094l-1.41406,1.41016c-0.39062,-0.39062 -1.02344,-0.39062 -1.41406,0l-1.41406,1.41797c-0.39062,0.39063 -0.39062,1.02344 0,1.41406l-1.41406,1.41406l-14.14453,-14.14453l1.41406,-1.41406c0.19531,0.19531 0.44922,0.29297 0.70703,0.29297c0.25781,0 0.51172,-0.09766 0.70703,-0.29297l1.41797,-1.41406c0.39063,-0.39062 0.39063,-1.02344 0,-1.41406zM41.03125,14.89844c-0.25781,0 -0.51172,0.09766 -0.70703,0.29297l-1.41797,1.41406c-0.39062,0.39063 -0.39062,1.02344 0,1.41406c0.19531,0.19531 0.45313,0.29297 0.70703,0.29297c0.25781,0 0.51563,-0.09766 0.71094,-0.29297l1.41016,-1.41406c0.39453,-0.39062 0.39453,-1.02344 0,-1.41406c-0.19531,-0.19531 -0.44922,-0.29297 -0.70312,-0.29297zM44.5625,18.4375c-0.25391,0 -0.50781,0.09375 -0.70312,0.29297l-1.41797,1.41016c-0.39062,0.39453 -0.39062,1.02344 0,1.41797c0.19531,0.19141 0.45313,0.28906 0.71094,0.28906c0.25391,0 0.51172,-0.09766 0.70703,-0.28906l1.41016,-1.41797c0.39453,-0.39062 0.39453,-1.01953 0,-1.41016c-0.19531,-0.19922 -0.44922,-0.29297 -0.70703,-0.29297zM34.01172,18.77734l11.3125,11.31641l-26.29687,26.25391l-0.95312,-4.76562l16.58984,-16.58984c0.39063,-0.39062 0.39063,-1.02344 0,-1.41406c-0.39062,-0.39062 -1.01953,-0.39062 -1.41406,0l-16.59375,16.59375l-2.35547,-0.47266l-0.47266,-2.35937l13.76563,-13.76172c0.39453,-0.39453 0.39453,-1.02344 0,-1.41797c-0.39062,-0.39062 -1.01953,-0.39062 -1.41016,0l-13.76562,13.76563l-4.66406,-0.92969zM48.10156,21.96875c-0.25781,0 -0.51172,0.09766 -0.70703,0.29688l-1.41406,1.41016c-0.39062,0.39453 -0.39062,1.02344 0,1.41797c0.19531,0.19141 0.44922,0.29297 0.70703,0.29297c0.25781,0 0.51172,-0.10156 0.70703,-0.29297l1.41406,-1.41797c0.39063,-0.39062 0.39063,-1.01953 0,-1.41016c-0.19531,-0.19922 -0.44922,-0.29687 -0.70703,-0.29687zM32.54688,26.21484c-0.25781,0 -0.51172,0.09766 -0.70703,0.28906l-2.82812,2.82813c-0.39453,0.39453 -0.39453,1.02344 0,1.41797c0.19141,0.19141 0.44922,0.29297 0.70703,0.29297c0.25391,0 0.51172,-0.10156 0.70313,-0.29297l2.82813,-2.82812c0.39453,-0.39453 0.39453,-1.02344 0,-1.41797c-0.19531,-0.19531 -0.44922,-0.29297 -0.70312,-0.28906zM6.60938,46.80469l5.28516,1.05469l0.57422,2.88672c0.08203,0.39453 0.39063,0.70313 0.78516,0.78125l2.88281,0.57813l1.06641,5.33594l-7.60937,0.55859l-3.59375,-3.58984z"></path></g></g></svg>