<svg xmlns="http://www.w3.org/2000/svg" viewBox="0 0 64 64">
<path fill="#00FF00" fill-opacity="0.004" d="M 34.000 22.000 L 35.000 22.000 L 35.000 23.000 L 34.000 23.000 Z M 25.000 23.000 L 26.000 23.000 L 26.000 24.000 L 25.000 24.000 Z M 36.000 42.000 L 37.000 42.000 L 37.000 43.000 L 36.000 43.000 Z" fill-rule="evenodd"/>
<path fill="#00FFFF" fill-opacity="0.004" d="M 24.000 2.000 L 25.000 2.000 L 25.000 3.000 L 24.000 3.000 Z M 14.000 4.000 L 15.000 4.000 L 15.000 5.000 L 14.000 5.000 Z M 54.000 9.000 L 55.000 9.000 L 55.000 10.000 L 54.000 10.000 Z M 7.000 10.000 L 8.000 10.000 L 8.000 11.000 L 7.000 11.000 Z M 59.000 14.000 L 60.000 14.000 L 60.000 15.000 L 59.000 15.000 Z M 48.000 29.000 L 49.000 29.000 L 49.000 30.000 L 48.000 30.000 Z M 13.000 39.000 L 14.000 39.000 L 14.000 40.000 L 13.000 40.000 Z M 4.000 49.000 L 5.000 49.000 L 5.000 50.000 L 4.000 50.000 Z M 16.000 52.000 L 17.000 52.000 L 17.000 53.000 L 16.000 53.000 Z M 56.000 53.000 L 57.000 53.000 L 57.000 54.000 L 56.000 54.000 Z M 49.000 59.000 L 50.000 59.000 L 50.000 60.000 L 49.000 60.000 Z" fill-rule="evenodd"/>
<path fill="#808000" fill-opacity="0.008" d="M 41.000 36.000 L 42.000 36.000 L 42.000 37.000 L 41.000 37.000 Z M 44.000 42.000 L 45.000 42.000 L 45.000 43.000 L 44.000 43.000 Z" fill-rule="evenodd"/>
<path fill="#8080FF" fill-opacity="0.008" d="M 24.000 0.000 L 25.000 0.000 L 25.000 1.000 L 24.000 1.000 Z M 10.000 7.000 L 11.000 7.000 L 11.000 8.000 L 10.000 8.000 Z M 56.000 10.000 L 57.000 10.000 L 57.000 11.000 L 56.000 11.000 Z M 21.000 12.000 L 22.000 12.000 L 22.000 13.000 L 21.000 13.000 Z M 7.000 53.000 L 8.000 53.000 L 8.000 54.000 L 7.000 54.000 Z M 40.000 56.000 L 41.000 56.000 L 41.000 57.000 L 40.000 57.000 Z M 53.000 56.000 L 54.000 56.000 L 54.000 57.000 L 53.000 57.000 Z" fill-rule="evenodd"/>
<path fill="#55AA00" fill-opacity="0.012" d="M 22.000 39.000 L 23.000 39.000 L 23.000 40.000 L 22.000 40.000 Z" fill-rule="evenodd"/>
<path fill="#55AAAA" fill-opacity="0.012" d="M 9.000 8.000 L 10.000 8.000 L 10.000 9.000 L 9.000 9.000 Z M 46.000 36.000 L 47.000 36.000 L 47.000 37.000 L 46.000 37.000 Z" fill-rule="evenodd"/>
<path fill="#40BFBF" fill-opacity="0.016" d="M 28.000 12.000 L 29.000 12.000 L 29.000 13.000 L 28.000 13.000 Z M 15.000 32.000 L 16.000 32.000 L 16.000 33.000 L 15.000 33.000 Z M 54.000 55.000 L 55.000 55.000 L 55.000 56.000 L 54.000 56.000 Z M 33.000 56.000 L 34.000 56.000 L 34.000 57.000 L 33.000 57.000 Z" fill-rule="evenodd"/>
<path fill="#80BF40" fill-opacity="0.016" d="M 41.000 29.000 L 42.000 29.000 L 42.000 30.000 L 41.000 30.000 Z" fill-rule="evenodd"/>
<path fill="#669933" fill-opacity="0.020" d="M 24.000 41.000 L 25.000 41.000 L 25.000 42.000 L 24.000 42.000 Z M 33.000 43.000 L 34.000 43.000 L 34.000 44.000 L 33.000 44.000 Z" fill-rule="evenodd"/>
<path fill="#66CCCC" fill-opacity="0.020" d="M 8.000 9.000 L 9.000 9.000 L 9.000 10.000 L 8.000 10.000 Z M 47.000 9.000 L 48.000 9.000 L 48.000 10.000 L 47.000 10.000 Z" fill-rule="evenodd"/>
<path fill="#55AAD5" fill-opacity="0.024" d="M 55.000 54.000 L 56.000 54.000 L 56.000 55.000 L 55.000 55.000 Z" fill-rule="evenodd"/>
<path fill="#80AA2B" fill-opacity="0.024" d="M 20.000 34.000 L 21.000 34.000 L 21.000 35.000 L 20.000 35.000 Z" fill-rule="evenodd"/>
<path fill="#6DB6DB" fill-opacity="0.027" d="M 31.000 2.000 L 32.000 2.000 L 32.000 3.000 L 31.000 3.000 Z M 9.000 52.000 L 10.000 52.000 L 10.000 53.000 L 9.000 53.000 Z" fill-rule="evenodd"/>
<path fill="#60BFDF" fill-opacity="0.031" d="M 55.000 9.000 L 56.000 9.000 L 56.000 10.000 L 55.000 10.000 Z M 17.000 25.000 L 18.000 25.000 L 18.000 26.000 L 17.000 26.000 Z M 35.000 49.000 L 36.000 49.000 L 36.000 50.000 L 35.000 50.000 Z" fill-rule="evenodd"/>
<path fill="#55C6C6" fill-opacity="0.035" d="M 47.000 3.000 L 48.000 3.000 L 48.000 4.000 L 47.000 4.000 Z" fill-rule="evenodd"/>
<path fill="#71AA1C" fill-opacity="0.035" d="M 34.000 34.000 L 35.000 34.000 L 35.000 35.000 L 34.000 35.000 Z M 33.000 35.000 L 34.000 35.000 L 34.000 36.000 L 33.000 36.000 Z" fill-rule="evenodd"/>
<path fill="#66B3CC" fill-opacity="0.039" d="M 23.000 5.000 L 24.000 5.000 L 24.000 6.000 L 23.000 6.000 Z M 16.000 60.000 L 17.000 60.000 L 17.000 61.000 L 16.000 61.000 Z" fill-rule="evenodd"/>
<path fill="#5DB9D1" fill-opacity="0.043" d="M 16.000 3.000 L 17.000 3.000 L 17.000 4.000 L 16.000 4.000 Z M 17.000 49.000 L 18.000 49.000 L 18.000 50.000 L 17.000 50.000 Z" fill-rule="evenodd"/>
<path fill="#74A22E" fill-opacity="0.043" d="M 20.000 31.000 L 21.000 31.000 L 21.000 32.000 L 20.000 32.000 Z M 36.000 38.000 L 37.000 38.000 L 37.000 39.000 L 36.000 39.000 Z" fill-rule="evenodd"/>
<path fill="#55BFD5" fill-opacity="0.047" d="M 45.000 2.000 L 46.000 2.000 L 46.000 3.000 L 45.000 3.000 Z M 49.000 26.000 L 50.000 26.000 L 50.000 27.000 L 49.000 27.000 Z" fill-rule="evenodd"/>
<path fill="#76B127" fill-opacity="0.051" d="M 37.000 37.000 L 38.000 37.000 L 38.000 38.000 L 37.000 38.000 Z" fill-rule="evenodd"/>
<path fill="#66BBCC" fill-opacity="0.059" d="M 39.000 0.000 L 40.000 0.000 L 40.000 1.000 L 39.000 1.000 Z M 18.000 2.000 L 19.000 2.000 L 19.000 3.000 L 18.000 3.000 Z M 41.000 53.000 L 42.000 53.000 L 42.000 54.000 L 41.000 54.000 Z M 47.000 60.000 L 48.000 60.000 L 48.000 61.000 L 47.000 61.000 Z" fill-rule="evenodd"/>
<path fill="#60BFCF" fill-opacity="0.063" d="M 45.000 61.000 L 46.000 61.000 L 46.000 62.000 L 45.000 62.000 Z" fill-rule="evenodd"/>
<path fill="#809F30" fill-opacity="0.063" d="M 36.000 23.000 L 37.000 23.000 L 37.000 24.000 L 36.000 24.000 Z" fill-rule="evenodd"/>
<path fill="#5AC3D2" fill-opacity="0.067" d="M 18.000 61.000 L 19.000 61.000 L 19.000 62.000 L 18.000 62.000 Z M 24.000 63.000 L 25.000 63.000 L 25.000 64.000 L 24.000 64.000 Z" fill-rule="evenodd"/>
<path fill="#78A52D" fill-opacity="0.067" d="M 23.000 40.000 L 24.000 40.000 L 24.000 41.000 L 23.000 41.000 Z" fill-rule="evenodd"/>
<path fill="#63B8D5" fill-opacity="0.071" d="M 29.000 9.000 L 30.000 9.000 L 30.000 10.000 L 29.000 10.000 Z M 63.000 24.000 L 64.000 24.000 L 64.000 25.000 L 63.000 25.000 Z M 47.000 33.000 L 48.000 33.000 L 48.000 34.000 L 47.000 34.000 Z M 32.000 59.000 L 33.000 59.000 L 33.000 60.000 L 32.000 60.000 Z" fill-rule="evenodd"/>
<path fill="#80AA2B" fill-opacity="0.071" d="M 22.000 26.000 L 23.000 26.000 L 23.000 27.000 L 22.000 27.000 Z M 40.000 27.000 L 41.000 27.000 L 41.000 28.000 L 40.000 28.000 Z" fill-rule="evenodd"/>
<path fill="#59BFD9" fill-opacity="0.078" d="M 46.000 12.000 L 47.000 12.000 L 47.000 13.000 L 46.000 13.000 Z" fill-rule="evenodd"/>
<path fill="#61B6CE" fill-opacity="0.082" d="M 0.000 39.000 L 1.000 39.000 L 1.000 40.000 L 0.000 40.000 Z M 15.000 56.000 L 16.000 56.000 L 16.000 57.000 L 15.000 57.000 Z M 39.000 63.000 L 40.000 63.000 L 40.000 64.000 L 39.000 64.000 Z" fill-rule="evenodd"/>
<path fill="#5DB9D1" fill-opacity="0.086" d="M 14.000 35.000 L 15.000 35.000 L 15.000 36.000 L 14.000 36.000 Z M 63.000 39.000 L 64.000 39.000 L 64.000 40.000 L 63.000 40.000 Z" fill-rule="evenodd"/>
<path fill="#64BCD3" fill-opacity="0.090" d="M 0.000 24.000 L 1.000 24.000 L 1.000 25.000 L 0.000 25.000 Z" fill-rule="evenodd"/>
<path fill="#80AA2B" fill-opacity="0.094" d="M 42.000 40.000 L 43.000 40.000 L 43.000 41.000 L 42.000 41.000 Z" fill-rule="evenodd"/>
<path fill="#5CB8D6" fill-opacity="0.098" d="M 53.000 13.000 L 54.000 13.000 L 54.000 14.000 L 53.000 14.000 Z" fill-rule="evenodd"/>
<path fill="#7AA329" fill-opacity="0.098" d="M 24.000 24.000 L 25.000 24.000 L 25.000 25.000 L 24.000 25.000 Z" fill-rule="evenodd"/>
<path fill="#62BAD8" fill-opacity="0.102" d="M 5.000 13.000 L 6.000 13.000 L 6.000 14.000 L 5.000 14.000 Z M 39.000 60.000 L 40.000 60.000 L 40.000 61.000 L 39.000 61.000 Z" fill-rule="evenodd"/>
<path fill="#80A727" fill-opacity="0.102" d="M 21.000 37.000 L 22.000 37.000 L 22.000 38.000 L 21.000 38.000 Z M 41.000 39.000 L 42.000 39.000 L 42.000 40.000 L 41.000 40.000 Z M 43.000 41.000 L 44.000 41.000 L 44.000 42.000 L 43.000 42.000 Z" fill-rule="evenodd"/>
<path fill="#7BAA26" fill-opacity="0.106" d="M 28.000 22.000 L 29.000 22.000 L 29.000 23.000 L 28.000 23.000 Z M 29.000 43.000 L 30.000 43.000 L 30.000 44.000 L 29.000 44.000 Z" fill-rule="evenodd"/>
<path fill="#5BBFD1" fill-opacity="0.110" d="M 22.000 8.000 L 23.000 8.000 L 23.000 9.000 L 22.000 9.000 Z M 45.000 40.000 L 46.000 40.000 L 46.000 41.000 L 45.000 41.000 Z" fill-rule="evenodd"/>
<path fill="#7BA72C" fill-opacity="0.114" d="M 38.000 43.000 L 39.000 43.000 L 39.000 44.000 L 38.000 44.000 Z" fill-rule="evenodd"/>
<path fill="#5EBBD5" fill-opacity="0.118" d="M 58.000 50.000 L 59.000 50.000 L 59.000 51.000 L 58.000 51.000 Z" fill-rule="evenodd"/>
<path fill="#80AA2B" fill-opacity="0.118" d="M 37.000 42.000 L 38.000 42.000 L 38.000 43.000 L 37.000 43.000 Z" fill-rule="evenodd"/>
<path fill="#63BDD6" fill-opacity="0.122" d="M 58.000 13.000 L 59.000 13.000 L 59.000 14.000 L 58.000 14.000 Z M 16.000 28.000 L 17.000 28.000 L 17.000 29.000 L 16.000 29.000 Z" fill-rule="evenodd"/>
<path fill="#7BA529" fill-opacity="0.122" d="M 20.000 33.000 L 21.000 33.000 L 21.000 34.000 L 20.000 34.000 Z M 39.000 44.000 L 40.000 44.000 L 40.000 45.000 L 39.000 45.000 Z M 40.000 45.000 L 41.000 45.000 L 41.000 46.000 L 40.000 46.000 Z" fill-rule="evenodd"/>
<path fill="#60BFCF" fill-opacity="0.125" d="M 13.000 5.000 L 14.000 5.000 L 14.000 6.000 L 13.000 6.000 Z M 34.000 52.000 L 35.000 52.000 L 35.000 53.000 L 34.000 53.000 Z" fill-rule="evenodd"/>
<path fill="#5DB9D1" fill-opacity="0.129" d="M 5.000 50.000 L 6.000 50.000 L 6.000 51.000 L 5.000 51.000 Z" fill-rule="evenodd"/>
<path fill="#83A227" fill-opacity="0.129" d="M 40.000 38.000 L 41.000 38.000 L 41.000 39.000 L 40.000 39.000 Z" fill-rule="evenodd"/>
<path fill="#80A526" fill-opacity="0.133" d="M 26.000 42.000 L 27.000 42.000 L 27.000 43.000 L 26.000 43.000 Z" fill-rule="evenodd"/>
<path fill="#5CBFD5" fill-opacity="0.141" d="M 50.000 58.000 L 51.000 58.000 L 51.000 59.000 L 50.000 59.000 Z" fill-rule="evenodd"/>
<path fill="#80AA2B" fill-opacity="0.141" d="M 20.000 32.000 L 21.000 32.000 L 21.000 33.000 L 20.000 33.000 Z" fill-rule="evenodd"/>
<path fill="#60BAD6" fill-opacity="0.145" d="M 48.000 5.000 L 49.000 5.000 L 49.000 6.000 L 48.000 6.000 Z" fill-rule="evenodd"/>
<path fill="#5EBCD0" fill-opacity="0.149" d="M 50.000 23.000 L 51.000 23.000 L 51.000 24.000 L 50.000 24.000 Z" fill-rule="evenodd"/>
<path fill="#5DBBD3" fill-opacity="0.161" d="M 42.000 1.000 L 43.000 1.000 L 43.000 2.000 L 42.000 2.000 Z M 42.000 50.000 L 43.000 50.000 L 43.000 51.000 L 42.000 51.000 Z" fill-rule="evenodd"/>
<path fill="#7CA825" fill-opacity="0.161" d="M 23.000 25.000 L 24.000 25.000 L 24.000 26.000 L 23.000 26.000 Z" fill-rule="evenodd"/>
<path fill="#5DB9D1" fill-opacity="0.173" d="M 30.000 6.000 L 31.000 6.000 L 31.000 7.000 L 30.000 7.000 Z M 31.000 62.000 L 32.000 62.000 L 32.000 63.000 L 31.000 63.000 Z" fill-rule="evenodd"/>
<path fill="#80A829" fill-opacity="0.173" d="M 32.000 43.000 L 33.000 43.000 L 33.000 44.000 L 32.000 44.000 Z" fill-rule="evenodd"/>
<path fill="#62BED4" fill-opacity="0.184" d="M 24.000 1.000 L 25.000 1.000 L 25.000 2.000 L 24.000 2.000 Z M 21.000 62.000 L 22.000 62.000 L 22.000 63.000 L 21.000 63.000 Z" fill-rule="evenodd"/>
<path fill="#7DA826" fill-opacity="0.184" d="M 21.000 28.000 L 22.000 28.000 L 22.000 29.000 L 21.000 29.000 Z" fill-rule="evenodd"/>
<path fill="#5EBBD5" fill-opacity="0.192" d="M 48.000 30.000 L 49.000 30.000 L 49.000 31.000 L 48.000 31.000 Z M 13.000 38.000 L 14.000 38.000 L 14.000 39.000 L 13.000 39.000 Z" fill-rule="evenodd"/>
<path fill="#61BDD1" fill-opacity="0.196" d="M 16.000 53.000 L 17.000 53.000 L 17.000 54.000 L 16.000 54.000 Z" fill-rule="evenodd"/>
<path fill="#80A829" fill-opacity="0.196" d="M 41.000 35.000 L 42.000 35.000 L 42.000 36.000 L 41.000 36.000 Z" fill-rule="evenodd"/>
<path fill="#7DA826" fill-opacity="0.208" d="M 33.000 22.000 L 34.000 22.000 L 34.000 23.000 L 33.000 23.000 Z" fill-rule="evenodd"/>
<path fill="#5EBDD5" fill-opacity="0.212" d="M 48.000 4.000 L 49.000 4.000 L 49.000 5.000 L 48.000 5.000 Z M 54.000 10.000 L 55.000 10.000 L 55.000 11.000 L 54.000 11.000 Z" fill-rule="evenodd"/>
<path fill="#80A526" fill-opacity="0.212" d="M 30.000 43.000 L 31.000 43.000 L 31.000 44.000 L 30.000 44.000 Z" fill-rule="evenodd"/>
<path fill="#5DBED5" fill-opacity="0.216" d="M 21.000 11.000 L 22.000 11.000 L 22.000 12.000 L 21.000 12.000 Z" fill-rule="evenodd"/>
<path fill="#60BBD1" fill-opacity="0.220" d="M 42.000 62.000 L 43.000 62.000 L 43.000 63.000 L 42.000 63.000 Z" fill-rule="evenodd"/>
<path fill="#5EBCD2" fill-opacity="0.224" d="M 21.000 1.000 L 22.000 1.000 L 22.000 2.000 L 21.000 2.000 Z M 40.000 57.000 L 41.000 57.000 L 41.000 58.000 L 40.000 58.000 Z" fill-rule="evenodd"/>
<path fill="#5FBAD4" fill-opacity="0.231" d="M 33.000 55.000 L 34.000 55.000 L 34.000 56.000 L 33.000 56.000 Z" fill-rule="evenodd"/>
<path fill="#5EBBD5" fill-opacity="0.235" d="M 15.000 31.000 L 16.000 31.000 L 16.000 32.000 L 15.000 32.000 Z M 46.000 37.000 L 47.000 37.000 L 47.000 38.000 L 46.000 38.000 Z" fill-rule="evenodd"/>
<path fill="#7DA628" fill-opacity="0.247" d="M 41.000 30.000 L 42.000 30.000 L 42.000 31.000 L 41.000 31.000 Z" fill-rule="evenodd"/>
<path fill="#60BBD3" fill-opacity="0.251" d="M 28.000 13.000 L 29.000 13.000 L 29.000 14.000 L 28.000 14.000 Z" fill-rule="evenodd"/>
<path fill="#80A728" fill-opacity="0.251" d="M 31.000 43.000 L 32.000 43.000 L 32.000 44.000 L 31.000 44.000 Z" fill-rule="evenodd"/>
<path fill="#5EBCD4" fill-opacity="0.255" d="M 47.000 8.000 L 48.000 8.000 L 48.000 9.000 L 47.000 9.000 Z" fill-rule="evenodd"/>
<path fill="#60BCD3" fill-opacity="0.271" d="M 9.000 51.000 L 10.000 51.000 L 10.000 52.000 L 9.000 52.000 Z" fill-rule="evenodd"/>
<path fill="#5FBDD3" fill-opacity="0.275" d="M 38.000 0.000 L 39.000 0.000 L 39.000 1.000 L 38.000 1.000 Z" fill-rule="evenodd"/>
<path fill="#5DBBD4" fill-opacity="0.278" d="M 63.000 25.000 L 64.000 25.000 L 64.000 26.000 L 63.000 26.000 Z" fill-rule="evenodd"/>
<path fill="#60BCD5" fill-opacity="0.282" d="M 31.000 3.000 L 32.000 3.000 L 32.000 4.000 L 31.000 4.000 Z M 17.000 24.000 L 18.000 24.000 L 18.000 25.000 L 17.000 25.000 Z" fill-rule="evenodd"/>
<path fill="#60BED2" fill-opacity="0.290" d="M 0.000 38.000 L 1.000 38.000 L 1.000 39.000 L 0.000 39.000 Z M 63.000 38.000 L 64.000 38.000 L 64.000 39.000 L 63.000 39.000 Z" fill-rule="evenodd"/>
<path fill="#5FBBD3" fill-opacity="0.294" d="M 23.000 4.000 L 24.000 4.000 L 24.000 5.000 L 23.000 5.000 Z" fill-rule="evenodd"/>
<path fill="#7EA729" fill-opacity="0.294" d="M 33.000 37.000 L 34.000 37.000 L 34.000 38.000 L 33.000 38.000 Z M 34.000 38.000 L 35.000 38.000 L 35.000 39.000 L 34.000 39.000 Z" fill-rule="evenodd"/>
<path fill="#5EBCD3" fill-opacity="0.298" d="M 25.000 63.000 L 26.000 63.000 L 26.000 64.000 L 25.000 64.000 Z" fill-rule="evenodd"/>
<path fill="#80A828" fill-opacity="0.298" d="M 35.000 42.000 L 36.000 42.000 L 36.000 43.000 L 35.000 43.000 Z" fill-rule="evenodd"/>
<path fill="#60BDD4" fill-opacity="0.302" d="M 0.000 25.000 L 1.000 25.000 L 1.000 26.000 L 0.000 26.000 Z" fill-rule="evenodd"/>
<path fill="#7EA628" fill-opacity="0.302" d="M 35.000 34.000 L 36.000 34.000 L 36.000 35.000 L 35.000 35.000 Z M 36.000 35.000 L 37.000 35.000 L 37.000 36.000 L 36.000 36.000 Z" fill-rule="evenodd"/>
<path fill="#80A727" fill-opacity="0.306" d="M 37.000 24.000 L 38.000 24.000 L 38.000 25.000 L 37.000 25.000 Z M 37.000 36.000 L 38.000 36.000 L 38.000 37.000 L 37.000 37.000 Z" fill-rule="evenodd"/>
<path fill="#5EBBD2" fill-opacity="0.310" d="M 12.000 41.000 L 13.000 41.000 L 13.000 42.000 L 12.000 42.000 Z" fill-rule="evenodd"/>
<path fill="#60BCD2" fill-opacity="0.314" d="M 20.000 14.000 L 21.000 14.000 L 21.000 15.000 L 20.000 15.000 Z M 17.000 50.000 L 18.000 50.000 L 18.000 51.000 L 17.000 51.000 Z" fill-rule="evenodd"/>
<path fill="#5EBDD3" fill-opacity="0.318" d="M 49.000 27.000 L 50.000 27.000 L 50.000 28.000 L 49.000 28.000 Z" fill-rule="evenodd"/>
<path fill="#60BBD3" fill-opacity="0.322" d="M 12.000 6.000 L 13.000 6.000 L 13.000 7.000 L 12.000 7.000 Z" fill-rule="evenodd"/>
<path fill="#80A828" fill-opacity="0.322" d="M 29.000 22.000 L 30.000 22.000 L 30.000 23.000 L 29.000 23.000 Z" fill-rule="evenodd"/>
<path fill="#5EBCD5" fill-opacity="0.329" d="M 6.000 12.000 L 7.000 12.000 L 7.000 13.000 L 6.000 13.000 Z M 57.000 51.000 L 58.000 51.000 L 58.000 52.000 L 57.000 52.000 Z M 51.000 57.000 L 52.000 57.000 L 52.000 58.000 L 51.000 58.000 Z" fill-rule="evenodd"/>
<path fill="#80A727" fill-opacity="0.329" d="M 26.000 23.000 L 27.000 23.000 L 27.000 24.000 L 26.000 24.000 Z M 32.000 36.000 L 33.000 36.000 L 33.000 37.000 L 32.000 37.000 Z" fill-rule="evenodd"/>
<path fill="#7EA827" fill-opacity="0.333" d="M 39.000 26.000 L 40.000 26.000 L 40.000 27.000 L 39.000 27.000 Z" fill-rule="evenodd"/>
<path fill="#5FBBD3" fill-opacity="0.337" d="M 41.000 54.000 L 42.000 54.000 L 42.000 55.000 L 41.000 55.000 Z" fill-rule="evenodd"/>
<path fill="#7DA627" fill-opacity="0.337" d="M 35.000 39.000 L 36.000 39.000 L 36.000 40.000 L 35.000 40.000 Z" fill-rule="evenodd"/>
<path fill="#5FBDD4" fill-opacity="0.349" d="M 57.000 12.000 L 58.000 12.000 L 58.000 13.000 L 57.000 13.000 Z M 32.000 58.000 L 33.000 58.000 L 33.000 59.000 L 32.000 59.000 Z" fill-rule="evenodd"/>
<path fill="#5FBCD2" fill-opacity="0.357" d="M 53.000 14.000 L 54.000 14.000 L 54.000 15.000 L 53.000 15.000 Z" fill-rule="evenodd"/>
<path fill="#7EA827" fill-opacity="0.357" d="M 41.000 45.000 L 42.000 45.000 L 42.000 46.000 L 41.000 46.000 Z" fill-rule="evenodd"/>
<path fill="#5EBCD3" fill-opacity="0.361" d="M 29.000 10.000 L 30.000 10.000 L 30.000 11.000 L 29.000 11.000 Z M 47.000 34.000 L 48.000 34.000 L 48.000 35.000 L 47.000 35.000 Z" fill-rule="evenodd"/>
<path fill="#60BDD3" fill-opacity="0.365" d="M 46.000 11.000 L 47.000 11.000 L 47.000 12.000 L 46.000 12.000 Z M 14.000 34.000 L 15.000 34.000 L 15.000 35.000 L 14.000 35.000 Z M 45.000 41.000 L 46.000 41.000 L 46.000 42.000 L 45.000 42.000 Z M 6.000 51.000 L 7.000 51.000 L 7.000 52.000 L 6.000 52.000 Z" fill-rule="evenodd"/>
<path fill="#7EA729" fill-opacity="0.365" d="M 32.000 22.000 L 33.000 22.000 L 33.000 23.000 L 32.000 23.000 Z" fill-rule="evenodd"/>
<path fill="#5EBCD4" fill-opacity="0.373" d="M 8.000 53.000 L 9.000 53.000 L 9.000 54.000 L 8.000 54.000 Z M 15.000 59.000 L 16.000 59.000 L 16.000 60.000 L 15.000 60.000 Z" fill-rule="evenodd"/>
<path fill="#60BDD2" fill-opacity="0.376" d="M 15.000 57.000 L 16.000 57.000 L 16.000 58.000 L 15.000 58.000 Z" fill-rule="evenodd"/>
<path fill="#60BBD3" fill-opacity="0.384" d="M 48.000 59.000 L 49.000 59.000 L 49.000 60.000 L 48.000 60.000 Z" fill-rule="evenodd"/>
<path fill="#5FBCD3" fill-opacity="0.388" d="M 32.000 0.000 L 33.000 0.000 L 33.000 1.000 L 32.000 1.000 Z" fill-rule="evenodd"/>
<path fill="#60BBD4" fill-opacity="0.396" d="M 15.000 4.000 L 16.000 4.000 L 16.000 5.000 L 15.000 5.000 Z" fill-rule="evenodd"/>
<path fill="#5FBCD2" fill-opacity="0.400" d="M 39.000 61.000 L 40.000 61.000 L 40.000 62.000 L 39.000 62.000 Z" fill-rule="evenodd"/>
<path fill="#5EBCD2" fill-opacity="0.404" d="M 22.000 7.000 L 23.000 7.000 L 23.000 8.000 L 22.000 8.000 Z M 16.000 27.000 L 17.000 27.000 L 17.000 28.000 L 16.000 28.000 Z" fill-rule="evenodd"/>
<path fill="#80A727" fill-opacity="0.408" d="M 41.000 34.000 L 42.000 34.000 L 42.000 35.000 L 41.000 35.000 Z" fill-rule="evenodd"/>
<path fill="#5FBBD3" fill-opacity="0.412" d="M 34.000 51.000 L 35.000 51.000 L 35.000 52.000 L 34.000 52.000 Z" fill-rule="evenodd"/>
<path fill="#7EA827" fill-opacity="0.412" d="M 43.000 43.000 L 44.000 43.000 L 44.000 44.000 L 43.000 44.000 Z" fill-rule="evenodd"/>
<path fill="#80A629" fill-opacity="0.416" d="M 41.000 31.000 L 42.000 31.000 L 42.000 32.000 L 41.000 32.000 Z" fill-rule="evenodd"/>
<path fill="#5EBDD2" fill-opacity="0.424" d="M 19.000 2.000 L 20.000 2.000 L 20.000 3.000 L 19.000 3.000 Z" fill-rule="evenodd"/>
<path fill="#60BBD3" fill-opacity="0.427" d="M 19.000 61.000 L 20.000 61.000 L 20.000 62.000 L 19.000 62.000 Z" fill-rule="evenodd"/>
<path fill="#7EA628" fill-opacity="0.427" d="M 30.000 22.000 L 31.000 22.000 L 31.000 23.000 L 30.000 23.000 Z" fill-rule="evenodd"/>
<path fill="#5FBCD3" fill-opacity="0.431" d="M 44.000 2.000 L 45.000 2.000 L 45.000 3.000 L 44.000 3.000 Z" fill-rule="evenodd"/>
<path fill="#80A727" fill-opacity="0.431" d="M 38.000 25.000 L 39.000 25.000 L 39.000 26.000 L 38.000 26.000 Z" fill-rule="evenodd"/>
<path fill="#60BDD4" fill-opacity="0.439" d="M 50.000 24.000 L 51.000 24.000 L 51.000 25.000 L 50.000 25.000 Z M 44.000 61.000 L 45.000 61.000 L 45.000 62.000 L 44.000 62.000 Z" fill-rule="evenodd"/>
<path fill="#7EA628" fill-opacity="0.451" d="M 31.000 22.000 L 32.000 22.000 L 32.000 23.000 L 31.000 23.000 Z M 40.000 37.000 L 41.000 37.000 L 41.000 38.000 L 40.000 38.000 Z" fill-rule="evenodd"/>
<path fill="#5FBDD3" fill-opacity="0.455" d="M 45.000 14.000 L 46.000 14.000 L 46.000 15.000 L 45.000 15.000 Z M 42.000 51.000 L 43.000 51.000 L 43.000 52.000 L 42.000 52.000 Z" fill-rule="evenodd"/>
<path fill="#5EBDD2" fill-opacity="0.467" d="M 17.000 3.000 L 18.000 3.000 L 18.000 4.000 L 17.000 4.000 Z M 46.000 3.000 L 47.000 3.000 L 47.000 4.000 L 46.000 4.000 Z M 17.000 60.000 L 18.000 60.000 L 18.000 61.000 L 17.000 61.000 Z M 31.000 61.000 L 32.000 61.000 L 32.000 62.000 L 31.000 62.000 Z" fill-rule="evenodd"/>
<path fill="#60BBD2" fill-opacity="0.471" d="M 30.000 7.000 L 31.000 7.000 L 31.000 8.000 L 30.000 8.000 Z" fill-rule="evenodd"/>
<path fill="#5EBCD3" fill-opacity="0.478" d="M 62.000 22.000 L 63.000 22.000 L 63.000 23.000 L 62.000 23.000 Z" fill-rule="evenodd"/>
<path fill="#5FBBD4" fill-opacity="0.486" d="M 63.000 26.000 L 64.000 26.000 L 64.000 27.000 L 63.000 27.000 Z M 48.000 31.000 L 49.000 31.000 L 49.000 32.000 L 48.000 32.000 Z M 13.000 37.000 L 14.000 37.000 L 14.000 38.000 L 13.000 38.000 Z M 1.000 41.000 L 2.000 41.000 L 2.000 42.000 L 1.000 42.000 Z" fill-rule="evenodd"/>
<path fill="#60BCD2" fill-opacity="0.490" d="M 0.000 37.000 L 1.000 37.000 L 1.000 38.000 L 0.000 38.000 Z M 16.000 54.000 L 17.000 54.000 L 17.000 55.000 L 16.000 55.000 Z" fill-rule="evenodd"/>
<path fill="#5FBCD2" fill-opacity="0.494" d="M 63.000 37.000 L 64.000 37.000 L 64.000 38.000 L 63.000 38.000 Z" fill-rule="evenodd"/>
<path fill="#5EBDD3" fill-opacity="0.498" d="M 37.000 0.000 L 38.000 0.000 L 38.000 1.000 L 37.000 1.000 Z M 28.000 14.000 L 29.000 14.000 L 29.000 15.000 L 28.000 15.000 Z M 1.000 22.000 L 2.000 22.000 L 2.000 23.000 L 1.000 23.000 Z" fill-rule="evenodd"/>
<path fill="#60BBD3" fill-opacity="0.502" d="M 7.000 11.000 L 8.000 11.000 L 8.000 12.000 L 7.000 12.000 Z M 0.000 26.000 L 1.000 26.000 L 1.000 27.000 L 0.000 27.000 Z M 62.000 41.000 L 63.000 41.000 L 63.000 42.000 L 62.000 42.000 Z M 56.000 52.000 L 57.000 52.000 L 57.000 53.000 L 56.000 53.000 Z" fill-rule="evenodd"/>
<path fill="#80A728" fill-opacity="0.502" d="M 21.000 36.000 L 22.000 36.000 L 22.000 37.000 L 21.000 37.000 Z" fill-rule="evenodd"/>
<path fill="#5FBCD4" fill-opacity="0.506" d="M 54.000 11.000 L 55.000 11.000 L 55.000 12.000 L 54.000 12.000 Z" fill-rule="evenodd"/>
<path fill="#7FA628" fill-opacity="0.506" d="M 22.000 38.000 L 23.000 38.000 L 23.000 39.000 L 22.000 39.000 Z" fill-rule="evenodd"/>
<path fill="#80A727" fill-opacity="0.510" d="M 41.000 33.000 L 42.000 33.000 L 42.000 34.000 L 41.000 34.000 Z" fill-rule="evenodd"/>
<path fill="#5FBDD2" fill-opacity="0.514" d="M 21.000 10.000 L 22.000 10.000 L 22.000 11.000 L 21.000 11.000 Z M 40.000 58.000 L 41.000 58.000 L 41.000 59.000 L 40.000 59.000 Z" fill-rule="evenodd"/>
<path fill="#5FBBD3" fill-opacity="0.518" d="M 41.000 1.000 L 42.000 1.000 L 42.000 2.000 L 41.000 2.000 Z" fill-rule="evenodd"/>
<path fill="#80A629" fill-opacity="0.518" d="M 41.000 32.000 L 42.000 32.000 L 42.000 33.000 L 41.000 33.000 Z M 42.000 44.000 L 43.000 44.000 L 43.000 45.000 L 42.000 45.000 Z" fill-rule="evenodd"/>
<path fill="#5FBCD3" fill-opacity="0.525" d="M 11.000 7.000 L 12.000 7.000 L 12.000 8.000 L 11.000 8.000 Z M 56.000 11.000 L 57.000 11.000 L 57.000 12.000 L 56.000 12.000 Z M 15.000 30.000 L 16.000 30.000 L 16.000 31.000 L 15.000 31.000 Z M 33.000 54.000 L 34.000 54.000 L 34.000 55.000 L 33.000 55.000 Z" fill-rule="evenodd"/>
<path fill="#80A728" fill-opacity="0.525" d="M 35.000 23.000 L 36.000 23.000 L 36.000 24.000 L 35.000 24.000 Z" fill-rule="evenodd"/>
<path fill="#5EBDD4" fill-opacity="0.529" d="M 22.000 1.000 L 23.000 1.000 L 23.000 2.000 L 22.000 2.000 Z M 46.000 38.000 L 47.000 38.000 L 47.000 39.000 L 46.000 39.000 Z M 52.000 56.000 L 53.000 56.000 L 53.000 57.000 L 52.000 57.000 Z M 26.000 63.000 L 27.000 63.000 L 27.000 64.000 L 26.000 64.000 Z" fill-rule="evenodd"/>
<path fill="#60BCD4" fill-opacity="0.533" d="M 7.000 52.000 L 8.000 52.000 L 8.000 53.000 L 7.000 53.000 Z M 46.000 60.000 L 47.000 60.000 L 47.000 61.000 L 46.000 61.000 Z" fill-rule="evenodd"/>
<path fill="#5EBCD3" fill-opacity="0.541" d="M 41.000 62.000 L 42.000 62.000 L 42.000 63.000 L 41.000 63.000 Z" fill-rule="evenodd"/>
<path fill="#80A629" fill-opacity="0.541" d="M 25.000 41.000 L 26.000 41.000 L 26.000 42.000 L 25.000 42.000 Z" fill-rule="evenodd"/>
<path fill="#5FBCD3" fill-opacity="0.549" d="M 47.000 7.000 L 48.000 7.000 L 48.000 8.000 L 47.000 8.000 Z" fill-rule="evenodd"/>
<path fill="#80A828" fill-opacity="0.549" d="M 40.000 28.000 L 41.000 28.000 L 41.000 29.000 L 40.000 29.000 Z" fill-rule="evenodd"/>
<path fill="#60BCD4" fill-opacity="0.553" d="M 22.000 62.000 L 23.000 62.000 L 23.000 63.000 L 22.000 63.000 Z" fill-rule="evenodd"/>
<path fill="#5FBDD2" fill-opacity="0.557" d="M 9.000 50.000 L 10.000 50.000 L 10.000 51.000 L 9.000 51.000 Z" fill-rule="evenodd"/>
<path fill="#5FBCD3" fill-opacity="0.569" d="M 17.000 23.000 L 18.000 23.000 L 18.000 24.000 L 17.000 24.000 Z" fill-rule="evenodd"/>
<path fill="#7FA728" fill-opacity="0.569" d="M 27.000 42.000 L 28.000 42.000 L 28.000 43.000 L 27.000 43.000 Z" fill-rule="evenodd"/>
<path fill="#5EBDD3" fill-opacity="0.573" d="M 31.000 4.000 L 32.000 4.000 L 32.000 5.000 L 31.000 5.000 Z" fill-rule="evenodd"/>
<path fill="#80A828" fill-opacity="0.573" d="M 21.000 29.000 L 22.000 29.000 L 22.000 30.000 L 21.000 30.000 Z" fill-rule="evenodd"/>
<path fill="#60BCD3" fill-opacity="0.584" d="M 23.000 3.000 L 24.000 3.000 L 24.000 4.000 L 23.000 4.000 Z" fill-rule="evenodd"/>
<path fill="#5FBCD3" fill-opacity="0.608" d="M 49.000 28.000 L 50.000 28.000 L 50.000 29.000 L 49.000 29.000 Z M 12.000 40.000 L 13.000 40.000 L 13.000 41.000 L 12.000 41.000 Z M 17.000 51.000 L 18.000 51.000 L 18.000 52.000 L 17.000 52.000 Z" fill-rule="evenodd"/>
<path fill="#5FBBD3" fill-opacity="0.620" d="M 20.000 13.000 L 21.000 13.000 L 21.000 14.000 L 20.000 14.000 Z" fill-rule="evenodd"/>
<path fill="#5FBCD3" fill-opacity="0.631" d="M 10.000 8.000 L 11.000 8.000 L 11.000 9.000 L 10.000 9.000 Z" fill-rule="evenodd"/>
<path fill="#5EBBD3" fill-opacity="0.635" d="M 41.000 55.000 L 42.000 55.000 L 42.000 56.000 L 41.000 56.000 Z" fill-rule="evenodd"/>
<path fill="#7FA729" fill-opacity="0.639" d="M 22.000 27.000 L 23.000 27.000 L 23.000 28.000 L 22.000 28.000 Z" fill-rule="evenodd"/>
<path fill="#5FBCD3" fill-opacity="0.643" d="M 8.000 10.000 L 9.000 10.000 L 9.000 11.000 L 8.000 11.000 Z M 63.000 27.000 L 64.000 27.000 L 64.000 28.000 L 63.000 28.000 Z M 32.000 57.000 L 33.000 57.000 L 33.000 58.000 L 32.000 58.000 Z" fill-rule="evenodd"/>
<path fill="#5EBDD4" fill-opacity="0.647" d="M 53.000 55.000 L 54.000 55.000 L 54.000 56.000 L 53.000 56.000 Z" fill-rule="evenodd"/>
<path fill="#5FBBD2" fill-opacity="0.651" d="M 14.000 33.000 L 15.000 33.000 L 15.000 34.000 L 14.000 34.000 Z M 63.000 36.000 L 64.000 36.000 L 64.000 37.000 L 63.000 37.000 Z" fill-rule="evenodd"/>
<path fill="#5FBCD3" fill-opacity="0.655" d="M 29.000 11.000 L 30.000 11.000 L 30.000 12.000 L 29.000 12.000 Z M 47.000 35.000 L 48.000 35.000 L 48.000 36.000 L 47.000 36.000 Z M 0.000 36.000 L 1.000 36.000 L 1.000 37.000 L 0.000 37.000 Z M 27.000 63.000 L 28.000 63.000 L 28.000 64.000 L 27.000 64.000 Z" fill-rule="evenodd"/>
<path fill="#60BCD3" fill-opacity="0.659" d="M 46.000 10.000 L 47.000 10.000 L 47.000 11.000 L 46.000 11.000 Z M 5.000 14.000 L 6.000 14.000 L 6.000 15.000 L 5.000 15.000 Z M 0.000 27.000 L 1.000 27.000 L 1.000 28.000 L 0.000 28.000 Z M 55.000 53.000 L 56.000 53.000 L 56.000 54.000 L 55.000 54.000 Z" fill-rule="evenodd"/>
<path fill="#5FBCD4" fill-opacity="0.667" d="M 55.000 10.000 L 56.000 10.000 L 56.000 11.000 L 55.000 11.000 Z" fill-rule="evenodd"/>
<path fill="#5FBCD2" fill-opacity="0.671" d="M 36.000 0.000 L 37.000 0.000 L 37.000 1.000 L 36.000 1.000 Z M 9.000 9.000 L 10.000 9.000 L 10.000 10.000 L 9.000 10.000 Z M 58.000 49.000 L 59.000 49.000 L 59.000 50.000 L 58.000 50.000 Z M 15.000 58.000 L 16.000 58.000 L 16.000 59.000 L 15.000 59.000 Z" fill-rule="evenodd"/>
<path fill="#5FBCD3" fill-opacity="0.675" d="M 54.000 54.000 L 55.000 54.000 L 55.000 55.000 L 54.000 55.000 Z" fill-rule="evenodd"/>
<path fill="#5FBCD3" fill-opacity="0.682" d="M 32.000 1.000 L 33.000 1.000 L 33.000 2.000 L 32.000 2.000 Z M 58.000 14.000 L 59.000 14.000 L 59.000 15.000 L 58.000 15.000 Z" fill-rule="evenodd"/>
<path fill="#60BCD4" fill-opacity="0.690" d="M 39.000 62.000 L 40.000 62.000 L 40.000 63.000 L 39.000 63.000 Z" fill-rule="evenodd"/>
<path fill="#5FBBD2" fill-opacity="0.694" d="M 16.000 26.000 L 17.000 26.000 L 17.000 27.000 L 16.000 27.000 Z" fill-rule="evenodd"/>
<path fill="#5FBCD3" fill-opacity="0.698" d="M 5.000 49.000 L 6.000 49.000 L 6.000 50.000 L 5.000 50.000 Z" fill-rule="evenodd"/>
<path fill="#5FBCD3" fill-opacity="0.702" d="M 22.000 6.000 L 23.000 6.000 L 23.000 7.000 L 22.000 7.000 Z" fill-rule="evenodd"/>
<path fill="#5FBCD3" fill-opacity="0.706" d="M 34.000 50.000 L 35.000 50.000 L 35.000 51.000 L 34.000 51.000 Z" fill-rule="evenodd"/>
<path fill="#80A728" fill-opacity="0.706" d="M 34.000 42.000 L 35.000 42.000 L 35.000 43.000 L 34.000 43.000 Z" fill-rule="evenodd"/>
<path fill="#80A729" fill-opacity="0.714" d="M 23.000 39.000 L 24.000 39.000 L 24.000 40.000 L 23.000 40.000 Z" fill-rule="evenodd"/>
<path fill="#7FA728" fill-opacity="0.725" d="M 33.000 34.000 L 34.000 34.000 L 34.000 35.000 L 33.000 35.000 Z M 32.000 35.000 L 33.000 35.000 L 33.000 36.000 L 32.000 36.000 Z" fill-rule="evenodd"/>
<path fill="#5FBCD3" fill-opacity="0.733" d="M 14.000 5.000 L 15.000 5.000 L 15.000 6.000 L 14.000 6.000 Z M 50.000 25.000 L 51.000 25.000 L 51.000 26.000 L 50.000 26.000 Z" fill-rule="evenodd"/>
<path fill="#80A727" fill-opacity="0.741" d="M 38.000 37.000 L 39.000 37.000 L 39.000 38.000 L 38.000 38.000 Z" fill-rule="evenodd"/>
<path fill="#5FBCD3" fill-opacity="0.745" d="M 49.000 58.000 L 50.000 58.000 L 50.000 59.000 L 49.000 59.000 Z" fill-rule="evenodd"/>
<path fill="#7FA728" fill-opacity="0.749" d="M 37.000 38.000 L 38.000 38.000 L 38.000 39.000 L 37.000 39.000 Z M 36.000 39.000 L 37.000 39.000 L 37.000 40.000 L 36.000 40.000 Z M 24.000 40.000 L 25.000 40.000 L 25.000 41.000 L 24.000 41.000 Z" fill-rule="evenodd"/>
<path fill="#60BDD3" fill-opacity="0.753" d="M 42.000 52.000 L 43.000 52.000 L 43.000 53.000 L 42.000 53.000 Z" fill-rule="evenodd"/>
<path fill="#5FBCD3" fill-opacity="0.757" d="M 31.000 60.000 L 32.000 60.000 L 32.000 61.000 L 31.000 61.000 Z" fill-rule="evenodd"/>
<path fill="#5FBCD4" fill-opacity="0.761" d="M 35.000 0.000 L 36.000 0.000 L 36.000 1.000 L 35.000 1.000 Z" fill-rule="evenodd"/>
<path fill="#5FBCD3" fill-opacity="0.765" d="M 30.000 8.000 L 31.000 8.000 L 31.000 9.000 L 30.000 9.000 Z M 63.000 28.000 L 64.000 28.000 L 64.000 29.000 L 63.000 29.000 Z M 28.000 63.000 L 29.000 63.000 L 29.000 64.000 L 28.000 64.000 Z" fill-rule="evenodd"/>
<path fill="#7FA627" fill-opacity="0.765" d="M 36.000 41.000 L 37.000 41.000 L 37.000 42.000 L 36.000 42.000 Z" fill-rule="evenodd"/>
<path fill="#7FA729" fill-opacity="0.765" d="M 25.000 24.000 L 26.000 24.000 L 26.000 25.000 L 25.000 25.000 Z" fill-rule="evenodd"/>
<path fill="#5FBBD3" fill-opacity="0.769" d="M 45.000 13.000 L 46.000 13.000 L 46.000 14.000 L 45.000 14.000 Z" fill-rule="evenodd"/>
<path fill="#5EBCD3" fill-opacity="0.773" d="M 63.000 35.000 L 64.000 35.000 L 64.000 36.000 L 63.000 36.000 Z" fill-rule="evenodd"/>
<path fill="#5FBCD3" fill-opacity="0.776" d="M 48.000 32.000 L 49.000 32.000 L 49.000 33.000 L 48.000 33.000 Z M 0.000 35.000 L 1.000 35.000 L 1.000 36.000 L 0.000 36.000 Z M 13.000 36.000 L 14.000 36.000 L 14.000 37.000 L 13.000 37.000 Z" fill-rule="evenodd"/>
<path fill="#5FBCD3" fill-opacity="0.780" d="M 0.000 28.000 L 1.000 28.000 L 1.000 29.000 L 0.000 29.000 Z" fill-rule="evenodd"/>
<path fill="#60BBD2" fill-opacity="0.784" d="M 16.000 55.000 L 17.000 55.000 L 17.000 56.000 L 16.000 56.000 Z" fill-rule="evenodd"/>
<path fill="#80A728" fill-opacity="0.784" d="M 27.000 23.000 L 28.000 23.000 L 28.000 24.000 L 27.000 24.000 Z" fill-rule="evenodd"/>
<path fill="#5FBCD3" fill-opacity="0.788" d="M 62.000 23.000 L 63.000 23.000 L 63.000 24.000 L 62.000 24.000 Z" fill-rule="evenodd"/>
<path fill="#5FBCD3" fill-opacity="0.792" d="M 9.000 49.000 L 10.000 49.000 L 10.000 50.000 L 9.000 50.000 Z" fill-rule="evenodd"/>
<path fill="#80A728" fill-opacity="0.792" d="M 34.000 33.000 L 35.000 33.000 L 35.000 34.000 L 34.000 34.000 Z" fill-rule="evenodd"/>
<path fill="#5FBCD3" fill-opacity="0.796" d="M 43.000 2.000 L 44.000 2.000 L 44.000 3.000 L 43.000 3.000 Z M 17.000 22.000 L 18.000 22.000 L 18.000 23.000 L 17.000 23.000 Z" fill-rule="evenodd"/>
<path fill="#5FBCD3" fill-opacity="0.800" d="M 54.000 12.000 L 55.000 12.000 L 55.000 13.000 L 54.000 13.000 Z M 1.000 40.000 L 2.000 40.000 L 2.000 41.000 L 1.000 41.000 Z" fill-rule="evenodd"/>
<path fill="#5FBCD2" fill-opacity="0.808" d="M 21.000 9.000 L 22.000 9.000 L 22.000 10.000 L 21.000 10.000 Z M 51.000 22.000 L 52.000 22.000 L 52.000 23.000 L 51.000 23.000 Z M 62.000 40.000 L 63.000 40.000 L 63.000 41.000 L 62.000 41.000 Z M 40.000 59.000 L 41.000 59.000 L 41.000 60.000 L 40.000 60.000 Z M 20.000 61.000 L 21.000 61.000 L 21.000 62.000 L 20.000 62.000 Z" fill-rule="evenodd"/>
<path fill="#5FBCD3" fill-opacity="0.812" d="M 1.000 23.000 L 2.000 23.000 L 2.000 24.000 L 1.000 24.000 Z" fill-rule="evenodd"/>
<path fill="#7FA827" fill-opacity="0.812" d="M 21.000 35.000 L 22.000 35.000 L 22.000 36.000 L 21.000 36.000 Z" fill-rule="evenodd"/>
<path fill="#5EBCD3" fill-opacity="0.816" d="M 43.000 49.000 L 44.000 49.000 L 44.000 50.000 L 43.000 50.000 Z" fill-rule="evenodd"/>
<path fill="#5FBCD3" fill-opacity="0.820" d="M 15.000 29.000 L 16.000 29.000 L 16.000 30.000 L 15.000 30.000 Z M 46.000 39.000 L 47.000 39.000 L 47.000 40.000 L 46.000 40.000 Z" fill-rule="evenodd"/>
<path fill="#7FA728" fill-opacity="0.820" d="M 43.000 42.000 L 44.000 42.000 L 44.000 43.000 L 43.000 43.000 Z" fill-rule="evenodd"/>
<path fill="#5FBCD3" fill-opacity="0.824" d="M 23.000 1.000 L 24.000 1.000 L 24.000 2.000 L 23.000 2.000 Z M 33.000 53.000 L 34.000 53.000 L 34.000 54.000 L 33.000 54.000 Z M 23.000 62.000 L 24.000 62.000 L 24.000 63.000 L 23.000 63.000 Z" fill-rule="evenodd"/>
<path fill="#5FBDD3" fill-opacity="0.827" d="M 40.000 1.000 L 41.000 1.000 L 41.000 2.000 L 40.000 2.000 Z M 40.000 62.000 L 41.000 62.000 L 41.000 63.000 L 40.000 63.000 Z" fill-rule="evenodd"/>
<path fill="#5FBCD2" fill-opacity="0.831" d="M 43.000 61.000 L 44.000 61.000 L 44.000 62.000 L 43.000 62.000 Z" fill-rule="evenodd"/>
<path fill="#5FBCD3" fill-opacity="0.835" d="M 20.000 2.000 L 21.000 2.000 L 21.000 3.000 L 20.000 3.000 Z" fill-rule="evenodd"/>
<path fill="#80A729" fill-opacity="0.839" d="M 41.000 40.000 L 42.000 40.000 L 42.000 41.000 L 41.000 41.000 Z" fill-rule="evenodd"/>
<path fill="#5FBDD3" fill-opacity="0.843" d="M 34.000 0.000 L 35.000 0.000 L 35.000 1.000 L 34.000 1.000 Z" fill-rule="evenodd"/>
<path fill="#5EBCD3" fill-opacity="0.847" d="M 47.000 6.000 L 48.000 6.000 L 48.000 7.000 L 47.000 7.000 Z" fill-rule="evenodd"/>
<path fill="#80A628" fill-opacity="0.847" d="M 40.000 39.000 L 41.000 39.000 L 41.000 40.000 L 40.000 40.000 Z M 42.000 41.000 L 43.000 41.000 L 43.000 42.000 L 42.000 42.000 Z" fill-rule="evenodd"/>
<path fill="#5FBCD4" fill-opacity="0.851" d="M 30.000 63.000 L 31.000 63.000 L 31.000 64.000 L 30.000 64.000 Z" fill-rule="evenodd"/>
<path fill="#80A728" fill-opacity="0.855" d="M 23.000 26.000 L 24.000 26.000 L 24.000 27.000 L 23.000 27.000 Z" fill-rule="evenodd"/>
<path fill="#80A729" fill-opacity="0.863" d="M 39.000 43.000 L 40.000 43.000 L 40.000 44.000 L 39.000 44.000 Z" fill-rule="evenodd"/>
<path fill="#7FA728" fill-opacity="0.867" d="M 37.000 41.000 L 38.000 41.000 L 38.000 42.000 L 37.000 42.000 Z" fill-rule="evenodd"/>
<path fill="#5FBCD3" fill-opacity="0.871" d="M 31.000 5.000 L 32.000 5.000 L 32.000 6.000 L 31.000 6.000 Z M 29.000 63.000 L 30.000 63.000 L 30.000 64.000 L 29.000 64.000 Z" fill-rule="evenodd"/>
<path fill="#80A728" fill-opacity="0.871" d="M 40.000 36.000 L 41.000 36.000 L 41.000 37.000 L 40.000 37.000 Z M 38.000 42.000 L 39.000 42.000 L 39.000 43.000 L 38.000 43.000 Z M 40.000 44.000 L 41.000 44.000 L 41.000 45.000 L 40.000 45.000 Z" fill-rule="evenodd"/>
<path fill="#7FA728" fill-opacity="0.875" d="M 21.000 30.000 L 22.000 30.000 L 22.000 31.000 L 21.000 31.000 Z" fill-rule="evenodd"/>
<path fill="#5EBCD3" fill-opacity="0.878" d="M 63.000 29.000 L 64.000 29.000 L 64.000 30.000 L 63.000 30.000 Z" fill-rule="evenodd"/>
<path fill="#80A728" fill-opacity="0.878" d="M 28.000 42.000 L 29.000 42.000 L 29.000 43.000 L 28.000 43.000 Z" fill-rule="evenodd"/>
<path fill="#5FBCD3" fill-opacity="0.882" d="M 63.000 34.000 L 64.000 34.000 L 64.000 35.000 L 63.000 35.000 Z" fill-rule="evenodd"/>
<path fill="#5FBCD3" fill-opacity="0.886" d="M 23.000 2.000 L 24.000 2.000 L 24.000 3.000 L 23.000 3.000 Z M 0.000 34.000 L 1.000 34.000 L 1.000 35.000 L 0.000 35.000 Z" fill-rule="evenodd"/>
<path fill="#5FBCD3" fill-opacity="0.890" d="M 0.000 29.000 L 1.000 29.000 L 1.000 30.000 L 0.000 30.000 Z" fill-rule="evenodd"/>
<path fill="#7FA728" fill-opacity="0.890" d="M 24.000 25.000 L 25.000 25.000 L 25.000 26.000 L 24.000 26.000 Z M 39.000 38.000 L 40.000 38.000 L 40.000 39.000 L 39.000 39.000 Z" fill-rule="evenodd"/>
<path fill="#5FBCD3" fill-opacity="0.894" d="M 47.000 4.000 L 48.000 4.000 L 48.000 5.000 L 47.000 5.000 Z M 49.000 29.000 L 50.000 29.000 L 50.000 30.000 L 49.000 30.000 Z M 17.000 52.000 L 18.000 52.000 L 18.000 53.000 L 17.000 53.000 Z M 16.000 59.000 L 17.000 59.000 L 17.000 60.000 L 16.000 60.000 Z" fill-rule="evenodd"/>
<path fill="#5FBCD2" fill-opacity="0.898" d="M 12.000 39.000 L 13.000 39.000 L 13.000 40.000 L 12.000 40.000 Z M 34.000 49.000 L 35.000 49.000 L 35.000 50.000 L 34.000 50.000 Z" fill-rule="evenodd"/>
<path fill="#7FA728" fill-opacity="0.898" d="M 34.000 23.000 L 35.000 23.000 L 35.000 24.000 L 34.000 24.000 Z" fill-rule="evenodd"/>
<path fill="#7FA729" fill-opacity="0.906" d="M 36.000 40.000 L 37.000 40.000 L 37.000 41.000 L 36.000 41.000 Z" fill-rule="evenodd"/>
<path fill="#5FBCD3" fill-opacity="0.910" d="M 18.000 49.000 L 19.000 49.000 L 19.000 50.000 L 18.000 50.000 Z" fill-rule="evenodd"/>
<path fill="#5FBCD3" fill-opacity="0.914" d="M 20.000 12.000 L 21.000 12.000 L 21.000 13.000 L 20.000 13.000 Z" fill-rule="evenodd"/>
<path fill="#5FBDD3" fill-opacity="0.918" d="M 16.000 4.000 L 17.000 4.000 L 17.000 5.000 L 16.000 5.000 Z M 41.000 56.000 L 42.000 56.000 L 42.000 57.000 L 41.000 57.000 Z" fill-rule="evenodd"/>
<path fill="#5FBCD3" fill-opacity="0.922" d="M 45.000 3.000 L 46.000 3.000 L 46.000 4.000 L 45.000 4.000 Z" fill-rule="evenodd"/>
<path fill="#5FBCD3" fill-opacity="0.925" d="M 47.000 36.000 L 48.000 36.000 L 48.000 37.000 L 47.000 37.000 Z M 47.000 59.000 L 48.000 59.000 L 48.000 60.000 L 47.000 60.000 Z" fill-rule="evenodd"/>
<path fill="#80A728" fill-opacity="0.925" d="M 36.000 24.000 L 37.000 24.000 L 37.000 25.000 L 36.000 25.000 Z" fill-rule="evenodd"/>
<path fill="#5FBCD3" fill-opacity="0.929" d="M 6.000 13.000 L 7.000 13.000 L 7.000 14.000 L 6.000 14.000 Z M 63.000 30.000 L 64.000 30.000 L 64.000 31.000 L 63.000 31.000 Z M 32.000 56.000 L 33.000 56.000 L 33.000 57.000 L 32.000 57.000 Z" fill-rule="evenodd"/>
<path fill="#7FA728" fill-opacity="0.929" d="M 40.000 29.000 L 41.000 29.000 L 41.000 30.000 L 40.000 30.000 Z" fill-rule="evenodd"/>
<path fill="#5FBCD3" fill-opacity="0.933" d="M 33.000 0.000 L 34.000 0.000 L 34.000 1.000 L 33.000 1.000 Z M 29.000 12.000 L 30.000 12.000 L 30.000 13.000 L 29.000 13.000 Z M 6.000 14.000 L 20.000 14.000 L 20.000 15.000 L 6.000 15.000 Z M 29.000 14.000 L 45.000 14.000 L 45.000 15.000 L 29.000 15.000 Z M 54.000 14.000 L 58.000 14.000 L 58.000 15.000 L 54.000 15.000 Z M 2.000 22.000 L 17.000 22.000 L 17.000 23.000 L 2.000 23.000 Z M 52.000 22.000 L 62.000 22.000 L 62.000 23.000 L 52.000 23.000 Z M 14.000 32.000 L 15.000 32.000 L 15.000 33.000 L 14.000 33.000 Z M 63.000 33.000 L 64.000 33.000 L 64.000 34.000 L 63.000 34.000 Z M 2.000 41.000 L 12.000 41.000 L 12.000 42.000 L 2.000 42.000 Z M 46.000 41.000 L 62.000 41.000 L 62.000 42.000 L 46.000 42.000 Z M 6.000 49.000 L 9.000 49.000 L 9.000 50.000 L 6.000 50.000 Z M 19.000 49.000 L 34.000 49.000 L 34.000 50.000 L 19.000 50.000 Z M 44.000 49.000 L 58.000 49.000 L 58.000 50.000 L 44.000 50.000 Z M 18.000 60.000 L 19.000 60.000 L 19.000 61.000 L 18.000 61.000 Z" fill-rule="evenodd"/>
<path fill="#80A728" fill-opacity="0.933" d="M 39.000 27.000 L 40.000 27.000 L 40.000 28.000 L 39.000 28.000 Z" fill-rule="evenodd"/>
<path fill="#5FBCD3" fill-opacity="0.937" d="M 18.000 3.000 L 19.000 3.000 L 19.000 4.000 L 18.000 4.000 Z M 57.000 50.000 L 58.000 50.000 L 58.000 51.000 L 57.000 51.000 Z" fill-rule="evenodd"/>
<path fill="#5FBCD3" fill-opacity="0.941" d="M 46.000 9.000 L 47.000 9.000 L 47.000 10.000 L 46.000 10.000 Z M 57.000 13.000 L 58.000 13.000 L 58.000 14.000 L 57.000 14.000 Z M 0.000 30.000 L 1.000 30.000 L 1.000 31.000 L 0.000 31.000 Z M 0.000 33.000 L 1.000 33.000 L 1.000 34.000 L 0.000 34.000 Z" fill-rule="evenodd"/>
<path fill="#5FBCD3" fill-opacity="0.945" d="M 6.000 50.000 L 7.000 50.000 L 7.000 51.000 L 6.000 51.000 Z" fill-rule="evenodd"/>
<path fill="#5FBCD3" fill-opacity="0.949" d="M 13.000 6.000 L 14.000 6.000 L 14.000 7.000 L 13.000 7.000 Z M 50.000 57.000 L 51.000 57.000 L 51.000 58.000 L 50.000 58.000 Z M 45.000 60.000 L 46.000 60.000 L 46.000 61.000 L 45.000 61.000 Z" fill-rule="evenodd"/>
<path fill="#5FBCD3" fill-opacity="0.953" d="M 32.000 2.000 L 33.000 2.000 L 33.000 3.000 L 32.000 3.000 Z M 8.000 52.000 L 9.000 52.000 L 9.000 53.000 L 8.000 53.000 Z" fill-rule="evenodd"/>
<path fill="#5FBCD3" fill-opacity="0.957" d="M 16.000 25.000 L 17.000 25.000 L 17.000 26.000 L 16.000 26.000 Z" fill-rule="evenodd"/>
<path fill="#7FA728" fill-opacity="0.961" d="M 22.000 37.000 L 23.000 37.000 L 23.000 38.000 L 22.000 38.000 Z M 33.000 42.000 L 34.000 42.000 L 34.000 43.000 L 33.000 43.000 Z" fill-rule="evenodd"/>
<path fill="#5FBCD3" fill-opacity="0.965" d="M 22.000 5.000 L 23.000 5.000 L 23.000 6.000 L 22.000 6.000 Z" fill-rule="evenodd"/>
<path fill="#5FBCD3" fill-opacity="0.973" d="M 50.000 26.000 L 51.000 26.000 L 51.000 27.000 L 50.000 27.000 Z" fill-rule="evenodd"/>
<path fill="#80A728" fill-opacity="0.973" d="M 32.000 37.000 L 33.000 37.000 L 33.000 38.000 L 32.000 38.000 Z M 33.000 38.000 L 34.000 38.000 L 34.000 39.000 L 33.000 39.000 Z" fill-rule="evenodd"/>
<path fill="#5FBCD3" fill-opacity="0.976" d="M 63.000 31.000 L 64.000 31.000 L 64.000 32.000 L 63.000 32.000 Z" fill-rule="evenodd"/>
<path fill="#7FA628" fill-opacity="0.976" d="M 35.000 40.000 L 36.000 40.000 L 36.000 41.000 L 35.000 41.000 Z" fill-rule="evenodd"/>
<path fill="#7FA728" fill-opacity="0.976" d="M 35.000 33.000 L 36.000 33.000 L 36.000 34.000 L 35.000 34.000 Z M 36.000 34.000 L 37.000 34.000 L 37.000 35.000 L 36.000 35.000 Z M 37.000 35.000 L 38.000 35.000 L 38.000 36.000 L 37.000 36.000 Z M 38.000 36.000 L 39.000 36.000 L 39.000 37.000 L 38.000 37.000 Z M 34.000 39.000 L 35.000 39.000 L 35.000 40.000 L 34.000 40.000 Z M 26.000 41.000 L 27.000 41.000 L 27.000 42.000 L 26.000 42.000 Z" fill-rule="evenodd"/>
<path fill="#5FBCD3" fill-opacity="0.980" d="M 0.000 31.000 L 1.000 31.000 L 1.000 32.000 L 0.000 32.000 Z M 0.000 32.000 L 1.000 32.000 L 1.000 33.000 L 0.000 33.000 Z M 63.000 32.000 L 64.000 32.000 L 64.000 33.000 L 63.000 33.000 Z M 42.000 53.000 L 43.000 53.000 L 43.000 54.000 L 42.000 54.000 Z" fill-rule="evenodd"/>
<path fill="#7EA628" fill-opacity="0.980" d="M 39.000 37.000 L 40.000 37.000 L 40.000 38.000 L 39.000 38.000 Z" fill-rule="evenodd"/>
<path fill="#5FBCD3" fill-opacity="0.984" d="M 30.000 9.000 L 31.000 9.000 L 31.000 10.000 L 30.000 10.000 Z" fill-rule="evenodd"/>
<path fill="#5FBCD3" fill-opacity="0.988" d="M 45.000 12.000 L 46.000 12.000 L 46.000 13.000 L 45.000 13.000 Z M 48.000 33.000 L 49.000 33.000 L 49.000 34.000 L 48.000 34.000 Z M 31.000 59.000 L 32.000 59.000 L 32.000 60.000 L 31.000 60.000 Z" fill-rule="evenodd"/>
<path fill="#5FBCD3" fill-opacity="0.992" d="M 39.000 1.000 L 40.000 1.000 L 40.000 2.000 L 39.000 2.000 Z M 62.000 24.000 L 63.000 24.000 L 63.000 25.000 L 62.000 25.000 Z M 13.000 35.000 L 14.000 35.000 L 14.000 36.000 L 13.000 36.000 Z M 16.000 56.000 L 17.000 56.000 L 17.000 57.000 L 16.000 57.000 Z M 24.000 62.000 L 25.000 62.000 L 25.000 63.000 L 24.000 63.000 Z" fill-rule="evenodd"/>
<path fill="#7FA728" fill-opacity="0.992" d="M 37.000 25.000 L 38.000 25.000 L 38.000 26.000 L 37.000 26.000 Z M 22.000 28.000 L 23.000 28.000 L 23.000 29.000 L 22.000 29.000 Z" fill-rule="evenodd"/>
<path fill="#5FBCD3" fill-opacity="0.996" d="M 12.000 7.000 L 13.000 7.000 L 13.000 8.000 L 12.000 8.000 Z M 21.000 8.000 L 22.000 8.000 L 22.000 9.000 L 21.000 9.000 Z M 7.000 12.000 L 8.000 12.000 L 8.000 13.000 L 7.000 13.000 Z M 54.000 13.000 L 55.000 13.000 L 55.000 14.000 L 54.000 14.000 Z M 1.000 24.000 L 2.000 24.000 L 2.000 25.000 L 1.000 25.000 Z M 1.000 39.000 L 2.000 39.000 L 2.000 40.000 L 1.000 40.000 Z M 62.000 39.000 L 63.000 39.000 L 63.000 40.000 L 62.000 40.000 Z M 46.000 40.000 L 47.000 40.000 L 47.000 41.000 L 46.000 41.000 Z M 56.000 51.000 L 57.000 51.000 L 57.000 52.000 L 56.000 52.000 Z M 51.000 56.000 L 52.000 56.000 L 52.000 57.000 L 51.000 57.000 Z M 40.000 60.000 L 41.000 60.000 L 41.000 61.000 L 40.000 61.000 Z" fill-rule="evenodd"/>
<path fill="#7EA728" fill-opacity="0.996" d="M 28.000 23.000 L 29.000 23.000 L 29.000 24.000 L 28.000 24.000 Z M 38.000 26.000 L 39.000 26.000 L 39.000 27.000 L 38.000 27.000 Z M 21.000 34.000 L 22.000 34.000 L 22.000 35.000 L 21.000 35.000 Z" fill-rule="evenodd"/>
<path fill="#5FBCD3" d="M 33.000 1.000 L 39.000 1.000 L 39.000 2.000 L 33.000 2.000 Z M 21.000 2.000 L 23.000 2.000 L 23.000 3.000 L 21.000 3.000 Z M 33.000 2.000 L 43.000 2.000 L 43.000 3.000 L 33.000 3.000 Z M 19.000 3.000 L 23.000 3.000 L 23.000 4.000 L 19.000 4.000 Z M 32.000 3.000 L 45.000 3.000 L 45.000 4.000 L 32.000 4.000 Z M 17.000 4.000 L 23.000 4.000 L 23.000 5.000 L 17.000 5.000 Z M 32.000 4.000 L 47.000 4.000 L 47.000 5.000 L 32.000 5.000 Z M 15.000 5.000 L 22.000 5.000 L 22.000 6.000 L 15.000 6.000 Z M 32.000 5.000 L 48.000 5.000 L 48.000 6.000 L 32.000 6.000 Z M 14.000 6.000 L 22.000 6.000 L 22.000 7.000 L 14.000 7.000 Z M 31.000 6.000 L 47.000 6.000 L 47.000 7.000 L 31.000 7.000 Z M 13.000 7.000 L 22.000 7.000 L 22.000 8.000 L 13.000 8.000 Z M 31.000 7.000 L 47.000 7.000 L 47.000 8.000 L 31.000 8.000 Z M 11.000 8.000 L 21.000 8.000 L 21.000 9.000 L 11.000 9.000 Z M 31.000 8.000 L 47.000 8.000 L 47.000 9.000 L 31.000 9.000 Z M 10.000 9.000 L 21.000 9.000 L 21.000 10.000 L 10.000 10.000 Z M 31.000 9.000 L 46.000 9.000 L 46.000 10.000 L 31.000 10.000 Z M 9.000 10.000 L 21.000 10.000 L 21.000 11.000 L 9.000 11.000 Z M 30.000 10.000 L 46.000 10.000 L 46.000 11.000 L 30.000 11.000 Z M 8.000 11.000 L 21.000 11.000 L 21.000 12.000 L 8.000 12.000 Z M 30.000 11.000 L 46.000 11.000 L 46.000 12.000 L 30.000 12.000 Z M 55.000 11.000 L 56.000 11.000 L 56.000 12.000 L 55.000 12.000 Z M 8.000 12.000 L 20.000 12.000 L 20.000 13.000 L 8.000 13.000 Z M 30.000 12.000 L 45.000 12.000 L 45.000 13.000 L 30.000 13.000 Z M 55.000 12.000 L 57.000 12.000 L 57.000 13.000 L 55.000 13.000 Z M 7.000 13.000 L 20.000 13.000 L 20.000 14.000 L 7.000 14.000 Z M 29.000 13.000 L 45.000 13.000 L 45.000 14.000 L 29.000 14.000 Z M 55.000 13.000 L 57.000 13.000 L 57.000 14.000 L 55.000 14.000 Z M 2.000 23.000 L 17.000 23.000 L 17.000 24.000 L 2.000 24.000 Z M 51.000 23.000 L 62.000 23.000 L 62.000 24.000 L 51.000 24.000 Z M 2.000 24.000 L 17.000 24.000 L 17.000 25.000 L 2.000 25.000 Z M 51.000 24.000 L 62.000 24.000 L 62.000 25.000 L 51.000 25.000 Z M 1.000 25.000 L 16.000 25.000 L 16.000 26.000 L 1.000 26.000 Z M 51.000 25.000 L 63.000 25.000 L 63.000 26.000 L 51.000 26.000 Z M 1.000 26.000 L 16.000 26.000 L 16.000 27.000 L 1.000 27.000 Z M 51.000 26.000 L 63.000 26.000 L 63.000 27.000 L 51.000 27.000 Z M 1.000 27.000 L 16.000 27.000 L 16.000 28.000 L 1.000 28.000 Z M 50.000 27.000 L 63.000 27.000 L 63.000 28.000 L 50.000 28.000 Z M 1.000 28.000 L 16.000 28.000 L 16.000 29.000 L 1.000 29.000 Z M 50.000 28.000 L 63.000 28.000 L 63.000 29.000 L 50.000 29.000 Z M 1.000 29.000 L 15.000 29.000 L 15.000 30.000 L 1.000 30.000 Z M 50.000 29.000 L 63.000 29.000 L 63.000 30.000 L 50.000 30.000 Z M 1.000 30.000 L 15.000 30.000 L 15.000 31.000 L 1.000 31.000 Z M 49.000 30.000 L 63.000 30.000 L 63.000 31.000 L 49.000 31.000 Z M 1.000 31.000 L 15.000 31.000 L 15.000 32.000 L 1.000 32.000 Z M 49.000 31.000 L 63.000 31.000 L 63.000 32.000 L 49.000 32.000 Z M 1.000 32.000 L 14.000 32.000 L 14.000 33.000 L 1.000 33.000 Z M 49.000 32.000 L 63.000 32.000 L 63.000 33.000 L 49.000 33.000 Z M 1.000 33.000 L 14.000 33.000 L 14.000 34.000 L 1.000 34.000 Z M 49.000 33.000 L 63.000 33.000 L 63.000 34.000 L 49.000 34.000 Z M 1.000 34.000 L 14.000 34.000 L 14.000 35.000 L 1.000 35.000 Z M 48.000 34.000 L 63.000 34.000 L 63.000 35.000 L 48.000 35.000 Z M 1.000 35.000 L 13.000 35.000 L 13.000 36.000 L 1.000 36.000 Z M 48.000 35.000 L 63.000 35.000 L 63.000 36.000 L 48.000 36.000 Z M 1.000 36.000 L 13.000 36.000 L 13.000 37.000 L 1.000 37.000 Z M 48.000 36.000 L 63.000 36.000 L 63.000 37.000 L 48.000 37.000 Z M 1.000 37.000 L 13.000 37.000 L 13.000 38.000 L 1.000 38.000 Z M 47.000 37.000 L 63.000 37.000 L 63.000 38.000 L 47.000 38.000 Z M 1.000 38.000 L 13.000 38.000 L 13.000 39.000 L 1.000 39.000 Z M 47.000 38.000 L 63.000 38.000 L 63.000 39.000 L 47.000 39.000 Z M 2.000 39.000 L 12.000 39.000 L 12.000 40.000 L 2.000 40.000 Z M 47.000 39.000 L 62.000 39.000 L 62.000 40.000 L 47.000 40.000 Z M 2.000 40.000 L 12.000 40.000 L 12.000 41.000 L 2.000 41.000 Z M 47.000 40.000 L 62.000 40.000 L 62.000 41.000 L 47.000 41.000 Z M 7.000 50.000 L 9.000 50.000 L 9.000 51.000 L 7.000 51.000 Z M 18.000 50.000 L 34.000 50.000 L 34.000 51.000 L 18.000 51.000 Z M 43.000 50.000 L 57.000 50.000 L 57.000 51.000 L 43.000 51.000 Z M 7.000 51.000 L 9.000 51.000 L 9.000 52.000 L 7.000 52.000 Z M 18.000 51.000 L 34.000 51.000 L 34.000 52.000 L 18.000 52.000 Z M 43.000 51.000 L 56.000 51.000 L 56.000 52.000 L 43.000 52.000 Z M 18.000 52.000 L 34.000 52.000 L 34.000 53.000 L 18.000 53.000 Z M 43.000 52.000 L 56.000 52.000 L 56.000 53.000 L 43.000 53.000 Z M 17.000 53.000 L 33.000 53.000 L 33.000 54.000 L 17.000 54.000 Z M 43.000 53.000 L 55.000 53.000 L 55.000 54.000 L 43.000 54.000 Z M 17.000 54.000 L 33.000 54.000 L 33.000 55.000 L 17.000 55.000 Z M 42.000 54.000 L 54.000 54.000 L 54.000 55.000 L 42.000 55.000 Z M 17.000 55.000 L 33.000 55.000 L 33.000 56.000 L 17.000 56.000 Z M 42.000 55.000 L 53.000 55.000 L 53.000 56.000 L 42.000 56.000 Z M 17.000 56.000 L 32.000 56.000 L 32.000 57.000 L 17.000 57.000 Z M 42.000 56.000 L 51.000 56.000 L 51.000 57.000 L 42.000 57.000 Z M 16.000 57.000 L 32.000 57.000 L 32.000 58.000 L 16.000 58.000 Z M 41.000 57.000 L 50.000 57.000 L 50.000 58.000 L 41.000 58.000 Z M 16.000 58.000 L 32.000 58.000 L 32.000 59.000 L 16.000 59.000 Z M 41.000 58.000 L 49.000 58.000 L 49.000 59.000 L 41.000 59.000 Z M 17.000 59.000 L 31.000 59.000 L 31.000 60.000 L 17.000 60.000 Z M 41.000 59.000 L 47.000 59.000 L 47.000 60.000 L 41.000 60.000 Z M 19.000 60.000 L 31.000 60.000 L 31.000 61.000 L 19.000 61.000 Z M 41.000 60.000 L 45.000 60.000 L 45.000 61.000 L 41.000 61.000 Z M 21.000 61.000 L 31.000 61.000 L 31.000 62.000 L 21.000 62.000 Z M 40.000 61.000 L 43.000 61.000 L 43.000 62.000 L 40.000 62.000 Z M 25.000 62.000 L 31.000 62.000 L 31.000 63.000 L 25.000 63.000 Z" fill-rule="evenodd"/>
<path fill="#7FA728" d="M 29.000 23.000 L 34.000 23.000 L 34.000 24.000 L 29.000 24.000 Z M 26.000 24.000 L 36.000 24.000 L 36.000 25.000 L 26.000 25.000 Z M 25.000 25.000 L 37.000 25.000 L 37.000 26.000 L 25.000 26.000 Z M 24.000 26.000 L 38.000 26.000 L 38.000 27.000 L 24.000 27.000 Z M 23.000 27.000 L 39.000 27.000 L 39.000 28.000 L 23.000 28.000 Z M 23.000 28.000 L 40.000 28.000 L 40.000 29.000 L 23.000 29.000 Z M 22.000 29.000 L 40.000 29.000 L 40.000 30.000 L 22.000 30.000 Z M 22.000 30.000 L 41.000 30.000 L 41.000 31.000 L 22.000 31.000 Z M 21.000 31.000 L 41.000 31.000 L 41.000 32.000 L 21.000 32.000 Z M 21.000 32.000 L 41.000 32.000 L 41.000 33.000 L 21.000 33.000 Z M 21.000 33.000 L 34.000 33.000 L 34.000 34.000 L 21.000 34.000 Z M 36.000 33.000 L 41.000 33.000 L 41.000 34.000 L 36.000 34.000 Z M 22.000 34.000 L 33.000 34.000 L 33.000 35.000 L 22.000 35.000 Z M 37.000 34.000 L 41.000 34.000 L 41.000 35.000 L 37.000 35.000 Z M 22.000 35.000 L 32.000 35.000 L 32.000 36.000 L 22.000 36.000 Z M 38.000 35.000 L 41.000 35.000 L 41.000 36.000 L 38.000 36.000 Z M 22.000 36.000 L 32.000 36.000 L 32.000 37.000 L 22.000 37.000 Z M 39.000 36.000 L 40.000 36.000 L 40.000 37.000 L 39.000 37.000 Z M 23.000 37.000 L 32.000 37.000 L 32.000 38.000 L 23.000 38.000 Z M 23.000 38.000 L 33.000 38.000 L 33.000 39.000 L 23.000 39.000 Z M 38.000 38.000 L 39.000 38.000 L 39.000 39.000 L 38.000 39.000 Z M 24.000 39.000 L 34.000 39.000 L 34.000 40.000 L 24.000 40.000 Z M 37.000 39.000 L 40.000 39.000 L 40.000 40.000 L 37.000 40.000 Z M 25.000 40.000 L 35.000 40.000 L 35.000 41.000 L 25.000 41.000 Z M 37.000 40.000 L 41.000 40.000 L 41.000 41.000 L 37.000 41.000 Z M 27.000 41.000 L 36.000 41.000 L 36.000 42.000 L 27.000 42.000 Z M 38.000 41.000 L 42.000 41.000 L 42.000 42.000 L 38.000 42.000 Z M 29.000 42.000 L 33.000 42.000 L 33.000 43.000 L 29.000 43.000 Z M 39.000 42.000 L 43.000 42.000 L 43.000 43.000 L 39.000 43.000 Z M 40.000 43.000 L 43.000 43.000 L 43.000 44.000 L 40.000 44.000 Z M 41.000 44.000 L 42.000 44.000 L 42.000 45.000 L 41.000 45.000 Z" fill-rule="evenodd"/>
</svg>