<?xml version="1.0" encoding="UTF-8"?>
<svg xmlns="http://www.w3.org/2000/svg" xmlns:xlink="http://www.w3.org/1999/xlink" version="1.1" viewBox="0 0 77.2 76.4">
  <defs>
    <style>
      .cls-1 {
        fill: none;
      }

      .cls-2 {
        fill: #fff;
      }

      .cls-3 {
        fill: #60bcd3;
      }

      .cls-4 {
        fill: #7fa828;
      }

      .cls-5 {
        clip-path: url(#clippath);
      }
    </style>
    <clipPath id="clippath">
      <rect class="cls-1" x="4" y="2.4" width="70.8" height="70.8"/>
    </clipPath>
  </defs>
  <!-- Generator: Adobe Illustrator 28.6.0, SVG Export Plug-In . SVG Version: 1.2.0 Build 709)  -->
  <g>
    <g id="Ebene_1">
      <g class="cls-5">
        <path class="cls-4" d="M46.7,46.1c4.6-4.3,4.7-11.5.4-16.1-4.3-4.6-11.5-4.7-16.1-.4-4.6,4.3-4.7,11.5-.4,16.1,4.3,4.6,11.5,4.7,16.1.4"/>
        <path class="cls-4" d="M43.2,45.9l6.4,6.7s.6-.5,1.7-1.5c1.1-1.1,1.6-1.7,1.6-1.7l-6.4-6.7-3.3,3.1Z"/>
        <path class="cls-2" d="M39.1,41.6l4,4.2s.6-.5,1.7-1.5c1.1-1.1,1.6-1.6,1.6-1.6l-4-4.2-3.3,3.1Z"/>
        <path class="cls-3" d="M64.1,18.7h5.2c-1.1-1.7-2.3-3.3-3.7-4.8l-1.5,4.8ZM55,48.3h18.3c2-6.6,2.1-13.7.1-20.4h-12.2l-6.2,20.4ZM52.2,57.5l-4.5,14.8c5.9-1.4,11.5-4.3,16.2-8.7,2-1.9,3.7-3.9,5.1-6.1h-16.8ZM24.5,57.5l-3.3,10.7c5.1,3.1,10.8,4.8,16.6,5l4.8-15.7h-18.1ZM15,57.5h-4.9c1,1.5,2.2,3,3.5,4.4l1.4-4.4ZM24,27.9H5.4c-1.9,6.7-1.8,13.8.3,20.4h12.1l6.2-20.4ZM26.8,18.7l4.8-15.6c-6,1.3-11.8,4.3-16.6,8.8-2.2,2.1-4,4.3-5.5,6.7h17.4ZM54.5,18.7l3.4-11.1c-5.1-3.1-10.8-4.9-16.5-5.2l-5,16.3h18.1Z"/>
      </g>
    </g>
  </g>
</svg>